<?xml version="1.0" standalone="no"?>
<!DOCTYPE svg PUBLIC "-//W3C//DTD SVG 20010904//EN"
 "http://www.w3.org/TR/2001/REC-SVG-20010904/DTD/svg10.dtd">
<svg version="1.0" xmlns="http://www.w3.org/2000/svg"
 width="2176.000000pt" height="2272.000000pt" viewBox="0 0 2176.000000 2272.000000"
 preserveAspectRatio="xMidYMid meet">

<g transform="translate(0.000000,2272.000000) scale(0.100000,-0.100000)"
fill="#000000" stroke="none">
<path d="M10235 20000 c-60 -5 -132 -13 -160 -19 -27 -6 -104 -13 -170 -15
-69 -3 -141 -12 -170 -21 -27 -9 -92 -18 -144 -21 -53 -2 -121 -13 -158 -24
-36 -11 -87 -20 -113 -20 -27 0 -77 -9 -112 -20 -34 -11 -82 -20 -104 -20 -23
0 -71 -11 -108 -25 -41 -15 -76 -23 -94 -19 -18 4 -47 -3 -82 -19 -31 -14 -73
-25 -97 -25 -23 1 -59 -9 -83 -21 -22 -11 -59 -21 -81 -21 -26 0 -50 -7 -66
-20 -15 -12 -41 -20 -62 -20 -20 0 -61 -12 -91 -26 -30 -14 -62 -23 -72 -21
-9 3 -34 -4 -55 -16 -21 -11 -55 -21 -75 -23 -20 -1 -49 -11 -64 -23 -15 -12
-41 -21 -59 -21 -18 0 -44 -9 -58 -20 -14 -11 -38 -20 -54 -20 -15 0 -41 -9
-58 -20 -16 -11 -42 -20 -56 -20 -14 0 -41 -11 -60 -25 -20 -15 -42 -24 -53
-21 -11 3 -31 -3 -45 -14 -15 -10 -43 -21 -63 -25 -20 -4 -44 -16 -54 -26 -9
-10 -28 -19 -41 -19 -14 0 -36 -9 -50 -20 -14 -11 -35 -20 -47 -20 -11 0 -32
-9 -46 -20 -14 -11 -31 -20 -38 -20 -7 0 -34 -11 -60 -25 -26 -14 -53 -25 -60
-25 -8 0 -27 -11 -44 -25 -16 -14 -36 -25 -45 -25 -8 0 -26 -9 -40 -20 -14
-11 -34 -20 -44 -20 -11 0 -28 -9 -39 -20 -11 -11 -31 -20 -45 -20 -13 0 -28
-6 -32 -13 -4 -7 -56 -36 -114 -64 -58 -28 -111 -59 -118 -67 -8 -9 -22 -16
-32 -16 -10 0 -30 -11 -45 -25 -15 -14 -35 -25 -44 -25 -10 0 -24 -7 -31 -16
-7 -9 -37 -27 -66 -40 -29 -13 -64 -35 -77 -49 -14 -14 -31 -25 -39 -25 -14 0
-132 -75 -172 -109 -11 -9 -40 -27 -65 -38 -25 -12 -50 -30 -56 -40 -6 -10
-37 -31 -68 -47 -31 -16 -56 -32 -56 -36 0 -7 -21 -22 -102 -72 -16 -10 -58
-43 -93 -73 -36 -30 -71 -55 -78 -55 -7 0 -37 -23 -67 -51 -30 -28 -86 -71
-123 -96 -38 -26 -77 -58 -88 -71 -10 -14 -72 -67 -137 -119 -119 -96 -729
-696 -838 -824 -32 -38 -101 -118 -153 -177 -51 -59 -109 -131 -129 -161 -20
-29 -50 -68 -67 -85 -35 -35 -85 -101 -85 -112 0 -4 -19 -30 -43 -58 -24 -28
-54 -69 -67 -91 -13 -22 -41 -60 -61 -85 -20 -25 -40 -55 -44 -67 -3 -13 -10
-23 -15 -23 -10 0 -70 -87 -70 -102 0 -6 -14 -26 -31 -46 -17 -20 -38 -52 -46
-71 -8 -20 -21 -39 -28 -44 -7 -4 -27 -36 -45 -71 -17 -35 -37 -67 -45 -70 -8
-3 -15 -14 -15 -25 0 -11 -7 -26 -15 -34 -19 -19 -51 -73 -71 -119 -9 -21 -20
-38 -24 -38 -5 0 -14 -15 -20 -34 -6 -19 -18 -40 -26 -46 -7 -7 -14 -19 -14
-27 0 -8 -11 -28 -25 -45 -14 -16 -25 -36 -25 -45 0 -8 -9 -26 -20 -40 -11
-14 -20 -32 -20 -40 0 -8 -9 -26 -20 -40 -11 -14 -20 -33 -20 -43 0 -10 -9
-29 -20 -43 -11 -14 -20 -31 -20 -39 0 -8 -11 -29 -25 -48 -14 -19 -25 -40
-25 -48 0 -8 -9 -25 -20 -39 -11 -14 -20 -35 -20 -45 0 -11 -9 -31 -20 -45
-11 -14 -20 -35 -20 -47 0 -11 -9 -32 -20 -46 -11 -14 -20 -35 -20 -46 0 -12
-9 -32 -19 -46 -11 -13 -23 -38 -27 -54 -3 -16 -12 -38 -18 -49 -7 -11 -18
-39 -24 -61 -7 -23 -19 -47 -27 -54 -8 -7 -15 -25 -15 -41 0 -16 -9 -43 -20
-61 -11 -18 -20 -45 -20 -59 0 -15 -9 -38 -20 -52 -11 -14 -20 -38 -20 -55 0
-16 -9 -41 -20 -54 -10 -14 -22 -45 -26 -69 -4 -24 -15 -58 -25 -75 -11 -17
-19 -46 -19 -64 0 -17 -9 -43 -20 -57 -12 -16 -20 -41 -20 -66 0 -22 -8 -54
-19 -71 -10 -17 -21 -53 -25 -80 -3 -27 -13 -63 -22 -80 -8 -17 -18 -51 -21
-76 -3 -25 -14 -64 -25 -88 -10 -24 -18 -60 -18 -80 0 -20 -9 -57 -20 -81 -11
-24 -20 -65 -20 -91 0 -27 -11 -77 -26 -116 -17 -46 -24 -78 -19 -100 3 -17 0
-44 -6 -60 -24 -61 -39 -137 -39 -193 0 -32 -7 -75 -16 -96 -8 -20 -17 -76
-20 -124 -5 -89 -20 -198 -36 -264 -5 -20 -11 -104 -14 -185 -2 -81 -10 -201
-16 -267 -14 -155 -14 -815 0 -970 6 -66 14 -185 16 -265 3 -80 13 -176 21
-215 9 -38 20 -127 25 -196 5 -72 16 -143 24 -164 9 -21 16 -64 16 -96 0 -56
15 -132 39 -193 6 -16 9 -43 6 -60 -5 -22 2 -54 19 -100 15 -39 26 -89 26
-116 0 -26 9 -67 20 -91 11 -24 20 -61 20 -81 0 -20 8 -56 18 -80 11 -24 22
-64 25 -91 4 -26 14 -61 22 -77 8 -16 18 -51 21 -77 4 -27 15 -62 25 -79 11
-17 19 -49 19 -71 0 -25 8 -50 20 -66 11 -14 20 -40 20 -57 0 -18 8 -47 19
-64 10 -17 21 -51 25 -75 4 -24 16 -55 26 -69 11 -13 20 -38 20 -54 0 -17 9
-41 20 -55 11 -14 20 -37 20 -52 0 -14 9 -41 20 -59 11 -18 20 -45 20 -61 0
-16 7 -34 15 -41 8 -7 20 -31 27 -54 6 -22 17 -50 24 -61 6 -11 15 -33 18 -49
4 -16 16 -41 27 -54 10 -14 19 -34 19 -46 0 -11 9 -32 20 -46 11 -14 20 -35
20 -46 0 -12 9 -33 20 -47 11 -14 20 -34 20 -45 0 -10 9 -31 20 -45 11 -14 20
-31 20 -39 0 -8 11 -29 25 -48 14 -19 25 -40 25 -48 0 -8 9 -25 20 -39 11 -14
20 -33 20 -43 0 -10 9 -29 20 -43 11 -14 20 -32 20 -40 0 -8 9 -26 20 -40 11
-14 20 -32 20 -40 0 -9 11 -29 25 -45 14 -17 25 -37 25 -45 0 -8 7 -20 14 -27
8 -6 20 -27 26 -46 6 -19 15 -34 20 -34 4 0 15 -17 24 -37 20 -47 52 -101 71
-120 8 -8 15 -23 15 -34 0 -11 7 -22 15 -25 8 -3 28 -35 45 -70 18 -35 38 -67
45 -71 7 -5 20 -24 28 -44 8 -19 29 -51 46 -71 17 -20 31 -40 31 -46 0 -15 60
-102 70 -102 5 0 12 -10 15 -22 4 -13 24 -43 44 -68 20 -25 48 -63 61 -85 13
-22 43 -63 67 -91 24 -28 43 -54 43 -58 0 -11 50 -77 85 -112 17 -17 47 -56
67 -85 20 -30 78 -102 129 -161 52 -59 121 -139 153 -177 104 -123 717 -726
826 -814 58 -46 121 -101 140 -121 19 -20 64 -56 100 -81 36 -24 90 -66 120
-94 30 -28 60 -51 67 -51 7 0 42 -25 78 -55 35 -30 77 -63 93 -73 82 -51 102
-65 102 -73 0 -5 11 -14 25 -19 31 -12 87 -50 98 -67 4 -7 32 -24 61 -38 30
-14 60 -32 67 -41 6 -8 41 -31 76 -50 34 -20 63 -40 63 -45 0 -5 9 -9 20 -9
12 0 32 -11 46 -25 13 -14 48 -36 77 -49 29 -13 59 -31 66 -40 7 -9 21 -16 31
-16 9 0 29 -11 44 -25 15 -14 35 -25 45 -25 10 0 24 -7 32 -16 7 -8 60 -39
118 -67 58 -28 110 -57 114 -64 4 -7 19 -13 32 -13 14 0 34 -9 45 -20 11 -11
28 -20 39 -20 10 0 30 -9 44 -20 14 -11 32 -20 40 -20 9 0 29 -11 45 -25 17
-14 41 -25 54 -25 14 0 33 -9 42 -19 10 -11 32 -23 50 -27 17 -3 43 -15 58
-25 14 -11 35 -19 46 -19 10 0 31 -9 45 -20 14 -11 36 -20 50 -20 13 0 32 -9
41 -19 10 -10 34 -22 54 -26 20 -4 48 -15 63 -25 14 -11 34 -17 45 -14 11 3
33 -6 53 -21 19 -14 46 -25 60 -25 14 0 40 -9 56 -20 17 -11 43 -20 58 -20 16
0 40 -9 54 -20 14 -11 40 -20 58 -20 18 0 44 -9 59 -21 15 -12 44 -22 64 -23
20 -2 54 -12 75 -23 21 -12 46 -19 56 -16 10 3 41 -7 69 -21 29 -15 68 -26 90
-26 24 0 49 -8 65 -20 16 -13 40 -20 66 -20 23 0 61 -10 84 -21 23 -12 60 -22
82 -21 22 0 65 -11 95 -25 35 -16 64 -23 82 -19 18 4 53 -4 94 -19 37 -14 85
-25 108 -25 22 0 70 -9 104 -20 35 -11 85 -20 112 -20 26 0 78 -9 115 -21 37
-11 93 -21 124 -21 54 0 195 -23 213 -34 5 -3 75 -10 156 -15 81 -4 183 -14
227 -21 118 -18 1300 -18 1410 0 44 8 143 18 220 22 77 5 167 15 200 24 33 8
83 15 111 16 63 0 157 16 207 35 20 8 61 15 91 15 29 0 75 7 102 16 27 8 83
19 125 24 43 5 92 16 110 25 18 10 55 18 83 20 28 1 73 12 99 23 27 12 66 22
88 22 22 0 57 9 79 20 22 11 55 20 75 20 20 0 53 9 75 20 22 11 54 20 72 20
18 0 47 9 63 20 17 11 47 20 70 20 24 0 56 10 80 25 22 14 54 25 70 25 17 0
44 9 60 20 17 11 43 20 58 20 16 0 40 9 54 20 14 11 40 20 58 20 18 0 44 9 58
20 14 11 38 20 54 20 16 0 44 11 63 25 19 14 45 25 59 25 14 0 34 7 44 15 11
7 36 16 57 20 21 4 46 15 56 26 9 10 29 19 44 19 15 0 35 9 45 20 10 11 30 20
44 20 14 0 37 9 51 20 14 11 32 20 40 20 21 0 556 268 570 285 7 8 21 15 31
15 10 0 29 11 43 25 14 14 34 25 44 25 11 0 25 7 32 14 6 8 33 25 58 37 26 12
61 33 79 45 17 13 39 24 48 24 8 0 18 7 21 15 3 8 35 29 69 46 35 17 72 40 81
50 9 10 23 19 30 19 7 0 38 20 68 45 31 25 62 45 69 45 8 0 34 17 58 38 24 21
56 43 71 49 15 7 44 27 65 46 21 19 59 46 84 61 25 14 61 41 80 59 19 18 61
50 93 71 33 22 78 57 100 79 23 22 70 59 106 82 36 24 85 65 110 92 25 26 82
75 125 108 116 87 657 626 781 777 57 70 122 144 144 164 22 21 57 62 77 92
19 30 69 93 109 140 41 47 74 90 74 95 0 5 26 41 58 80 31 40 62 79 67 88 39
63 67 99 75 99 6 0 10 6 10 13 0 12 55 97 69 107 4 3 20 28 36 55 16 28 38 61
51 75 12 14 31 44 43 68 12 24 31 52 41 62 11 11 20 29 20 39 0 10 6 21 14 24
8 3 29 35 46 71 17 36 38 70 46 77 8 6 14 19 14 29 0 10 7 24 17 31 9 8 22 28
30 44 7 17 27 52 43 78 16 26 32 58 36 72 3 13 14 31 25 41 10 9 19 25 19 34
0 10 9 29 20 43 11 14 20 31 20 39 0 8 11 29 25 48 14 19 25 40 25 48 0 8 9
25 20 39 11 14 20 32 20 40 0 8 9 26 20 40 11 14 20 33 20 42 0 9 9 30 20 46
11 17 20 38 20 47 0 9 11 30 25 46 14 17 25 40 25 52 0 12 9 33 20 47 11 14
20 35 20 47 0 11 9 35 20 51 11 17 20 40 20 51 0 12 8 32 19 45 10 13 22 39
26 58 4 19 16 48 26 65 10 17 19 41 19 52 0 12 9 33 20 47 11 14 20 38 20 54
0 15 9 42 20 58 11 17 20 41 20 55 0 14 9 41 19 61 11 20 23 54 27 75 3 22 15
53 25 70 11 17 19 44 19 60 0 16 9 44 20 62 11 18 20 47 20 65 0 18 9 49 20
70 11 20 20 52 20 69 1 18 9 51 20 73 11 22 19 57 20 78 0 21 11 64 25 97 14
33 25 75 25 94 0 19 9 55 20 81 11 26 20 67 20 91 0 25 9 70 20 101 11 32 20
79 20 105 0 26 6 67 14 90 21 62 29 109 27 143 -1 29 9 87 30 170 6 22 14 94
19 160 5 66 14 143 20 170 46 201 46 1629 0 1830 -6 28 -15 104 -19 170 -5 66
-11 129 -14 140 -22 76 -37 159 -36 187 2 37 -6 82 -27 146 -8 23 -14 65 -14
92 0 27 -9 72 -20 100 -11 28 -20 73 -20 100 0 26 -9 69 -20 95 -11 26 -20 62
-20 81 0 19 -11 61 -25 94 -14 33 -25 76 -25 97 -1 21 -9 56 -20 78 -11 22
-19 55 -20 73 0 17 -9 49 -20 69 -11 21 -20 52 -20 70 0 18 -9 47 -20 65 -11
18 -20 46 -20 62 0 16 -8 43 -19 60 -10 17 -22 48 -25 70 -4 21 -16 55 -27 75
-10 20 -19 47 -19 61 0 14 -9 39 -20 55 -11 17 -20 43 -20 58 0 16 -9 40 -20
54 -11 14 -20 35 -20 47 0 11 -9 35 -19 52 -10 17 -22 46 -26 65 -4 19 -16 45
-26 58 -11 13 -19 33 -19 45 0 11 -9 35 -20 51 -11 17 -20 40 -20 51 0 12 -9
33 -20 47 -11 14 -20 35 -20 47 0 12 -11 35 -25 52 -14 16 -25 37 -25 46 0 9
-9 31 -20 47 -11 17 -20 37 -20 46 0 9 -9 28 -20 42 -11 14 -20 32 -20 40 0 8
-9 26 -20 40 -11 14 -20 31 -20 39 0 8 -11 29 -25 48 -14 19 -25 40 -25 48 0
8 -9 25 -20 39 -11 14 -20 33 -20 43 0 9 -9 25 -19 34 -11 10 -22 28 -25 41
-4 14 -20 46 -36 72 -16 26 -36 62 -43 78 -8 17 -21 36 -30 44 -10 7 -17 21
-17 31 0 10 -6 23 -14 29 -8 7 -29 41 -46 77 -17 36 -38 68 -46 71 -8 3 -14
14 -14 24 0 10 -8 27 -18 37 -9 9 -30 40 -46 67 -16 28 -36 59 -46 70 -9 11
-29 43 -45 70 -16 28 -32 52 -36 55 -14 10 -69 95 -69 108 0 6 -4 12 -10 12
-8 0 -36 36 -75 99 -5 9 -36 48 -67 88 -32 39 -58 75 -58 80 0 5 -34 49 -75
97 -42 48 -87 106 -102 129 -14 23 -58 75 -97 117 -40 41 -108 120 -153 175
-102 127 -652 670 -758 750 -43 33 -100 82 -125 108 -25 27 -74 68 -110 92
-36 23 -83 60 -106 82 -22 22 -67 57 -100 79 -32 21 -74 53 -93 71 -19 18 -55
45 -80 59 -25 15 -63 42 -84 61 -21 19 -50 39 -65 46 -15 6 -47 28 -71 49 -24
21 -50 38 -58 38 -7 0 -38 20 -69 45 -30 25 -61 45 -68 45 -7 0 -21 9 -30 19
-9 10 -46 33 -81 50 -34 17 -66 38 -69 46 -3 8 -13 15 -21 15 -9 0 -31 11 -48
24 -18 12 -53 33 -79 45 -25 12 -52 29 -58 37 -7 7 -21 14 -32 14 -10 0 -30
11 -44 25 -14 14 -33 25 -43 25 -10 0 -24 7 -31 15 -14 17 -549 285 -568 285
-8 0 -25 9 -39 20 -14 11 -38 20 -53 20 -15 0 -35 9 -45 20 -10 11 -30 20 -45
20 -15 0 -35 9 -44 19 -10 11 -35 22 -56 26 -21 4 -46 13 -57 20 -10 8 -30 15
-44 15 -14 0 -40 11 -59 25 -19 14 -47 25 -63 25 -16 0 -40 9 -54 20 -14 11
-40 20 -58 20 -18 0 -44 9 -58 20 -14 11 -38 20 -54 20 -15 0 -41 9 -58 20
-16 11 -43 20 -60 20 -16 0 -48 11 -70 25 -24 15 -56 25 -80 25 -23 0 -53 9
-70 20 -16 11 -45 20 -63 20 -18 0 -50 9 -72 20 -22 11 -55 20 -75 20 -20 0
-53 9 -75 20 -22 11 -57 20 -79 20 -22 0 -61 10 -88 22 -26 11 -71 22 -99 23
-28 2 -65 10 -83 20 -18 9 -67 20 -110 25 -42 5 -98 16 -125 24 -27 9 -73 16
-102 16 -30 0 -71 7 -91 15 -50 19 -144 35 -207 35 -28 1 -78 8 -111 16 -33 9
-125 20 -205 25 -80 5 -172 14 -205 20 -75 13 -1184 21 -1340 9z m1035 -110
c129 -4 296 -15 370 -23 74 -9 169 -18 210 -21 41 -3 98 -10 125 -16 28 -6 97
-17 155 -25 163 -21 298 -45 381 -66 42 -10 92 -19 111 -19 18 0 59 -9 91 -20
31 -11 70 -20 86 -20 17 0 52 -8 78 -19 26 -10 73 -22 103 -26 30 -4 67 -13
81 -21 15 -7 51 -18 80 -23 30 -5 75 -16 102 -25 110 -37 145 -48 192 -61 65
-18 139 -43 193 -66 23 -11 52 -19 63 -19 11 0 37 -9 59 -20 22 -11 46 -20 55
-20 9 0 33 -9 53 -19 20 -11 71 -32 112 -47 41 -15 93 -35 115 -44 22 -9 65
-27 95 -39 59 -24 76 -32 240 -106 103 -46 122 -56 158 -74 9 -6 49 -25 87
-44 39 -18 80 -39 93 -45 12 -7 32 -17 45 -24 73 -38 164 -88 252 -138 55 -31
107 -60 115 -64 8 -3 35 -20 60 -36 25 -16 61 -39 80 -50 44 -25 44 -25 214
-137 230 -150 577 -402 692 -502 23 -20 61 -52 85 -71 225 -179 799 -722 863
-816 11 -18 65 -80 119 -140 216 -236 467 -563 694 -904 123 -186 159 -242
194 -303 19 -33 43 -74 54 -93 11 -18 44 -75 73 -126 29 -51 57 -100 62 -108
5 -8 28 -51 50 -95 45 -86 68 -131 82 -155 4 -8 13 -26 19 -40 6 -14 15 -32
20 -40 5 -8 14 -26 20 -40 34 -78 61 -137 70 -150 5 -8 14 -26 20 -40 6 -14
19 -42 30 -62 10 -20 19 -42 19 -49 0 -11 12 -38 66 -154 13 -28 24 -56 24
-63 0 -7 9 -30 20 -52 11 -22 20 -47 20 -56 0 -10 6 -25 14 -33 7 -9 21 -42
30 -73 9 -31 21 -60 26 -63 6 -3 10 -17 10 -30 0 -14 11 -49 25 -79 14 -30 25
-61 25 -69 0 -8 9 -34 20 -58 11 -24 20 -55 20 -69 0 -14 8 -41 18 -60 11 -19
22 -54 26 -78 3 -24 11 -51 16 -60 10 -17 40 -121 61 -212 6 -25 19 -74 29
-110 22 -78 46 -178 64 -277 8 -40 17 -76 20 -81 3 -5 10 -43 16 -83 6 -41 19
-109 30 -151 11 -43 20 -94 20 -115 0 -21 9 -87 20 -148 11 -60 24 -153 30
-205 5 -52 12 -108 15 -125 2 -16 9 -120 15 -230 5 -110 15 -224 20 -254 13
-71 13 -791 0 -862 -5 -30 -15 -144 -20 -254 -6 -110 -13 -213 -15 -230 -3
-16 -10 -73 -15 -125 -6 -52 -19 -144 -30 -205 -11 -60 -20 -127 -20 -148 0
-21 -9 -72 -20 -115 -11 -42 -24 -110 -30 -151 -6 -40 -13 -78 -16 -83 -3 -5
-12 -41 -20 -81 -21 -112 -43 -207 -65 -272 -10 -33 -19 -69 -19 -80 0 -19
-38 -154 -62 -220 -6 -16 -16 -55 -23 -85 -7 -30 -20 -68 -29 -85 -9 -16 -16
-41 -16 -55 0 -14 -9 -45 -20 -69 -11 -24 -20 -50 -20 -58 0 -8 -11 -39 -25
-69 -14 -30 -25 -65 -25 -79 0 -13 -4 -27 -10 -30 -5 -3 -17 -32 -26 -63 -9
-31 -23 -64 -30 -73 -8 -8 -14 -23 -14 -33 0 -9 -9 -34 -20 -56 -11 -22 -20
-45 -20 -52 0 -7 -11 -35 -24 -63 -54 -116 -66 -143 -66 -154 0 -7 -9 -29 -19
-49 -11 -20 -24 -48 -30 -62 -6 -14 -15 -32 -20 -40 -5 -8 -21 -40 -34 -70
-26 -58 -82 -174 -96 -200 -22 -41 -43 -82 -81 -155 -22 -44 -45 -87 -50 -95
-11 -18 -108 -188 -130 -228 -51 -91 -122 -204 -256 -406 -121 -181 -159 -235
-289 -411 -94 -126 -303 -382 -402 -490 -54 -59 -112 -126 -129 -149 -91 -120
-623 -623 -853 -806 -24 -19 -62 -51 -85 -71 -50 -44 -373 -287 -476 -358
-101 -71 -351 -236 -370 -244 -8 -4 -35 -21 -60 -37 -25 -16 -59 -36 -77 -45
-18 -9 -37 -23 -44 -31 -6 -8 -16 -14 -21 -14 -5 0 -55 -26 -111 -58 -107 -62
-221 -124 -297 -162 -11 -6 -49 -26 -86 -45 -36 -19 -71 -35 -77 -35 -7 0 -23
-9 -37 -20 -14 -11 -30 -20 -37 -20 -6 0 -56 -21 -110 -46 -128 -60 -167 -77
-233 -105 -30 -12 -73 -30 -95 -39 -118 -50 -254 -102 -280 -109 -16 -4 -44
-15 -62 -24 -18 -10 -41 -17 -52 -17 -11 0 -40 -8 -63 -19 -54 -23 -128 -48
-193 -66 -27 -8 -70 -21 -95 -29 -97 -33 -147 -48 -190 -56 -25 -4 -63 -15
-85 -23 -22 -8 -68 -20 -102 -27 -35 -6 -79 -18 -98 -25 -19 -8 -48 -15 -65
-15 -17 0 -56 -9 -87 -20 -32 -11 -73 -20 -91 -20 -19 0 -69 -9 -111 -19 -83
-21 -218 -45 -381 -66 -58 -8 -127 -19 -155 -25 -27 -6 -86 -13 -130 -16 -44
-3 -136 -12 -205 -20 -325 -38 -1211 -38 -1560 0 -74 8 -164 17 -200 19 -85 6
-336 43 -426 62 -38 9 -101 20 -140 25 -38 5 -96 16 -129 24 -33 9 -72 16 -87
16 -15 0 -56 9 -90 19 -35 10 -85 23 -113 29 -74 14 -186 41 -220 53 -16 6
-55 17 -85 23 -51 12 -101 27 -210 62 -25 9 -67 21 -95 29 -55 15 -126 39
-197 67 -26 10 -54 18 -63 18 -10 0 -34 8 -54 19 -37 19 -68 30 -161 61 -30
10 -68 25 -85 34 -16 9 -37 16 -45 16 -8 0 -28 9 -45 20 -16 11 -36 20 -43 20
-7 0 -39 12 -70 26 -31 14 -77 35 -102 46 -87 39 -106 47 -200 91 -52 24 -106
49 -120 55 -14 7 -32 16 -40 22 -8 5 -45 23 -82 40 -37 17 -72 38 -79 46 -6 8
-18 14 -26 14 -11 0 -113 53 -193 100 -8 5 -46 28 -85 50 -38 22 -110 65 -159
95 -49 30 -90 55 -92 55 -7 0 -356 233 -434 291 -60 44 -342 258 -410 311
-261 203 -848 762 -1031 983 -41 50 -87 104 -103 120 -29 31 -256 314 -336
418 -73 95 -223 308 -275 389 -5 9 -27 40 -48 70 -20 30 -37 60 -37 65 0 5 -9
18 -20 28 -11 10 -20 22 -20 26 0 4 -17 34 -39 66 -40 61 -119 195 -186 318
-22 40 -45 79 -51 86 -6 8 -36 66 -68 129 -31 63 -61 122 -66 130 -6 8 -14 26
-20 40 -5 14 -14 32 -19 40 -22 36 -61 121 -61 133 0 8 -9 26 -20 40 -11 14
-20 30 -20 36 0 6 -18 48 -39 93 -21 46 -42 94 -46 108 -4 14 -16 41 -26 60
-11 19 -19 42 -19 50 0 9 -5 21 -10 26 -11 11 -50 113 -72 184 -5 19 -14 40
-20 47 -5 7 -16 34 -23 60 -14 45 -50 148 -72 203 -6 14 -14 41 -17 60 -4 19
-13 51 -21 70 -7 19 -25 76 -40 125 -14 50 -34 117 -45 150 -11 33 -20 71 -20
85 0 14 -9 45 -20 69 -11 24 -20 55 -20 70 0 14 -9 58 -19 96 -30 106 -71 297
-71 325 0 14 -9 58 -20 98 -11 39 -20 86 -20 104 0 18 -7 67 -15 108 -9 41
-22 131 -30 200 -7 69 -18 150 -24 180 -6 30 -16 134 -21 230 -6 96 -15 227
-20 290 -11 146 -11 719 0 870 5 63 13 196 19 295 6 99 16 203 22 230 5 28 16
109 24 180 7 72 21 161 29 200 9 38 16 87 16 108 0 20 9 70 20 109 11 40 20
86 20 103 0 16 7 55 15 85 9 30 22 87 29 125 19 97 44 199 67 270 10 33 19 69
19 80 0 11 9 47 20 80 11 33 31 101 46 150 14 50 32 106 39 125 8 19 17 51 21
70 3 19 11 46 17 60 22 55 58 158 72 203 7 26 18 53 23 60 6 7 15 28 20 47 22
71 61 173 72 184 5 5 10 17 10 26 0 8 9 32 20 53 11 20 20 42 20 47 0 6 20 53
45 106 25 52 45 99 45 105 0 6 9 22 20 36 11 14 20 32 20 40 0 12 39 97 61
133 5 8 14 26 19 40 6 14 14 32 20 40 5 8 35 67 66 130 32 63 62 121 68 129 6
7 29 46 51 86 67 123 146 257 186 318 22 32 39 62 39 66 0 4 9 16 20 26 11 10
20 23 20 28 0 5 17 35 37 65 21 30 45 65 53 78 44 68 207 298 270 381 71 93
306 386 332 413 12 14 59 68 103 120 122 146 610 628 800 792 196 168 269 225
645 507 40 30 202 141 228 156 9 6 49 31 87 57 199 133 573 350 755 437 36 18
72 36 80 41 8 6 26 15 40 22 14 6 68 31 120 55 94 44 113 52 200 91 25 11 71
32 102 46 31 14 61 26 67 26 6 0 25 9 43 20 18 11 40 20 48 20 8 0 29 7 45 16
17 9 55 24 85 34 93 31 124 42 161 61 20 11 44 19 54 19 9 0 37 8 63 18 71 28
142 52 197 67 28 8 70 20 95 29 109 35 159 50 210 62 30 6 69 17 85 23 35 12
148 39 220 53 28 5 79 18 115 29 36 11 76 19 90 19 14 0 52 7 85 16 33 8 91
19 129 24 39 5 102 16 140 25 86 18 339 56 421 62 33 2 125 11 205 20 250 27
762 37 1190 23z"/>
<path d="M10545 19362 c-4 -5 -202 -20 -395 -31 -85 -5 -195 -16 -245 -24 -49
-9 -127 -19 -172 -22 -46 -3 -94 -10 -108 -15 -13 -5 -76 -16 -140 -24 -63 -9
-123 -20 -133 -25 -9 -5 -46 -12 -82 -16 -36 -4 -92 -16 -125 -26 -33 -10 -72
-19 -88 -19 -15 0 -53 -9 -84 -20 -32 -11 -71 -20 -88 -20 -16 0 -50 -9 -74
-20 -24 -11 -54 -20 -67 -20 -13 0 -47 -9 -76 -19 -29 -11 -71 -23 -93 -27
-22 -4 -58 -15 -80 -25 -22 -10 -49 -19 -60 -19 -11 0 -31 -6 -45 -13 -14 -8
-48 -19 -75 -26 -28 -7 -59 -18 -70 -25 -11 -7 -36 -16 -55 -20 -36 -6 -113
-35 -186 -68 -22 -10 -47 -18 -55 -18 -8 0 -27 -9 -44 -20 -16 -11 -39 -20
-50 -20 -11 0 -33 -9 -50 -20 -16 -11 -36 -20 -44 -20 -8 0 -39 -12 -70 -26
-31 -14 -76 -35 -101 -46 -59 -26 -131 -59 -152 -70 -44 -21 -54 -26 -73 -35
-11 -5 -29 -15 -40 -21 -11 -6 -51 -26 -90 -45 -123 -60 -290 -148 -305 -162
-8 -7 -42 -27 -75 -45 -33 -17 -80 -44 -105 -60 -25 -16 -70 -43 -100 -61
-145 -84 -514 -340 -673 -466 -37 -30 -94 -75 -126 -101 -424 -337 -802 -710
-1155 -1137 -28 -33 -56 -67 -63 -75 -26 -29 -189 -239 -233 -300 -110 -152
-338 -493 -384 -575 -9 -16 -28 -48 -41 -70 -13 -22 -32 -53 -40 -70 -9 -16
-27 -48 -41 -70 -13 -22 -33 -58 -45 -80 -39 -74 -56 -105 -66 -117 -6 -7 -16
-30 -22 -50 -7 -20 -19 -42 -27 -48 -7 -7 -14 -20 -14 -30 0 -9 -9 -29 -20
-43 -11 -14 -20 -32 -20 -40 0 -8 -8 -25 -19 -38 -10 -13 -22 -35 -26 -49 -4
-14 -13 -32 -20 -40 -7 -8 -16 -26 -20 -40 -4 -14 -25 -62 -46 -108 -21 -45
-39 -87 -39 -92 0 -5 -11 -30 -25 -56 -14 -26 -25 -53 -25 -60 0 -7 -7 -25
-15 -41 -15 -29 -52 -121 -74 -183 -7 -19 -24 -64 -38 -100 -13 -36 -30 -85
-38 -110 -26 -84 -47 -145 -66 -192 -10 -26 -19 -57 -19 -70 -1 -13 -9 -41
-20 -63 -11 -22 -19 -50 -20 -62 0 -12 -9 -46 -19 -75 -11 -29 -23 -73 -26
-97 -4 -24 -13 -59 -21 -76 -7 -18 -18 -57 -23 -86 -5 -30 -17 -85 -26 -124
-44 -192 -55 -245 -60 -298 -4 -32 -12 -73 -20 -90 -7 -18 -15 -68 -19 -112
-4 -44 -13 -114 -21 -155 -12 -61 -34 -263 -36 -330 -1 -8 -5 -30 -11 -49 -9
-28 -29 -551 -29 -741 0 -190 20 -713 29 -741 6 -19 10 -41 11 -49 2 -67 24
-269 36 -330 8 -41 17 -111 21 -155 4 -44 12 -94 19 -112 8 -17 16 -58 20 -90
5 -53 16 -106 60 -298 9 -38 21 -94 26 -124 5 -29 16 -68 23 -86 8 -17 17 -52
21 -76 3 -24 15 -68 26 -97 10 -29 19 -63 19 -75 1 -12 9 -40 20 -62 11 -22
19 -50 20 -63 0 -13 9 -44 19 -70 19 -47 40 -108 66 -192 8 -25 25 -74 38
-110 14 -36 31 -81 38 -100 22 -62 59 -154 74 -183 8 -16 15 -34 15 -41 0 -7
11 -34 25 -60 14 -26 25 -51 25 -56 0 -5 18 -47 39 -92 21 -46 42 -94 46 -108
4 -14 13 -32 20 -40 7 -8 16 -26 20 -40 4 -14 16 -36 26 -49 11 -13 19 -30 19
-38 0 -8 9 -26 20 -40 11 -14 20 -34 20 -43 0 -10 7 -23 14 -30 8 -6 20 -28
27 -48 6 -20 16 -43 22 -50 10 -12 27 -43 66 -117 12 -22 32 -58 45 -80 14
-22 32 -53 41 -70 8 -16 27 -48 40 -70 13 -22 32 -53 41 -70 43 -77 307 -473
358 -537 11 -14 32 -43 46 -63 91 -131 373 -473 549 -664 280 -305 564 -570
882 -823 32 -26 89 -71 126 -101 84 -66 333 -246 428 -308 164 -108 242 -158
270 -173 17 -9 50 -30 75 -46 25 -16 72 -43 105 -60 33 -18 67 -38 75 -45 15
-13 171 -96 305 -162 39 -19 78 -38 88 -44 9 -5 26 -14 37 -19 11 -6 29 -15
40 -20 45 -22 101 -48 205 -95 33 -15 78 -35 101 -46 22 -10 47 -19 55 -19 8
0 28 -9 44 -20 17 -11 39 -20 50 -20 11 0 34 -9 50 -20 17 -11 37 -20 45 -20
9 0 33 -9 54 -19 21 -11 52 -23 69 -27 18 -3 49 -15 69 -25 21 -11 45 -19 55
-19 11 0 36 -9 58 -20 22 -11 50 -20 62 -20 13 0 40 -9 60 -20 21 -11 44 -20
52 -20 12 0 65 -16 236 -71 33 -11 70 -19 81 -19 12 0 41 -9 65 -20 24 -11 58
-20 74 -20 17 0 56 -9 88 -20 31 -11 69 -20 84 -20 16 0 55 -9 88 -19 33 -10
89 -22 125 -26 36 -4 73 -11 82 -16 10 -5 66 -16 125 -24 60 -8 140 -21 178
-30 39 -8 93 -15 120 -15 28 0 86 -7 130 -16 44 -8 154 -19 245 -25 91 -5 217
-14 280 -19 148 -11 721 -11 870 1 63 5 187 13 275 18 88 6 185 15 215 21 30
5 102 14 160 20 58 5 134 16 170 24 36 8 110 22 165 31 159 26 246 43 305 60
30 8 69 15 85 15 17 0 50 9 74 20 24 11 56 20 72 20 27 0 85 15 224 60 33 10
78 22 100 26 22 3 49 12 60 19 12 7 48 18 80 25 33 7 69 19 80 26 11 8 30 14
44 14 13 0 42 8 65 19 57 26 145 59 181 67 17 4 44 16 60 26 17 10 38 18 47
18 18 0 82 26 150 61 20 10 42 19 48 19 5 0 32 10 58 21 26 12 72 33 102 46
30 14 75 34 100 45 66 30 408 202 457 229 23 13 83 48 135 77 51 29 100 57
108 62 8 5 31 19 50 30 19 11 44 26 55 33 168 106 251 160 306 197 161 109
227 156 276 194 28 23 71 55 94 71 83 60 261 204 406 330 160 139 666 640 753
745 29 36 77 92 106 125 62 70 261 320 319 400 22 30 58 79 81 109 35 47 86
122 261 387 23 36 43 70 43 76 0 6 7 17 16 24 9 7 20 22 25 34 5 11 23 43 39
70 16 28 39 66 50 85 11 19 32 53 45 75 23 38 29 50 40 77 3 7 18 36 34 63 33
57 167 324 201 400 13 28 34 75 47 105 14 30 32 71 40 90 9 19 24 52 34 72 11
20 19 43 19 50 0 7 11 36 25 63 13 28 25 57 25 65 0 9 4 20 10 26 9 9 37 83
67 179 8 28 20 55 25 62 5 7 16 36 23 65 14 56 36 123 67 200 10 26 18 56 18
68 0 11 7 34 15 49 8 16 17 48 21 72 3 24 14 67 24 94 10 28 23 73 28 100 13
62 39 164 57 230 8 28 19 82 25 120 5 39 17 92 25 119 8 27 15 64 15 82 0 18
9 70 20 116 11 46 20 103 20 128 0 25 9 88 19 140 11 52 27 178 36 280 10 102
21 223 25 270 11 110 11 949 0 1060 -4 47 -15 166 -24 265 -10 99 -24 218 -33
265 -9 47 -19 121 -23 165 -5 44 -15 107 -24 140 -9 32 -16 75 -16 95 0 19 -9
67 -20 105 -11 38 -20 83 -20 100 0 16 -9 62 -19 100 -26 92 -50 188 -63 250
-5 28 -18 73 -28 100 -9 28 -22 73 -27 100 -6 28 -15 64 -21 80 -21 64 -43
132 -57 175 -32 106 -54 169 -91 270 -14 36 -32 86 -40 112 -8 26 -19 50 -24
53 -6 3 -10 14 -10 23 0 9 -12 40 -25 67 -14 28 -25 56 -25 63 0 7 -8 30 -19
50 -10 20 -25 53 -34 72 -8 19 -29 67 -47 105 -17 39 -39 87 -48 109 -33 75
-193 390 -212 417 -11 15 -20 34 -20 42 0 9 -5 19 -11 23 -6 3 -17 21 -25 38
-8 17 -28 51 -44 76 -16 25 -36 59 -44 75 -26 51 -54 96 -70 114 -9 10 -16 21
-16 26 0 5 -20 38 -43 74 -175 265 -226 340 -261 387 -23 30 -59 79 -81 109
-58 80 -257 330 -319 400 -29 33 -77 89 -106 125 -66 80 -576 590 -685 686
-217 189 -353 301 -468 384 -26 19 -76 57 -110 84 -34 26 -91 68 -127 92 -36
24 -97 65 -135 91 -58 40 -139 92 -310 200 -11 7 -36 22 -55 33 -19 11 -42 25
-50 30 -8 5 -57 33 -108 62 -51 29 -114 65 -140 80 -26 15 -76 41 -112 58 -36
17 -72 35 -80 40 -40 23 -272 135 -370 178 -25 10 -66 29 -92 41 -26 11 -54
21 -61 21 -7 0 -22 7 -33 15 -12 8 -41 21 -65 30 -109 41 -126 47 -154 60 -16
7 -50 20 -75 28 -76 25 -113 39 -156 58 -23 11 -52 19 -65 19 -14 0 -33 6 -44
14 -11 7 -47 19 -80 26 -32 7 -68 18 -80 25 -11 7 -40 16 -65 20 -25 4 -56 13
-70 20 -14 7 -43 16 -65 19 -22 4 -66 16 -97 27 -32 10 -71 19 -88 19 -17 0
-44 7 -59 15 -16 8 -57 19 -92 24 -35 6 -80 16 -99 21 -38 12 -129 29 -285 55
-55 9 -128 23 -163 31 -35 8 -100 17 -145 20 -45 3 -116 13 -157 21 -41 8
-149 19 -240 24 -91 5 -217 13 -280 19 -108 8 -748 19 -755 12z m791 -873 c99
-5 206 -14 239 -19 33 -6 128 -16 212 -25 83 -8 162 -19 175 -24 12 -5 52 -12
88 -15 36 -4 103 -16 150 -26 47 -10 110 -23 140 -29 137 -26 345 -77 418
-102 30 -11 63 -19 74 -19 10 0 40 -8 66 -19 26 -10 65 -23 87 -29 110 -29
184 -52 210 -66 17 -9 38 -16 48 -16 10 0 35 -9 57 -20 22 -11 47 -20 56 -20
9 0 33 -8 53 -19 20 -10 63 -29 96 -41 76 -29 168 -66 220 -90 210 -96 414
-196 520 -255 44 -25 94 -52 110 -60 73 -37 298 -173 367 -222 26 -18 51 -33
54 -33 4 0 30 -17 58 -38 28 -21 76 -54 106 -75 30 -20 66 -45 80 -54 40 -28
271 -203 315 -240 415 -342 801 -727 1090 -1088 152 -189 416 -557 475 -663 9
-15 31 -52 50 -83 19 -30 40 -64 47 -75 29 -45 160 -277 175 -306 11 -23 29
-59 39 -78 39 -70 79 -153 79 -163 0 -7 9 -23 20 -37 11 -14 20 -32 20 -40 0
-8 9 -26 20 -40 11 -14 20 -31 20 -38 0 -14 38 -102 71 -163 10 -20 19 -44 19
-53 0 -8 9 -30 20 -48 11 -18 20 -39 20 -47 0 -8 8 -32 19 -55 19 -44 34 -84
58 -156 8 -25 21 -57 28 -71 8 -14 19 -43 24 -65 5 -21 17 -61 26 -89 40 -120
48 -143 60 -190 8 -27 21 -77 30 -110 9 -33 25 -87 35 -120 11 -33 20 -72 20
-87 0 -15 9 -51 20 -80 11 -29 20 -67 20 -83 0 -17 9 -62 19 -100 10 -39 22
-99 26 -135 4 -36 13 -87 20 -115 8 -27 19 -95 25 -150 6 -56 15 -125 21 -155
5 -30 14 -120 19 -200 5 -80 12 -165 16 -190 13 -90 16 -200 16 -500 0 -300
-3 -410 -16 -500 -4 -25 -11 -110 -16 -190 -5 -80 -14 -170 -19 -200 -6 -30
-15 -100 -21 -155 -6 -55 -15 -116 -21 -135 -6 -19 -17 -78 -24 -130 -8 -52
-21 -120 -30 -150 -8 -30 -15 -69 -15 -87 0 -18 -9 -55 -20 -83 -11 -28 -20
-64 -20 -80 0 -16 -9 -52 -20 -80 -11 -28 -20 -60 -20 -71 0 -18 -30 -120 -67
-229 -8 -25 -19 -64 -24 -87 -5 -24 -15 -56 -24 -72 -8 -17 -15 -38 -15 -47 0
-10 -8 -36 -19 -58 -10 -23 -25 -61 -34 -86 -26 -78 -39 -114 -58 -156 -11
-23 -19 -47 -19 -55 0 -8 -9 -29 -20 -47 -11 -18 -20 -39 -20 -48 0 -8 -9 -32
-20 -52 -31 -59 -70 -150 -70 -164 0 -7 -9 -24 -20 -38 -11 -14 -20 -32 -20
-40 0 -8 -9 -26 -20 -40 -11 -14 -20 -31 -20 -38 0 -11 -62 -135 -141 -282
-16 -29 -140 -245 -152 -264 -68 -109 -84 -135 -97 -158 -60 -107 -342 -500
-491 -684 -290 -357 -665 -730 -1074 -1067 -44 -37 -275 -212 -315 -240 -14
-9 -50 -34 -80 -54 -30 -21 -78 -54 -106 -75 -28 -21 -54 -38 -58 -38 -3 0
-28 -15 -54 -33 -69 -49 -294 -185 -367 -222 -16 -8 -66 -35 -110 -60 -106
-59 -310 -159 -520 -255 -90 -41 -163 -70 -178 -70 -9 0 -18 -4 -22 -9 -3 -5
-22 -15 -43 -21 -20 -6 -55 -20 -77 -30 -46 -21 -90 -36 -160 -56 -27 -8 -61
-21 -75 -29 -14 -7 -43 -16 -65 -20 -22 -4 -52 -14 -68 -22 -15 -7 -46 -18
-70 -23 -23 -4 -62 -15 -87 -23 -138 -46 -377 -107 -540 -138 -30 -6 -93 -19
-140 -29 -47 -10 -114 -21 -148 -25 -35 -3 -75 -10 -89 -16 -14 -5 -93 -16
-176 -24 -84 -9 -179 -19 -212 -25 -255 -39 -1145 -39 -1433 0 -37 5 -119 14
-182 20 -63 7 -142 18 -175 25 -33 8 -87 17 -120 20 -60 6 -174 28 -335 66
-47 11 -95 19 -108 19 -12 0 -47 9 -77 19 -29 10 -73 22 -97 26 -24 3 -58 13
-76 21 -18 9 -50 18 -70 21 -20 2 -57 13 -82 23 -25 10 -64 21 -87 25 -24 4
-45 10 -48 15 -3 4 -29 13 -57 20 -29 7 -62 18 -74 25 -12 8 -39 17 -60 21
-21 4 -56 15 -76 25 -21 11 -45 19 -55 19 -10 0 -33 9 -51 20 -18 11 -39 20
-47 20 -13 0 -67 23 -170 71 -22 11 -44 19 -48 19 -4 0 -38 14 -75 31 -37 17
-101 47 -142 65 -41 19 -92 44 -112 54 -20 11 -42 20 -47 20 -6 0 -34 15 -63
34 -29 18 -73 43 -98 54 -25 12 -76 39 -115 62 -38 22 -88 49 -110 60 -22 11
-71 40 -110 65 -38 24 -86 54 -105 65 -34 20 -75 47 -220 143 -189 126 -491
361 -715 556 -152 133 -520 501 -651 651 -157 179 -366 445 -454 575 -8 12
-28 42 -45 66 -16 24 -34 51 -40 60 -5 9 -41 63 -78 118 -76 113 -130 201
-207 336 -28 50 -55 97 -60 105 -6 8 -19 33 -30 55 -11 22 -24 47 -29 55 -11
16 -33 59 -52 100 -6 14 -15 32 -20 40 -5 8 -14 26 -20 40 -6 14 -15 32 -20
40 -5 8 -14 26 -20 40 -7 14 -31 67 -55 118 -24 50 -44 95 -44 98 0 3 -7 22
-16 42 -59 133 -62 140 -101 247 -8 22 -23 58 -34 81 -10 22 -19 48 -19 58 0
9 -9 34 -20 56 -11 22 -20 46 -20 55 0 9 -8 37 -19 63 -10 26 -31 88 -45 137
-15 50 -32 104 -38 120 -6 17 -16 56 -23 88 -8 32 -21 76 -29 98 -9 22 -16 51
-16 66 0 15 -9 56 -20 92 -20 70 -44 183 -61 291 -6 36 -17 88 -24 115 -8 28
-19 92 -24 143 -6 51 -17 132 -25 180 -8 48 -20 150 -27 227 -6 77 -14 163
-16 190 -17 205 -24 538 -14 748 6 127 11 246 11 262 0 17 4 57 10 90 6 33 15
121 20 195 5 74 14 158 19 185 6 28 15 93 21 145 6 52 17 117 25 145 7 27 18
79 24 115 17 108 41 221 61 291 11 36 20 77 20 92 0 15 7 44 16 66 8 22 21 66
29 98 7 32 17 72 23 88 6 17 23 71 38 120 14 50 35 111 45 137 11 26 19 54 19
63 0 9 9 33 20 55 11 22 20 47 20 56 0 10 9 36 19 58 11 23 26 59 34 81 40
109 44 119 106 257 11 26 21 50 21 53 0 3 17 42 39 88 21 45 43 93 50 107 6
14 15 32 20 40 5 8 14 26 20 40 6 14 15 32 20 40 5 8 14 26 20 40 6 14 15 32
20 40 6 8 17 29 25 45 42 84 57 111 66 125 5 8 32 56 60 105 83 145 121 206
219 354 31 46 61 90 66 99 237 375 674 881 1094 1266 234 214 585 493 813 644
141 94 184 122 218 142 19 11 67 41 105 65 39 25 88 54 110 65 22 11 72 39
110 61 39 22 88 49 110 60 22 11 63 34 90 50 28 16 57 32 65 35 8 3 33 14 55
24 22 10 74 34 115 53 41 19 105 49 142 66 37 17 71 31 75 31 4 0 26 8 48 19
103 48 157 71 170 71 8 0 29 9 47 20 18 11 41 20 51 20 10 0 34 8 55 19 20 10
55 21 76 25 21 4 48 13 60 21 12 7 45 18 74 25 28 7 54 16 57 20 3 5 24 11 48
15 23 4 62 15 87 25 25 10 62 21 82 23 20 3 52 12 70 21 18 8 52 18 76 21 24
4 68 16 97 26 30 10 67 19 82 19 16 0 60 9 98 20 38 11 84 20 101 20 17 0 51
7 74 15 23 8 83 20 134 25 50 6 120 17 156 25 36 8 112 19 170 24 58 6 140 15
184 21 205 28 866 39 1192 19z"/>
<path d="M8525 14600 c-22 -5 -62 -14 -90 -21 -113 -27 -251 -113 -345 -216
-98 -108 -142 -187 -176 -321 -74 -292 26 -591 263 -787 344 -283 866 -200
1106 176 97 152 143 351 118 510 -30 194 -76 297 -183 413 -112 122 -226 193
-373 232 -71 18 -263 27 -320 14z"/>
<path d="M12395 12758 c-216 -23 -312 -48 -500 -131 -161 -71 -296 -169 -445
-323 -100 -103 -201 -229 -263 -329 -18 -28 -36 -45 -48 -45 -18 0 -19 11 -19
350 l0 350 -26 10 c-17 7 -241 9 -616 8 -572 -3 -590 -4 -604 -23 -12 -16 -14
-288 -12 -1932 3 -1688 5 -1915 18 -1923 9 -6 271 -10 661 -10 519 0 649 3
657 13 8 9 12 304 15 973 3 837 5 974 20 1074 52 349 122 543 247 682 64 70
158 139 223 162 153 53 170 56 320 56 130 0 155 -3 227 -26 145 -47 250 -137
308 -264 13 -30 28 -62 32 -71 16 -32 42 -148 56 -244 11 -80 13 -323 14
-1215 0 -854 3 -1119 12 -1128 9 -9 174 -12 680 -12 664 0 667 0 678 21 8 15
10 390 8 1347 -5 1415 -5 1419 -55 1652 -40 188 -120 375 -214 501 -131 177
-347 322 -606 407 -214 70 -516 98 -768 70z"/>
<path d="M7976 12634 c-14 -14 -16 -203 -16 -1933 0 -1606 2 -1920 14 -1930 9
-8 196 -10 682 -9 l669 3 3 1929 c1 1417 -1 1932 -9 1942 -9 12 -128 14 -670
14 -584 0 -659 -2 -673 -16z"/>
</g>
</svg>
