<?xml version="1.0" standalone="no"?>
<!DOCTYPE svg PUBLIC "-//W3C//DTD SVG 20010904//EN"
 "http://www.w3.org/TR/2001/REC-SVG-20010904/DTD/svg10.dtd">
<svg version="1.0" xmlns="http://www.w3.org/2000/svg"
 width="2176.000000pt" height="2272.000000pt" viewBox="0 0 2176.000000 2272.000000"
 preserveAspectRatio="xMidYMid meet">

<g transform="translate(0.000000,2272.000000) scale(0.100000,-0.100000)"
fill="#000000" stroke="none">
<path d="M10240 20539 c-52 -5 -124 -13 -160 -19 -36 -5 -135 -14 -220 -20
-88 -5 -177 -16 -205 -25 -27 -9 -97 -18 -154 -21 -61 -3 -118 -11 -140 -20
-20 -9 -79 -20 -133 -24 -53 -5 -113 -16 -133 -25 -21 -8 -57 -15 -81 -15 -24
0 -77 -11 -118 -25 -41 -14 -92 -25 -114 -25 -22 0 -62 -10 -89 -22 -26 -12
-69 -22 -94 -23 -25 -1 -66 -11 -91 -23 -24 -12 -62 -22 -84 -22 -21 0 -52 -8
-69 -18 -16 -10 -52 -22 -79 -25 -27 -4 -63 -14 -80 -23 -17 -9 -55 -20 -83
-24 -29 -5 -65 -18 -79 -29 -17 -13 -41 -21 -66 -21 -25 0 -50 -8 -65 -20 -14
-11 -40 -20 -57 -20 -17 0 -49 -12 -71 -25 -22 -14 -51 -25 -65 -25 -14 0 -38
-9 -55 -20 -16 -11 -44 -20 -61 -20 -19 0 -41 -10 -58 -25 -17 -16 -39 -25
-59 -25 -18 0 -45 -9 -62 -20 -16 -11 -39 -20 -51 -20 -11 0 -35 -11 -54 -25
-19 -14 -45 -25 -58 -25 -13 0 -35 -9 -49 -20 -14 -11 -35 -20 -47 -20 -11 0
-32 -9 -46 -20 -14 -11 -32 -20 -40 -20 -8 0 -33 -11 -55 -25 -22 -13 -50 -25
-62 -25 -12 0 -34 -11 -49 -25 -15 -14 -36 -25 -47 -25 -10 0 -32 -11 -49 -25
-16 -14 -39 -25 -52 -25 -12 0 -29 -9 -39 -20 -9 -11 -26 -20 -38 -20 -12 0
-34 -11 -51 -25 -16 -14 -36 -25 -43 -25 -7 0 -41 -16 -75 -35 -34 -19 -66
-35 -70 -35 -5 0 -21 -11 -37 -24 -15 -13 -39 -27 -53 -31 -14 -4 -38 -18 -53
-31 -16 -13 -37 -24 -47 -24 -11 0 -23 -6 -27 -14 -4 -7 -35 -27 -68 -44 -33
-16 -69 -39 -79 -51 -11 -12 -26 -21 -35 -21 -9 0 -42 -18 -74 -40 -31 -22
-61 -40 -67 -40 -5 0 -19 -11 -32 -24 -13 -13 -48 -37 -78 -52 -30 -16 -62
-38 -72 -49 -9 -11 -41 -34 -72 -49 -31 -16 -56 -32 -56 -36 0 -4 -27 -25 -61
-46 -33 -22 -88 -63 -122 -92 -34 -28 -75 -58 -92 -66 -16 -8 -61 -42 -100
-76 -38 -33 -92 -76 -120 -94 -27 -19 -78 -61 -111 -93 -34 -32 -107 -94 -163
-137 -55 -43 -125 -104 -154 -135 -30 -31 -172 -173 -317 -316 -252 -250 -383
-389 -480 -510 -25 -31 -67 -80 -95 -109 -54 -57 -56 -60 -100 -126 -16 -25
-48 -65 -72 -90 -40 -43 -93 -115 -93 -127 0 -3 -22 -31 -48 -62 -27 -31 -57
-72 -68 -91 -10 -19 -38 -57 -61 -85 -24 -27 -43 -55 -43 -61 0 -7 -20 -36
-44 -66 -25 -29 -50 -65 -55 -78 -6 -14 -27 -45 -45 -70 -19 -25 -35 -50 -35
-57 -1 -7 -14 -27 -29 -45 -15 -18 -40 -58 -54 -89 -15 -31 -34 -62 -43 -69
-8 -7 -15 -18 -15 -25 0 -8 -11 -26 -23 -42 -13 -15 -34 -50 -48 -78 -13 -27
-34 -63 -46 -78 -13 -16 -23 -34 -23 -41 0 -8 -8 -24 -19 -37 -10 -13 -22 -35
-26 -47 -4 -13 -16 -33 -26 -43 -10 -10 -19 -27 -19 -37 0 -10 -11 -33 -25
-52 -14 -19 -25 -40 -25 -48 0 -8 -9 -25 -20 -39 -11 -14 -20 -33 -20 -42 0
-10 -11 -32 -25 -51 -14 -19 -25 -40 -25 -48 0 -8 -9 -25 -20 -39 -11 -14 -20
-33 -20 -42 0 -10 -11 -32 -25 -51 -14 -19 -25 -42 -25 -53 0 -10 -9 -30 -20
-44 -11 -14 -20 -35 -20 -45 0 -11 -8 -32 -19 -46 -10 -15 -21 -40 -25 -56 -4
-16 -16 -41 -27 -54 -10 -14 -19 -34 -19 -46 0 -11 -8 -35 -18 -51 -11 -17
-22 -47 -26 -66 -3 -20 -15 -44 -26 -54 -11 -10 -20 -31 -20 -48 0 -16 -8 -44
-19 -61 -10 -17 -22 -49 -26 -70 -3 -22 -15 -51 -26 -64 -10 -14 -19 -39 -19
-57 0 -18 -8 -43 -19 -56 -10 -13 -21 -46 -26 -74 -4 -27 -15 -60 -26 -73 -11
-14 -19 -40 -19 -62 0 -21 -8 -48 -18 -61 -11 -13 -22 -47 -25 -75 -3 -28 -15
-67 -26 -85 -12 -19 -21 -51 -21 -72 0 -21 -8 -54 -19 -75 -10 -20 -21 -61
-25 -91 -4 -30 -16 -71 -27 -92 -10 -21 -19 -58 -19 -81 0 -24 -10 -63 -21
-88 -11 -25 -24 -76 -29 -115 -4 -38 -16 -90 -25 -115 -9 -25 -17 -68 -16 -96
0 -28 -8 -76 -20 -110 -12 -34 -24 -100 -28 -154 -4 -52 -12 -104 -18 -115
-14 -27 -25 -102 -28 -200 -2 -44 -11 -116 -20 -160 -9 -44 -21 -161 -26 -260
-5 -99 -13 -234 -18 -300 -12 -155 -12 -815 0 -970 5 -66 13 -201 18 -300 5
-99 17 -216 26 -260 9 -44 18 -116 20 -160 3 -98 14 -173 28 -200 6 -11 14
-63 18 -115 4 -53 16 -122 28 -155 11 -33 20 -82 19 -110 0 -27 7 -70 17 -95
9 -25 21 -76 25 -115 5 -38 18 -90 29 -115 11 -25 21 -64 21 -88 0 -23 9 -60
19 -81 11 -21 23 -62 27 -92 4 -30 15 -71 25 -91 11 -21 19 -54 19 -75 0 -21
9 -53 21 -72 11 -18 23 -57 26 -85 3 -28 14 -62 25 -75 10 -13 18 -40 18 -61
0 -22 8 -48 19 -62 11 -13 22 -46 26 -73 5 -28 16 -61 26 -74 11 -13 19 -38
19 -56 0 -18 9 -43 19 -57 11 -13 23 -42 26 -64 4 -21 16 -53 26 -70 11 -17
19 -45 19 -61 0 -17 9 -38 20 -48 11 -10 23 -34 26 -54 4 -19 15 -49 26 -66
10 -16 18 -40 18 -51 0 -12 9 -32 19 -46 11 -13 23 -38 27 -54 4 -16 15 -41
25 -56 11 -14 19 -35 19 -46 0 -10 9 -31 20 -45 11 -14 20 -34 20 -44 0 -11
11 -34 25 -53 14 -19 25 -41 25 -51 0 -9 9 -28 20 -42 11 -14 20 -31 20 -39 0
-8 11 -29 25 -48 14 -19 25 -41 25 -51 0 -9 9 -28 20 -42 11 -14 20 -31 20
-39 0 -8 11 -29 25 -48 14 -19 25 -42 25 -52 0 -10 9 -27 19 -37 10 -10 22
-30 26 -43 4 -12 16 -34 26 -47 11 -13 19 -29 19 -37 0 -7 10 -25 23 -41 12
-15 35 -53 49 -84 15 -31 34 -62 43 -69 8 -7 15 -18 15 -25 0 -8 11 -26 23
-42 13 -15 34 -50 48 -78 13 -27 36 -65 51 -83 16 -18 28 -38 29 -45 0 -7 16
-32 35 -57 18 -25 39 -56 45 -70 5 -13 30 -49 55 -78 24 -30 44 -59 44 -66 0
-6 19 -34 42 -61 24 -28 52 -66 62 -85 11 -19 41 -60 68 -91 26 -31 48 -59 48
-62 0 -12 53 -84 93 -127 24 -25 56 -65 72 -90 44 -66 46 -69 100 -126 28 -29
70 -78 95 -109 150 -187 798 -841 955 -964 50 -39 122 -100 160 -135 39 -36
90 -79 115 -95 25 -17 77 -58 115 -91 39 -34 85 -68 102 -77 18 -8 51 -32 72
-53 22 -21 52 -46 68 -56 70 -43 133 -88 133 -95 0 -4 20 -17 45 -29 24 -12
58 -34 75 -50 16 -15 53 -40 82 -55 29 -14 60 -34 68 -44 8 -9 41 -30 73 -46
33 -17 63 -38 68 -47 5 -10 20 -18 33 -18 13 0 31 -9 42 -21 10 -12 46 -35 79
-51 33 -17 64 -37 68 -44 4 -8 16 -14 27 -14 10 0 31 -11 47 -24 15 -13 39
-27 53 -31 14 -4 38 -18 53 -31 16 -13 32 -24 37 -24 4 0 36 -16 70 -35 34
-19 68 -35 75 -35 7 0 27 -11 43 -25 17 -14 39 -25 51 -25 12 0 29 -9 38 -20
10 -11 27 -20 39 -20 13 0 36 -11 52 -25 17 -14 39 -25 51 -25 11 0 28 -8 38
-19 10 -10 34 -21 54 -25 20 -3 44 -15 54 -26 9 -10 31 -22 49 -26 17 -3 43
-15 58 -25 14 -11 35 -19 46 -19 10 0 31 -9 45 -20 14 -11 36 -20 49 -20 13 0
39 -11 58 -25 19 -14 43 -25 54 -25 12 0 35 -9 51 -20 17 -11 44 -20 62 -20
20 0 42 -9 59 -25 17 -16 39 -25 59 -25 18 0 44 -9 58 -20 14 -11 38 -20 54
-20 15 0 46 -11 68 -25 22 -13 54 -25 71 -25 17 0 43 -9 57 -20 15 -12 41 -20
64 -20 22 0 54 -11 78 -25 22 -14 55 -25 75 -25 19 0 48 -9 65 -20 16 -10 54
-22 84 -26 30 -4 69 -15 86 -25 16 -11 45 -19 64 -19 19 0 63 -11 98 -25 36
-15 72 -23 85 -20 14 4 46 -4 81 -20 32 -14 76 -25 98 -25 22 0 74 -11 115
-25 41 -14 94 -25 118 -25 24 0 60 -7 81 -15 20 -9 80 -20 133 -25 54 -4 114
-16 135 -24 21 -9 67 -17 105 -17 63 -1 205 -23 224 -35 5 -3 80 -10 166 -15
86 -5 186 -14 222 -19 147 -23 319 -29 790 -29 467 1 607 6 760 29 36 5 135
14 220 19 85 5 171 14 190 21 19 6 85 15 145 20 61 5 135 16 165 25 30 9 93
20 140 25 47 5 111 18 143 29 33 12 70 18 86 15 17 -4 57 4 102 20 42 14 94
26 116 26 23 0 65 11 95 25 30 14 71 25 96 25 23 0 60 9 82 20 22 11 56 20 76
20 21 0 56 9 78 19 23 10 61 22 86 25 25 4 59 15 75 26 17 11 47 20 70 20 25
0 55 9 80 25 23 14 56 25 76 25 21 0 47 9 63 21 15 12 41 21 61 21 19 0 45 8
57 18 13 9 42 21 65 25 23 3 53 15 67 26 13 10 40 19 59 19 23 0 43 8 61 25
17 15 39 25 57 25 17 0 42 9 56 20 14 11 38 20 52 20 15 0 42 11 61 25 19 14
46 25 60 25 15 0 35 9 45 20 10 11 29 20 42 20 14 0 36 9 50 20 14 11 32 20
40 20 12 0 131 55 173 79 8 5 49 26 90 46 41 20 82 40 90 45 8 4 50 25 92 45
43 20 80 41 84 46 3 5 13 9 23 9 10 0 28 11 41 25 13 14 33 25 45 25 12 0 32
11 45 25 13 14 33 25 46 25 12 0 27 7 34 15 7 8 40 29 74 46 33 17 70 39 82
50 11 10 27 19 36 19 8 0 23 9 33 20 10 11 45 34 76 50 32 16 68 39 79 50 11
11 27 20 35 20 8 0 39 20 69 45 31 25 62 45 70 45 9 0 39 19 68 43 29 23 75
55 101 71 27 15 51 34 54 41 2 8 33 30 67 49 35 20 80 53 102 74 21 22 65 54
97 72 31 17 70 46 85 64 15 18 56 52 91 77 35 24 100 78 145 119 72 68 132
118 269 228 104 84 691 687 723 744 5 9 46 56 90 105 91 99 118 130 156 188
15 22 53 67 83 100 31 33 64 76 75 95 10 19 42 62 70 95 29 33 57 71 63 85 6
14 30 48 54 77 24 28 43 54 43 57 0 8 60 95 70 101 5 3 23 31 41 63 18 31 42
68 55 82 13 14 32 46 43 71 11 25 29 54 41 64 11 10 20 25 20 33 0 9 10 26 21
38 25 26 41 53 64 106 9 20 23 39 31 42 8 3 14 14 14 25 0 11 10 32 23 48 12
15 28 39 35 53 7 14 24 43 37 65 25 41 29 49 47 97 5 15 16 29 24 32 8 3 14
14 14 24 0 10 11 33 25 52 14 19 25 41 25 51 0 9 9 28 20 42 11 14 20 31 20
39 0 8 11 29 25 48 14 19 25 41 25 51 0 9 9 28 20 42 11 14 20 30 20 37 0 6
11 32 25 58 14 26 25 53 25 60 0 8 11 27 25 44 14 16 25 39 25 50 0 11 9 31
20 45 11 14 20 37 20 50 0 14 8 37 19 51 10 15 21 43 25 63 3 20 15 44 26 54
12 11 20 31 20 50 0 18 8 43 19 56 10 13 21 40 25 60 4 21 15 48 26 62 11 14
20 38 20 54 0 15 11 46 25 68 13 22 25 54 25 70 0 17 9 44 20 60 11 17 20 43
20 58 0 15 11 50 25 77 14 27 25 62 25 77 0 15 9 43 20 61 11 18 20 47 20 65
0 18 8 49 19 69 10 20 21 58 24 85 3 26 15 66 26 88 12 21 21 56 21 76 0 20
11 67 25 103 14 37 25 82 25 100 0 19 9 53 20 77 11 24 20 65 20 91 0 25 11
79 25 120 14 40 25 96 25 123 0 28 9 79 20 113 11 35 20 92 20 125 0 34 5 78
11 97 23 76 39 168 39 227 0 73 17 208 31 241 5 13 12 119 15 235 2 117 9 228
14 247 13 46 13 854 0 900 -5 19 -12 130 -14 247 -3 116 -10 222 -15 235 -14
33 -31 168 -31 241 0 59 -16 151 -39 227 -6 19 -11 63 -11 97 0 33 -9 90 -20
125 -11 34 -20 86 -20 114 0 30 -10 79 -24 117 -15 39 -25 84 -24 113 1 31 -7
67 -20 98 -12 27 -22 64 -22 82 0 18 -11 63 -25 100 -14 36 -25 83 -25 103 0
20 -9 55 -21 76 -11 22 -23 62 -26 88 -3 27 -14 65 -24 85 -11 20 -19 51 -19
69 0 18 -9 47 -20 65 -11 18 -20 46 -20 61 0 15 -11 50 -25 77 -14 27 -25 62
-25 77 0 15 -9 42 -20 58 -11 17 -20 44 -20 60 0 17 -12 48 -25 70 -14 22 -25
53 -25 68 0 16 -9 40 -20 54 -11 14 -22 41 -26 62 -4 20 -15 47 -25 60 -11 13
-19 38 -19 56 0 19 -8 39 -20 50 -11 10 -23 34 -26 54 -4 20 -15 48 -25 63
-11 14 -19 37 -19 51 0 13 -9 36 -20 50 -11 14 -20 34 -20 45 0 11 -11 34 -25
50 -14 17 -25 36 -25 44 0 7 -11 34 -25 60 -14 26 -25 52 -25 58 0 7 -9 23
-20 37 -11 14 -20 33 -20 42 0 10 -11 32 -25 51 -14 19 -25 40 -25 48 0 8 -9
25 -20 39 -11 14 -20 33 -20 42 0 10 -11 32 -25 51 -14 19 -25 42 -25 52 0 10
-6 21 -14 24 -8 3 -19 17 -24 32 -18 48 -22 56 -47 97 -13 22 -30 51 -37 65
-7 14 -23 38 -35 53 -13 16 -23 37 -23 48 0 11 -6 22 -14 25 -8 3 -22 22 -31
42 -23 53 -39 80 -64 106 -11 12 -21 29 -21 38 0 9 -7 21 -15 28 -8 6 -30 40
-50 73 -20 34 -46 76 -58 93 -12 17 -34 51 -49 75 -15 24 -43 64 -62 89 -19
25 -35 49 -35 53 -1 4 -23 35 -51 68 -27 33 -50 65 -50 72 0 7 -25 41 -56 77
-31 36 -64 81 -74 100 -11 19 -44 62 -75 95 -30 33 -68 78 -83 100 -38 58 -65
89 -156 188 -44 49 -85 96 -90 105 -32 57 -619 660 -723 744 -145 116 -196
160 -263 223 -41 39 -106 93 -145 120 -38 27 -82 63 -97 81 -15 17 -54 47 -85
64 -32 18 -76 50 -97 72 -22 21 -67 54 -102 74 -34 19 -65 41 -67 49 -3 7 -27
26 -54 41 -26 16 -72 48 -101 71 -29 24 -59 43 -68 43 -8 0 -39 20 -70 45 -30
25 -61 45 -69 45 -8 0 -24 9 -35 20 -11 11 -47 34 -79 50 -31 16 -66 39 -76
50 -10 11 -25 20 -33 20 -9 0 -25 9 -36 19 -12 11 -49 33 -82 50 -34 17 -67
38 -74 46 -7 8 -22 15 -34 15 -13 0 -33 11 -46 25 -13 14 -33 25 -45 25 -12 0
-32 11 -45 25 -13 14 -31 25 -41 25 -10 0 -20 4 -23 9 -4 5 -41 26 -84 46 -42
20 -84 41 -92 45 -8 5 -49 25 -90 45 -41 20 -82 41 -90 46 -42 24 -161 79
-173 79 -8 0 -26 9 -40 20 -14 11 -36 20 -50 20 -13 0 -32 9 -42 20 -10 11
-30 20 -45 20 -14 0 -41 11 -60 25 -19 14 -46 25 -61 25 -14 0 -38 9 -52 20
-14 11 -39 20 -56 20 -18 0 -40 10 -57 25 -18 17 -38 25 -61 25 -19 0 -46 9
-59 19 -14 11 -44 23 -67 26 -23 4 -52 16 -65 25 -12 10 -38 18 -57 18 -20 0
-46 9 -61 21 -16 12 -42 21 -63 21 -20 0 -53 11 -76 25 -25 16 -55 25 -80 25
-23 0 -53 9 -70 20 -16 11 -50 22 -75 26 -25 3 -63 15 -86 25 -22 10 -57 19
-78 19 -20 0 -54 9 -76 20 -22 11 -59 20 -82 20 -25 0 -66 11 -96 25 -30 14
-72 25 -95 25 -22 0 -74 12 -116 26 -45 16 -85 24 -102 20 -16 -3 -53 3 -86
15 -32 11 -96 24 -143 29 -47 5 -110 16 -140 25 -30 9 -104 20 -165 25 -60 5
-126 14 -145 20 -19 7 -105 16 -190 21 -85 5 -184 14 -220 19 -36 6 -110 14
-165 19 -121 11 -1092 11 -1225 0z m1045 -119 c143 -5 278 -12 300 -15 22 -3
69 -10 105 -16 36 -5 121 -14 190 -19 145 -12 166 -14 239 -29 29 -6 78 -11
107 -11 30 0 71 -6 91 -14 21 -8 76 -19 123 -26 47 -6 114 -18 150 -26 36 -9
101 -22 145 -30 44 -7 105 -20 135 -29 30 -8 65 -15 78 -15 12 0 39 -7 60 -16
20 -9 64 -20 97 -24 33 -5 75 -17 93 -26 18 -9 56 -20 85 -24 29 -5 72 -15 97
-24 101 -35 177 -58 210 -65 19 -4 49 -15 65 -23 17 -8 48 -19 70 -22 21 -4
56 -16 77 -27 20 -10 47 -19 58 -19 11 0 38 -9 60 -20 22 -11 47 -20 57 -20
10 0 32 -9 49 -19 17 -10 46 -22 65 -26 19 -4 50 -15 69 -25 33 -17 178 -75
265 -107 22 -8 54 -23 70 -33 17 -10 41 -21 55 -25 14 -4 61 -24 105 -45 166
-80 230 -111 245 -120 8 -4 49 -25 90 -45 182 -89 700 -388 755 -435 11 -10
32 -24 46 -31 75 -39 409 -276 641 -455 583 -449 1229 -1105 1677 -1704 57
-77 66 -89 113 -156 15 -22 48 -68 73 -104 86 -122 180 -262 197 -294 9 -18
23 -38 32 -45 9 -8 16 -18 16 -24 0 -5 20 -40 45 -78 25 -38 45 -70 45 -73 0
-2 18 -33 40 -67 22 -35 47 -77 56 -94 8 -16 26 -48 39 -70 24 -40 46 -80 80
-145 10 -19 22 -42 27 -50 5 -8 16 -31 24 -50 9 -19 25 -45 35 -59 10 -13 19
-32 19 -41 0 -10 7 -23 14 -30 8 -6 20 -28 27 -48 7 -20 20 -48 30 -61 11 -13
19 -33 19 -43 0 -11 8 -32 19 -46 10 -15 22 -38 26 -52 4 -14 16 -36 26 -49
11 -13 19 -33 19 -45 0 -11 9 -32 20 -46 11 -14 20 -32 20 -41 0 -9 11 -37 25
-63 14 -26 25 -56 25 -66 0 -10 4 -21 9 -25 5 -3 19 -31 31 -63 11 -31 27 -71
35 -89 8 -17 15 -37 15 -43 0 -7 9 -27 19 -44 10 -17 22 -47 26 -66 4 -19 16
-49 26 -66 10 -17 19 -41 19 -53 0 -12 9 -40 19 -62 11 -22 23 -54 27 -72 3
-18 15 -49 25 -69 11 -21 19 -50 19 -65 0 -15 9 -46 19 -68 10 -22 24 -64 31
-94 7 -30 19 -66 26 -80 8 -14 14 -39 14 -56 0 -16 9 -48 19 -71 10 -23 22
-61 26 -85 3 -24 15 -71 25 -104 10 -33 22 -80 26 -105 3 -25 15 -71 25 -104
11 -32 19 -73 19 -90 1 -17 8 -49 16 -71 8 -22 19 -74 24 -116 6 -42 19 -110
30 -150 11 -41 20 -94 20 -117 0 -24 9 -87 19 -140 11 -54 22 -144 26 -201 4
-57 11 -113 15 -125 29 -72 50 -510 50 -1016 0 -504 -22 -944 -50 -1016 -4
-12 -11 -68 -15 -125 -4 -57 -15 -147 -26 -201 -10 -53 -19 -116 -19 -140 0
-23 -9 -76 -20 -117 -11 -40 -24 -108 -30 -150 -5 -42 -16 -94 -24 -116 -8
-22 -15 -54 -16 -71 0 -17 -8 -58 -19 -90 -10 -33 -22 -79 -25 -104 -4 -25
-16 -72 -26 -105 -10 -33 -22 -80 -25 -104 -4 -24 -16 -62 -26 -85 -10 -23
-19 -54 -19 -71 0 -16 -6 -42 -14 -56 -7 -14 -19 -50 -26 -80 -7 -30 -21 -72
-31 -94 -10 -22 -19 -53 -19 -68 0 -15 -8 -44 -19 -65 -10 -20 -22 -51 -25
-69 -4 -18 -16 -50 -27 -72 -10 -22 -19 -50 -19 -62 0 -12 -9 -36 -19 -53 -10
-17 -22 -47 -26 -66 -4 -19 -16 -49 -26 -66 -10 -17 -19 -37 -19 -44 0 -6 -7
-26 -15 -43 -8 -18 -24 -58 -35 -89 -12 -32 -26 -60 -31 -63 -5 -4 -9 -15 -9
-25 0 -10 -11 -40 -25 -66 -14 -26 -25 -54 -25 -63 0 -9 -9 -27 -20 -41 -11
-14 -20 -35 -20 -46 0 -12 -8 -32 -19 -45 -10 -13 -22 -35 -26 -49 -4 -14 -16
-37 -26 -52 -11 -14 -19 -35 -19 -46 0 -10 -8 -30 -19 -43 -10 -13 -23 -41
-30 -61 -7 -20 -19 -42 -27 -48 -7 -7 -14 -20 -14 -30 0 -9 -9 -28 -19 -41
-10 -14 -26 -40 -35 -59 -8 -19 -20 -42 -25 -50 -5 -8 -14 -26 -20 -40 -6 -14
-24 -47 -40 -75 -17 -27 -37 -63 -45 -80 -9 -16 -26 -47 -39 -67 -12 -21 -39
-67 -59 -103 -21 -36 -58 -96 -83 -134 -25 -37 -45 -73 -45 -78 0 -6 -7 -16
-16 -24 -9 -7 -23 -27 -32 -45 -17 -32 -111 -172 -197 -294 -25 -36 -58 -82
-73 -104 -15 -21 -34 -48 -42 -60 -29 -41 -168 -222 -243 -316 -419 -524 -995
-1091 -1505 -1484 -232 -179 -566 -416 -641 -455 -14 -7 -35 -21 -46 -31 -55
-47 -573 -346 -755 -435 -41 -20 -82 -41 -90 -45 -17 -10 -144 -72 -205 -100
-22 -10 -67 -30 -100 -45 -33 -15 -82 -38 -110 -51 -58 -26 -145 -62 -230 -94
-33 -12 -76 -31 -96 -41 -20 -11 -43 -19 -50 -19 -8 0 -36 -11 -64 -25 -27
-13 -58 -25 -68 -25 -10 0 -35 -9 -57 -20 -22 -11 -49 -20 -60 -20 -11 0 -38
-9 -58 -19 -21 -11 -56 -23 -77 -27 -22 -3 -53 -14 -70 -22 -16 -8 -46 -19
-65 -23 -33 -7 -106 -30 -210 -65 -25 -9 -65 -20 -90 -24 -25 -5 -71 -18 -102
-29 -32 -12 -71 -21 -87 -21 -17 0 -53 -9 -81 -20 -28 -11 -61 -20 -73 -20
-13 0 -47 -7 -77 -15 -30 -9 -91 -22 -135 -29 -44 -8 -109 -21 -145 -30 -36
-8 -103 -20 -150 -26 -47 -7 -102 -18 -123 -26 -20 -8 -61 -14 -91 -14 -29 0
-78 -5 -107 -11 -73 -15 -94 -17 -239 -29 -69 -5 -154 -14 -190 -19 -36 -6
-83 -13 -105 -16 -22 -3 -195 -10 -385 -16 -361 -11 -942 0 -1090 21 -41 5
-136 15 -210 21 -74 5 -174 17 -222 25 -48 9 -124 19 -170 24 -46 4 -126 17
-178 29 -52 11 -111 21 -130 21 -19 0 -54 7 -78 15 -24 9 -78 20 -120 26 -42
5 -93 16 -112 23 -20 8 -58 17 -85 21 -28 4 -77 15 -110 25 -33 10 -78 21
-100 24 -22 4 -56 13 -75 20 -19 8 -63 21 -97 30 -35 9 -91 23 -125 32 -35 8
-71 20 -80 25 -10 5 -48 17 -85 28 -87 25 -155 47 -218 72 -28 10 -59 19 -70
19 -12 0 -30 6 -41 14 -20 14 -80 37 -194 75 -30 10 -68 26 -85 35 -16 9 -37
16 -45 16 -8 0 -30 9 -48 20 -18 11 -38 20 -44 20 -6 0 -31 9 -55 20 -24 11
-63 29 -88 40 -163 73 -280 127 -450 212 -163 80 -333 171 -420 224 -22 13
-53 30 -70 38 -16 8 -41 23 -55 33 -14 11 -32 23 -40 26 -8 4 -35 21 -60 37
-25 16 -56 35 -70 42 -14 7 -39 23 -56 35 -17 13 -34 23 -37 23 -4 0 -36 20
-71 45 -36 25 -69 45 -74 45 -5 0 -15 6 -21 14 -7 8 -51 40 -99 72 -48 32
-105 72 -128 88 -22 17 -87 65 -143 106 -120 88 -272 209 -421 335 -58 50
-146 124 -195 165 -166 140 -645 621 -782 787 -17 21 -72 85 -123 143 -50 58
-110 130 -133 160 -23 30 -67 87 -98 125 -78 99 -148 190 -194 258 -22 31 -57
81 -78 110 -54 74 -89 125 -112 163 -11 18 -35 53 -52 79 -18 25 -33 48 -33
51 0 3 -10 20 -23 37 -12 18 -28 41 -34 52 -7 11 -34 55 -60 97 -68 110 -90
148 -107 184 -7 17 -18 34 -24 38 -5 3 -26 38 -47 78 -20 40 -50 96 -65 123
-62 111 -241 476 -299 610 -22 49 -32 72 -85 188 -14 31 -26 64 -26 73 0 8 -7
25 -15 37 -8 13 -23 48 -34 78 -10 29 -24 70 -31 89 -7 19 -20 51 -30 71 -10
19 -22 53 -25 75 -4 21 -11 44 -16 50 -10 13 -54 138 -74 209 -7 28 -20 68
-28 90 -19 52 -64 203 -71 235 -2 14 -11 45 -20 70 -8 25 -21 71 -27 103 -7
32 -16 60 -20 63 -4 2 -11 30 -15 62 -4 31 -15 81 -25 111 -11 30 -19 63 -19
74 0 11 -11 68 -24 126 -32 138 -55 259 -66 346 -5 39 -17 102 -26 140 -8 39
-19 115 -24 170 -5 55 -16 140 -24 189 -9 49 -16 125 -17 170 0 44 -5 122 -9
171 -5 50 -15 153 -22 230 -23 249 -12 958 17 1095 3 14 9 108 14 210 6 102
15 199 20 215 6 17 15 84 20 150 5 66 17 152 25 190 9 39 21 102 26 140 11 87
34 208 66 346 13 58 24 115 24 126 0 11 8 44 19 74 10 30 21 80 25 111 4 32
11 60 15 62 4 3 13 31 20 63 13 60 43 166 68 243 8 25 19 63 25 85 6 22 17 58
25 80 8 22 21 63 28 90 20 71 64 196 74 209 5 6 12 29 16 50 3 22 15 56 25 75
10 20 23 52 30 71 7 19 21 60 31 89 11 30 26 65 34 78 8 12 15 28 15 35 0 7 9
30 20 51 11 20 20 43 20 49 0 7 11 35 24 63 13 27 34 73 46 100 64 143 239
501 300 610 15 28 45 83 65 123 21 40 42 75 47 78 6 4 17 21 24 38 17 36 39
74 107 184 26 42 53 86 60 97 6 11 22 34 34 52 13 17 23 34 23 37 0 3 15 26
33 51 17 26 41 61 52 79 23 38 58 89 112 163 21 29 56 79 78 110 46 68 116
159 194 258 31 39 76 95 99 126 47 62 241 289 379 442 110 122 498 506 619
612 215 190 503 425 649 530 53 39 117 86 143 106 26 19 86 61 134 93 48 32
92 64 99 72 6 8 17 14 24 14 8 0 26 10 42 23 31 26 99 69 267 169 60 36 69 41
101 63 17 12 41 26 55 33 14 7 43 23 65 37 22 13 58 33 80 44 22 11 76 41 120
66 127 71 447 227 645 313 25 11 70 32 101 46 31 14 61 26 67 26 6 0 26 9 44
20 18 11 40 20 48 20 8 0 29 7 45 16 17 9 55 25 85 35 112 37 175 61 188 71 7
6 29 14 50 19 46 10 151 44 212 69 25 10 60 21 78 24 19 3 48 12 65 20 30 13
58 21 220 62 34 9 78 22 97 30 19 7 53 16 75 20 22 3 67 14 100 24 33 10 82
21 110 25 27 4 65 13 85 21 19 7 70 18 112 23 42 6 96 17 120 26 24 8 59 15
78 15 19 0 78 10 130 21 52 12 132 25 178 29 46 5 122 15 170 24 48 8 148 20
222 25 74 6 169 16 210 22 162 23 752 33 1175 19z"/>
<path d="M10460 19849 c-19 -5 -64 -9 -100 -9 -36 0 -120 -4 -187 -9 -67 -6
-150 -12 -185 -15 -34 -2 -108 -11 -163 -20 -55 -8 -138 -19 -185 -25 -119
-13 -273 -39 -350 -58 -36 -8 -94 -19 -130 -23 -36 -5 -85 -15 -110 -24 -25
-8 -70 -18 -100 -22 -30 -3 -70 -13 -89 -20 -18 -8 -63 -19 -98 -24 -36 -6
-77 -17 -92 -24 -15 -8 -51 -19 -81 -24 -30 -6 -75 -18 -99 -26 -24 -9 -53
-16 -65 -16 -12 0 -39 -9 -61 -20 -21 -11 -55 -23 -74 -26 -20 -4 -47 -12 -61
-19 -14 -7 -47 -18 -75 -24 -27 -7 -59 -18 -70 -25 -11 -7 -44 -18 -74 -25
-29 -6 -62 -18 -74 -26 -12 -8 -31 -15 -42 -15 -11 0 -34 -9 -51 -19 -17 -10
-46 -22 -65 -26 -19 -4 -48 -16 -65 -26 -17 -10 -40 -19 -50 -19 -11 0 -32 -9
-49 -20 -16 -11 -36 -20 -44 -20 -8 0 -42 -13 -75 -29 -34 -16 -83 -39 -111
-51 -79 -35 -138 -62 -160 -73 -11 -6 -33 -17 -50 -24 -16 -8 -38 -18 -47 -24
-10 -5 -28 -14 -40 -21 -13 -6 -32 -16 -43 -21 -11 -6 -33 -17 -50 -24 -16 -8
-39 -19 -50 -25 -11 -6 -29 -16 -40 -21 -11 -6 -27 -14 -35 -18 -8 -5 -51 -27
-95 -50 -44 -22 -87 -47 -95 -54 -8 -6 -40 -25 -70 -41 -30 -15 -64 -36 -75
-45 -11 -9 -32 -23 -46 -30 -115 -61 -265 -157 -509 -326 -190 -132 -533 -402
-739 -582 -225 -197 -434 -404 -746 -741 -77 -83 -442 -538 -498 -620 -9 -14
-44 -63 -77 -110 -60 -83 -165 -237 -185 -268 -5 -9 -26 -40 -45 -70 -39 -61
-62 -98 -145 -237 -13 -22 -32 -56 -43 -75 -10 -19 -33 -59 -50 -88 -18 -30
-39 -68 -48 -85 -20 -43 -46 -87 -67 -117 -9 -13 -17 -32 -17 -41 0 -9 -8 -27
-19 -40 -10 -13 -22 -35 -26 -49 -4 -14 -16 -36 -26 -49 -11 -13 -19 -31 -19
-41 0 -10 -8 -28 -19 -41 -10 -13 -22 -35 -26 -49 -4 -14 -16 -36 -26 -49 -11
-13 -19 -31 -19 -39 0 -9 -20 -58 -45 -109 -25 -50 -45 -98 -45 -105 0 -7 -9
-26 -20 -43 -11 -16 -20 -37 -20 -45 0 -8 -12 -37 -25 -65 -14 -27 -25 -57
-25 -65 0 -8 -9 -29 -19 -46 -10 -17 -22 -44 -25 -61 -4 -17 -16 -48 -27 -69
-10 -21 -19 -45 -19 -54 0 -8 -7 -28 -15 -43 -8 -16 -19 -47 -25 -70 -6 -23
-20 -63 -30 -89 -11 -26 -20 -55 -20 -65 0 -10 -7 -31 -16 -48 -8 -16 -22 -55
-29 -85 -8 -30 -20 -75 -29 -100 -29 -89 -56 -186 -62 -225 -4 -22 -13 -55
-21 -73 -7 -17 -18 -58 -23 -90 -5 -31 -19 -95 -30 -142 -41 -170 -59 -256
-65 -314 -3 -32 -10 -67 -17 -79 -6 -11 -17 -73 -24 -136 -7 -64 -18 -138 -24
-166 -6 -27 -15 -106 -20 -175 -6 -69 -15 -152 -20 -185 -15 -87 -20 -176 -30
-500 -12 -360 -12 -315 -1 -655 11 -320 17 -408 31 -495 5 -33 14 -116 19
-185 6 -69 15 -147 21 -175 6 -27 17 -102 24 -166 7 -63 18 -125 25 -137 6
-11 14 -49 17 -84 3 -35 14 -94 24 -133 10 -38 22 -95 25 -125 4 -30 16 -77
26 -105 11 -27 19 -63 19 -78 0 -15 9 -53 19 -85 11 -31 22 -75 26 -97 4 -22
13 -58 21 -79 9 -22 20 -64 25 -95 6 -30 16 -64 24 -75 7 -12 16 -39 20 -61 4
-22 15 -59 26 -82 10 -23 19 -49 19 -58 0 -9 9 -37 20 -63 10 -26 24 -66 30
-89 6 -23 17 -54 25 -70 8 -15 15 -35 15 -43 0 -9 9 -33 19 -54 11 -21 23 -52
27 -69 3 -17 15 -44 25 -61 10 -17 19 -38 19 -46 0 -8 11 -37 25 -65 13 -27
25 -57 25 -65 0 -8 9 -28 20 -45 11 -16 20 -36 20 -43 0 -7 20 -55 45 -105 25
-51 45 -100 45 -109 0 -8 8 -26 19 -39 10 -13 22 -35 26 -49 4 -14 16 -36 26
-49 11 -13 19 -31 19 -41 0 -10 8 -28 19 -41 10 -13 22 -35 26 -49 4 -14 16
-36 26 -49 11 -13 19 -31 19 -40 0 -9 8 -28 17 -41 21 -30 47 -74 67 -117 9
-17 30 -55 48 -85 17 -29 40 -69 50 -88 11 -19 30 -53 43 -75 83 -139 106
-176 145 -237 19 -30 40 -61 45 -70 27 -43 218 -317 278 -400 115 -156 393
-500 487 -603 336 -367 614 -636 911 -880 194 -160 432 -343 569 -438 87 -60
191 -131 209 -142 9 -5 54 -35 101 -66 77 -51 117 -75 199 -118 14 -7 35 -21
46 -30 11 -9 45 -30 75 -45 30 -16 62 -34 70 -41 14 -12 215 -118 285 -152 17
-8 38 -18 47 -24 10 -5 27 -13 38 -19 11 -5 30 -15 43 -22 12 -6 36 -18 52
-25 17 -8 38 -18 48 -24 30 -16 85 -42 192 -89 28 -12 77 -35 111 -51 33 -16
67 -29 75 -29 8 0 28 -9 44 -20 17 -11 38 -20 49 -20 10 0 33 -9 50 -19 17
-10 46 -22 65 -26 19 -4 48 -16 65 -26 17 -10 39 -19 49 -19 10 0 37 -8 60
-19 23 -10 56 -22 74 -25 17 -4 48 -16 69 -27 21 -10 50 -19 64 -19 14 0 35
-7 47 -15 12 -8 45 -20 75 -26 29 -6 58 -15 63 -20 10 -7 116 -38 210 -62 22
-5 60 -16 85 -24 25 -8 68 -19 95 -25 28 -6 79 -19 115 -29 36 -10 85 -21 110
-24 25 -4 65 -13 90 -21 25 -8 74 -18 110 -23 36 -5 94 -16 130 -24 66 -17
220 -43 345 -59 39 -4 120 -15 180 -24 61 -8 137 -17 170 -20 427 -33 538 -38
875 -37 201 0 430 6 510 12 80 6 210 15 290 20 80 6 168 15 195 20 28 6 101
15 163 21 63 5 139 16 170 24 32 8 88 17 125 21 38 4 100 15 138 26 38 10 84
19 103 19 19 0 62 9 97 19 35 11 87 22 114 26 28 3 77 14 110 25 57 17 119 34
245 65 30 7 75 20 99 29 24 9 54 16 68 16 13 0 40 8 61 19 20 10 61 24 91 30
30 6 59 15 65 20 6 5 36 16 66 24 30 8 87 27 125 42 39 15 93 34 120 42 28 9
55 19 61 24 6 5 36 16 65 25 30 9 63 22 74 30 11 8 26 14 34 14 7 0 32 9 55
20 23 10 75 33 116 51 41 17 112 49 156 70 45 21 88 39 97 39 9 0 19 4 22 10
3 5 41 26 83 46 42 20 84 40 92 45 8 5 53 28 100 51 47 23 144 75 215 116 72
41 148 84 170 96 22 13 56 32 75 44 19 12 51 31 70 42 19 12 51 31 71 43 20
12 90 58 155 102 65 44 126 85 135 90 63 38 352 252 504 375 283 227 486 412
770 701 211 214 486 522 551 616 16 23 63 83 105 135 42 51 91 116 110 143 19
28 59 84 90 125 48 65 211 309 274 410 12 19 30 49 41 65 10 17 25 42 34 57
17 30 49 84 85 143 13 22 33 58 45 80 11 22 40 76 65 120 45 81 226 444 272
545 14 30 33 73 43 95 10 22 22 51 25 64 4 14 16 38 26 55 11 17 19 39 19 48
0 9 11 38 25 64 14 26 25 55 25 64 0 10 6 23 14 29 8 7 17 28 21 49 4 20 15
54 25 75 10 21 22 52 26 70 3 18 15 49 25 69 11 21 19 47 19 58 0 11 9 38 19
58 11 21 23 56 27 77 3 22 15 57 25 77 11 21 19 48 19 62 0 13 8 44 19 68 10
24 22 64 26 88 3 25 13 60 21 78 9 18 19 59 25 91 5 32 16 74 23 93 8 19 18
59 22 89 4 30 15 78 26 108 10 30 18 68 18 85 0 17 9 62 20 100 10 38 22 96
26 130 3 33 13 87 21 120 8 32 18 100 23 150 5 50 14 111 20 136 6 25 17 126
25 225 8 99 20 200 26 225 7 29 13 240 16 595 4 528 1 656 -27 885 -5 47 -14
139 -19 205 -6 66 -15 140 -21 165 -6 25 -15 87 -20 139 -5 51 -16 116 -24
145 -7 28 -17 80 -20 116 -3 36 -15 97 -26 135 -11 39 -20 84 -20 101 0 17 -8
55 -18 85 -11 30 -22 78 -26 108 -4 30 -14 70 -22 89 -7 19 -18 61 -23 93 -6
32 -16 73 -25 91 -8 18 -18 53 -21 78 -4 24 -16 64 -26 88 -11 24 -19 55 -19
68 0 14 -8 41 -19 62 -10 20 -22 55 -25 77 -4 21 -16 56 -27 77 -10 20 -19 47
-19 58 0 11 -8 37 -19 58 -10 20 -22 51 -25 69 -4 18 -16 49 -26 70 -10 21
-21 55 -25 75 -4 21 -13 42 -21 49 -8 6 -14 19 -14 29 0 9 -11 38 -25 64 -14
26 -25 55 -25 64 0 9 -8 31 -19 48 -10 17 -22 41 -26 55 -3 13 -15 42 -25 64
-10 22 -29 65 -43 95 -51 112 -228 468 -272 545 -25 44 -54 98 -66 120 -11 22
-31 58 -44 80 -36 59 -68 113 -85 143 -9 15 -24 41 -34 57 -11 17 -29 46 -41
65 -63 101 -226 345 -274 410 -31 41 -71 98 -90 125 -19 28 -68 92 -110 143
-42 52 -89 112 -105 135 -65 94 -340 402 -551 616 -283 288 -488 475 -765 697
-136 109 -379 294 -387 294 -3 0 -32 20 -64 45 -33 25 -61 45 -63 45 -3 0 -59
37 -126 83 -67 45 -139 92 -159 104 -20 12 -52 31 -71 43 -19 11 -51 30 -70
42 -19 12 -53 31 -75 44 -22 12 -98 55 -170 96 -71 41 -168 93 -215 116 -47
23 -92 46 -100 51 -8 5 -49 25 -90 45 -41 20 -82 40 -90 45 -8 4 -36 17 -63
29 -26 12 -66 30 -90 41 -23 11 -76 33 -117 50 -41 17 -92 40 -112 51 -20 11
-45 20 -55 20 -10 0 -27 6 -38 14 -11 7 -45 21 -75 31 -30 10 -59 21 -65 25
-5 4 -32 14 -60 23 -27 8 -81 27 -120 42 -38 15 -92 33 -120 41 -27 8 -63 20
-80 28 -16 8 -48 18 -70 22 -22 3 -57 15 -77 25 -21 11 -49 19 -63 19 -15 0
-47 8 -73 19 -26 10 -69 23 -97 29 -76 16 -173 41 -240 62 -33 11 -82 22 -110
25 -27 4 -79 15 -114 26 -35 10 -78 19 -97 19 -19 0 -66 9 -104 19 -39 11
-103 23 -143 26 -39 4 -94 13 -122 21 -27 8 -102 18 -165 24 -63 5 -144 16
-180 23 -36 8 -92 15 -125 16 -33 1 -154 9 -270 18 -235 18 -929 27 -985 12z
m1045 -923 c28 -3 79 -10 115 -16 36 -6 135 -17 220 -25 86 -8 175 -21 199
-30 24 -8 64 -15 90 -15 25 0 93 -11 151 -25 58 -14 119 -25 137 -25 17 0 44
-5 60 -11 15 -7 64 -20 108 -29 114 -25 210 -49 285 -71 161 -46 249 -72 295
-89 28 -10 65 -21 83 -24 19 -3 48 -13 65 -21 18 -8 52 -21 77 -29 25 -8 77
-27 115 -41 39 -15 88 -34 110 -42 22 -8 58 -23 81 -34 22 -10 46 -19 53 -19
6 0 29 -8 49 -19 63 -31 126 -59 152 -67 14 -3 37 -15 52 -25 14 -11 31 -19
38 -19 6 0 28 -9 48 -20 20 -10 107 -54 192 -95 85 -42 162 -83 170 -90 8 -7
26 -16 40 -20 14 -4 32 -13 40 -20 8 -7 47 -29 85 -50 39 -20 90 -50 115 -66
25 -15 61 -38 80 -49 36 -21 39 -23 128 -80 30 -19 70 -44 88 -55 34 -21 201
-135 244 -167 23 -17 103 -78 252 -191 227 -172 400 -327 709 -636 320 -320
506 -533 704 -805 39 -53 88 -120 110 -149 22 -29 52 -70 66 -92 14 -22 53
-80 85 -128 32 -48 66 -101 75 -117 9 -17 22 -37 29 -45 7 -8 20 -28 29 -44 9
-15 36 -63 61 -105 25 -43 54 -94 66 -114 12 -20 32 -55 44 -77 93 -158 309
-603 325 -667 4 -15 13 -32 21 -39 8 -6 14 -19 14 -28 0 -9 11 -38 25 -66 13
-27 25 -56 25 -64 0 -8 8 -32 19 -55 36 -80 63 -151 70 -186 4 -19 14 -46 23
-60 9 -14 19 -41 22 -61 4 -20 15 -54 26 -77 11 -23 20 -51 20 -64 0 -13 9
-42 20 -65 10 -24 24 -68 29 -99 6 -31 15 -62 20 -68 5 -6 16 -47 25 -90 9
-44 20 -84 25 -90 6 -6 13 -36 17 -66 4 -30 15 -77 25 -105 11 -27 19 -66 19
-86 0 -20 9 -68 21 -105 12 -37 25 -104 29 -149 4 -44 13 -93 19 -109 7 -17
16 -80 22 -140 5 -61 19 -154 29 -206 11 -52 20 -126 20 -165 1 -38 5 -115 10
-170 19 -193 22 -273 22 -595 0 -328 -4 -447 -16 -530 -4 -25 -11 -115 -16
-200 -5 -85 -18 -207 -29 -270 -11 -63 -21 -133 -21 -155 0 -22 -7 -65 -15
-95 -9 -30 -20 -91 -24 -135 -5 -45 -18 -112 -30 -149 -12 -37 -21 -85 -21
-105 0 -20 -8 -58 -19 -86 -10 -27 -21 -75 -25 -105 -4 -30 -11 -60 -17 -66
-5 -6 -16 -46 -25 -90 -9 -43 -20 -84 -25 -90 -5 -6 -14 -37 -20 -68 -5 -31
-19 -75 -29 -99 -11 -23 -20 -52 -20 -65 0 -13 -9 -41 -20 -64 -11 -23 -22
-57 -26 -77 -3 -20 -13 -47 -22 -61 -9 -14 -19 -41 -23 -60 -7 -35 -34 -106
-70 -186 -11 -23 -19 -48 -19 -57 0 -9 -11 -37 -25 -63 -14 -26 -25 -55 -25
-64 0 -10 -6 -23 -14 -29 -8 -7 -17 -24 -21 -39 -9 -37 -36 -96 -179 -392 -37
-76 -104 -203 -146 -275 -13 -22 -32 -56 -42 -75 -19 -35 -31 -55 -98 -167
-19 -32 -37 -62 -39 -68 -2 -5 -10 -18 -18 -27 -8 -9 -22 -30 -31 -47 -10 -16
-44 -70 -76 -118 -32 -48 -71 -106 -85 -128 -14 -22 -44 -63 -66 -92 -22 -29
-71 -96 -110 -149 -198 -272 -384 -485 -704 -805 -309 -309 -482 -464 -709
-636 -165 -125 -229 -174 -252 -191 -23 -17 -226 -155 -262 -177 -8 -5 -40
-26 -70 -45 -87 -56 -91 -59 -128 -80 -19 -11 -55 -34 -80 -49 -25 -16 -76
-46 -115 -66 -38 -21 -77 -43 -85 -50 -8 -7 -26 -16 -40 -20 -14 -4 -32 -13
-40 -20 -8 -7 -85 -48 -170 -90 -85 -41 -172 -85 -192 -95 -20 -11 -42 -20
-48 -20 -7 0 -24 -8 -38 -19 -15 -10 -38 -22 -52 -25 -26 -8 -89 -36 -152 -67
-20 -11 -43 -19 -49 -19 -7 0 -31 -9 -53 -19 -23 -11 -59 -26 -81 -34 -22 -8
-71 -27 -110 -42 -38 -15 -95 -34 -124 -42 -30 -8 -64 -21 -75 -28 -12 -7 -37
-16 -56 -20 -19 -3 -57 -15 -85 -25 -46 -16 -132 -43 -295 -89 -75 -22 -171
-46 -285 -71 -44 -9 -93 -22 -108 -29 -16 -6 -43 -11 -60 -11 -18 0 -79 -11
-137 -25 -58 -14 -126 -25 -151 -25 -26 0 -66 -7 -90 -15 -24 -9 -113 -22
-199 -30 -85 -8 -195 -21 -245 -28 -120 -19 -249 -22 -770 -22 -451 1 -635 7
-740 24 -33 6 -107 15 -165 21 -58 6 -132 15 -165 21 -33 6 -105 17 -160 24
-55 8 -136 24 -180 35 -45 11 -92 20 -107 20 -14 0 -55 9 -90 20 -34 11 -77
20 -95 20 -18 0 -55 9 -82 20 -27 10 -73 22 -103 26 -29 3 -62 12 -74 19 -11
7 -50 19 -85 26 -35 6 -75 17 -89 24 -14 7 -51 18 -82 25 -32 6 -60 15 -63 20
-3 4 -29 14 -57 21 -29 7 -71 20 -93 30 -22 10 -49 19 -60 19 -11 0 -42 12
-70 25 -27 14 -58 25 -67 25 -10 0 -32 9 -50 20 -18 11 -41 20 -50 20 -9 0
-38 11 -64 25 -26 14 -54 25 -63 25 -9 0 -31 9 -49 20 -18 11 -37 20 -43 20
-11 0 -65 24 -216 96 -50 24 -97 44 -105 44 -7 0 -24 9 -38 20 -14 11 -31 20
-39 20 -7 0 -30 10 -50 23 -55 34 -70 42 -156 87 -44 23 -102 54 -130 70 -27
16 -61 35 -75 42 -49 25 -175 102 -195 118 -11 9 -31 22 -45 28 -81 38 -537
361 -680 481 -30 26 -80 65 -110 88 -30 24 -73 59 -95 79 -22 19 -62 54 -88
77 -236 204 -464 432 -707 707 -36 40 -75 85 -88 99 -12 13 -33 38 -45 54 -12
16 -66 84 -119 151 -113 141 -124 155 -169 220 -19 26 -43 61 -54 76 -76 107
-185 271 -185 279 0 5 -6 14 -14 20 -18 15 -217 342 -253 416 -8 17 -27 53
-43 80 -56 100 -270 535 -270 550 0 2 -11 28 -24 57 -14 29 -27 65 -31 80 -4
15 -13 32 -21 39 -8 6 -14 18 -14 25 0 14 -41 126 -66 179 -8 17 -21 55 -30
85 -9 30 -22 64 -30 75 -8 11 -14 31 -14 45 0 14 -8 42 -19 63 -10 20 -22 54
-26 74 -4 21 -13 52 -21 68 -7 17 -20 57 -27 91 -8 33 -19 69 -24 80 -6 10
-13 37 -17 59 -4 22 -15 67 -26 100 -27 86 -48 175 -69 291 -10 55 -23 109
-28 120 -6 10 -13 51 -17 89 -4 39 -13 93 -21 120 -8 28 -19 93 -25 145 -6 52
-15 118 -20 145 -6 28 -15 111 -20 185 -5 74 -12 151 -15 170 -24 141 -28 257
-28 670 0 411 6 556 28 665 3 17 10 93 15 170 5 77 14 163 20 190 5 28 14 93
20 145 6 52 17 118 25 145 8 28 17 82 21 120 4 39 11 79 17 89 5 11 18 65 28
120 21 116 42 205 69 291 11 33 22 78 26 100 4 22 11 49 17 59 5 11 16 47 24
80 7 34 20 75 27 91 8 17 17 47 21 68 4 20 16 54 26 74 11 21 19 49 19 63 0
14 6 34 14 45 8 11 21 45 30 75 9 30 22 69 30 85 25 53 66 165 66 179 0 7 6
19 14 25 8 7 17 24 21 39 4 15 17 51 31 80 13 29 24 55 24 57 0 15 214 450
270 550 16 28 35 64 43 80 36 74 235 401 253 416 8 6 14 15 14 20 0 5 37 64
83 130 45 66 89 131 97 143 39 60 144 200 230 306 52 64 104 130 115 146 11
15 31 40 45 54 14 15 54 60 90 100 200 227 407 439 587 600 39 36 100 91 135
122 35 31 95 82 133 112 39 31 99 80 135 109 89 73 316 241 425 316 50 33 108
73 130 88 61 43 145 93 154 93 5 0 14 7 21 15 6 8 42 31 78 52 36 21 86 50
111 65 25 15 64 36 86 47 22 11 58 31 80 44 22 13 74 41 115 62 41 21 82 44
90 50 8 7 26 16 40 20 14 4 37 16 52 26 14 11 31 19 38 19 7 0 53 20 103 44
151 72 205 96 216 96 6 0 25 9 43 20 18 11 40 20 49 20 9 0 37 11 63 25 26 14
55 25 64 25 9 0 32 9 50 20 18 11 40 20 50 20 9 0 40 11 67 25 28 13 59 25 70
25 11 0 38 9 60 19 22 10 64 23 93 30 28 7 54 17 57 21 3 5 31 14 63 20 31 7
68 18 82 25 14 7 54 18 89 24 35 7 74 19 85 26 12 7 45 16 74 19 30 4 76 16
103 26 27 11 64 20 82 20 18 0 61 9 95 20 35 11 76 20 90 20 15 0 62 9 107 20
44 11 125 27 180 35 55 7 125 18 155 24 30 5 107 15 170 21 63 6 140 15 170
21 30 5 125 12 210 15 85 3 157 8 160 11 6 6 972 -4 1045 -11z"/>
<path d="M8975 13813 c-16 -2 -52 -10 -80 -18 -27 -7 -77 -17 -110 -21 -33 -3
-72 -13 -88 -21 -15 -7 -51 -18 -80 -24 -30 -5 -71 -18 -92 -29 -22 -11 -49
-20 -60 -20 -11 0 -29 -6 -40 -14 -11 -7 -36 -18 -56 -25 -55 -18 -301 -145
-381 -197 -269 -175 -547 -446 -707 -688 -19 -28 -45 -67 -58 -87 -12 -19 -23
-40 -23 -46 0 -6 -6 -16 -14 -22 -20 -17 -166 -315 -166 -340 0 -7 -6 -25 -14
-39 -18 -35 -76 -218 -76 -241 0 -10 -7 -35 -15 -55 -8 -19 -20 -80 -25 -133
-6 -54 -16 -114 -22 -133 -21 -57 -16 -547 5 -630 9 -36 17 -83 17 -105 0 -22
7 -65 15 -95 9 -30 20 -75 25 -98 13 -60 59 -201 76 -234 8 -14 14 -32 14 -39
0 -25 146 -323 166 -340 8 -6 14 -16 14 -22 0 -5 21 -43 48 -83 176 -274 456
-553 741 -738 71 -47 357 -196 375 -196 5 0 27 -8 50 -19 51 -22 128 -50 181
-63 22 -6 63 -18 90 -28 28 -10 75 -22 105 -25 30 -4 80 -14 110 -23 47 -15
109 -17 425 -17 320 0 377 2 420 17 28 9 75 20 105 24 30 3 77 15 103 25 26
11 60 19 75 19 15 0 42 9 60 20 18 11 40 20 50 20 9 0 40 11 67 25 28 13 57
25 66 25 9 0 22 7 29 14 6 8 28 20 48 27 20 6 44 17 52 25 8 7 26 17 40 22 24
9 123 72 204 129 71 50 240 194 289 247 66 69 230 274 253 315 11 19 24 41 29
50 97 154 215 408 234 501 4 19 15 49 24 67 9 18 17 42 17 55 0 13 9 55 20 93
12 39 25 102 30 140 5 39 16 117 25 175 9 69 15 185 15 336 0 202 -2 233 -16
238 -24 9 -2267 7 -2282 -3 -20 -12 -18 -641 2 -656 8 -6 265 -10 727 -9 393
1 731 -1 751 -4 41 -5 53 -23 37 -55 -7 -11 -17 -43 -25 -71 -29 -117 -135
-354 -206 -461 -42 -64 -119 -167 -135 -180 -7 -5 -25 -26 -40 -46 -40 -51
-201 -186 -283 -236 -57 -36 -233 -120 -265 -127 -16 -4 -52 -15 -80 -25 -168
-62 -521 -82 -716 -41 -52 11 -110 20 -129 20 -20 0 -45 6 -56 14 -11 8 -38
17 -60 21 -49 9 -127 41 -269 111 -144 71 -151 75 -280 171 -142 105 -280 238
-343 331 -13 20 -44 64 -66 97 -52 74 -146 240 -146 257 0 7 -9 27 -19 44 -10
17 -22 44 -25 61 -4 17 -16 48 -27 69 -10 21 -19 47 -19 58 0 10 -9 49 -19 85
-11 36 -25 109 -31 161 -6 52 -13 115 -16 140 -15 122 11 421 47 539 10 35 19
73 19 85 0 12 9 39 19 60 11 21 23 52 27 69 3 17 15 44 25 61 10 17 19 37 19
44 0 17 94 183 146 257 22 33 52 76 65 95 65 95 203 228 344 333 129 96 136
100 280 171 142 70 220 102 269 111 22 4 49 13 60 21 11 8 36 14 56 14 19 0
77 9 129 20 75 16 131 20 275 19 100 0 204 -5 231 -10 28 -6 86 -16 130 -23
44 -7 97 -21 117 -30 21 -9 48 -16 60 -16 13 0 46 -12 73 -25 28 -14 56 -25
63 -25 12 0 99 -40 132 -61 8 -5 30 -16 49 -25 18 -8 45 -23 60 -33 14 -10 46
-31 71 -47 25 -16 82 -59 128 -96 52 -43 92 -68 108 -68 17 0 82 50 220 170
107 94 213 185 235 202 60 48 61 70 3 122 -132 118 -239 200 -377 288 -38 24
-289 151 -392 198 -22 10 -56 22 -75 26 -19 3 -52 15 -72 25 -21 11 -44 19
-53 19 -9 0 -44 9 -78 20 -57 18 -157 39 -282 60 -49 8 -641 11 -700 3z"/>
<path d="M13310 12421 c-6 -13 -10 -175 -10 -460 0 -241 -3 -446 -6 -455 -5
-14 -56 -16 -465 -16 -443 0 -459 -1 -469 -19 -6 -12 -10 -123 -10 -291 0
-168 4 -279 10 -291 10 -18 26 -19 469 -19 409 0 460 -2 465 -16 3 -9 6 -215
6 -458 0 -342 3 -446 13 -460 11 -15 36 -17 300 -14 243 3 289 5 297 18 6 9
10 195 10 453 0 283 4 445 10 458 10 18 26 19 460 19 394 0 450 2 464 16 14
13 16 54 16 294 0 277 0 279 -22 294 -20 14 -81 16 -465 16 -427 0 -443 1
-453 19 -6 13 -10 176 -10 460 l0 440 -22 15 c-19 14 -65 16 -300 16 -264 0
-278 -1 -288 -19z"/>
</g>
</svg>
