<?xml version="1.0" standalone="no"?>
<!DOCTYPE svg PUBLIC "-//W3C//DTD SVG 20010904//EN"
 "http://www.w3.org/TR/2001/REC-SVG-20010904/DTD/svg10.dtd">
<svg version="1.0" xmlns="http://www.w3.org/2000/svg"
 width="2176.000000pt" height="2272.000000pt" viewBox="0 0 2176.000000 2272.000000"
 preserveAspectRatio="xMidYMid meet">

<g transform="translate(0.000000,2272.000000) scale(0.100000,-0.100000)"
fill="#000000" stroke="none">
<path d="M10260 20768 c-52 -4 -124 -12 -160 -18 -36 -5 -140 -14 -232 -19
-92 -5 -171 -12 -176 -15 -21 -13 -171 -36 -233 -36 -41 0 -89 -8 -125 -20
-33 -12 -92 -22 -134 -24 -42 -2 -101 -12 -135 -23 -33 -12 -89 -23 -125 -26
-36 -3 -87 -14 -113 -26 -27 -12 -68 -21 -92 -21 -24 0 -65 -9 -92 -21 -26
-11 -71 -22 -99 -24 -28 -1 -69 -12 -92 -24 -23 -12 -60 -21 -82 -21 -22 0
-57 -8 -78 -19 -20 -10 -57 -22 -82 -26 -25 -4 -66 -17 -91 -30 -30 -15 -62
-23 -87 -22 -30 1 -48 -5 -65 -21 -16 -15 -36 -22 -63 -22 -27 0 -51 -8 -74
-25 -21 -16 -47 -25 -70 -25 -23 0 -49 -9 -70 -25 -19 -14 -48 -25 -64 -25
-17 0 -42 -9 -56 -20 -14 -11 -39 -20 -56 -20 -16 0 -45 -11 -64 -25 -19 -14
-47 -25 -62 -25 -16 0 -41 -9 -56 -19 -15 -11 -43 -22 -63 -25 -20 -4 -44 -15
-54 -26 -10 -11 -30 -20 -44 -20 -14 0 -39 -9 -56 -20 -16 -11 -37 -20 -45
-20 -8 0 -42 -14 -75 -30 -33 -16 -65 -30 -71 -30 -6 0 -19 -9 -28 -19 -10
-11 -32 -23 -50 -27 -17 -4 -42 -15 -55 -25 -13 -11 -33 -19 -43 -19 -11 0
-33 -11 -50 -25 -16 -14 -39 -25 -52 -25 -12 0 -29 -9 -38 -20 -10 -11 -30
-22 -45 -26 -15 -4 -35 -13 -44 -20 -8 -8 -31 -19 -50 -26 -19 -6 -59 -26 -89
-44 -30 -17 -65 -34 -76 -38 -12 -4 -29 -15 -39 -26 -10 -11 -26 -20 -36 -20
-10 0 -32 -13 -49 -30 -17 -16 -41 -30 -54 -30 -13 0 -26 -7 -29 -14 -3 -8
-32 -27 -64 -42 -32 -15 -73 -40 -91 -56 -18 -15 -39 -28 -47 -28 -15 0 -101
-55 -110 -71 -4 -5 -15 -9 -25 -9 -11 0 -26 -10 -34 -22 -9 -13 -41 -36 -73
-53 -32 -16 -64 -37 -70 -47 -7 -9 -41 -32 -76 -51 -34 -20 -83 -53 -107 -74
-25 -21 -62 -47 -84 -58 -21 -11 -46 -29 -55 -40 -20 -25 -83 -73 -135 -105
-22 -13 -60 -43 -84 -66 -24 -23 -81 -68 -128 -99 -46 -32 -98 -74 -115 -93
-30 -33 -63 -63 -227 -198 -63 -53 -448 -430 -632 -621 -47 -48 -124 -135
-172 -193 -47 -58 -111 -132 -142 -165 -31 -33 -73 -84 -92 -113 -19 -28 -59
-78 -88 -110 -45 -50 -81 -97 -148 -200 -9 -14 -23 -29 -31 -34 -8 -4 -27 -29
-43 -55 -15 -27 -47 -70 -71 -98 -24 -27 -43 -54 -43 -60 0 -6 -19 -35 -41
-65 -23 -30 -47 -66 -53 -80 -6 -14 -30 -49 -53 -78 -24 -29 -43 -59 -43 -67
0 -7 -11 -26 -24 -42 -14 -16 -36 -51 -51 -78 -14 -27 -34 -59 -44 -70 -10
-11 -22 -31 -26 -45 -4 -14 -18 -37 -31 -52 -12 -15 -34 -52 -48 -81 -14 -30
-32 -60 -41 -67 -8 -7 -15 -22 -15 -34 0 -13 -11 -33 -25 -46 -14 -13 -25 -31
-25 -40 0 -9 -11 -31 -25 -50 -14 -19 -25 -39 -25 -46 0 -6 -7 -17 -14 -24 -8
-6 -20 -28 -27 -48 -7 -20 -20 -48 -30 -61 -11 -13 -19 -30 -19 -37 0 -7 -11
-30 -25 -50 -14 -20 -25 -45 -25 -54 0 -10 -7 -23 -14 -30 -8 -6 -20 -28 -27
-48 -7 -20 -20 -48 -30 -61 -11 -13 -19 -33 -19 -45 0 -12 -11 -37 -25 -56
-14 -19 -25 -41 -25 -49 0 -9 -9 -29 -20 -46 -11 -16 -20 -40 -20 -51 0 -12
-8 -32 -19 -45 -10 -13 -22 -38 -25 -56 -4 -18 -15 -42 -25 -55 -10 -13 -22
-42 -26 -65 -3 -23 -13 -47 -21 -53 -7 -7 -16 -28 -20 -49 -3 -20 -15 -48 -25
-64 -11 -15 -23 -47 -28 -72 -5 -25 -15 -53 -24 -63 -8 -9 -18 -35 -21 -57 -4
-22 -16 -55 -27 -73 -10 -18 -19 -48 -19 -65 0 -18 -12 -50 -25 -72 -14 -22
-25 -54 -25 -72 0 -17 -9 -47 -19 -65 -10 -18 -22 -53 -25 -78 -4 -25 -15 -59
-26 -75 -11 -17 -20 -47 -20 -70 0 -22 -11 -64 -25 -93 -14 -30 -25 -69 -25
-88 0 -19 -9 -52 -20 -74 -11 -21 -21 -65 -24 -98 -2 -32 -13 -80 -25 -107
-11 -26 -21 -67 -21 -90 0 -23 -11 -73 -25 -109 -15 -40 -25 -87 -25 -120 0
-29 -9 -79 -20 -111 -11 -32 -20 -81 -20 -110 0 -28 -9 -87 -21 -131 -11 -43
-25 -131 -29 -195 -5 -64 -14 -128 -19 -142 -6 -15 -8 -33 -5 -41 3 -8 0 -24
-6 -36 -6 -12 -16 -101 -21 -198 -5 -97 -14 -220 -18 -272 -12 -125 -12 -1128
0 -1250 5 -52 13 -171 18 -265 5 -93 17 -201 26 -240 9 -38 20 -119 24 -180 4
-60 18 -146 30 -190 14 -52 20 -93 16 -117 -5 -26 1 -59 19 -114 14 -42 26
-98 26 -125 0 -27 11 -82 25 -121 14 -39 25 -91 25 -115 0 -24 11 -70 25 -103
14 -33 25 -77 25 -98 0 -22 9 -59 19 -83 10 -24 22 -66 26 -94 4 -27 15 -66
26 -87 10 -20 19 -54 19 -74 0 -20 9 -51 20 -70 12 -18 24 -57 27 -86 3 -29
14 -64 24 -78 9 -14 20 -45 23 -70 4 -24 14 -52 22 -61 9 -10 19 -42 23 -73 4
-31 15 -64 24 -74 9 -10 21 -40 26 -66 5 -26 15 -54 24 -64 8 -9 18 -35 22
-57 4 -22 16 -54 26 -71 11 -17 19 -44 19 -59 0 -15 11 -40 25 -57 14 -16 25
-41 25 -55 0 -14 8 -37 19 -51 10 -15 21 -43 25 -63 4 -21 13 -42 21 -49 8 -7
17 -28 21 -49 4 -20 17 -49 30 -64 13 -16 24 -38 24 -50 0 -12 9 -33 20 -47
11 -14 20 -33 20 -44 0 -10 11 -31 25 -48 14 -16 25 -40 25 -52 0 -13 9 -35
20 -49 11 -14 20 -34 20 -45 0 -11 11 -34 25 -50 14 -17 25 -39 25 -49 0 -11
11 -30 25 -43 14 -13 25 -32 25 -43 0 -10 11 -32 25 -49 14 -16 25 -36 25 -45
0 -8 11 -28 25 -45 14 -16 25 -38 25 -48 0 -10 4 -21 9 -25 5 -3 26 -39 47
-80 21 -41 46 -83 56 -92 10 -9 18 -24 18 -33 0 -9 9 -25 20 -35 11 -10 33
-46 50 -80 17 -34 39 -70 50 -80 11 -10 20 -25 20 -33 0 -8 17 -39 38 -70 20
-30 42 -63 48 -73 6 -11 20 -30 31 -42 11 -12 31 -42 44 -67 13 -25 44 -70 69
-100 25 -30 54 -72 65 -93 10 -21 32 -51 48 -67 29 -29 35 -37 71 -101 10 -19
35 -52 56 -74 21 -22 58 -68 82 -101 24 -34 77 -101 118 -148 41 -48 77 -93
79 -99 6 -19 45 -63 181 -207 70 -74 145 -157 165 -184 48 -63 419 -431 479
-475 26 -19 95 -81 154 -139 59 -59 152 -140 207 -182 55 -42 123 -100 152
-128 29 -28 69 -60 91 -71 21 -11 68 -46 104 -78 36 -32 85 -69 109 -83 23
-14 62 -42 86 -63 25 -20 59 -45 76 -54 18 -9 52 -33 75 -54 24 -21 59 -43 78
-49 19 -6 34 -15 34 -19 0 -11 86 -71 102 -71 8 0 24 -11 37 -24 12 -13 46
-35 76 -50 29 -15 61 -36 71 -47 9 -10 45 -32 79 -48 33 -16 67 -36 74 -45 7
-9 22 -16 32 -16 10 0 34 -13 52 -30 19 -16 40 -30 46 -30 7 0 27 -11 45 -25
18 -14 37 -25 43 -25 15 0 102 -48 120 -65 8 -8 25 -15 37 -15 12 0 33 -11 46
-25 13 -14 31 -25 40 -25 10 0 28 -8 41 -18 13 -11 37 -22 52 -26 15 -3 35
-15 45 -26 9 -11 28 -20 42 -20 15 0 37 -11 50 -25 14 -15 35 -25 50 -25 15 0
39 -9 53 -20 14 -11 35 -20 47 -20 11 0 31 -11 43 -24 12 -13 38 -27 57 -31
19 -4 46 -16 59 -26 13 -11 35 -19 50 -19 14 0 37 -9 51 -20 14 -11 37 -20 52
-20 14 0 39 -11 55 -24 16 -13 46 -27 66 -31 20 -4 48 -16 61 -26 13 -11 39
-19 57 -19 19 0 42 -8 54 -20 12 -12 40 -23 61 -27 21 -3 53 -14 69 -23 17
-10 48 -22 70 -26 22 -4 52 -15 67 -26 16 -11 36 -17 46 -14 11 4 39 -5 66
-19 26 -14 60 -25 76 -25 15 0 50 -11 77 -24 26 -13 68 -27 93 -31 25 -4 62
-16 82 -26 21 -11 53 -19 72 -19 20 0 53 -9 74 -20 22 -11 64 -23 93 -27 30
-3 70 -14 89 -23 19 -10 62 -20 95 -23 33 -3 82 -15 108 -26 29 -12 70 -21
101 -21 29 0 56 -4 62 -9 15 -16 124 -41 175 -41 25 0 75 -9 109 -20 34 -11
89 -20 121 -20 58 0 121 -12 189 -35 19 -6 76 -12 125 -14 94 -1 203 -16 245
-33 14 -5 112 -12 219 -14 107 -3 202 -9 213 -15 11 -6 56 -10 101 -9 112 3
117 2 117 -15 0 -13 46 -15 350 -15 304 0 350 2 350 15 0 17 5 18 115 15 44
-1 92 3 108 9 15 6 113 13 216 15 108 2 198 9 209 15 12 6 34 11 51 11 16 0
41 4 54 9 13 5 71 10 128 12 57 1 120 8 139 14 68 24 131 35 194 35 35 0 83 7
107 16 24 9 83 20 130 25 48 4 111 17 140 29 30 11 74 20 99 20 25 0 65 10 90
21 25 11 77 24 117 28 39 5 82 16 94 25 14 9 43 16 70 16 29 0 63 9 95 25 28
14 66 25 89 25 22 0 51 7 64 16 13 9 55 23 94 30 38 8 78 21 88 30 10 9 40 19
66 22 26 2 61 14 76 24 15 11 45 21 66 22 20 1 53 12 73 24 19 12 46 22 59 22
14 0 35 7 48 17 13 9 45 20 70 25 25 4 58 17 73 28 15 11 40 20 56 20 16 0 40
8 53 19 13 10 40 22 59 26 19 4 47 16 62 26 14 11 37 19 50 19 13 0 39 11 58
25 19 14 42 25 51 25 10 0 39 11 65 25 26 14 54 25 62 25 8 0 27 11 44 25 16
14 39 25 50 25 11 0 31 9 45 20 14 11 35 20 45 20 11 0 33 11 50 25 16 14 39
25 51 25 11 0 31 10 43 21 13 12 35 23 50 25 14 1 35 12 45 23 11 12 30 21 43
21 12 0 33 11 46 25 13 14 33 25 46 25 12 0 28 7 35 16 7 9 43 30 79 47 36 16
76 39 89 49 13 10 31 18 40 18 10 0 30 14 46 30 16 17 39 30 51 30 12 0 24 7
27 15 4 8 35 28 70 44 35 16 70 37 78 47 7 9 32 24 54 34 22 9 60 34 83 54 24
20 50 36 57 36 8 0 25 10 39 23 41 37 84 67 96 67 15 0 100 61 100 72 0 5 21
18 46 28 25 11 58 33 73 48 35 36 91 78 117 86 11 3 36 22 55 41 18 20 66 57
104 82 39 26 81 58 95 73 38 39 146 130 154 130 12 0 85 61 151 125 34 33 108
100 166 150 128 111 539 522 634 635 39 46 104 118 145 160 41 43 107 119 145
170 39 51 82 104 96 119 15 14 47 55 72 91 24 36 59 80 76 99 18 19 49 59 69
90 20 31 55 79 79 107 24 28 43 55 43 59 0 10 68 113 80 120 5 3 23 31 41 63
18 31 39 61 47 66 8 4 20 22 29 40 23 50 39 75 62 100 11 12 21 29 21 36 0 8
11 25 24 39 13 15 38 54 55 87 17 34 38 67 46 74 8 7 15 18 15 25 0 7 8 23 19
36 10 13 35 56 55 95 20 40 43 77 51 84 8 7 15 20 15 29 0 10 11 32 25 51 14
19 25 40 25 48 0 8 11 27 25 44 14 16 25 37 25 47 0 10 9 26 19 35 10 10 22
32 25 50 4 18 15 41 26 51 11 10 20 26 20 36 0 10 11 35 25 55 14 20 25 43 25
50 0 8 9 28 20 46 11 18 20 40 20 49 0 8 11 30 25 49 14 19 25 44 25 56 0 12
7 27 15 34 8 7 20 31 26 53 6 23 19 52 30 65 10 14 19 33 19 44 0 10 11 40 25
66 14 26 25 56 25 68 0 11 8 29 19 38 10 9 21 35 25 56 3 22 15 55 26 72 11
18 20 45 20 59 0 15 9 38 20 52 11 14 23 47 27 73 3 26 14 55 23 64 10 10 20
37 24 61 4 25 15 59 26 77 11 18 20 47 20 65 0 17 9 47 20 65 11 18 23 54 26
80 3 26 14 58 23 72 10 14 20 50 23 81 4 30 16 71 27 90 13 21 21 51 21 79 0
27 10 65 25 95 14 29 25 68 25 93 0 24 7 56 15 72 9 17 20 63 25 104 5 40 17
93 26 117 9 24 20 79 24 121 4 42 17 104 29 137 12 35 21 86 21 120 0 32 7 77
15 100 8 22 12 41 10 41 -2 0 2 21 9 48 8 26 14 84 14 128 0 45 5 91 11 102 6
12 11 35 11 52 0 17 4 40 10 50 5 10 12 95 15 190 3 94 8 177 12 183 4 7 8 35
9 62 1 28 7 127 13 220 13 214 13 694 0 885 -16 233 -17 240 -28 340 -5 52
-10 134 -10 182 0 48 -4 104 -10 125 -23 90 -34 164 -36 243 -2 52 -11 111
-24 154 -12 39 -21 96 -21 135 -1 42 -8 86 -21 121 -12 30 -25 93 -29 140 -4
49 -17 104 -29 131 -12 26 -20 64 -19 90 0 28 -8 61 -21 87 -12 24 -21 61 -21
89 -1 30 -10 67 -25 98 -15 29 -25 68 -25 93 0 26 -10 61 -25 90 -14 26 -25
63 -25 82 0 20 -9 53 -20 75 -11 22 -20 52 -20 68 0 15 -11 49 -25 75 -14 26
-25 62 -25 81 0 18 -9 48 -19 65 -10 17 -22 47 -26 66 -4 19 -16 50 -26 68
-10 18 -19 44 -19 58 0 14 -11 46 -25 72 -14 26 -25 60 -25 75 0 16 -11 42
-25 59 -14 16 -25 42 -25 56 0 15 -9 41 -20 57 -11 17 -20 42 -20 56 0 14 -11
40 -25 59 -14 19 -25 44 -25 56 0 12 -9 32 -19 46 -11 13 -24 42 -30 65 -6 22
-17 46 -25 52 -7 6 -16 29 -20 50 -3 21 -12 44 -20 50 -8 7 -18 25 -21 41 -4
16 -14 39 -24 52 -10 13 -21 37 -25 54 -4 18 -16 40 -26 49 -10 9 -22 31 -25
47 -4 17 -18 46 -31 65 -13 20 -24 41 -24 48 0 7 -7 18 -15 25 -8 7 -15 20
-15 29 0 10 -11 32 -25 51 -14 19 -25 41 -25 50 0 9 -9 25 -19 34 -11 10 -23
31 -26 46 -3 15 -15 36 -26 46 -10 9 -19 25 -19 35 0 10 -8 26 -19 36 -10 10
-33 48 -51 85 -18 37 -41 75 -51 84 -10 9 -19 25 -19 34 0 10 -7 23 -15 30 -8
7 -33 45 -55 85 -22 40 -47 78 -55 85 -8 7 -15 18 -15 25 0 8 -10 26 -23 42
-13 15 -38 54 -56 86 -18 31 -37 57 -42 57 -5 0 -19 19 -31 41 -43 77 -77 128
-114 164 -13 13 -24 29 -24 35 0 14 -34 60 -82 113 -21 22 -51 63 -67 91 -16
28 -48 71 -72 96 -24 25 -52 57 -61 70 -54 79 -103 139 -183 229 -49 55 -117
133 -150 173 -115 139 -794 808 -820 808 -4 0 -58 47 -120 104 -62 57 -142
122 -177 146 -34 24 -83 62 -108 86 -51 48 -95 84 -104 84 -11 0 -106 72 -106
80 0 4 -21 21 -47 36 -27 15 -74 49 -106 76 -32 26 -62 48 -67 48 -13 0 -80
45 -110 73 -14 14 -46 34 -71 46 -26 12 -54 30 -64 41 -9 10 -40 31 -69 46
-28 14 -60 35 -72 45 -11 10 -28 19 -38 19 -9 0 -29 12 -44 27 -15 15 -54 40
-87 56 -33 16 -64 35 -68 43 -4 8 -17 14 -27 14 -11 0 -35 14 -53 30 -19 17
-44 30 -55 30 -11 0 -26 7 -33 16 -7 9 -45 31 -84 50 -40 18 -77 40 -85 48 -7
9 -23 16 -36 16 -13 0 -32 9 -41 20 -10 11 -27 20 -39 20 -13 0 -36 11 -52 25
-17 14 -39 25 -50 25 -11 0 -34 11 -50 25 -17 14 -39 25 -51 25 -12 0 -29 9
-38 20 -10 11 -26 20 -36 20 -23 0 -60 19 -70 36 -4 7 -22 16 -40 19 -17 4
-50 18 -73 31 -22 13 -49 24 -58 24 -10 0 -29 9 -43 20 -14 11 -37 20 -50 20
-14 0 -38 9 -53 20 -16 11 -43 23 -62 27 -18 3 -44 14 -57 25 -13 10 -36 18
-51 18 -15 0 -44 11 -64 25 -20 14 -50 25 -65 25 -16 0 -40 9 -54 20 -14 11
-38 20 -55 20 -16 0 -46 11 -66 25 -23 15 -51 25 -73 25 -23 0 -45 8 -59 21
-13 13 -43 23 -78 28 -31 4 -65 16 -76 26 -12 11 -38 19 -67 20 -26 1 -64 12
-83 23 -19 11 -57 23 -85 27 -27 4 -66 15 -87 26 -20 10 -54 19 -74 19 -21 0
-57 10 -81 21 -24 12 -70 25 -101 29 -31 4 -74 15 -94 24 -21 9 -60 16 -87 16
-28 0 -70 9 -98 21 -26 12 -77 23 -113 26 -36 3 -90 14 -120 25 -31 11 -88 22
-130 23 -41 2 -104 13 -139 24 -38 13 -90 21 -130 21 -59 0 -202 23 -223 36
-5 3 -79 10 -166 15 -86 5 -191 13 -232 19 -41 5 -127 14 -190 19 -134 11
-1050 11 -1190 -1z m948 -668 c19 -5 100 -10 180 -11 81 -1 194 -5 252 -11
111 -9 125 -11 235 -27 39 -5 104 -13 145 -16 41 -3 98 -10 125 -16 28 -5 102
-17 165 -25 63 -8 131 -20 150 -28 19 -8 67 -17 105 -21 39 -4 97 -16 130 -25
33 -10 83 -21 111 -24 27 -3 76 -15 107 -26 31 -11 68 -20 82 -20 14 0 52 -9
84 -20 32 -11 78 -22 102 -26 24 -4 60 -15 79 -24 19 -10 58 -21 85 -24 28 -4
59 -14 71 -21 11 -7 47 -18 79 -24 32 -6 63 -15 69 -20 6 -5 36 -16 66 -25 62
-17 182 -59 214 -74 12 -6 41 -17 66 -25 25 -8 74 -26 110 -40 36 -14 89 -34
118 -46 30 -11 65 -27 78 -36 13 -8 31 -15 41 -15 10 0 32 -8 49 -19 17 -10
41 -22 55 -26 36 -11 129 -55 394 -186 269 -134 354 -179 503 -267 57 -34 105
-62 107 -62 5 0 226 -138 350 -219 22 -14 65 -45 97 -68 31 -24 59 -43 62 -43
3 0 47 -30 96 -67 50 -38 133 -99 186 -138 279 -205 582 -472 907 -800 143
-143 271 -274 285 -291 15 -17 57 -64 93 -105 37 -41 99 -112 138 -159 39 -47
88 -105 109 -128 20 -24 46 -57 57 -72 11 -16 54 -72 95 -125 41 -53 80 -104
85 -114 6 -9 24 -35 41 -56 42 -54 249 -357 309 -455 24 -39 62 -100 91 -145
10 -16 25 -41 32 -55 6 -14 25 -45 42 -70 16 -25 38 -63 49 -85 12 -22 34 -62
51 -90 16 -27 33 -57 36 -65 3 -8 12 -26 20 -40 8 -14 22 -41 31 -60 8 -19 21
-42 28 -50 7 -8 16 -26 20 -40 4 -14 16 -36 26 -49 11 -13 19 -30 19 -38 0 -8
11 -31 25 -51 14 -20 25 -46 25 -57 0 -11 9 -31 20 -45 11 -14 20 -29 20 -35
0 -5 14 -37 30 -70 17 -33 30 -65 30 -71 0 -6 6 -17 14 -23 8 -7 18 -27 21
-44 4 -18 16 -46 26 -63 10 -17 19 -39 19 -49 0 -9 11 -38 24 -64 13 -25 36
-80 51 -121 15 -41 35 -93 45 -115 10 -22 22 -55 25 -74 4 -18 15 -48 25 -65
10 -17 21 -49 25 -70 3 -21 13 -48 20 -60 7 -12 17 -39 21 -61 4 -22 15 -56
24 -75 10 -19 21 -55 25 -80 4 -25 15 -61 25 -80 9 -19 20 -55 23 -80 3 -25
15 -66 26 -90 11 -25 21 -60 21 -78 0 -18 9 -54 19 -80 11 -26 25 -78 31 -116
6 -38 16 -78 21 -88 6 -10 16 -60 24 -111 8 -51 21 -109 29 -129 9 -21 16 -55
16 -76 0 -21 9 -72 19 -113 10 -41 22 -114 26 -164 4 -49 14 -108 22 -130 8
-22 19 -107 24 -190 5 -82 12 -159 16 -170 30 -96 46 -546 38 -1130 -4 -357
-9 -503 -20 -570 -9 -49 -20 -146 -26 -215 -5 -69 -18 -174 -29 -235 -10 -60
-22 -139 -25 -175 -4 -36 -15 -99 -25 -140 -10 -41 -20 -102 -24 -135 -3 -33
-12 -80 -21 -105 -9 -25 -20 -70 -24 -100 -10 -64 -44 -207 -72 -300 -11 -36
-19 -71 -19 -79 0 -8 -12 -53 -26 -100 -14 -47 -37 -124 -51 -171 -14 -47 -34
-106 -44 -132 -11 -26 -19 -57 -19 -70 0 -13 -9 -42 -20 -63 -12 -22 -25 -56
-30 -75 -5 -19 -22 -71 -39 -115 -16 -44 -34 -96 -41 -115 -7 -19 -23 -56 -36
-83 -13 -26 -24 -54 -24 -63 0 -9 -9 -31 -19 -48 -10 -17 -22 -47 -26 -66 -4
-19 -16 -47 -26 -62 -11 -14 -19 -34 -19 -45 0 -10 -12 -36 -25 -58 -14 -22
-25 -47 -25 -56 0 -9 -9 -28 -20 -42 -11 -14 -23 -39 -26 -56 -4 -17 -13 -36
-20 -42 -8 -6 -14 -16 -14 -22 0 -11 -151 -314 -200 -402 -16 -27 -38 -68 -49
-90 -22 -42 -53 -97 -89 -155 -26 -43 -71 -122 -94 -164 -9 -18 -23 -38 -32
-45 -9 -8 -16 -19 -16 -25 0 -7 -20 -40 -45 -74 -25 -34 -45 -65 -45 -68 0 -6
-48 -79 -95 -144 -11 -15 -42 -60 -70 -101 -27 -40 -60 -86 -73 -103 -12 -17
-30 -43 -40 -57 -43 -64 -271 -350 -424 -531 -400 -476 -1055 -1073 -1562
-1426 -33 -23 -77 -53 -96 -67 -126 -89 -376 -250 -464 -298 -28 -16 -67 -39
-86 -52 -19 -13 -61 -37 -92 -53 -32 -17 -70 -40 -84 -51 -15 -12 -35 -21 -45
-21 -10 0 -21 -5 -24 -11 -8 -11 -8 -12 -297 -156 -111 -55 -214 -104 -228
-108 -14 -4 -36 -16 -49 -26 -13 -11 -31 -19 -40 -19 -9 0 -34 -11 -56 -25
-22 -13 -47 -25 -55 -25 -8 0 -37 -12 -65 -25 -27 -14 -56 -25 -63 -25 -7 0
-30 -9 -50 -19 -50 -26 -140 -61 -180 -71 -18 -4 -43 -15 -56 -23 -13 -9 -41
-19 -62 -23 -21 -4 -48 -13 -59 -21 -11 -7 -38 -18 -60 -24 -22 -6 -62 -18
-90 -29 -27 -10 -90 -30 -140 -45 -49 -14 -110 -33 -135 -42 -25 -8 -72 -21
-105 -29 -33 -7 -80 -19 -105 -28 -53 -17 -149 -42 -244 -62 -37 -7 -87 -20
-110 -28 -22 -7 -68 -17 -101 -20 -33 -4 -86 -16 -118 -27 -31 -10 -75 -19
-96 -19 -22 0 -77 -9 -123 -20 -46 -11 -103 -22 -128 -24 -25 -3 -74 -8 -110
-12 -36 -3 -75 -10 -88 -15 -13 -5 -105 -16 -205 -24 -100 -9 -220 -21 -267
-27 -108 -15 -1303 -15 -1410 0 -41 5 -142 15 -225 21 -82 7 -172 16 -200 22
-84 16 -167 28 -235 34 -36 3 -90 12 -120 20 -30 9 -94 20 -141 25 -47 5 -101
16 -120 24 -19 8 -61 17 -94 21 -33 4 -87 15 -120 25 -33 10 -81 21 -106 25
-25 3 -69 15 -98 25 -28 11 -66 20 -84 20 -17 0 -51 9 -74 20 -23 10 -64 22
-90 26 -26 3 -61 13 -76 21 -26 13 -77 28 -222 67 -27 7 -66 20 -85 29 -33 15
-59 24 -177 63 -27 8 -66 24 -88 35 -22 10 -47 19 -55 19 -8 0 -28 7 -45 16
-16 9 -52 24 -80 34 -27 10 -70 25 -95 34 -25 9 -61 25 -81 36 -20 11 -45 20
-56 20 -10 0 -34 11 -53 25 -19 14 -40 25 -47 25 -13 0 -73 27 -155 71 -20 10
-43 19 -51 19 -8 0 -25 8 -38 19 -13 10 -41 23 -61 30 -20 7 -42 18 -48 26 -6
7 -24 17 -40 20 -16 3 -34 12 -40 20 -6 7 -23 16 -37 20 -15 3 -38 14 -52 24
-14 10 -60 36 -101 58 -93 49 -156 84 -197 109 -92 56 -150 90 -163 95 -14 6
-113 70 -185 119 -16 11 -97 66 -180 121 -191 128 -346 242 -586 432 -345 271
-850 757 -1095 1052 -32 39 -90 106 -129 150 -38 44 -88 104 -110 133 -22 29
-60 78 -85 110 -25 31 -68 88 -95 125 -28 37 -71 95 -98 129 -26 33 -47 64
-47 68 0 3 -19 32 -43 63 -23 31 -60 84 -82 118 -22 34 -61 94 -87 133 -26 39
-66 103 -88 141 -23 39 -54 90 -70 115 -17 25 -35 56 -42 70 -6 14 -17 32 -24
40 -7 8 -31 51 -54 95 -94 179 -136 255 -148 267 -6 6 -12 16 -12 21 0 8 -34
81 -140 302 -55 113 -140 308 -140 320 0 6 -12 33 -25 60 -14 28 -25 57 -25
65 0 8 -9 30 -20 48 -11 18 -20 38 -20 45 0 6 -11 35 -25 62 -13 28 -25 59
-25 70 0 12 -9 39 -20 60 -12 22 -26 62 -32 90 -6 27 -16 59 -23 70 -7 11 -16
38 -20 60 -4 21 -15 55 -24 75 -10 19 -21 54 -25 78 -3 24 -13 54 -21 66 -8
12 -18 45 -21 72 -4 27 -15 65 -24 84 -10 19 -20 59 -24 88 -4 30 -15 77 -26
105 -10 29 -21 73 -25 99 -3 26 -15 72 -26 102 -10 31 -19 66 -19 78 0 13 -9
61 -20 108 -31 133 -60 296 -71 400 -5 52 -17 120 -25 150 -8 30 -19 122 -25
204 -5 82 -14 157 -19 165 -19 37 -35 423 -35 866 1 442 14 781 36 870 5 22
14 101 19 175 5 74 14 155 20 180 6 25 17 99 25 165 9 66 22 140 29 165 8 25
17 76 21 113 4 38 13 84 21 103 8 18 19 66 24 105 6 40 19 102 29 138 10 36
23 89 29 116 17 81 42 176 62 235 10 30 22 73 25 95 4 22 11 45 15 50 5 6 18
44 29 85 11 41 27 93 35 115 8 22 15 48 16 57 0 10 9 37 19 60 11 24 30 75 44
113 43 123 49 139 74 205 14 36 31 83 39 105 8 22 23 56 33 75 10 19 22 49 26
67 3 17 12 37 20 43 7 6 16 26 19 44 4 19 13 39 20 45 8 7 17 24 21 39 18 71
314 664 361 722 6 8 15 26 19 40 4 14 14 33 22 42 8 9 22 30 31 47 56 102 104
180 117 191 8 7 15 17 15 23 0 11 7 22 84 137 32 49 60 90 122 184 10 16 26
39 34 51 8 12 24 35 35 51 10 16 64 89 120 162 55 74 107 144 116 157 32 49
298 365 425 505 143 157 520 533 674 671 165 149 415 352 618 504 15 11 52 39
82 61 55 41 331 227 399 269 9 6 30 19 46 30 41 28 65 42 100 61 17 9 37 23
45 30 9 7 47 30 85 50 39 20 77 42 85 49 8 7 47 30 85 50 39 21 90 49 115 63
25 14 77 40 115 60 39 19 79 39 90 45 11 6 34 17 50 24 17 8 37 18 45 23 47
28 339 166 370 174 14 4 43 16 65 26 89 41 182 80 191 80 5 0 27 9 49 20 22
11 47 20 57 20 9 0 19 4 23 10 3 5 34 18 68 29 109 35 181 61 202 73 10 6 42
17 70 24 47 12 73 20 193 60 26 9 72 22 102 29 30 7 69 18 85 25 17 7 57 18
90 25 33 7 78 20 100 29 22 8 52 15 66 16 15 0 55 9 90 20 35 10 95 24 133 30
38 6 77 15 87 21 10 5 56 14 101 20 46 5 103 16 128 24 25 8 90 19 145 25 55
6 107 13 115 16 32 11 118 25 185 30 61 5 132 13 250 30 82 11 255 22 380 23
77 1 154 5 170 10 41 12 662 13 703 1z"/>
<path d="M10365 19178 c-195 -16 -210 -17 -250 -22 -22 -3 -98 -10 -168 -16
-71 -6 -140 -15 -153 -20 -13 -5 -70 -14 -127 -19 -56 -6 -129 -17 -162 -26
-33 -9 -94 -20 -135 -25 -41 -6 -97 -16 -125 -24 -27 -8 -84 -21 -125 -29
-155 -32 -186 -40 -230 -54 -25 -8 -63 -19 -85 -24 -22 -6 -69 -19 -105 -29
-36 -10 -87 -24 -114 -30 -27 -6 -58 -18 -70 -26 -11 -7 -31 -14 -44 -14 -12
0 -49 -11 -82 -25 -33 -14 -68 -25 -78 -25 -10 0 -35 -9 -57 -20 -22 -11 -46
-20 -55 -20 -8 0 -35 -10 -60 -21 -25 -12 -58 -25 -75 -29 -32 -9 -150 -55
-176 -69 -8 -5 -47 -21 -85 -36 -38 -15 -89 -37 -114 -50 -25 -12 -56 -26 -70
-30 -14 -4 -37 -16 -52 -26 -14 -11 -31 -19 -37 -19 -18 0 -302 -141 -337
-167 -17 -13 -37 -23 -43 -23 -7 0 -25 -9 -41 -20 -15 -11 -38 -24 -51 -30
-13 -5 -45 -22 -71 -37 -113 -67 -196 -115 -228 -135 -68 -41 -318 -205 -370
-243 -15 -11 -40 -29 -56 -40 -258 -176 -603 -461 -889 -735 -331 -316 -600
-619 -855 -959 -25 -33 -66 -88 -93 -121 -26 -34 -47 -65 -47 -70 0 -4 -20
-33 -45 -63 -25 -31 -45 -58 -45 -62 0 -3 -20 -35 -46 -71 -25 -36 -49 -75
-55 -87 -5 -12 -23 -40 -39 -62 -16 -22 -51 -77 -77 -123 -27 -46 -58 -100
-70 -120 -13 -20 -29 -51 -37 -68 -8 -17 -22 -36 -30 -44 -9 -7 -16 -16 -16
-21 0 -13 -18 -51 -50 -104 -16 -27 -34 -61 -41 -75 -6 -14 -16 -34 -22 -45
-6 -11 -17 -33 -25 -50 -9 -16 -20 -39 -26 -50 -5 -11 -16 -33 -23 -50 -8 -16
-19 -37 -24 -45 -5 -8 -14 -26 -20 -40 -18 -41 -45 -102 -73 -161 -14 -31 -26
-60 -26 -64 0 -4 -11 -31 -24 -59 -47 -101 -66 -147 -66 -159 0 -6 -11 -34
-25 -62 -13 -27 -25 -56 -25 -64 0 -8 -9 -33 -20 -56 -11 -23 -27 -64 -34 -91
-8 -27 -22 -71 -31 -99 -10 -27 -25 -72 -35 -100 -9 -27 -24 -72 -34 -100 -10
-27 -23 -75 -30 -105 -7 -30 -20 -77 -30 -105 -19 -59 -43 -150 -58 -220 -5
-27 -18 -77 -28 -110 -10 -33 -21 -82 -24 -110 -4 -27 -15 -84 -25 -125 -11
-41 -27 -120 -36 -175 -9 -55 -20 -120 -25 -145 -5 -25 -9 -71 -9 -104 -1 -32
-5 -75 -10 -95 -27 -105 -34 -155 -41 -294 -5 -84 -14 -213 -20 -287 -6 -82
-9 -283 -6 -510 2 -206 5 -401 5 -433 0 -32 4 -72 10 -90 5 -18 12 -93 15
-167 3 -74 13 -173 21 -220 9 -47 20 -132 25 -190 6 -57 16 -125 24 -150 8
-25 17 -74 20 -109 3 -35 15 -98 25 -140 11 -42 24 -106 30 -142 6 -37 18 -80
26 -95 8 -16 15 -44 15 -62 0 -18 9 -58 19 -90 10 -31 22 -77 26 -101 4 -24
14 -59 22 -78 8 -19 19 -60 24 -90 6 -31 19 -72 30 -92 10 -20 19 -46 19 -59
0 -12 7 -39 16 -60 9 -20 24 -64 34 -97 26 -85 58 -175 75 -212 8 -17 15 -38
15 -47 0 -8 9 -30 20 -48 11 -18 20 -40 20 -49 0 -9 11 -37 25 -63 14 -26 25
-54 25 -62 0 -8 9 -32 20 -52 11 -20 38 -80 61 -132 44 -102 106 -236 120
-260 5 -8 15 -28 23 -45 23 -53 26 -59 76 -150 26 -49 67 -125 89 -168 22 -43
49 -90 61 -104 11 -14 20 -31 20 -38 0 -7 7 -18 16 -25 8 -8 22 -27 30 -44 25
-53 63 -117 112 -188 26 -37 56 -83 67 -101 11 -19 34 -53 50 -76 17 -24 37
-55 46 -71 8 -15 33 -50 55 -78 21 -28 50 -67 64 -87 14 -20 45 -62 70 -93 25
-31 53 -68 62 -82 24 -37 262 -326 321 -390 27 -30 87 -95 131 -143 109 -118
278 -290 346 -351 30 -27 94 -86 142 -132 91 -86 395 -345 438 -372 14 -9 57
-41 95 -72 82 -65 112 -87 221 -163 45 -31 103 -71 129 -89 26 -18 54 -37 64
-43 9 -5 30 -19 46 -30 17 -12 63 -41 103 -65 40 -25 85 -53 100 -62 27 -17
128 -76 227 -132 27 -16 102 -56 165 -89 63 -33 125 -68 138 -78 13 -10 36
-20 52 -24 16 -3 34 -13 41 -21 6 -8 18 -14 26 -14 13 0 172 -72 276 -126 26
-13 52 -24 58 -24 5 0 34 -10 62 -23 123 -56 282 -117 303 -117 9 0 28 -8 42
-19 15 -10 45 -21 67 -25 21 -4 56 -16 77 -27 20 -10 46 -19 57 -19 12 0 49
-11 83 -24 72 -27 189 -63 233 -72 17 -3 51 -14 77 -25 26 -10 59 -19 75 -19
15 0 55 -9 88 -20 55 -18 111 -31 255 -60 30 -6 93 -20 140 -31 47 -11 125
-24 174 -30 48 -5 96 -13 105 -18 9 -4 63 -13 121 -20 58 -6 146 -18 195 -26
92 -14 190 -23 350 -30 50 -3 176 -10 280 -16 236 -14 378 -14 615 0 102 6
230 13 285 16 151 6 252 15 335 30 41 8 113 17 160 20 47 4 121 15 165 25 44
10 108 21 142 24 34 3 94 15 135 26 40 11 87 20 104 20 17 0 50 7 73 15 22 8
69 19 104 25 34 6 89 19 122 30 33 10 83 22 110 28 28 6 73 18 100 26 84 28
178 56 210 62 17 4 46 15 65 26 19 10 45 18 58 18 12 0 39 8 60 19 20 10 53
22 72 25 19 4 53 16 75 25 22 10 63 26 90 36 94 31 160 57 169 66 6 5 17 9 25
9 14 0 83 30 174 76 26 13 51 24 57 24 26 0 566 269 610 304 8 7 26 17 40 24
14 7 48 25 75 41 28 17 68 40 90 52 22 12 65 37 95 57 30 19 71 45 90 57 215
134 447 300 697 500 69 55 139 111 157 125 157 123 508 459 724 692 144 157
358 411 452 538 25 33 63 84 85 113 22 29 49 65 60 81 11 16 29 41 40 56 25
35 117 168 130 189 5 9 20 30 32 48 13 17 23 35 23 38 0 4 11 20 25 37 14 16
25 35 25 43 0 7 7 19 17 26 9 8 22 28 30 44 8 17 27 50 43 75 17 25 37 59 45
75 9 17 29 53 45 80 16 28 34 59 39 71 5 11 21 38 35 59 14 21 26 45 26 53 0
9 6 23 14 31 22 26 126 232 126 252 0 10 4 21 10 24 10 6 47 82 99 205 18 41
41 92 52 112 10 20 19 44 19 52 0 9 11 37 24 63 14 27 37 82 51 123 15 41 36
93 46 116 10 23 19 50 19 60 0 11 9 35 19 55 11 20 23 54 27 75 4 22 15 55 25
74 9 20 21 54 25 75 3 22 12 51 19 65 7 14 18 51 24 82 5 32 17 70 25 86 8 15
20 57 26 92 6 36 16 72 21 82 5 9 15 48 23 85 7 37 21 97 29 133 39 163 57
251 67 330 6 47 17 103 25 125 7 22 18 98 25 168 6 71 15 140 21 154 5 14 14
100 20 192 5 91 14 204 20 251 26 225 26 810 0 1050 -6 52 -15 163 -20 245 -5
83 -16 188 -25 235 -8 47 -20 128 -25 180 -6 52 -17 120 -25 150 -7 30 -17 86
-21 125 -4 38 -16 91 -26 118 -10 26 -19 66 -19 87 0 22 -9 66 -19 97 -11 32
-23 83 -26 113 -4 30 -15 78 -25 105 -10 28 -21 69 -24 91 -3 23 -15 61 -26
85 -11 24 -20 53 -20 64 0 11 -9 42 -19 70 -10 27 -23 68 -29 90 -6 22 -18 63
-27 90 -9 28 -22 64 -27 80 -6 17 -21 59 -35 95 -14 36 -33 91 -44 123 -10 32
-26 68 -34 80 -8 12 -15 31 -15 42 0 11 -9 35 -20 53 -11 17 -25 52 -31 77 -6
24 -17 50 -25 56 -8 6 -14 18 -14 27 0 8 -11 38 -24 66 -14 28 -37 78 -51 111
-15 33 -31 67 -35 75 -5 8 -25 49 -45 90 -20 41 -42 84 -48 95 -6 11 -17 34
-25 50 -9 17 -19 37 -24 45 -5 8 -16 31 -24 50 -9 19 -25 47 -35 62 -11 14
-19 33 -19 41 0 8 -7 21 -16 28 -9 8 -25 32 -36 54 -10 22 -29 58 -43 80 -13
22 -31 54 -40 70 -9 17 -29 50 -45 75 -16 25 -39 61 -50 80 -41 69 -172 265
-235 350 -22 30 -44 63 -50 72 -34 59 -314 409 -453 568 -183 209 -383 417
-528 549 -214 197 -569 496 -654 553 -14 10 -89 63 -167 120 -78 57 -170 121
-204 143 -34 22 -94 61 -133 87 -39 26 -90 57 -113 68 -23 12 -47 28 -54 36
-6 8 -15 14 -20 14 -5 0 -35 17 -66 37 -32 21 -74 46 -93 55 -19 10 -71 38
-115 63 -125 70 -603 305 -620 305 -5 0 -31 11 -59 24 -28 13 -82 35 -121 50
-38 14 -87 35 -107 46 -20 11 -45 20 -55 20 -10 0 -40 12 -68 25 -27 14 -57
25 -66 25 -9 0 -36 9 -60 20 -24 11 -52 20 -62 20 -10 0 -38 9 -61 20 -24 10
-65 24 -92 30 -26 6 -53 15 -59 20 -6 5 -42 17 -80 25 -38 9 -84 23 -103 31
-19 8 -43 14 -53 14 -11 0 -52 11 -91 25 -39 14 -84 25 -100 25 -15 0 -45 7
-65 15 -21 8 -76 21 -123 30 -47 8 -107 21 -134 30 -27 8 -64 15 -82 15 -18 0
-73 9 -121 20 -48 12 -134 25 -190 31 -57 5 -113 13 -126 18 -23 9 -100 17
-412 45 -227 21 -337 24 -670 23 -209 0 -425 -4 -480 -9z m1545 -5127 c271
-20 436 -39 470 -53 19 -9 60 -19 90 -23 30 -4 72 -16 92 -26 21 -11 45 -19
54 -19 9 0 33 -9 53 -19 20 -11 70 -36 111 -56 182 -90 312 -195 442 -357 79
-99 107 -141 137 -204 11 -23 24 -45 30 -48 6 -4 11 -15 11 -24 0 -10 9 -33
19 -53 11 -20 24 -56 31 -80 6 -24 20 -65 30 -91 11 -26 20 -60 20 -76 0 -16
7 -49 15 -72 44 -124 54 -396 54 -1489 1 -1084 -8 -1337 -50 -1500 -10 -41
-19 -82 -19 -92 0 -39 -101 -311 -126 -340 -8 -8 -14 -23 -14 -32 0 -8 -11
-29 -25 -45 -14 -17 -25 -33 -25 -36 0 -36 -238 -291 -340 -364 -99 -72 -258
-162 -286 -162 -5 0 -25 -9 -45 -19 -20 -11 -54 -23 -75 -27 -21 -4 -57 -15
-79 -25 -22 -10 -55 -19 -73 -19 -18 0 -74 -9 -125 -21 -124 -27 -151 -29
-682 -41 -577 -12 -908 -12 -1490 0 -499 11 -573 15 -656 36 -30 8 -90 19
-133 25 -44 6 -84 15 -90 20 -6 5 -34 15 -61 22 -28 6 -59 17 -71 24 -11 8
-41 19 -65 25 -24 7 -56 21 -70 31 -15 10 -32 19 -39 19 -14 0 -143 87 -215
144 -43 35 -191 181 -228 226 -12 14 -25 34 -93 141 -50 77 -124 242 -124 273
0 9 -8 31 -17 49 -9 18 -22 64 -29 102 -6 39 -19 97 -27 130 -30 115 -40 457
-40 1440 0 840 7 1207 27 1380 7 65 52 257 70 297 9 21 16 46 16 56 0 11 11
40 25 66 14 26 25 53 25 60 0 7 9 24 19 38 11 13 23 36 26 51 4 14 15 33 26
43 10 9 19 23 19 30 0 11 114 160 177 230 63 71 231 196 338 252 82 43 169 82
184 82 6 0 28 8 49 18 20 11 70 24 111 31 40 6 83 17 95 23 23 13 239 34 463
47 79 4 146 11 150 15 10 10 1778 -1 1933 -13z"/>
<path d="M9940 13560 c-14 -4 -97 -9 -185 -9 -133 -1 -177 -6 -260 -26 -55
-14 -109 -25 -120 -25 -11 0 -38 -9 -60 -20 -22 -11 -45 -19 -52 -20 -13 0
-125 -59 -181 -94 -54 -35 -162 -137 -209 -198 -48 -62 -133 -222 -133 -250 0
-10 -8 -33 -17 -51 -9 -18 -22 -63 -30 -102 -7 -38 -18 -90 -25 -115 -15 -59
-24 -2385 -9 -2511 20 -168 69 -373 102 -429 4 -8 18 -33 29 -55 54 -106 119
-186 216 -270 90 -76 110 -88 239 -145 103 -45 132 -52 360 -89 133 -21 352
-26 1245 -26 826 0 1159 6 1231 20 36 8 105 19 154 25 48 6 107 20 131 30 24
11 50 20 59 20 26 0 144 59 217 107 73 49 195 170 244 244 53 79 108 206 134
309 58 228 63 380 57 1639 -4 940 -6 1064 -21 1126 -9 39 -23 104 -30 145 -8
41 -21 89 -30 105 -9 17 -16 37 -16 46 0 29 -88 177 -149 252 -90 109 -191
187 -306 238 -108 48 -140 60 -205 75 -36 8 -85 20 -110 25 -25 6 -133 15
-240 21 -240 12 -1995 19 -2030 8z m2491 -461 c77 -28 164 -111 179 -172 6
-23 15 -52 20 -65 15 -35 12 -90 -10 -167 -16 -56 -29 -78 -67 -117 -27 -27
-68 -61 -92 -75 -40 -23 -56 -26 -145 -27 -96 0 -104 1 -159 33 -103 59 -155
138 -164 249 -7 86 8 157 47 218 41 65 87 101 167 129 80 29 132 27 224 -6z
m-1411 -369 c98 -12 202 -31 232 -44 21 -9 45 -16 55 -16 10 0 41 -12 68 -25
28 -14 56 -25 63 -25 17 0 82 -37 205 -118 89 -58 271 -225 320 -292 44 -62
74 -106 94 -139 37 -62 93 -177 93 -193 0 -9 7 -21 14 -28 8 -6 20 -36 26 -65
6 -30 21 -80 33 -112 19 -54 21 -77 21 -323 0 -263 0 -266 -27 -344 -15 -43
-27 -88 -27 -100 0 -12 -7 -31 -15 -42 -8 -10 -20 -37 -26 -59 -6 -22 -19 -51
-29 -65 -9 -14 -21 -36 -26 -50 -16 -44 -87 -150 -161 -240 -68 -84 -166 -174
-248 -230 -20 -14 -49 -35 -65 -47 -15 -13 -31 -23 -34 -23 -4 0 -24 -11 -44
-25 -20 -14 -43 -25 -50 -25 -8 0 -26 -8 -40 -19 -15 -10 -47 -25 -72 -32 -25
-7 -50 -16 -56 -21 -6 -4 -42 -14 -80 -23 -38 -8 -87 -21 -109 -29 -31 -12
-92 -15 -266 -16 -197 0 -235 3 -290 19 -35 11 -82 23 -104 27 -22 4 -57 15
-77 25 -21 11 -44 19 -53 19 -8 0 -50 19 -92 41 -43 23 -91 49 -108 57 -38 19
-154 105 -222 164 -54 46 -176 190 -227 269 -16 24 -37 55 -46 69 -10 14 -21
37 -25 50 -4 14 -16 36 -26 49 -11 13 -19 31 -19 40 0 9 -11 40 -25 69 -14 30
-25 63 -25 73 0 11 -9 45 -20 77 -33 92 -46 303 -32 482 7 82 19 165 27 184 9
20 20 59 26 88 7 29 20 69 30 88 11 19 19 40 19 46 0 14 53 116 90 174 16 25
39 62 50 83 25 45 220 249 280 292 22 17 56 42 75 56 51 39 313 166 360 174
22 4 45 11 52 17 13 10 203 39 214 32 4 -2 18 0 31 6 18 8 220 8 288 0z"/>
<path d="M10708 12240 c-32 -5 -71 -16 -87 -25 -17 -8 -37 -15 -46 -15 -15 0
-111 -45 -195 -91 -106 -57 -306 -285 -335 -380 -4 -13 -16 -38 -26 -55 -11
-17 -19 -43 -19 -58 0 -15 -7 -43 -16 -64 -12 -27 -18 -79 -22 -184 -4 -132
-2 -154 16 -205 11 -32 24 -76 27 -98 4 -22 15 -54 26 -71 10 -17 19 -36 19
-42 0 -22 120 -189 172 -238 128 -123 278 -209 433 -247 109 -26 290 -34 352
-14 27 9 68 19 93 23 25 3 61 14 80 24 118 58 151 76 199 108 72 47 179 156
234 239 48 73 107 193 107 218 0 8 10 43 23 77 19 55 22 83 22 208 0 125 -3
154 -23 208 -12 34 -22 68 -22 76 0 32 -105 217 -163 286 -64 76 -154 156
-217 191 -19 11 -54 31 -78 44 -23 14 -84 38 -135 55 -81 27 -109 32 -227 35
-74 2 -161 0 -192 -5z"/>
</g>
</svg>
