<svg xmlns="http://www.w3.org/2000/svg" width="2176.000000pt" height="2272.000000pt" version="1.0" viewBox="0 0 2176.000000 2272.000000"><path d="M1026 195.2c-5.2.4-12.4 1.2-16 1.8-3.6.5-14 1.4-23.2 1.9s-17.1 1.2-17.6 1.5c-2.1 1.3-17.1 3.6-23.3 3.6-4.1 0-8.9.8-12.5 2-3.3 1.2-9.2 2.2-13.4 2.4s-10.1 1.2-13.5 2.3c-3.3 1.2-8.9 2.3-12.5 2.6s-8.7 1.4-11.3 2.6c-2.7 1.2-6.8 2.1-9.2 2.1s-6.5.9-9.2 2.1c-2.6 1.1-7.1 2.2-9.9 2.4-2.8.1-6.9 1.2-9.2 2.4s-6 2.1-8.2 2.1-5.7.8-7.8 1.9c-2 1-5.7 2.2-8.2 2.6s-6.6 1.7-9.1 3c-3 1.5-6.2 2.3-8.7 2.2-3-.1-4.8.5-6.5 2.1-1.6 1.5-3.6 2.2-6.3 2.2s-5.1.8-7.4 2.5c-2.1 1.6-4.7 2.5-7 2.5s-4.9.9-7 2.5c-1.9 1.4-4.8 2.5-6.4 2.5-1.7 0-4.2.9-5.6 2s-3.9 2-5.6 2c-1.6 0-4.5 1.1-6.4 2.5s-4.7 2.5-6.2 2.5c-1.6 0-4.1.9-5.6 1.9-1.5 1.1-4.3 2.2-6.3 2.5-2 .4-4.4 1.5-5.4 2.6s-3 2-4.4 2-3.9.9-5.6 2c-1.6 1.1-3.7 2-4.5 2s-4.2 1.4-7.5 3-6.5 3-7.1 3-1.9.9-2.8 1.9c-1 1.1-3.2 2.3-5 2.7-1.7.4-4.2 1.5-5.5 2.5-1.3 1.1-3.3 1.9-4.3 1.9-1.1 0-3.3 1.1-5 2.5-1.6 1.4-3.9 2.5-5.2 2.5-1.2 0-2.9.9-3.8 2-1 1.1-3 2.2-4.5 2.6s-3.5 1.3-4.4 2c-.8.8-3.1 1.9-5 2.6-1.9.6-5.9 2.6-8.9 4.4-3 1.7-6.5 3.4-7.6 3.8-1.2.4-2.9 1.5-3.9 2.6s-2.6 2-3.6 2-3.2 1.3-4.9 3c-1.7 1.6-4.1 3-5.4 3s-2.6.7-2.9 1.4c-.3.8-3.2 2.7-6.4 4.2s-7.3 4-9.1 5.6c-1.8 1.5-3.9 2.8-4.7 2.8-1.5 0-10.1 5.5-11 7.1-.4.5-1.5.9-2.5.9-1.1 0-2.6 1-3.4 2.2-.9 1.3-4.1 3.6-7.3 5.3-3.2 1.6-6.4 3.7-7 4.7-.7.9-4.1 3.2-7.6 5.1-3.4 2-8.3 5.3-10.7 7.4-2.5 2.1-6.2 4.7-8.4 5.8-2.1 1.1-4.6 2.9-5.5 4-2 2.5-8.3 7.3-13.5 10.5-2.2 1.3-6 4.3-8.4 6.6s-8.1 6.8-12.8 9.9c-4.6 3.2-9.8 7.4-11.5 9.3-3 3.3-6.3 6.3-22.7 19.8-6.3 5.3-44.8 43-63.2 62.1-4.7 4.8-12.4 13.5-17.2 19.3-4.7 5.8-11.1 13.2-14.2 16.5s-7.3 8.4-9.2 11.3c-1.9 2.8-5.9 7.8-8.8 11-4.5 5-8.1 9.7-14.8 20-.9 1.4-2.3 2.9-3.1 3.4-.8.4-2.7 2.9-4.3 5.5-1.5 2.7-4.7 7-7.1 9.8-2.4 2.7-4.3 5.4-4.3 6s-1.9 3.5-4.1 6.5c-2.3 3-4.7 6.6-5.3 8s-3 4.9-5.3 7.8c-2.4 2.9-4.3 5.9-4.3 6.7 0 .7-1.1 2.6-2.4 4.2-1.4 1.6-3.6 5.1-5.1 7.8-1.4 2.7-3.4 5.9-4.4 7s-2.2 3.1-2.6 4.5-1.8 3.7-3.1 5.2c-1.2 1.5-3.4 5.2-4.8 8.1-1.4 3-3.2 6-4.1 6.7-.8.7-1.5 2.2-1.5 3.4 0 1.3-1.1 3.3-2.5 4.6s-2.5 3.1-2.5 4-1.1 3.1-2.5 5-2.5 3.9-2.5 4.6c0 .6-.7 1.7-1.4 2.4-.8.6-2 2.8-2.7 4.8s-2 4.8-3 6.1c-1.1 1.3-1.9 3-1.9 3.7s-1.1 3-2.5 5-2.5 4.5-2.5 5.4c0 1-.7 2.3-1.4 3-.8.6-2 2.8-2.7 4.8s-2 4.8-3 6.1c-1.1 1.3-1.9 3.3-1.9 4.5s-1.1 3.7-2.5 5.6-2.5 4.1-2.5 4.9c0 .9-.9 2.9-2 4.6-1.1 1.6-2 4-2 5.1 0 1.2-.8 3.2-1.9 4.5-1 1.3-2.2 3.8-2.5 5.6-.4 1.8-1.5 4.2-2.5 5.5s-2.2 4.2-2.6 6.5c-.3 2.3-1.3 4.7-2.1 5.3-.7.7-1.6 2.8-2 4.9-.3 2-1.5 4.8-2.5 6.4-1.1 1.5-2.3 4.7-2.8 7.2s-1.5 5.3-2.4 6.3c-.8.9-1.8 3.5-2.1 5.7-.4 2.2-1.6 5.5-2.7 7.3-1 1.8-1.9 4.8-1.9 6.5 0 1.8-1.2 5-2.5 7.2-1.4 2.2-2.5 5.4-2.5 7.2 0 1.7-.9 4.7-1.9 6.5s-2.2 5.3-2.5 7.8c-.4 2.5-1.5 5.9-2.6 7.5-1.1 1.7-2 4.7-2 7 0 2.2-1.1 6.4-2.5 9.3-1.4 3-2.5 6.9-2.5 8.8s-.9 5.2-2 7.4c-1.1 2.1-2.1 6.5-2.4 9.8-.2 3.2-1.3 8-2.5 10.7-1.1 2.6-2.1 6.7-2.1 9s-1.1 7.3-2.5 10.9c-1.5 4-2.5 8.7-2.5 12 0 2.9-.9 7.9-2 11.1s-2 8.1-2 11c0 2.8-.9 8.7-2.1 13.1-1.1 4.3-2.5 13.1-2.9 19.5-.5 6.4-1.4 12.8-1.9 14.2-.6 1.5-.8 3.3-.5 4.1s0 2.4-.6 3.6-1.6 10.1-2.1 19.8-1.4 22-1.8 27.2c-1.2 12.5-1.2 112.8 0 125 .5 5.2 1.3 17.1 1.8 26.5.5 9.3 1.7 20.1 2.6 24 .9 3.8 2 11.9 2.4 18 .4 6 1.8 14.6 3 19 1.4 5.2 2 9.3 1.6 11.7-.5 2.6.1 5.9 1.9 11.4 1.4 4.2 2.6 9.8 2.6 12.5s1.1 8.2 2.5 12.1 2.5 9.1 2.5 11.5 1.1 7 2.5 10.3 2.5 7.7 2.5 9.8c0 2.2.9 5.9 1.9 8.3s2.2 6.6 2.6 9.4c.4 2.7 1.5 6.6 2.6 8.7 1 2 1.9 5.4 1.9 7.4s.9 5.1 2 7c1.2 1.8 2.4 5.7 2.7 8.6s1.4 6.4 2.4 7.8c.9 1.4 2 4.5 2.3 7 .4 2.4 1.4 5.2 2.2 6.1.9 1 1.9 4.2 2.3 7.3s1.5 6.4 2.4 7.4 2.1 4 2.6 6.6 1.5 5.4 2.4 6.4c.8.9 1.8 3.5 2.2 5.7s1.6 5.4 2.6 7.1c1.1 1.7 1.9 4.4 1.9 5.9s1.1 4 2.5 5.7c1.4 1.6 2.5 4.1 2.5 5.5s.8 3.7 1.9 5.1c1 1.5 2.1 4.3 2.5 6.3.4 2.1 1.3 4.2 2.1 4.9s1.7 2.8 2.1 4.9c.4 2 1.7 4.9 3 6.4 1.3 1.6 2.4 3.8 2.4 5s.9 3.3 2 4.7 2 3.3 2 4.4c0 1 1.1 3.1 2.5 4.8 1.4 1.6 2.5 4 2.5 5.2 0 1.3.9 3.5 2 4.9s2 3.4 2 4.5 1.1 3.4 2.5 5c1.4 1.7 2.5 3.9 2.5 4.9 0 1.1 1.1 3 2.5 4.3s2.5 3.2 2.5 4.3c0 1 1.1 3.2 2.5 4.9 1.4 1.6 2.5 3.6 2.5 4.5 0 .8 1.1 2.8 2.5 4.5 1.4 1.6 2.5 3.8 2.5 4.8s.4 2.1.9 2.5c.5.3 2.6 3.9 4.7 8s4.6 8.3 5.6 9.2 1.8 2.4 1.8 3.3.9 2.5 2 3.5 3.3 4.6 5 8 3.9 7 5 8 2 2.5 2 3.3 1.7 3.9 3.8 7c2 3 4.2 6.3 4.8 7.3.6 1.1 2 3 3.1 4.2s3.1 4.2 4.4 6.7 4.4 7 6.9 10 5.4 7.2 6.5 9.3c1 2.1 3.2 5.1 4.8 6.7 2.9 2.9 3.5 3.7 7.1 10.1 1 1.9 3.5 5.2 5.6 7.4s5.8 6.8 8.2 10.1c2.4 3.4 7.7 10.1 11.8 14.8 4.1 4.8 7.7 9.3 7.9 9.9.6 1.9 4.5 6.3 18.1 20.7 7 7.4 14.5 15.7 16.5 18.4 4.8 6.3 41.9 43.1 47.9 47.5 2.6 1.9 9.5 8.1 15.4 13.9 5.9 5.9 15.2 14 20.7 18.2s12.3 10 15.2 12.8 6.9 6 9.1 7.1c2.1 1.1 6.8 4.6 10.4 7.8s8.5 6.9 10.9 8.3c2.3 1.4 6.2 4.2 8.6 6.3 2.5 2 5.9 4.5 7.6 5.4 1.8.9 5.2 3.3 7.5 5.4 2.4 2.1 5.9 4.3 7.8 4.9s3.4 1.5 3.4 1.9c0 1.1 8.6 7.1 10.2 7.1.8 0 2.4 1.1 3.7 2.4 1.2 1.3 4.6 3.5 7.6 5 2.9 1.5 6.1 3.6 7.1 4.7.9 1 4.5 3.2 7.9 4.8 3.3 1.6 6.7 3.6 7.4 4.5s2.2 1.6 3.2 1.6 3.4 1.3 5.2 3c1.9 1.6 4 3 4.6 3 .7 0 2.7 1.1 4.5 2.5s3.7 2.5 4.3 2.5c1.5 0 10.2 4.8 12 6.5.8.8 2.5 1.5 3.7 1.5s3.3 1.1 4.6 2.5 3.1 2.5 4 2.5c1 0 2.8.8 4.1 1.8 1.3 1.1 3.7 2.2 5.2 2.6 1.5.3 3.5 1.5 4.5 2.6.9 1.1 2.8 2 4.2 2 1.5 0 3.7 1.1 5 2.5 1.4 1.5 3.5 2.5 5 2.5s3.9.9 5.3 2 3.5 2 4.7 2c1.1 0 3.1 1.1 4.3 2.4s3.8 2.7 5.7 3.1 4.6 1.6 5.9 2.6c1.3 1.1 3.5 1.9 5 1.9 1.4 0 3.7.9 5.1 2s3.7 2 5.2 2c1.4 0 3.9 1.1 5.5 2.4s4.6 2.7 6.6 3.1 4.8 1.6 6.1 2.6c1.3 1.1 3.9 1.9 5.7 1.9 1.9 0 4.2.8 5.4 2s4 2.3 6.1 2.7c2.1.3 5.3 1.4 6.9 2.3 1.7 1 4.8 2.2 7 2.6s5.2 1.5 6.7 2.6c1.6 1.1 3.6 1.7 4.6 1.4 1.1-.4 3.9.5 6.6 1.9 2.6 1.4 6 2.5 7.6 2.5 1.5 0 5 1.1 7.7 2.4 2.6 1.3 6.8 2.7 9.3 3.1s6.2 1.6 8.2 2.6c2.1 1.1 5.3 1.9 7.2 1.9 2 0 5.3.9 7.4 2 2.2 1.1 6.4 2.3 9.3 2.7 3 .3 7 1.4 8.9 2.3 1.9 1 6.2 2 9.5 2.3s8.2 1.5 10.8 2.6c2.9 1.2 7 2.1 10.1 2.1 2.9 0 5.6.4 6.2.9 1.5 1.6 12.4 4.1 17.5 4.1 2.5 0 7.5.9 10.9 2s8.9 2 12.1 2c5.8 0 12.1 1.2 18.9 3.5 1.9.6 7.6 1.2 12.5 1.4 9.4.1 20.3 1.6 24.5 3.3 1.4.5 11.2 1.2 21.9 1.4 10.7.3 20.2.9 21.3 1.5s5.6 1 10.1.9c11.2-.3 11.7-.2 11.7 1.5 0 1.3 4.6 1.5 35 1.5s35-.2 35-1.5c0-1.7.5-1.8 11.5-1.5 4.4.1 9.2-.3 10.8-.9 1.5-.6 11.3-1.3 21.6-1.5 10.8-.2 19.8-.9 20.9-1.5 1.2-.6 3.4-1.1 5.1-1.1 1.6 0 4.1-.4 5.4-.9s7.1-1 12.8-1.2c5.7-.1 12-.8 13.9-1.4 6.8-2.4 13.1-3.5 19.4-3.5 3.5 0 8.3-.7 10.7-1.6s8.3-2 13-2.5c4.8-.4 11.1-1.7 14-2.9 3-1.1 7.4-2 9.9-2s6.5-1 9-2.1 7.7-2.4 11.7-2.8c3.9-.5 8.2-1.6 9.4-2.5 1.4-.9 4.3-1.6 7-1.6 2.9 0 6.3-.9 9.5-2.5 2.8-1.4 6.6-2.5 8.9-2.5 2.2 0 5.1-.7 6.4-1.6s5.5-2.3 9.4-3c3.8-.8 7.8-2.1 8.8-3s4-1.9 6.6-2.2c2.6-.2 6.1-1.4 7.6-2.4 1.5-1.1 4.5-2.1 6.6-2.2 2-.1 5.3-1.2 7.3-2.4 1.9-1.2 4.6-2.2 5.9-2.2 1.4 0 3.5-.7 4.8-1.7 1.3-.9 4.5-2 7-2.5 2.5-.4 5.8-1.7 7.3-2.8s4-2 5.6-2 4-.8 5.3-1.9c1.3-1 4-2.2 5.9-2.6s4.7-1.6 6.2-2.6c1.4-1.1 3.7-1.9 5-1.9s3.9-1.1 5.8-2.5 4.2-2.5 5.1-2.5c1 0 3.9-1.1 6.5-2.5s5.4-2.5 6.2-2.5 2.7-1.1 4.4-2.5c1.6-1.4 3.9-2.5 5-2.5s3.1-.9 4.5-2 3.5-2 4.5-2c1.1 0 3.3-1.1 5-2.5 1.6-1.4 3.9-2.5 5.1-2.5 1.1 0 3.1-1 4.3-2.1 1.3-1.2 3.5-2.3 5-2.5 1.4-.1 3.5-1.2 4.5-2.3 1.1-1.2 3-2.1 4.3-2.1 1.2 0 3.3-1.1 4.6-2.5s3.3-2.5 4.6-2.5c1.2 0 2.8-.7 3.5-1.6s4.3-3 7.9-4.7c3.6-1.6 7.6-3.9 8.9-4.9s3.1-1.8 4-1.8c1 0 3-1.4 4.6-3 1.6-1.7 3.9-3 5.1-3s2.4-.7 2.7-1.5c.4-.8 3.5-2.8 7-4.4s7-3.7 7.8-4.7c.7-.9 3.2-2.4 5.4-3.4 2.2-.9 6-3.4 8.3-5.4 2.4-2 5-3.6 5.7-3.6.8 0 2.5-1 3.9-2.3 4.1-3.7 8.4-6.7 9.6-6.7 1.5 0 10-6.1 10-7.2 0-.5 2.1-1.8 4.6-2.8 2.5-1.1 5.8-3.3 7.3-4.8 3.5-3.6 9.1-7.8 11.7-8.6 1.1-.3 3.6-2.2 5.5-4.1 1.8-2 6.6-5.7 10.4-8.2 3.9-2.6 8.1-5.8 9.5-7.3 3.8-3.9 14.6-13 15.4-13 1.2 0 8.5-6.1 15.1-12.5 3.4-3.3 10.8-10 16.6-15 12.8-11.1 53.9-52.2 63.4-63.5 3.9-4.6 10.4-11.8 14.5-16 4.1-4.3 10.7-11.9 14.5-17 3.9-5.1 8.2-10.4 9.6-11.9 1.5-1.4 4.7-5.5 7.2-9.1 2.4-3.6 5.9-8 7.6-9.9 1.8-1.9 4.9-5.9 6.9-9s5.5-7.9 7.9-10.7 4.3-5.5 4.3-5.9c0-1 6.8-11.3 8-12 .5-.3 2.3-3.1 4.1-6.3 1.8-3.1 3.9-6.1 4.7-6.6.8-.4 2-2.2 2.9-4 2.3-5 3.9-7.5 6.2-10 1.1-1.2 2.1-2.9 2.1-3.6 0-.8 1.1-2.5 2.4-3.9 1.3-1.5 3.8-5.4 5.5-8.7 1.7-3.4 3.8-6.7 4.6-7.4s1.5-1.8 1.5-2.5.8-2.3 1.9-3.6c1-1.3 3.5-5.6 5.5-9.5 2-4 4.3-7.7 5.1-8.4s1.5-2 1.5-2.9c0-1 1.1-3.2 2.5-5.1s2.5-4 2.5-4.8 1.1-2.7 2.5-4.4c1.4-1.6 2.5-3.7 2.5-4.7s.9-2.6 1.9-3.5c1-1 2.2-3.2 2.5-5 .4-1.8 1.5-4.1 2.6-5.1s2-2.6 2-3.6 1.1-3.5 2.5-5.5 2.5-4.3 2.5-5c0-.8.9-2.8 2-4.6s2-4 2-4.9c0-.8 1.1-3 2.5-4.9s2.5-4.4 2.5-5.6.7-2.7 1.5-3.4 2-3.1 2.6-5.3c.6-2.3 1.9-5.2 3-6.5 1-1.4 1.9-3.3 1.9-4.4 0-1 1.1-4 2.5-6.6s2.5-5.6 2.5-6.8c0-1.1.8-2.9 1.9-3.8 1-.9 2.1-3.5 2.5-5.6.3-2.2 1.5-5.5 2.6-7.2 1.1-1.8 2-4.5 2-5.9 0-1.5.9-3.8 2-5.2s2.3-4.7 2.7-7.3c.3-2.6 1.4-5.5 2.3-6.4 1-1 2-3.7 2.4-6.1.4-2.5 1.5-5.9 2.6-7.7s2-4.7 2-6.5c0-1.7.9-4.7 2-6.5s2.3-5.4 2.6-8 1.4-5.8 2.3-7.2c1-1.4 2-5 2.3-8.1.4-3 1.6-7.1 2.7-9 1.3-2.1 2.1-5.1 2.1-7.9 0-2.7 1-6.5 2.5-9.5 1.4-2.9 2.5-6.8 2.5-9.3 0-2.4.7-5.6 1.5-7.2.9-1.7 2-6.3 2.5-10.4.5-4 1.7-9.3 2.6-11.7s2-7.9 2.4-12.1 1.7-10.4 2.9-13.7c1.2-3.5 2.1-8.6 2.1-12 0-3.2.7-7.7 1.5-10 .8-2.2 1.2-4.1 1-4.1s.2-2.1.9-4.8c.8-2.6 1.4-8.4 1.4-12.8 0-4.5.5-9.1 1.1-10.2.6-1.2 1.1-3.5 1.1-5.2s.4-4 1-5c.5-1 1.2-9.5 1.5-19 .3-9.4.8-17.7 1.2-18.3.4-.7.8-3.5.9-6.2.1-2.8.7-12.7 1.3-22 1.3-21.4 1.3-69.4 0-88.5-1.6-23.3-1.7-24-2.8-34-.5-5.2-1-13.4-1-18.2s-.4-10.4-1-12.5c-2.3-9-3.4-16.4-3.6-24.3-.2-5.2-1.1-11.1-2.4-15.4-1.2-3.9-2.1-9.6-2.1-13.5-.1-4.2-.8-8.6-2.1-12.1-1.2-3-2.5-9.3-2.9-14-.4-4.9-1.7-10.4-2.9-13.1-1.2-2.6-2-6.4-1.9-9 0-2.8-.8-6.1-2.1-8.7-1.2-2.4-2.1-6.1-2.1-8.9-.1-3-1-6.7-2.5-9.8-1.5-2.9-2.5-6.8-2.5-9.3 0-2.6-1-6.1-2.5-9-1.4-2.6-2.5-6.3-2.5-8.2 0-2-.9-5.3-2-7.5s-2-5.2-2-6.8c0-1.5-1.1-4.9-2.5-7.5s-2.5-6.2-2.5-8.1c0-1.8-.9-4.8-1.9-6.5s-2.2-4.7-2.6-6.6-1.6-5-2.6-6.8-1.9-4.4-1.9-5.8-1.1-4.6-2.5-7.2-2.5-6-2.5-7.5c0-1.6-1.1-4.2-2.5-5.9-1.4-1.6-2.5-4.2-2.5-5.6 0-1.5-.9-4.1-2-5.7-1.1-1.7-2-4.2-2-5.6s-1.1-4-2.5-5.9-2.5-4.4-2.5-5.6-.9-3.2-1.9-4.6c-1.1-1.3-2.4-4.2-3-6.5-.6-2.2-1.7-4.6-2.5-5.2-.7-.6-1.6-2.9-2-5-.3-2.1-1.2-4.4-2-5-.8-.7-1.8-2.5-2.1-4.1-.4-1.6-1.4-3.9-2.4-5.2s-2.1-3.7-2.5-5.4c-.4-1.8-1.6-4-2.6-4.9s-2.2-3.1-2.5-4.7c-.4-1.7-1.8-4.6-3.1-6.5-1.3-2-2.4-4.1-2.4-4.8s-.7-1.8-1.5-2.5-1.5-2-1.5-2.9c0-1-1.1-3.2-2.5-5.1s-2.5-4.1-2.5-5-.9-2.5-1.9-3.4c-1.1-1-2.3-3.1-2.6-4.6s-1.5-3.6-2.6-4.6c-1-.9-1.9-2.5-1.9-3.5s-.8-2.6-1.9-3.6c-1-1-3.3-4.8-5.1-8.5s-4.1-7.5-5.1-8.4-1.9-2.5-1.9-3.4c0-1-.7-2.3-1.5-3s-3.3-4.5-5.5-8.5-4.7-7.8-5.5-8.5-1.5-1.8-1.5-2.5c0-.8-1-2.6-2.3-4.2-1.3-1.5-3.8-5.4-5.6-8.6-1.8-3.1-3.7-5.7-4.2-5.7s-1.9-1.9-3.1-4.1c-4.3-7.7-7.7-12.8-11.4-16.4-1.3-1.3-2.4-2.9-2.4-3.5 0-1.4-3.4-6-8.2-11.3-2.1-2.2-5.1-6.3-6.7-9.1s-4.8-7.1-7.2-9.6-5.2-5.7-6.1-7c-5.4-7.9-10.3-13.9-18.3-22.9-4.9-5.5-11.7-13.3-15-17.3-11.5-13.9-79.4-80.8-82-80.8-.4 0-5.8-4.7-12-10.4s-14.2-12.2-17.7-14.6c-3.4-2.4-8.3-6.2-10.8-8.6-5.1-4.8-9.5-8.4-10.4-8.4-1.1 0-10.6-7.2-10.6-8 0-.4-2.1-2.1-4.7-3.6-2.7-1.5-7.4-4.9-10.6-7.6-3.2-2.6-6.2-4.8-6.7-4.8-1.3 0-8-4.5-11-7.3-1.4-1.4-4.6-3.4-7.1-4.6-2.6-1.2-5.4-3-6.4-4.1-.9-1-4-3.1-6.9-4.6-2.8-1.4-6-3.5-7.2-4.5-1.1-1-2.8-1.9-3.8-1.9-.9 0-2.9-1.2-4.4-2.7s-5.4-4-8.7-5.6-6.4-3.5-6.8-4.3-1.7-1.4-2.7-1.4c-1.1 0-3.5-1.4-5.3-3-1.9-1.7-4.4-3-5.5-3s-2.6-.7-3.3-1.6-4.5-3.1-8.4-5c-4-1.8-7.7-4-8.5-4.8-.7-.9-2.3-1.6-3.6-1.6s-3.2-.9-4.1-2c-1-1.1-2.7-2-3.9-2-1.3 0-3.6-1.1-5.2-2.5-1.7-1.4-3.9-2.5-5-2.5s-3.4-1.1-5-2.5c-1.7-1.4-3.9-2.5-5.1-2.5s-2.9-.9-3.8-2c-1-1.1-2.6-2-3.6-2-2.3 0-6-1.9-7-3.6-.4-.7-2.2-1.6-4-1.9-1.7-.4-5-1.8-7.3-3.1-2.2-1.3-4.9-2.4-5.8-2.4-1 0-2.9-.9-4.3-2s-3.7-2-5-2c-1.4 0-3.8-.9-5.3-2-1.6-1.1-4.3-2.3-6.2-2.7-1.8-.3-4.4-1.4-5.7-2.5-1.3-1-3.6-1.8-5.1-1.8s-4.4-1.1-6.4-2.5-5-2.5-6.5-2.5c-1.6 0-4-.9-5.4-2s-3.8-2-5.5-2c-1.6 0-4.6-1.1-6.6-2.5-2.3-1.5-5.1-2.5-7.3-2.5-2.3 0-4.5-.8-5.9-2.1-1.3-1.3-4.3-2.3-7.8-2.8-3.1-.4-6.5-1.6-7.6-2.6-1.2-1.1-3.8-1.9-6.7-2-2.6-.1-6.4-1.2-8.3-2.3s-5.7-2.3-8.5-2.7c-2.7-.4-6.6-1.5-8.7-2.6-2-1-5.4-1.9-7.4-1.9-2.1 0-5.7-1-8.1-2.1-2.4-1.2-7-2.5-10.1-2.9s-7.4-1.5-9.4-2.4c-2.1-.9-6-1.6-8.7-1.6-2.8 0-7-.9-9.8-2.1-2.6-1.2-7.7-2.3-11.3-2.6s-9-1.4-12-2.5c-3.1-1.1-8.8-2.2-13-2.3-4.1-.2-10.4-1.3-13.9-2.4-3.8-1.3-9-2.1-13-2.1-5.9 0-20.2-2.3-22.3-3.6-.5-.3-7.9-1-16.6-1.5-8.6-.5-19.1-1.3-23.2-1.9-4.1-.5-12.7-1.4-19-1.9-13.4-1.1-105-1.1-119 .1m94.8 66.8c1.9.5 10 1 18 1.1 8.1.1 19.4.5 25.2 1.1 11.1.9 12.5 1.1 23.5 2.7 3.9.5 10.4 1.3 14.5 1.6s9.8 1 12.5 1.6c2.8.5 10.2 1.7 16.5 2.5s13.1 2 15 2.8 6.7 1.7 10.5 2.1c3.9.4 9.7 1.6 13 2.5 3.3 1 8.3 2.1 11.1 2.4 2.7.3 7.6 1.5 10.7 2.6s6.8 2 8.2 2 5.2.9 8.4 2 7.8 2.2 10.2 2.6 6 1.5 7.9 2.4c1.9 1 5.8 2.1 8.5 2.4 2.8.4 5.9 1.4 7.1 2.1 1.1.7 4.7 1.8 7.9 2.4s6.3 1.5 6.9 2 3.6 1.6 6.6 2.5c6.2 1.7 18.2 5.9 21.4 7.4 1.2.6 4.1 1.7 6.6 2.5s7.4 2.6 11 4 8.9 3.4 11.8 4.6c3 1.1 6.5 2.7 7.8 3.6 1.3.8 3.1 1.5 4.1 1.5s3.2.8 4.9 1.9c1.7 1 4.1 2.2 5.5 2.6 3.6 1.1 12.9 5.5 39.4 18.6 26.9 13.4 35.4 17.9 50.3 26.7 5.7 3.4 10.5 6.2 10.7 6.2.5 0 22.6 13.8 35 21.9 2.2 1.4 6.5 4.5 9.7 6.8 3.1 2.4 5.9 4.3 6.2 4.3s4.7 3 9.6 6.7c5 3.8 13.3 9.9 18.6 13.8 27.9 20.5 58.2 47.2 90.7 80 14.3 14.3 27.1 27.4 28.5 29.1 1.5 1.7 5.7 6.4 9.3 10.5 3.7 4.1 9.9 11.2 13.8 15.9s8.8 10.5 10.9 12.8c2 2.4 4.6 5.7 5.7 7.2 1.1 1.6 5.4 7.2 9.5 12.5s8 10.4 8.5 11.4c.6.9 2.4 3.5 4.1 5.6 4.2 5.4 24.9 35.7 30.9 45.5 2.4 3.9 6.2 10 9.1 14.5 1 1.6 2.5 4.1 3.2 5.5.6 1.4 2.5 4.5 4.2 7 1.6 2.5 3.8 6.3 4.9 8.5 1.2 2.2 3.4 6.2 5.1 9 1.6 2.7 3.3 5.7 3.6 6.5s1.2 2.6 2 4 2.2 4.1 3.1 6c.8 1.9 2.1 4.2 2.8 5s1.6 2.6 2 4 1.6 3.6 2.6 4.9c1.1 1.3 1.9 3 1.9 3.8s1.1 3.1 2.5 5.1 2.5 4.6 2.5 5.7.9 3.1 2 4.5 2 2.9 2 3.5c0 .5 1.4 3.7 3 7 1.7 3.3 3 6.5 3 7.1s.6 1.7 1.4 2.3c.8.7 1.8 2.7 2.1 4.4.4 1.8 1.6 4.6 2.6 6.3s1.9 3.9 1.9 4.9c0 .9 1.1 3.8 2.4 6.4 1.3 2.5 3.6 8 5.1 12.1s3.5 9.3 4.5 11.5 2.2 5.5 2.5 7.4c.4 1.8 1.5 4.8 2.5 6.5s2.1 4.9 2.5 7c.3 2.1 1.3 4.8 2 6s1.7 3.9 2.1 6.1 1.5 5.6 2.4 7.5c1 1.9 2.1 5.5 2.5 8s1.5 6.1 2.5 8c.9 1.9 2 5.5 2.3 8s1.5 6.6 2.6 9c1.1 2.5 2.1 6 2.1 7.8s.9 5.4 1.9 8c1.1 2.6 2.5 7.8 3.1 11.6s1.6 7.8 2.1 8.8c.6 1 1.6 6 2.4 11.1s2.1 10.9 2.9 12.9c.9 2.1 1.6 5.5 1.6 7.6s.9 7.2 1.9 11.3 2.2 11.4 2.6 16.4c.4 4.9 1.4 10.8 2.2 13s1.9 10.7 2.4 19c.5 8.2 1.2 15.9 1.6 17 3 9.6 4.6 54.6 3.8 113-.4 35.7-.9 50.3-2 57-.9 4.9-2 14.6-2.6 21.5-.5 6.9-1.8 17.4-2.9 23.5-1 6-2.2 13.9-2.5 17.5-.4 3.6-1.5 9.9-2.5 14s-2 10.2-2.4 13.5c-.3 3.3-1.2 8-2.1 10.5s-2 7-2.4 10c-1 6.4-4.4 20.7-7.2 30-1.1 3.6-1.9 7.1-1.9 7.9s-1.2 5.3-2.6 10-3.7 12.4-5.1 17.1-3.4 10.6-4.4 13.2c-1.1 2.6-1.9 5.7-1.9 7s-.9 4.2-2 6.3c-1.2 2.2-2.5 5.6-3 7.5s-2.2 7.1-3.9 11.5c-1.6 4.4-3.4 9.6-4.1 11.5s-2.3 5.6-3.6 8.3c-1.3 2.6-2.4 5.4-2.4 6.3s-.9 3.1-1.9 4.8-2.2 4.7-2.6 6.6-1.6 4.7-2.6 6.2c-1.1 1.4-1.9 3.4-1.9 4.5 0 1-1.2 3.6-2.5 5.8-1.4 2.2-2.5 4.7-2.5 5.6s-.9 2.8-2 4.2-2.3 3.9-2.6 5.6c-.4 1.7-1.3 3.6-2 4.2-.8.6-1.4 1.6-1.4 2.2 0 1.1-15.1 31.4-20 40.2-1.6 2.7-3.8 6.8-4.9 9-2.2 4.2-5.3 9.7-8.9 15.5-2.6 4.3-7.1 12.2-9.4 16.4-.9 1.8-2.3 3.8-3.2 4.5-.9.8-1.6 1.9-1.6 2.5 0 .7-2 4-4.5 7.4s-4.5 6.5-4.5 6.8c0 .6-4.8 7.9-9.5 14.4-1.1 1.5-4.2 6-7 10.1-2.7 4-6 8.6-7.3 10.3-1.2 1.7-3 4.3-4 5.7-4.3 6.4-27.1 35-42.4 53.1-40 47.6-105.5 107.3-156.2 142.6-3.3 2.3-7.7 5.3-9.6 6.7-12.6 8.9-37.6 25-46.4 29.8-2.8 1.6-6.7 3.9-8.6 5.2s-6.1 3.7-9.2 5.3c-3.2 1.7-7 4-8.4 5.1-1.5 1.2-3.5 2.1-4.5 2.1s-2.1.5-2.4 1.1c-.8 1.1-.8 1.2-29.7 15.6-11.1 5.5-21.4 10.4-22.8 10.8s-3.6 1.6-4.9 2.6c-1.3 1.1-3.1 1.9-4 1.9s-3.4 1.1-5.6 2.5c-2.2 1.3-4.7 2.5-5.5 2.5s-3.7 1.2-6.5 2.5c-2.7 1.4-5.6 2.5-6.3 2.5s-3 .9-5 1.9c-5 2.6-14 6.1-18 7.1-1.8.4-4.3 1.5-5.6 2.3-1.3.9-4.1 1.9-6.2 2.3s-4.8 1.3-5.9 2.1c-1.1.7-3.8 1.8-6 2.4s-6.2 1.8-9 2.9c-2.7 1-9 3-14 4.5-4.9 1.4-11 3.3-13.5 4.2-2.5.8-7.2 2.1-10.5 2.9-3.3.7-8 1.9-10.5 2.8-5.3 1.7-14.9 4.2-24.4 6.2-3.7.7-8.7 2-11 2.8-2.2.7-6.8 1.7-10.1 2-3.3.4-8.6 1.6-11.8 2.7-3.1 1-7.5 1.9-9.6 1.9-2.2 0-7.7.9-12.3 2s-10.3 2.2-12.8 2.4c-2.5.3-7.4.8-11 1.2-3.6.3-7.5 1-8.8 1.5s-10.5 1.6-20.5 2.4c-10 .9-22 2.1-26.7 2.7-10.8 1.5-130.3 1.5-141 0-4.1-.5-14.2-1.5-22.5-2.1-8.2-.7-17.2-1.6-20-2.2-8.4-1.6-16.7-2.8-23.5-3.4-3.6-.3-9-1.2-12-2-3-.9-9.4-2-14.1-2.5s-10.1-1.6-12-2.4-6.1-1.7-9.4-2.1-8.7-1.5-12-2.5-8.1-2.1-10.6-2.5c-2.5-.3-6.9-1.5-9.8-2.5-2.8-1.1-6.6-2-8.4-2-1.7 0-5.1-.9-7.4-2-2.3-1-6.4-2.2-9-2.6-2.6-.3-6.1-1.3-7.6-2.1-2.6-1.3-7.7-2.8-22.2-6.7-2.7-.7-6.6-2-8.5-2.9-3.3-1.5-5.9-2.4-17.7-6.3-2.7-.8-6.6-2.4-8.8-3.5-2.2-1-4.7-1.9-5.5-1.9s-2.8-.7-4.5-1.6c-1.6-.9-5.2-2.4-8-3.4-2.7-1-7-2.5-9.5-3.4s-6.1-2.5-8.1-3.6-4.5-2-5.6-2c-1 0-3.4-1.1-5.3-2.5s-4-2.5-4.7-2.5c-1.3 0-7.3-2.7-15.5-7.1-2-1-4.3-1.9-5.1-1.9s-2.5-.8-3.8-1.9c-1.3-1-4.1-2.3-6.1-3s-4.2-1.8-4.8-2.6c-.6-.7-2.4-1.7-4-2s-3.4-1.2-4-2c-.6-.7-2.3-1.6-3.7-2-1.5-.3-3.8-1.4-5.2-2.4s-6-3.6-10.1-5.8c-9.3-4.9-15.6-8.4-19.7-10.9-9.2-5.6-15-9-16.3-9.5-1.4-.6-11.3-7-18.5-11.9-1.6-1.1-9.7-6.6-18-12.1-19.1-12.8-34.6-24.2-58.6-43.2-34.5-27.1-85-75.7-109.5-105.2-3.2-3.9-9-10.6-12.9-15-3.8-4.4-8.8-10.4-11-13.3s-6-7.8-8.5-11c-2.5-3.1-6.8-8.8-9.5-12.5-2.8-3.7-7.1-9.5-9.8-12.9-2.6-3.3-4.7-6.4-4.7-6.8 0-.3-1.9-3.2-4.3-6.3-2.3-3.1-6-8.4-8.2-11.8s-6.1-9.4-8.7-13.3-6.6-10.3-8.8-14.1c-2.3-3.9-5.4-9-7-11.5-1.7-2.5-3.5-5.6-4.2-7-.6-1.4-1.7-3.2-2.4-4s-3.1-5.1-5.4-9.5c-9.4-17.9-13.6-25.5-14.8-26.7-.6-.6-1.2-1.6-1.2-2.1 0-.8-3.4-8.1-14-30.2-5.5-11.3-14-30.8-14-32 0-.6-1.2-3.3-2.5-6-1.4-2.8-2.5-5.7-2.5-6.5s-.9-3-2-4.8-2-3.8-2-4.5c0-.6-1.1-3.5-2.5-6.2-1.3-2.8-2.5-5.9-2.5-7 0-1.2-.9-3.9-2-6-1.2-2.2-2.6-6.2-3.2-9-.6-2.7-1.6-5.9-2.3-7s-1.6-3.8-2-6c-.4-2.1-1.5-5.5-2.4-7.5-1-1.9-2.1-5.4-2.5-7.8-.3-2.4-1.3-5.4-2.1-6.6s-1.8-4.5-2.1-7.2c-.4-2.7-1.5-6.5-2.4-8.4-1-1.9-2-5.9-2.4-8.8-.4-3-1.5-7.7-2.6-10.5-1-2.9-2.1-7.3-2.5-9.9-.3-2.6-1.5-7.2-2.6-10.2-1-3.1-1.9-6.6-1.9-7.8 0-1.3-.9-6.1-2-10.8-3.1-13.3-6-29.6-7.1-40-.5-5.2-1.7-12-2.5-15s-1.9-12.2-2.5-20.4c-.5-8.2-1.4-15.7-1.9-16.5-1.9-3.7-3.5-42.3-3.5-86.6.1-44.2 1.4-78.1 3.6-87 .5-2.2 1.4-10.1 1.9-17.5s1.4-15.5 2-18 1.7-9.9 2.5-16.5c.9-6.6 2.2-14 2.9-16.5.8-2.5 1.7-7.6 2.1-11.3.4-3.8 1.3-8.4 2.1-10.3.8-1.8 1.9-6.6 2.4-10.5.6-4 1.9-10.2 2.9-13.8s2.3-8.9 2.9-11.6c1.7-8.1 4.2-17.6 6.2-23.5 1-3 2.2-7.3 2.5-9.5.4-2.2 1.1-4.5 1.5-5 .5-.6 1.8-4.4 2.9-8.5s2.7-9.3 3.5-11.5 1.5-4.8 1.6-5.7c0-1 .9-3.7 1.9-6 1.1-2.4 3-7.5 4.4-11.3 4.3-12.3 4.9-13.9 7.4-20.5 1.4-3.6 3.1-8.3 3.9-10.5s2.3-5.6 3.3-7.5 2.2-4.9 2.6-6.7c.3-1.7 1.2-3.7 2-4.3.7-.6 1.6-2.6 1.9-4.4.4-1.9 1.3-3.9 2-4.5.8-.7 1.7-2.4 2.1-3.9 1.8-7.1 31.4-66.4 36.1-72.2.6-.8 1.5-2.6 1.9-4s1.4-3.3 2.2-4.2 2.2-3 3.1-4.7c5.6-10.2 10.4-18 11.7-19.1.8-.7 1.5-1.7 1.5-2.3 0-1.1.7-2.2 8.4-13.7 3.2-4.9 6-9 12.2-18.4 1-1.6 2.6-3.9 3.4-5.1s2.4-3.5 3.5-5.1c1-1.6 6.4-8.9 12-16.2 5.5-7.4 10.7-14.4 11.6-15.7 3.2-4.9 29.8-36.5 42.5-50.5 14.3-15.7 52-53.3 67.4-67.1 16.5-14.9 41.5-35.2 61.8-50.4 1.5-1.1 5.2-3.9 8.2-6.1 5.5-4.1 33.1-22.7 39.9-26.9.9-.6 3-1.9 4.6-3 4.1-2.8 6.5-4.2 10-6.1 1.7-.9 3.7-2.3 4.5-3 .9-.7 4.7-3 8.5-5 3.9-2 7.7-4.2 8.5-4.9s4.7-3 8.5-5c3.9-2.1 9-4.9 11.5-6.3s7.7-4 11.5-6c3.9-1.9 7.9-3.9 9-4.5s3.4-1.7 5-2.4c1.7-.8 3.7-1.8 4.5-2.3 4.7-2.8 33.9-16.6 37-17.4 1.4-.4 4.3-1.6 6.5-2.6 8.9-4.1 18.2-8 19.1-8 .5 0 2.7-.9 4.9-2s4.7-2 5.7-2c.9 0 1.9-.4 2.3-1 .3-.5 3.4-1.8 6.8-2.9 10.9-3.5 18.1-6.1 20.2-7.3 1-.6 4.2-1.7 7-2.4 4.7-1.2 7.3-2 19.3-6 2.6-.9 7.2-2.2 10.2-2.9s6.9-1.8 8.5-2.5c1.7-.7 5.7-1.8 9-2.5s7.8-2 10-2.9c2.2-.8 5.2-1.5 6.6-1.6 1.5 0 5.5-.9 9-2 3.5-1 9.5-2.4 13.3-3s7.7-1.5 8.7-2.1c1-.5 5.6-1.4 10.1-2 4.6-.5 10.3-1.6 12.8-2.4s9-1.9 14.5-2.5 10.7-1.3 11.5-1.6c3.2-1.1 11.8-2.5 18.5-3 6.1-.5 13.2-1.3 25-3 8.2-1.1 25.5-2.2 38-2.3 7.7-.1 15.4-.5 17-1 4.1-1.2 66.2-1.3 70.3-.1"/><path d="M1036.5 354.2c-19.5 1.6-21 1.7-25 2.2-2.2.3-9.8 1-16.8 1.6-7.1.6-14 1.5-15.3 2s-7 1.4-12.7 1.9c-5.6.6-12.9 1.7-16.2 2.6s-9.4 2-13.5 2.5c-4.1.6-9.7 1.6-12.5 2.4-2.7.8-8.4 2.1-12.5 2.9-15.5 3.2-18.6 4-23 5.4-2.5.8-6.3 1.9-8.5 2.4-2.2.6-6.9 1.9-10.5 2.9s-8.7 2.4-11.4 3-5.8 1.8-7 2.6c-1.1.7-3.1 1.4-4.4 1.4-1.2 0-4.9 1.1-8.2 2.5s-6.8 2.5-7.8 2.5-3.5.9-5.7 2-4.6 2-5.5 2c-.8 0-3.5 1-6 2.1-2.5 1.2-5.8 2.5-7.5 2.9-3.2.9-15 5.5-17.6 6.9-.8.5-4.7 2.1-8.5 3.6s-8.9 3.7-11.4 5c-2.5 1.2-5.6 2.6-7 3s-3.7 1.6-5.2 2.6c-1.4 1.1-3.1 1.9-3.7 1.9-1.8 0-30.2 14.1-33.7 16.7-1.7 1.3-3.7 2.3-4.3 2.3-.7 0-2.5.9-4.1 2-1.5 1.1-3.8 2.4-5.1 3-1.3.5-4.5 2.2-7.1 3.7-11.3 6.7-19.6 11.5-22.8 13.5-6.8 4.1-31.8 20.5-37 24.3-1.5 1.1-4 2.9-5.6 4-25.8 17.6-60.3 46.1-88.9 73.5-33.1 31.6-60 61.9-85.5 95.9-2.5 3.3-6.6 8.8-9.3 12.1-2.6 3.4-4.7 6.5-4.7 7 0 .4-2 3.3-4.5 6.3-2.5 3.1-4.5 5.8-4.5 6.2 0 .3-2 3.5-4.6 7.1-2.5 3.6-4.9 7.5-5.5 8.7-.5 1.2-2.3 4-3.9 6.2s-5.1 7.7-7.7 12.3c-2.7 4.6-5.8 10-7 12-1.3 2-2.9 5.1-3.7 6.8s-2.2 3.6-3 4.4c-.9.7-1.6 1.6-1.6 2.1 0 1.3-1.8 5.1-5 10.4-1.6 2.7-3.4 6.1-4.1 7.5-.6 1.4-1.6 3.4-2.2 4.5s-1.7 3.3-2.5 5c-.9 1.6-2 3.9-2.6 5-.5 1.1-1.6 3.3-2.3 5-.8 1.6-1.9 3.7-2.4 4.5s-1.4 2.6-2 4c-1.8 4.1-4.5 10.2-7.3 16.1-1.4 3.1-2.6 6-2.6 6.4s-1.1 3.1-2.4 5.9c-4.7 10.1-6.6 14.7-6.6 15.9 0 .6-1.1 3.4-2.5 6.2-1.3 2.7-2.5 5.6-2.5 6.4s-.9 3.3-2 5.6-2.7 6.4-3.4 9.1c-.8 2.7-2.2 7.1-3.1 9.9-1 2.7-2.5 7.2-3.5 10-.9 2.7-2.4 7.2-3.4 10-1 2.7-2.3 7.5-3 10.5s-2 7.7-3 10.5c-1.9 5.9-4.3 15-5.8 22-.5 2.7-1.8 7.7-2.8 11s-2.1 8.2-2.4 11c-.4 2.7-1.5 8.4-2.5 12.5-1.1 4.1-2.7 12-3.6 17.5s-2 12-2.5 14.5-.9 7.1-.9 10.4c-.1 3.2-.5 7.5-1 9.5-2.7 10.5-3.4 15.5-4.1 29.4-.5 8.4-1.4 21.3-2 28.7-.6 8.2-.9 28.3-.6 51 .2 20.6.5 40.1.5 43.3s.4 7.2 1 9c.5 1.8 1.2 9.3 1.5 16.7s1.3 17.3 2.1 22c.9 4.7 2 13.2 2.5 19 .6 5.7 1.6 12.5 2.4 15s1.7 7.4 2 10.9 1.5 9.8 2.5 14c1.1 4.2 2.4 10.6 3 14.2.6 3.7 1.8 8 2.6 9.5.8 1.6 1.5 4.4 1.5 6.2s.9 5.8 1.9 9c1 3.1 2.2 7.7 2.6 10.1s1.4 5.9 2.2 7.8 1.9 6 2.4 9c.6 3.1 1.9 7.2 3 9.2 1 2 1.9 4.6 1.9 5.9 0 1.2.7 3.9 1.6 6 .9 2 2.4 6.4 3.4 9.7 2.6 8.5 5.8 17.5 7.5 21.2.8 1.7 1.5 3.8 1.5 4.7 0 .8.9 3 2 4.8s2 4 2 4.9 1.1 3.7 2.5 6.3 2.5 5.4 2.5 6.2.9 3.2 2 5.2 3.8 8 6.1 13.2c4.4 10.2 10.6 23.6 12 26 .5.8 1.5 2.8 2.3 4.5 2.3 5.3 2.6 5.9 7.6 15 2.6 4.9 6.7 12.5 8.9 16.8s4.9 9 6.1 10.4c1.1 1.4 2 3.1 2 3.8s.7 1.8 1.6 2.5c.8.8 2.2 2.7 3 4.4 2.5 5.3 6.3 11.7 11.2 18.8 2.6 3.7 5.6 8.3 6.7 10.1 1.1 1.9 3.4 5.3 5 7.6 1.7 2.4 3.7 5.5 4.6 7.1.8 1.5 3.3 5 5.5 7.8 2.1 2.8 5 6.7 6.4 8.7s4.5 6.2 7 9.3 5.3 6.8 6.2 8.2c2.4 3.7 26.2 32.6 32.1 39 2.7 3 8.7 9.5 13.1 14.3 10.9 11.8 27.8 29 34.6 35.1 3 2.7 9.4 8.6 14.2 13.2 9.1 8.6 39.5 34.5 43.8 37.2 1.4.9 5.7 4.1 9.5 7.2 8.2 6.5 11.2 8.7 22.1 16.3 4.5 3.1 10.3 7.1 12.9 8.9s5.4 3.7 6.4 4.3c.9.5 3 1.9 4.6 3 1.7 1.2 6.3 4.1 10.3 6.5 4 2.5 8.5 5.3 10 6.2 2.7 1.7 12.8 7.6 22.7 13.2 2.7 1.6 10.2 5.6 16.5 8.9s12.5 6.8 13.8 7.8 3.6 2 5.2 2.4c1.6.3 3.4 1.3 4.1 2.1.6.8 1.8 1.4 2.6 1.4 1.3 0 17.2 7.2 27.6 12.6 2.6 1.3 5.2 2.4 5.8 2.4.5 0 3.4 1 6.2 2.3 12.3 5.6 28.2 11.7 30.3 11.7.9 0 2.8.8 4.2 1.9 1.5 1 4.5 2.1 6.7 2.5 2.1.4 5.6 1.6 7.7 2.7 2 1 4.6 1.9 5.7 1.9 1.2 0 4.9 1.1 8.3 2.4 7.2 2.7 18.9 6.3 23.3 7.2 1.7.3 5.1 1.4 7.7 2.5 2.6 1 5.9 1.9 7.5 1.9 1.5 0 5.5.9 8.8 2 5.5 1.8 11.1 3.1 25.5 6 3 .6 9.3 2 14 3.1s12.5 2.4 17.4 3c4.8.5 9.6 1.3 10.5 1.8.9.4 6.3 1.3 12.1 2 5.8.6 14.6 1.8 19.5 2.6 9.2 1.4 19 2.3 35 3 5 .3 17.6 1 28 1.6 23.6 1.4 37.8 1.4 61.5 0 10.2-.6 23-1.3 28.5-1.6 15.1-.6 25.2-1.5 33.5-3 4.1-.8 11.3-1.7 16-2 4.7-.4 12.1-1.5 16.5-2.5s10.8-2.1 14.2-2.4 9.4-1.5 13.5-2.6c4-1.1 8.7-2 10.4-2s5-.7 7.3-1.5c2.2-.8 6.9-1.9 10.4-2.5 3.4-.6 8.9-1.9 12.2-3 3.3-1 8.3-2.2 11-2.8 2.8-.6 7.3-1.8 10-2.6 8.4-2.8 17.8-5.6 21-6.2 1.7-.4 4.6-1.5 6.5-2.6 1.9-1 4.5-1.8 5.8-1.8 1.2 0 3.9-.8 6-1.9 2-1 5.3-2.2 7.2-2.5 1.9-.4 5.3-1.6 7.5-2.5 2.2-1 6.3-2.6 9-3.6 9.4-3.1 16-5.7 16.9-6.6.6-.5 1.7-.9 2.5-.9 1.4 0 8.3-3 17.4-7.6 2.6-1.3 5.1-2.4 5.7-2.4 2.6 0 56.6-26.9 61-30.4.8-.7 2.6-1.7 4-2.4s4.8-2.5 7.5-4.1c2.8-1.7 6.8-4 9-5.2s6.5-3.7 9.5-5.7c3-1.9 7.1-4.5 9-5.7 21.5-13.4 44.7-30 69.7-50 6.9-5.5 13.9-11.1 15.7-12.5 15.7-12.3 50.8-45.9 72.4-69.2 14.4-15.7 35.8-41.1 45.2-53.8 2.5-3.3 6.3-8.4 8.5-11.3s4.9-6.5 6-8.1 2.9-4.1 4-5.6c2.5-3.5 11.7-16.8 13-18.9.5-.9 2-3 3.2-4.8 1.3-1.7 2.3-3.5 2.3-3.8 0-.4 1.1-2 2.5-3.7 1.4-1.6 2.5-3.5 2.5-4.3 0-.7.7-1.9 1.7-2.6.9-.8 2.2-2.8 3-4.4.8-1.7 2.7-5 4.3-7.5 1.7-2.5 3.7-5.9 4.5-7.5.9-1.7 2.9-5.3 4.5-8 1.6-2.8 3.4-5.9 3.9-7.1.5-1.1 2.1-3.8 3.5-5.9s2.6-4.5 2.6-5.3c0-.9.6-2.3 1.4-3.1 2.2-2.6 12.6-23.2 12.6-25.2 0-1 .4-2.1 1-2.4 1-.6 4.7-8.2 9.9-20.5 1.8-4.1 4.1-9.2 5.2-11.2 1-2 1.9-4.4 1.9-5.2 0-.9 1.1-3.7 2.4-6.3 1.4-2.7 3.7-8.2 5.1-12.3 1.5-4.1 3.6-9.3 4.6-11.6s1.9-5 1.9-6c0-1.1.9-3.5 1.9-5.5 1.1-2 2.3-5.4 2.7-7.5.4-2.2 1.5-5.5 2.5-7.4.9-2 2.1-5.4 2.5-7.5.3-2.2 1.2-5.1 1.9-6.5s1.8-5.1 2.4-8.2c.5-3.2 1.7-7 2.5-8.6.8-1.5 2-5.7 2.6-9.2.6-3.6 1.6-7.2 2.1-8.2.5-.9 1.5-4.8 2.3-8.5.7-3.7 2.1-9.7 2.9-13.3 3.9-16.3 5.7-25.1 6.7-33 .6-4.7 1.7-10.3 2.5-12.5.7-2.2 1.8-9.8 2.5-16.8.6-7.1 1.5-14 2.1-15.4.5-1.4 1.4-10 2-19.2.5-9.1 1.4-20.4 2-25.1 2.6-22.5 2.6-81 0-105-.6-5.2-1.5-16.3-2-24.5-.5-8.3-1.6-18.8-2.5-23.5-.8-4.7-2-12.8-2.5-18-.6-5.2-1.7-12-2.5-15-.7-3-1.7-8.6-2.1-12.5-.4-3.8-1.6-9.1-2.6-11.8-1-2.6-1.9-6.6-1.9-8.7 0-2.2-.9-6.6-1.9-9.7-1.1-3.2-2.3-8.3-2.6-11.3-.4-3-1.5-7.8-2.5-10.5-1-2.8-2.1-6.9-2.4-9.1-.3-2.3-1.5-6.1-2.6-8.5s-2-5.3-2-6.4-.9-4.2-1.9-7c-1-2.7-2.3-6.8-2.9-9s-1.8-6.3-2.7-9c-.9-2.8-2.2-6.4-2.7-8-.6-1.7-2.1-5.9-3.5-9.5s-3.3-9.1-4.4-12.3c-1-3.2-2.6-6.8-3.4-8s-1.5-3.1-1.5-4.2-.9-3.5-2-5.3c-1.1-1.7-2.5-5.2-3.1-7.7-.6-2.4-1.7-5-2.5-5.6s-1.4-1.8-1.4-2.7c0-.8-1.1-3.8-2.4-6.6-1.4-2.8-3.7-7.8-5.1-11.1-1.5-3.3-3.1-6.7-3.5-7.5-.5-.8-2.5-4.9-4.5-9s-4.2-8.4-4.8-9.5-1.7-3.4-2.5-5c-.9-1.7-1.9-3.7-2.4-4.5s-1.6-3.1-2.4-5c-.9-1.9-2.5-4.7-3.5-6.2-1.1-1.4-1.9-3.3-1.9-4.1s-.7-2.1-1.6-2.8c-.9-.8-2.5-3.2-3.6-5.4-1-2.2-2.9-5.8-4.3-8-1.3-2.2-3.1-5.4-4-7-.9-1.7-2.9-5-4.5-7.5s-3.9-6.1-5-8c-4.1-6.9-17.2-26.5-23.5-35-2.2-3-4.4-6.3-5-7.2-3.4-5.9-31.4-40.9-45.3-56.8-18.3-20.9-38.3-41.7-52.8-54.9-21.4-19.7-56.9-49.6-65.4-55.3-1.4-1-8.9-6.3-16.7-12s-17-12.1-20.4-14.3-9.4-6.1-13.3-8.7-9-5.7-11.3-6.8c-2.3-1.2-4.7-2.8-5.4-3.6-.6-.8-1.5-1.4-2-1.4s-3.5-1.7-6.6-3.7c-3.2-2.1-7.4-4.6-9.3-5.5-1.9-1-7.1-3.8-11.5-6.3-12.5-7-60.3-30.5-62-30.5-.5 0-3.1-1.1-5.9-2.4s-8.2-3.5-12.1-5c-3.8-1.4-8.7-3.5-10.7-4.6s-4.5-2-5.5-2-4-1.2-6.8-2.5c-2.7-1.4-5.7-2.5-6.6-2.5s-3.6-.9-6-2-5.2-2-6.2-2-3.8-.9-6.1-2c-2.4-1-6.5-2.4-9.2-3-2.6-.6-5.3-1.5-5.9-2s-4.2-1.7-8-2.5c-3.8-.9-8.4-2.3-10.3-3.1s-4.3-1.4-5.3-1.4c-1.1 0-5.2-1.1-9.1-2.5s-8.4-2.5-10-2.5c-1.5 0-4.5-.7-6.5-1.5-2.1-.8-7.6-2.1-12.3-3-4.7-.8-10.7-2.1-13.4-3-2.7-.8-6.4-1.5-8.2-1.5s-7.3-.9-12.1-2c-4.8-1.2-13.4-2.5-19-3.1-5.7-.5-11.3-1.3-12.6-1.8-2.3-.9-10-1.7-41.2-4.5-22.7-2.1-33.7-2.4-67-2.3-20.9 0-42.5.4-48 .9M1191 866.9c27.1 2 43.6 3.9 47 5.3 1.9.9 6 1.9 9 2.3s7.2 1.6 9.2 2.6c2.1 1.1 4.5 1.9 5.4 1.9s3.3.9 5.3 1.9c2 1.1 7 3.6 11.1 5.6 18.2 9 31.2 19.5 44.2 35.7 7.9 9.9 10.7 14.1 13.7 20.4 1.1 2.3 2.4 4.5 3 4.8.6.4 1.1 1.5 1.1 2.4 0 1 .9 3.3 1.9 5.3 1.1 2 2.4 5.6 3.1 8 .6 2.4 2 6.5 3 9.1 1.1 2.6 2 6 2 7.6s.7 4.9 1.5 7.2c4.4 12.4 5.4 39.6 5.4 148.9.1 108.4-.8 133.7-5 150-1 4.1-1.9 8.2-1.9 9.2 0 3.9-10.1 31.1-12.6 34-.8.8-1.4 2.3-1.4 3.2 0 .8-1.1 2.9-2.5 4.5-1.4 1.7-2.5 3.3-2.5 3.6 0 3.6-23.8 29.1-34 36.4-9.9 7.2-25.8 16.2-28.6 16.2-.5 0-2.5.9-4.5 1.9-2 1.1-5.4 2.3-7.5 2.7s-5.7 1.5-7.9 2.5-5.5 1.9-7.3 1.9-7.4.9-12.5 2.1c-12.4 2.7-15.1 2.9-68.2 4.1-57.7 1.2-90.8 1.2-149 0-49.9-1.1-57.3-1.5-65.6-3.6-3-.8-9-1.9-13.3-2.5-4.4-.6-8.4-1.5-9-2s-3.4-1.5-6.1-2.2c-2.8-.6-5.9-1.7-7.1-2.4-1.1-.8-4.1-1.9-6.5-2.5-2.4-.7-5.6-2.1-7-3.1-1.5-1-3.2-1.9-3.9-1.9-1.4 0-14.3-8.7-21.5-14.4-4.3-3.5-19.1-18.1-22.8-22.6-1.2-1.4-2.5-3.4-9.3-14.1-5-7.7-12.4-24.2-12.4-27.3 0-.9-.8-3.1-1.7-4.9s-2.2-6.4-2.9-10.2c-.6-3.9-1.9-9.7-2.7-13-3-11.5-4-45.7-4-144 0-84 .7-120.7 2.7-138 .7-6.5 5.2-25.7 7-29.7.9-2.1 1.6-4.6 1.6-5.6 0-1.1 1.1-4 2.5-6.6s2.5-5.3 2.5-6 .9-2.4 1.9-3.8c1.1-1.3 2.3-3.6 2.6-5.1.4-1.4 1.5-3.3 2.6-4.3 1-.9 1.9-2.3 1.9-3 0-1.1 11.4-16 17.7-23 6.3-7.1 23.1-19.6 33.8-25.2 8.2-4.3 16.9-8.2 18.4-8.2.6 0 2.8-.8 4.9-1.8 2-1.1 7-2.4 11.1-3.1 4-.6 8.3-1.7 9.5-2.3 2.3-1.3 23.9-3.4 46.3-4.7 7.9-.4 14.6-1.1 15-1.5 1-1 177.8.1 193.3 1.3"/><path d="M994 916c-1.4.4-9.7.9-18.5.9-13.3.1-17.7.6-26 2.6-5.5 1.4-10.9 2.5-12 2.5s-3.8.9-6 2-4.5 1.9-5.2 2c-1.3 0-12.5 5.9-18.1 9.4-5.4 3.5-16.2 13.7-20.9 19.8-4.8 6.2-13.3 22.2-13.3 25 0 1-.8 3.3-1.7 5.1s-2.2 6.3-3 10.2c-.7 3.8-1.8 9-2.5 11.5-1.5 5.9-2.4 238.5-.9 251.1 2 16.8 6.9 37.3 10.2 42.9.4.8 1.8 3.3 2.9 5.5 5.4 10.6 11.9 18.6 21.6 27 9 7.6 11 8.8 23.9 14.5 10.3 4.5 13.2 5.2 36 8.9 13.3 2.1 35.2 2.6 124.5 2.6 82.6 0 115.9-.6 123.1-2 3.6-.8 10.5-1.9 15.4-2.5 4.8-.6 10.7-2 13.1-3 2.4-1.1 5-2 5.9-2 2.6 0 14.4-5.9 21.7-10.7 7.3-4.9 19.5-17 24.4-24.4 5.3-7.9 10.8-20.6 13.4-30.9 5.8-22.8 6.3-38 5.7-163.9-.4-94-.6-106.4-2.1-112.6-.9-3.9-2.3-10.4-3-14.5-.8-4.1-2.1-8.9-3-10.5-.9-1.7-1.6-3.7-1.6-4.6 0-2.9-8.8-17.7-14.9-25.2-9-10.9-19.1-18.7-30.6-23.8-10.8-4.8-14-6-20.5-7.5-3.6-.8-8.5-2-11-2.5-2.5-.6-13.3-1.5-24-2.1-24-1.2-199.5-1.9-203-.8m249.1 46.1c7.7 2.8 16.4 11.1 17.9 17.2.6 2.3 1.5 5.2 2 6.5 1.5 3.5 1.2 9-1 16.7-1.6 5.6-2.9 7.8-6.7 11.7-2.7 2.7-6.8 6.1-9.2 7.5-4 2.3-5.6 2.6-14.5 2.7-9.6 0-10.4-.1-15.9-3.3-10.3-5.9-15.5-13.8-16.4-24.9-.7-8.6.8-15.7 4.7-21.8 4.1-6.5 8.7-10.1 16.7-12.9 8-2.9 13.2-2.7 22.4.6M1102 999c9.8 1.2 20.2 3.1 23.2 4.4 2.1.9 4.5 1.6 5.5 1.6s4.1 1.2 6.8 2.5c2.8 1.4 5.6 2.5 6.3 2.5 1.7 0 8.2 3.7 20.5 11.8 8.9 5.8 27.1 22.5 32 29.2 4.4 6.2 7.4 10.6 9.4 13.9 3.7 6.2 9.3 17.7 9.3 19.3 0 .9.7 2.1 1.4 2.8.8.6 2 3.6 2.6 6.5.6 3 2.1 8 3.3 11.2 1.9 5.4 2.1 7.7 2.1 32.3 0 26.3 0 26.6-2.7 34.4-1.5 4.3-2.7 8.8-2.7 10s-.7 3.1-1.5 4.2c-.8 1-2 3.7-2.6 5.9s-1.9 5.1-2.9 6.5c-.9 1.4-2.1 3.6-2.6 5-1.6 4.4-8.7 15-16.1 24-6.8 8.4-16.6 17.4-24.8 23-2 1.4-4.9 3.5-6.5 4.7-1.5 1.3-3.1 2.3-3.4 2.3-.4 0-2.4 1.1-4.4 2.5s-4.3 2.5-5 2.5c-.8 0-2.6.8-4 1.9-1.5 1-4.7 2.5-7.2 3.2s-5 1.6-5.6 2.1c-.6.4-4.2 1.4-8 2.3-3.8.8-8.7 2.1-10.9 2.9-3.1 1.2-9.2 1.5-26.6 1.6-19.7 0-23.5-.3-29-1.9-3.5-1.1-8.2-2.3-10.4-2.7s-5.7-1.5-7.7-2.5c-2.1-1.1-4.4-1.9-5.3-1.9-.8 0-5-1.9-9.2-4.1-4.3-2.3-9.1-4.9-10.8-5.7-3.8-1.9-15.4-10.5-22.2-16.4-5.4-4.6-17.6-19-22.7-26.9-1.6-2.4-3.7-5.5-4.6-6.9-1-1.4-2.1-3.7-2.5-5-.4-1.4-1.6-3.6-2.6-4.9-1.1-1.3-1.9-3.1-1.9-4s-1.1-4-2.5-6.9c-1.4-3-2.5-6.3-2.5-7.3 0-1.1-.9-4.5-2-7.7-3.3-9.2-4.6-30.3-3.2-48.2.7-8.2 1.9-16.5 2.7-18.4.9-2 2-5.9 2.6-8.8.7-2.9 2-6.9 3-8.8 1.1-1.9 1.9-4 1.9-4.6 0-1.4 5.3-11.6 9-17.4 1.6-2.5 3.9-6.2 5-8.3 2.5-4.5 22-24.9 28-29.2 2.2-1.7 5.6-4.2 7.5-5.6 5.1-3.9 31.3-16.6 36-17.4 2.2-.4 4.5-1.1 5.2-1.7 1.3-1 20.3-3.9 21.4-3.2.4.2 1.8 0 3.1-.6 1.8-.8 22-.8 28.8 0"/><path d="M1070.8 1048c-3.2.5-7.1 1.6-8.7 2.5-1.7.8-3.7 1.5-4.6 1.5-1.5 0-11.1 4.5-19.5 9.1-10.6 5.7-30.6 28.5-33.5 38-.4 1.3-1.6 3.8-2.6 5.5-1.1 1.7-1.9 4.3-1.9 5.8s-.7 4.3-1.6 6.4c-1.2 2.7-1.8 7.9-2.2 18.4-.4 13.2-.2 15.4 1.6 20.5 1.1 3.2 2.4 7.6 2.7 9.8.4 2.2 1.5 5.4 2.6 7.1 1 1.7 1.9 3.6 1.9 4.2 0 2.2 12 18.9 17.2 23.8 12.8 12.3 27.8 20.9 43.3 24.7 10.9 2.6 29 3.4 35.2 1.4 2.7-.9 6.8-1.9 9.3-2.3 2.5-.3 6.1-1.4 8-2.4 11.8-5.8 15.1-7.6 19.9-10.8 7.2-4.7 17.9-15.6 23.4-23.9 4.8-7.3 10.7-19.3 10.7-21.8 0-.8 1-4.3 2.3-7.7 1.9-5.5 2.2-8.3 2.2-20.8s-.3-15.4-2.3-20.8c-1.2-3.4-2.2-6.8-2.2-7.6 0-3.2-10.5-21.7-16.3-28.6-6.4-7.6-15.4-15.6-21.7-19.1-1.9-1.1-5.4-3.1-7.8-4.4-2.3-1.4-8.4-3.8-13.5-5.5-8.1-2.7-10.9-3.2-22.7-3.5-7.4-.2-16.1 0-19.2.5"/></svg>