<svg xmlns="http://www.w3.org/2000/svg" width="2176.000000pt" height="2272.000000pt" version="1.0" viewBox="0 0 2176.000000 2272.000000"><path d="M1023.5 272c-6 .5-13.2 1.3-16 1.9-2.7.6-10.4 1.3-17 1.5-6.9.3-14.1 1.2-17 2.1-2.7.9-9.2 1.8-14.4 2.1-5.3.2-12.1 1.3-15.8 2.4-3.6 1.1-8.7 2-11.3 2-2.7 0-7.7.9-11.2 2-3.4 1.1-8.2 2-10.4 2-2.3 0-7.1 1.1-10.8 2.5-4.1 1.5-7.6 2.3-9.4 1.9s-4.7.3-8.2 1.9c-3.1 1.4-7.3 2.5-9.7 2.5-2.3-.1-5.9.9-8.3 2.1-2.2 1.1-5.9 2.1-8.1 2.1-2.6 0-5 .7-6.6 2-1.5 1.2-4.1 2-6.2 2-2 0-6.1 1.2-9.1 2.6s-6.2 2.3-7.2 2.1c-.9-.3-3.4.4-5.5 1.6-2.1 1.1-5.5 2.1-7.5 2.3-2 .1-4.9 1.1-6.4 2.3s-4.1 2.1-5.9 2.1-4.4.9-5.8 2-3.8 2-5.4 2c-1.5 0-4.1.9-5.8 2-1.6 1.1-4.2 2-5.6 2s-4.1 1.1-6 2.5c-2 1.5-4.2 2.4-5.3 2.1s-3.1.3-4.5 1.4c-1.5 1-4.3 2.1-6.3 2.5s-4.4 1.6-5.4 2.6c-.9 1-2.8 1.9-4.1 1.9-1.4 0-3.6.9-5 2s-3.5 2-4.7 2c-1.1 0-3.2.9-4.6 2s-3.1 2-3.8 2-3.4 1.1-6 2.5-5.3 2.5-6 2.5c-.8 0-2.7 1.1-4.4 2.5-1.6 1.4-3.6 2.5-4.5 2.5-.8 0-2.6.9-4 2s-3.4 2-4.4 2c-1.1 0-2.8.9-3.9 2s-3.1 2-4.5 2c-1.3 0-2.8.6-3.2 1.3s-5.6 3.6-11.4 6.4-11.1 5.9-11.8 6.7c-.8.9-2.2 1.6-3.2 1.6s-3 1.1-4.5 2.5-3.5 2.5-4.4 2.5c-1 0-2.4.7-3.1 1.6s-3.7 2.7-6.6 4-6.4 3.5-7.7 4.9c-1.4 1.4-3.1 2.5-3.9 2.5-1.4 0-13.2 7.5-17.2 10.9-1.1.9-4 2.7-6.5 3.8-2.5 1.2-5 3-5.6 4s-3.7 3.1-6.8 4.7-5.6 3.2-5.6 3.6c0 .7-2.1 2.2-10.2 7.2-1.6 1-5.8 4.3-9.3 7.3-3.6 3-7.1 5.5-7.8 5.5s-3.7 2.3-6.7 5.1-8.6 7.1-12.3 9.6c-3.8 2.6-7.7 5.8-8.8 7.1-1 1.4-7.2 6.7-13.7 11.9-11.9 9.6-72.9 69.6-83.8 82.4-3.2 3.8-10.1 11.8-15.3 17.7-5.1 5.9-10.9 13.1-12.9 16.1-2 2.9-5 6.8-6.7 8.5-3.5 3.5-8.5 10.1-8.5 11.2 0 .4-1.9 3-4.3 5.8s-5.4 6.9-6.7 9.1-4.1 6-6.1 8.5-4 5.5-4.4 6.7c-.3 1.3-1 2.3-1.5 2.3-1 0-7 8.7-7 10.2 0 .6-1.4 2.6-3.1 4.6s-3.8 5.2-4.6 7.1c-.8 2-2.1 3.9-2.8 4.4-.7.4-2.7 3.6-4.5 7.1-1.7 3.5-3.7 6.7-4.5 7s-1.5 1.4-1.5 2.5-.7 2.6-1.5 3.4c-1.9 1.9-5.1 7.3-7.1 11.9-.9 2.1-2 3.8-2.4 3.8-.5 0-1.4 1.5-2 3.4s-1.8 4-2.6 4.6c-.7.7-1.4 1.9-1.4 2.7s-1.1 2.8-2.5 4.5c-1.4 1.6-2.5 3.6-2.5 4.5 0 .8-.9 2.6-2 4s-2 3.2-2 4-.9 2.6-2 4-2 3.3-2 4.3-.9 2.9-2 4.3-2 3.1-2 3.9-1.1 2.9-2.5 4.8-2.5 4-2.5 4.8-.9 2.5-2 3.9-2 3.5-2 4.5c0 1.1-.9 3.1-2 4.5s-2 3.5-2 4.7c0 1.1-.9 3.2-2 4.6s-2 3.5-2 4.6c0 1.2-.9 3.2-1.9 4.6-1.1 1.3-2.3 3.8-2.7 5.4-.3 1.6-1.2 3.8-1.8 4.9-.7 1.1-1.8 3.9-2.4 6.1-.7 2.3-1.9 4.7-2.7 5.4s-1.5 2.5-1.5 4.1-.9 4.3-2 6.1-2 4.5-2 5.9c0 1.5-.9 3.8-2 5.2s-2 3.8-2 5.5c0 1.6-.9 4.1-2 5.4-1 1.4-2.2 4.5-2.6 6.9s-1.5 5.8-2.5 7.5c-1.1 1.7-1.9 4.6-1.9 6.4 0 1.7-.9 4.3-2 5.7-1.2 1.6-2 4.1-2 6.6 0 2.2-.8 5.4-1.9 7.1-1 1.7-2.1 5.3-2.5 8-.3 2.7-1.3 6.3-2.2 8-.8 1.7-1.8 5.1-2.1 7.6s-1.4 6.4-2.5 8.8c-1 2.4-1.8 6-1.8 8s-.9 5.7-2 8.1-2 6.5-2 9.1c0 2.7-1.1 7.7-2.6 11.6-1.7 4.6-2.4 7.8-1.9 10 .3 1.7 0 4.4-.6 6-2.4 6.1-3.9 13.7-3.9 19.3 0 3.2-.7 7.5-1.6 9.6-.8 2-1.7 7.6-2 12.4-.5 8.9-2 19.8-3.6 26.4-.5 2-1.1 10.4-1.4 18.5-.2 8.1-1 20.1-1.6 26.7-1.4 15.5-1.4 81.5 0 97 .6 6.6 1.4 18.5 1.6 26.5.3 8 1.3 17.6 2.1 21.5.9 3.8 2 12.7 2.5 19.6.5 7.2 1.6 14.3 2.4 16.4.9 2.1 1.6 6.4 1.6 9.6 0 5.6 1.5 13.2 3.9 19.3.6 1.6.9 4.3.6 6-.5 2.2.2 5.4 1.9 10 1.5 3.9 2.6 8.9 2.6 11.6 0 2.6.9 6.7 2 9.1s2 6.1 2 8.1.8 5.6 1.8 8c1.1 2.4 2.2 6.4 2.5 9.1.4 2.6 1.4 6.1 2.2 7.7s1.8 5.1 2.1 7.7c.4 2.7 1.5 6.2 2.5 7.9 1.1 1.7 1.9 4.9 1.9 7.1 0 2.5.8 5 2 6.6 1.1 1.4 2 4 2 5.7 0 1.8.8 4.7 1.9 6.4 1 1.7 2.1 5.1 2.5 7.5s1.6 5.5 2.6 6.9c1.1 1.3 2 3.8 2 5.4 0 1.7.9 4.1 2 5.5s2 3.7 2 5.2c0 1.4.9 4.1 2 5.9s2 4.5 2 6.1.7 3.4 1.5 4.1 2 3.1 2.7 5.4c.6 2.2 1.7 5 2.4 6.1.6 1.1 1.5 3.3 1.8 4.9.4 1.6 1.6 4.1 2.7 5.4 1 1.4 1.9 3.4 1.9 4.6 0 1.1.9 3.2 2 4.6s2 3.5 2 4.6c0 1.2.9 3.3 2 4.7s2 3.4 2 4.5c0 1 .9 3.1 2 4.5s2 3.1 2 3.9 1.1 2.9 2.5 4.8 2.5 4 2.5 4.8.9 2.5 2 3.9 2 3.3 2 4.3.9 2.9 2 4.3 2 3.2 2 4 .9 2.6 2 4 2 3.2 2 4c0 .9 1.1 2.9 2.5 4.5 1.4 1.7 2.5 3.7 2.5 4.5s.7 2 1.4 2.7c.8.6 2 2.7 2.6 4.6s1.5 3.4 2 3.4c.4 0 1.5 1.7 2.4 3.7 2 4.7 5.2 10.1 7.1 12 .8.8 1.5 2.3 1.5 3.4s.7 2.2 1.5 2.5 2.8 3.5 4.5 7c1.8 3.5 3.8 6.7 4.5 7.1.7.5 2 2.4 2.8 4.4.8 1.9 2.9 5.1 4.6 7.1s3.1 4 3.1 4.6c0 1.5 6 10.2 7 10.2.5 0 1.2 1 1.5 2.2.4 1.3 2.4 4.3 4.4 6.8s4.8 6.3 6.1 8.5 4.3 6.3 6.7 9.1 4.3 5.4 4.3 5.8c0 1.1 5 7.7 8.5 11.2 1.7 1.7 4.7 5.6 6.7 8.5 2 3 7.8 10.2 12.9 16.1 5.2 5.9 12.1 13.9 15.3 17.7 10.4 12.3 71.7 72.6 82.6 81.4 5.8 4.6 12.1 10.1 14 12.1s6.4 5.6 10 8.1c3.6 2.4 9 6.6 12 9.4s6 5.1 6.7 5.1 4.2 2.5 7.8 5.5c3.5 3 7.7 6.3 9.3 7.3 8.2 5.1 10.2 6.5 10.2 7.3 0 .5 1.1 1.4 2.5 1.9 3.1 1.2 8.7 5 9.8 6.7.4.7 3.2 2.4 6.1 3.8 3 1.4 6 3.2 6.7 4.1.6.8 4.1 3.1 7.6 5 3.4 2 6.3 4 6.3 4.5s.9.9 2 .9c1.2 0 3.2 1.1 4.6 2.5 1.3 1.4 4.8 3.6 7.7 4.9s5.9 3.1 6.6 4 2.1 1.6 3.1 1.6c.9 0 2.9 1.1 4.4 2.5s3.5 2.5 4.5 2.5 2.4.7 3.2 1.6c.7.8 6 3.9 11.8 6.7s11 5.7 11.4 6.4 1.9 1.3 3.2 1.3c1.4 0 3.4.9 4.5 2s2.8 2 3.9 2c1 0 3 .9 4.4 2s3.2 2 4 2c.9 0 2.9 1.1 4.5 2.5 1.7 1.4 4.1 2.5 5.4 2.5 1.4 0 3.3.9 4.2 1.9 1 1.1 3.2 2.3 5 2.7 1.7.3 4.3 1.5 5.8 2.5 1.4 1.1 3.5 1.9 4.6 1.9 1 0 3.1.9 4.5 2s3.6 2 5 2c1.3 0 3.2.9 4.1 1.9 1 1 3.4 2.2 5.4 2.6s4.8 1.5 6.3 2.5c1.4 1.1 3.4 1.7 4.5 1.4s3.3.6 5.3 2.1c1.9 1.4 4.6 2.5 6 2.5s4 .9 5.6 2c1.7 1.1 4.3 2 5.8 2 1.6 0 4 .9 5.4 2s4 2 5.8 2 4.4.9 5.9 2.1 4.4 2.2 6.4 2.3c2 .2 5.4 1.2 7.5 2.3 2.1 1.2 4.6 1.9 5.6 1.6s4.1.7 6.9 2.1c2.9 1.5 6.8 2.6 9 2.6 2.4 0 4.9.8 6.5 2 1.6 1.3 4 2 6.6 2 2.3 0 6.1 1 8.4 2.1 2.3 1.2 6 2.2 8.2 2.1 2.2 0 6.5 1.1 9.5 2.5 3.5 1.6 6.4 2.3 8.2 1.9s5.3.4 9.4 1.9c3.7 1.4 8.5 2.5 10.8 2.5 2.2 0 7 .9 10.4 2 3.5 1.1 8.5 2 11.2 2 2.6 0 7.8.9 11.5 2.1 3.7 1.1 9.3 2.1 12.4 2.1 5.4 0 19.5 2.3 21.3 3.4.5.3 7.5 1 15.6 1.5 8.1.4 18.3 1.4 22.7 2.1 11.8 1.8 130 1.8 141 0 4.4-.8 14.3-1.8 22-2.2 7.7-.5 16.7-1.5 20-2.4 3.3-.8 8.3-1.5 11.1-1.6 6.3 0 15.7-1.6 20.7-3.5 2-.8 6.1-1.5 9.1-1.5 2.9 0 7.5-.7 10.2-1.6 2.7-.8 8.3-1.9 12.5-2.4 4.3-.5 9.2-1.6 11-2.5 1.8-1 5.5-1.8 8.3-2 2.8-.1 7.3-1.2 9.9-2.3 2.7-1.2 6.6-2.2 8.8-2.2s5.7-.9 7.9-2 5.5-2 7.5-2 5.3-.9 7.5-2 5.4-2 7.2-2 4.7-.9 6.3-2c1.7-1.1 4.7-2 7-2 2.4 0 5.6-1 8-2.5 2.2-1.4 5.4-2.5 7-2.5 1.7 0 4.4-.9 6-2 1.7-1.1 4.3-2 5.8-2 1.6 0 4-.9 5.4-2s4-2 5.8-2 4.4-.9 5.8-2 3.8-2 5.4-2 4.4-1.1 6.3-2.5 4.5-2.5 5.9-2.5 3.4-.7 4.4-1.5c1.1-.7 3.6-1.6 5.7-2s4.6-1.5 5.6-2.6c.9-1 2.9-1.9 4.4-1.9s3.5-.9 4.5-2 3-2 4.4-2 3.7-.9 5.1-2 3.2-2 4-2c2.1 0 55.6-26.8 57-28.5.7-.8 2.1-1.5 3.1-1.5s2.9-1.1 4.3-2.5 3.4-2.5 4.4-2.5c1.1 0 2.5-.7 3.2-1.4.6-.8 3.3-2.5 5.8-3.7 2.6-1.2 6.1-3.3 7.9-4.5 1.7-1.3 3.9-2.4 4.8-2.4.8 0 1.8-.7 2.1-1.5s3.5-2.9 6.9-4.6c3.5-1.7 7.2-4 8.1-5s2.3-1.9 3-1.9 3.8-2 6.8-4.5c3.1-2.5 6.2-4.5 6.9-4.5.8 0 3.4-1.7 5.8-3.8s5.6-4.3 7.1-4.9c1.5-.7 4.4-2.7 6.5-4.6s5.9-4.6 8.4-6.1c2.5-1.4 6.1-4.1 8-5.9s6.1-5 9.3-7.1c3.3-2.2 7.8-5.7 10-7.9 2.3-2.2 7-5.9 10.6-8.2 3.6-2.4 8.5-6.5 11-9.2 2.5-2.6 8.2-7.5 12.5-10.8 11.6-8.7 65.7-62.6 78.1-77.7 5.7-7 12.2-14.4 14.4-16.4 2.2-2.1 5.7-6.2 7.7-9.2 1.9-3 6.9-9.3 10.9-14 4.1-4.7 7.4-9 7.4-9.5s2.6-4.1 5.8-8c3.1-4 6.2-7.9 6.7-8.8 3.9-6.3 6.7-9.9 7.5-9.9.6 0 1-.6 1-1.3 0-1.2 5.5-9.7 6.9-10.7.4-.3 2-2.8 3.6-5.5 1.6-2.8 3.8-6.1 5.1-7.5 1.2-1.4 3.1-4.4 4.3-6.8s3.1-5.2 4.1-6.2c1.1-1.1 2-2.9 2-3.9s.6-2.1 1.4-2.4 2.9-3.5 4.6-7.1 3.8-7 4.6-7.7c.8-.6 1.4-1.9 1.4-2.9s.7-2.4 1.7-3.1c.9-.8 2.2-2.8 3-4.4.7-1.7 2.7-5.2 4.3-7.8s3.2-5.8 3.6-7.2c.3-1.3 1.4-3.1 2.5-4.1 1-.9 1.9-2.5 1.9-3.4 0-1 .9-2.9 2-4.3s2-3.1 2-3.9 1.1-2.9 2.5-4.8 2.5-4 2.5-4.8.9-2.5 2-3.9 2-3.2 2-4 .9-2.6 2-4 2-3.3 2-4.2.9-3 2-4.6c1.1-1.7 2-3.8 2-4.7s1.1-3 2.5-4.6c1.4-1.7 2.5-4 2.5-5.2s.9-3.3 2-4.7 2-3.5 2-4.7c0-1.1.9-3.5 2-5.1 1.1-1.7 2-4 2-5.1 0-1.2.8-3.2 1.9-4.5 1-1.3 2.2-3.9 2.6-5.8s1.6-4.8 2.6-6.5 1.9-4.1 1.9-5.2c0-1.2.9-3.3 2-4.7s2-3.8 2-5.4c0-1.5.9-4.2 2-5.8 1.1-1.7 2-4.1 2-5.5s.9-4.1 1.9-6.1c1.1-2 2.3-5.4 2.7-7.5.3-2.2 1.5-5.3 2.5-7 1.1-1.7 1.9-4.4 1.9-6s.9-4.4 2-6.2 2-4.7 2-6.5.9-4.9 2-7c1.1-2 2-5.2 2-6.9.1-1.8.9-5.1 2-7.3s1.9-5.7 2-7.8c0-2.1 1.1-6.4 2.5-9.7s2.5-7.5 2.5-9.4.9-5.5 2-8.1 2-6.7 2-9.1c0-2.5.9-7 2-10.1 1.1-3.2 2-7.9 2-10.5s.6-6.7 1.4-9c2.1-6.2 2.9-10.9 2.7-14.3-.1-2.9.9-8.7 3-17 .6-2.2 1.4-9.4 1.9-16s1.4-14.3 2-17c4.6-20.1 4.6-162.9 0-183-.6-2.8-1.5-10.4-1.9-17-.5-6.6-1.1-12.9-1.4-14-2.2-7.6-3.7-15.9-3.6-18.7.2-3.7-.6-8.2-2.7-14.6-.8-2.3-1.4-6.5-1.4-9.2s-.9-7.2-2-10-2-7.3-2-10c0-2.6-.9-6.9-2-9.5s-2-6.2-2-8.1-1.1-6.1-2.5-9.4-2.5-7.6-2.5-9.7c-.1-2.1-.9-5.6-2-7.8s-1.9-5.5-2-7.3c0-1.7-.9-4.9-2-6.9-1.1-2.1-2-5.2-2-7s-.9-4.7-2-6.5-2-4.6-2-6.2-.8-4.3-1.9-6c-1-1.7-2.2-4.8-2.5-7-.4-2.1-1.6-5.5-2.7-7.5-1-2-1.9-4.7-1.9-6.1s-.9-3.9-2-5.5c-1.1-1.7-2-4.3-2-5.8 0-1.6-.9-4-2-5.4s-2-3.5-2-4.7c0-1.1-.9-3.5-1.9-5.2s-2.2-4.6-2.6-6.5-1.6-4.5-2.6-5.8c-1.1-1.3-1.9-3.3-1.9-4.5 0-1.1-.9-3.5-2-5.1-1.1-1.7-2-4-2-5.1 0-1.2-.9-3.3-2-4.7s-2-3.5-2-4.7-1.1-3.5-2.5-5.2c-1.4-1.6-2.5-3.7-2.5-4.6s-.9-3.1-2-4.7c-1.1-1.7-2-3.7-2-4.6s-.9-2.8-2-4.2-2-3.2-2-4-.9-2.6-2-4-2-3.1-2-3.9-1.1-2.9-2.5-4.8-2.5-4-2.5-4.8-.9-2.5-2-3.9-2-3.3-2-4.3c0-.9-.9-2.5-1.9-3.4-1.1-1-2.2-2.8-2.5-4.1-.4-1.4-2-4.6-3.6-7.2s-3.6-6.2-4.3-7.8c-.8-1.7-2.1-3.6-3-4.4-1-.7-1.7-2.1-1.7-3.1s-.6-2.3-1.4-2.9c-.8-.7-2.9-4.1-4.6-7.7s-3.8-6.8-4.6-7.1-1.4-1.4-1.4-2.4-.8-2.7-1.8-3.7c-.9-.9-3-4-4.6-6.7-1.6-2.8-3.6-5.9-4.6-7-.9-1.1-2.9-4.3-4.5-7-1.6-2.8-3.2-5.2-3.6-5.5-1.4-1-6.9-9.5-6.9-10.8 0-.6-.4-1.2-1-1.2-.8 0-3.6-3.6-7.5-9.9-.5-.9-3.6-4.8-6.7-8.8-3.2-3.9-5.8-7.5-5.8-8s-3.4-4.9-7.5-9.7c-4.2-4.8-8.7-10.6-10.2-12.9-1.4-2.3-5.8-7.5-9.7-11.7-4-4.1-10.8-12-15.3-17.5-10.2-12.7-65.2-67-75.8-75-4.3-3.3-10-8.2-12.5-10.8-2.5-2.7-7.4-6.8-11-9.2-3.6-2.3-8.3-6-10.6-8.2-2.2-2.2-6.7-5.7-10-7.9-3.2-2.1-7.4-5.3-9.3-7.1s-5.5-4.5-8-5.9c-2.5-1.5-6.3-4.2-8.4-6.1s-5-3.9-6.5-4.6c-1.5-.6-4.7-2.8-7.1-4.9s-5-3.8-5.8-3.8c-.7 0-3.8-2-6.9-4.5-3-2.5-6.1-4.5-6.8-4.5s-2.1-.9-3-1.9-4.6-3.3-8.1-5c-3.4-1.7-6.6-3.8-6.9-4.6s-1.3-1.5-2.1-1.5c-.9 0-3.1-1.1-4.8-2.4-1.8-1.2-5.3-3.3-7.9-4.5-2.5-1.2-5.2-2.9-5.8-3.7-.7-.7-2.1-1.4-3.2-1.4-1 0-3-1.1-4.4-2.5s-3.3-2.5-4.3-2.5-2.4-.7-3.1-1.5c-1.4-1.7-54.9-28.5-56.8-28.5-.8 0-2.5-.9-3.9-2s-3.8-2-5.3-2-3.5-.9-4.5-2-3-2-4.5-2-3.5-.9-4.4-1.9c-1-1.1-3.5-2.2-5.6-2.6s-4.6-1.3-5.7-2c-1-.8-3-1.5-4.4-1.5s-4-1.1-5.9-2.5-4.7-2.5-6.3-2.5-4-.9-5.4-2-4-2-5.8-2-4.4-.9-5.8-2-3.8-2-5.4-2c-1.5 0-4.1-.9-5.8-2-1.6-1.1-4.3-2-6-2-1.6 0-4.8-1.1-7-2.5-2.4-1.5-5.6-2.5-8-2.5-2.3 0-5.3-.9-7-2-1.6-1.1-4.5-2-6.3-2s-5-.9-7.2-2-5.5-2-7.5-2-5.3-.9-7.5-2-5.7-2-7.9-2-6.1-1-8.8-2.2c-2.6-1.1-7.1-2.2-9.9-2.3-2.8-.2-6.5-1-8.3-2-1.8-.9-6.7-2-11-2.5-4.2-.5-9.8-1.6-12.5-2.4-2.7-.9-7.3-1.6-10.2-1.6-3 0-7.1-.7-9.1-1.5-5-1.9-14.4-3.5-20.7-3.5-2.8-.1-7.8-.8-11.1-1.6-3.3-.9-12.5-2-20.5-2.5s-17.2-1.4-20.5-2c-7.5-1.3-118.4-2.1-134-.9m103.5 11c12.9.4 29.6 1.5 37 2.3 7.4.9 16.9 1.8 21 2.1s9.8 1 12.5 1.6c2.8.6 9.7 1.7 15.5 2.5 16.3 2.1 29.8 4.5 38.1 6.6 4.2 1 9.2 1.9 11.1 1.9 1.8 0 5.9.9 9.1 2 3.1 1.1 7 2 8.6 2 1.7 0 5.2.8 7.8 1.9 2.6 1 7.3 2.2 10.3 2.6s6.7 1.3 8.1 2.1c1.5.7 5.1 1.8 8 2.3 3 .5 7.5 1.6 10.2 2.5 11 3.7 14.5 4.8 19.2 6.1 6.5 1.8 13.9 4.3 19.3 6.6 2.3 1.1 5.2 1.9 6.3 1.9s3.7.9 5.9 2 4.6 2 5.5 2 3.3.9 5.3 1.9c2 1.1 7.1 3.2 11.2 4.7s9.3 3.5 11.5 4.4 6.5 2.7 9.5 3.9c5.9 2.4 7.6 3.2 24 10.6 10.3 4.6 12.2 5.6 15.8 7.4.9.6 4.9 2.5 8.7 4.4 3.9 1.8 8 3.9 9.3 4.5 1.2.7 3.2 1.7 4.5 2.4 7.3 3.8 16.4 8.8 25.2 13.8 5.5 3.1 10.7 6 11.5 6.4.8.3 3.5 2 6 3.6s6.1 3.9 8 5c4.4 2.5 4.4 2.5 21.4 13.7 23 15 57.7 40.2 69.2 50.2 2.3 2 6.1 5.2 8.5 7.1 22.5 17.9 79.9 72.2 86.3 81.6 1.1 1.8 6.5 8 11.9 14 21.6 23.6 46.7 56.3 69.4 90.4 12.3 18.6 15.9 24.2 19.4 30.3 1.9 3.3 4.3 7.4 5.4 9.3 1.1 1.8 4.4 7.5 7.3 12.6s5.7 10 6.2 10.8 2.8 5.1 5 9.5c4.5 8.6 6.8 13.1 8.2 15.5.4.8 1.3 2.6 1.9 4s1.5 3.2 2 4 1.4 2.6 2 4c3.4 7.8 6.1 13.7 7 15 .5.8 1.4 2.6 2 4s1.9 4.2 3 6.2c1 2 1.9 4.2 1.9 4.9 0 1.1 1.2 3.8 6.6 15.4 1.3 2.8 2.4 5.6 2.4 6.3s.9 3 2 5.2 2 4.7 2 5.6c0 1 .6 2.5 1.4 3.3.7.9 2.1 4.2 3 7.3s2.1 6 2.6 6.3c.6.3 1 1.7 1 3 0 1.4 1.1 4.9 2.5 7.9s2.5 6.1 2.5 6.9.9 3.4 2 5.8 2 5.5 2 6.9.8 4.1 1.8 6c1.1 1.9 2.2 5.4 2.6 7.8.3 2.4 1.1 5.1 1.6 6 1 1.7 4 12.1 6.1 21.2.6 2.5 1.9 7.4 2.9 11 2.2 7.8 4.6 17.8 6.4 27.7.8 4 1.7 7.6 2 8.1s1 4.3 1.6 8.3c.6 4.1 1.9 10.9 3 15.1 1.1 4.3 2 9.4 2 11.5s.9 8.7 2 14.8c1.1 6 2.4 15.3 3 20.5.5 5.2 1.2 10.8 1.5 12.5.2 1.6.9 12 1.5 23 .5 11 1.5 22.4 2 25.4 1.3 7.1 1.3 79.1 0 86.2-.5 3-1.5 14.4-2 25.4-.6 11-1.3 21.3-1.5 23-.3 1.6-1 7.3-1.5 12.5-.6 5.2-1.9 14.4-3 20.5-1.1 6-2 12.7-2 14.8s-.9 7.2-2 11.5c-1.1 4.2-2.4 11-3 15.1-.6 4-1.3 7.8-1.6 8.3s-1.2 4.1-2 8.1c-2.1 11.2-4.3 20.7-6.5 27.2-1 3.3-1.9 6.9-1.9 8 0 1.9-3.8 15.4-6.2 22-.6 1.6-1.6 5.5-2.3 8.5s-2 6.8-2.9 8.5c-.9 1.6-1.6 4.1-1.6 5.5s-.9 4.5-2 6.9-2 5-2 5.8-1.1 3.9-2.5 6.9-2.5 6.5-2.5 7.9c0 1.3-.4 2.7-1 3-.5.3-1.7 3.2-2.6 6.3s-2.3 6.4-3 7.3c-.8.8-1.4 2.3-1.4 3.3 0 .9-.9 3.4-2 5.6s-2 4.5-2 5.2-1.1 3.5-2.4 6.3c-5.4 11.6-6.6 14.3-6.6 15.4 0 .7-.9 2.9-1.9 4.9-1.1 2-2.4 4.8-3 6.2s-1.5 3.2-2 4-2.1 4-3.4 7c-2.6 5.8-8.2 17.4-9.6 20-2.2 4.1-4.3 8.2-8.1 15.5-2.2 4.4-4.5 8.7-5 9.5-1.1 1.8-10.8 18.8-13 22.8-5.1 9.1-12.2 20.4-25.6 40.6-12.1 18.1-15.9 23.5-28.9 41.1-9.4 12.6-30.3 38.2-40.2 49-5.4 5.9-11.2 12.6-12.9 14.9-9.1 12-62.3 62.3-85.3 80.6-2.4 1.9-6.2 5.1-8.5 7.1-5 4.4-37.3 28.7-47.6 35.8-10.1 7.1-35.1 23.6-37 24.4-.8.4-3.5 2.1-6 3.7s-5.9 3.6-7.7 4.5-3.7 2.3-4.4 3.1c-.6.8-1.6 1.4-2.1 1.4s-5.5 2.6-11.1 5.8c-10.7 6.2-22.1 12.4-29.7 16.2-1.1.6-4.9 2.6-8.6 4.5-3.6 1.9-7.1 3.5-7.7 3.5-.7 0-2.3.9-3.7 2s-3 2-3.7 2c-.6 0-5.6 2.1-11 4.6-12.8 6-16.7 7.7-23.3 10.5-3 1.2-7.3 3-9.5 3.9-11.8 5-25.4 10.2-28 10.9-1.6.4-4.4 1.5-6.2 2.4-1.8 1-4.1 1.7-5.2 1.7s-4 .8-6.3 1.9c-5.4 2.3-12.8 4.8-19.3 6.6-2.7.8-7 2.1-9.5 2.9-9.7 3.3-14.7 4.8-19 5.6-2.5.4-6.3 1.5-8.5 2.3s-6.8 2-10.2 2.7c-3.5.6-7.9 1.8-9.8 2.5-1.9.8-4.8 1.5-6.5 1.5s-5.6.9-8.7 2c-3.2 1.1-7.3 2-9.1 2-1.9 0-6.9.9-11.1 1.9-8.3 2.1-21.8 4.5-38.1 6.6-5.8.8-12.7 1.9-15.5 2.5-2.7.6-8.6 1.3-13 1.6s-13.6 1.2-20.5 2c-32.5 3.8-121.1 3.8-156 0-7.4-.8-16.4-1.7-20-1.9-8.5-.6-33.6-4.3-42.6-6.2-3.8-.9-10.1-2-14-2.5-3.8-.5-9.6-1.6-12.9-2.4-3.3-.9-7.2-1.6-8.7-1.6s-5.6-.9-9-1.9c-3.5-1-8.5-2.3-11.3-2.9-7.4-1.4-18.6-4.1-22-5.3-1.6-.6-5.5-1.7-8.5-2.3-5.1-1.2-10.1-2.7-21-6.2-2.5-.9-6.7-2.1-9.5-2.9-5.5-1.5-12.6-3.9-19.7-6.7-2.6-1-5.4-1.8-6.3-1.8-1 0-3.4-.8-5.4-1.9-3.7-1.9-6.8-3-16.1-6.1-3-1-6.8-2.5-8.5-3.4-1.6-.9-3.7-1.6-4.5-1.6s-2.8-.9-4.5-2c-1.6-1.1-3.6-2-4.3-2s-3.9-1.2-7-2.6-7.7-3.5-10.2-4.6c-8.7-3.9-10.6-4.7-20-9.1-5.2-2.4-10.6-4.9-12-5.5-1.4-.7-3.2-1.6-4-2.2-.8-.5-4.5-2.3-8.2-4s-7.2-3.8-7.9-4.6c-.6-.8-1.8-1.4-2.6-1.4-1.1 0-11.3-5.3-19.3-10-.8-.5-4.6-2.8-8.5-5-3.8-2.2-11-6.5-15.9-9.5s-9-5.5-9.2-5.5c-.7 0-35.6-23.3-43.4-29.1-6-4.4-34.2-25.8-41-31.1-26.1-20.3-84.8-76.2-103.1-98.3-4.1-5-8.7-10.4-10.3-12-2.9-3.1-25.6-31.4-33.6-41.8-7.3-9.5-22.3-30.8-27.5-38.9-.5-.9-2.7-4-4.8-7-2-3-3.7-6-3.7-6.5s-.9-1.8-2-2.8-2-2.2-2-2.6-1.7-3.4-3.9-6.6c-4-6.1-11.9-19.5-18.6-31.8-2.2-4-4.5-7.9-5.1-8.6-.6-.8-3.6-6.6-6.8-12.9-3.1-6.3-6.1-12.2-6.6-13-.6-.8-1.4-2.6-2-4-.5-1.4-1.4-3.2-1.9-4-2.2-3.6-6.1-12.1-6.1-13.3 0-.8-.9-2.6-2-4s-2-3-2-3.6-1.8-4.8-3.9-9.3c-2.1-4.6-4.2-9.4-4.6-10.8s-1.6-4.1-2.6-6c-1.1-1.9-1.9-4.2-1.9-5 0-.9-.5-2.1-1-2.6-1.1-1.1-5-11.3-7.2-18.4-.5-1.9-1.4-4-2-4.7-.5-.7-1.6-3.4-2.3-6-1.4-4.5-5-14.8-7.2-20.3-.6-1.4-1.4-4.1-1.7-6-.4-1.9-1.3-5.1-2.1-7-.7-1.9-2.5-7.6-4-12.5-1.4-5-3.4-11.7-4.5-15s-2-7.1-2-8.5-.9-4.5-2-6.9-2-5.5-2-7c0-1.4-.9-5.8-1.9-9.6-3-10.6-7.1-29.7-7.1-32.5 0-1.4-.9-5.8-2-9.8-1.1-3.9-2-8.6-2-10.4s-.7-6.7-1.5-10.8c-.9-4.1-2.2-13.1-3-20-.7-6.9-1.8-15-2.4-18s-1.6-13.4-2.1-23c-.6-9.6-1.5-22.7-2-29-1.1-14.6-1.1-71.9 0-87 .5-6.3 1.3-19.6 1.9-29.5s1.6-20.3 2.2-23c.5-2.8 1.6-10.9 2.4-18 .7-7.2 2.1-16.1 2.9-20 .9-3.8 1.6-8.7 1.6-10.8 0-2 .9-7 2-10.9 1.1-4 2-8.6 2-10.3 0-1.6.7-5.5 1.5-8.5.9-3 2.2-8.7 2.9-12.5 1.9-9.7 4.4-19.9 6.7-27 1-3.3 1.9-6.9 1.9-8s.9-4.7 2-8 3.1-10.1 4.6-15c1.4-5 3.2-10.6 3.9-12.5.8-1.9 1.7-5.1 2.1-7 .3-1.9 1.1-4.6 1.7-6 2.2-5.5 5.8-15.8 7.2-20.3.7-2.6 1.8-5.3 2.3-6 .6-.7 1.5-2.8 2-4.7 2.2-7.1 6.1-17.3 7.2-18.4.5-.5 1-1.7 1-2.6 0-.8.9-3.2 2-5.3 1.1-2 2-4.2 2-4.7 0-.6 2-5.3 4.5-10.6 2.5-5.2 4.5-9.9 4.5-10.5s.9-2.2 2-3.6 2-3.2 2-4c0-1.2 3.9-9.7 6.1-13.3.5-.8 1.4-2.6 1.9-4 .6-1.4 1.4-3.2 2-4 .5-.8 3.5-6.7 6.6-13 3.2-6.3 6.2-12.1 6.8-12.9.6-.7 2.9-4.6 5.1-8.6 6.7-12.3 14.6-25.7 18.6-31.8 2.2-3.2 3.9-6.2 3.9-6.6s.9-1.6 2-2.6 2-2.3 2-2.8 1.7-3.5 3.7-6.5c2.1-3 4.5-6.5 5.3-7.8 4.4-6.8 20.7-29.8 27-38.1 7.1-9.3 30.6-38.6 33.2-41.3 1.2-1.4 5.9-6.8 10.3-12 12.2-14.6 61-62.8 80-79.2 19.6-16.8 26.9-22.5 64.5-50.7 4-3 20.2-14.1 22.8-15.6.9-.6 4.9-3.1 8.7-5.7 19.9-13.3 57.3-35 75.5-43.7 3.6-1.8 7.2-3.6 8-4.1.8-.6 2.6-1.5 4-2.2 1.4-.6 6.8-3.1 12-5.5 9.4-4.4 11.3-5.2 20-9.1 2.5-1.1 7.1-3.2 10.2-4.6s6.1-2.6 6.7-2.6 2.5-.9 4.3-2 4-2 4.8-2 2.9-.7 4.5-1.6c1.7-.9 5.5-2.4 8.5-3.4 9.3-3.1 12.4-4.2 16.1-6.1 2-1.1 4.4-1.9 5.4-1.9.9 0 3.7-.8 6.3-1.8 7.1-2.8 14.2-5.2 19.7-6.7 2.8-.8 7-2 9.5-2.9 10.9-3.5 15.9-5 21-6.2 3-.6 6.9-1.7 8.5-2.3 3.5-1.2 14.8-3.9 22-5.3 2.8-.5 7.9-1.8 11.5-2.9s7.6-1.9 9-1.9 5.2-.7 8.5-1.6c3.3-.8 9.1-1.9 12.9-2.4 3.9-.5 10.2-1.6 14-2.5 8.6-1.8 33.9-5.6 42.1-6.2 3.3-.2 12.5-1.1 20.5-2 25-2.7 76.2-3.7 119-2.3"/><path d="M1054.5 335.8c-.4.5-20.2 2-39.5 3.1-8.5.5-19.5 1.6-24.5 2.4-4.9.9-12.7 1.9-17.2 2.2-4.6.3-9.4 1-10.8 1.5-1.3.5-7.6 1.6-14 2.4-6.3.9-12.3 2-13.3 2.5-.9.5-4.6 1.2-8.2 1.6s-9.2 1.6-12.5 2.6-7.2 1.9-8.8 1.9c-1.5 0-5.3.9-8.4 2-3.2 1.1-7.1 2-8.8 2-1.6 0-5 .9-7.4 2s-5.4 2-6.7 2-4.7.9-7.6 1.9c-2.9 1.1-7.1 2.3-9.3 2.7s-5.8 1.5-8 2.5-4.9 1.9-6 1.9-3.1.6-4.5 1.3c-1.4.8-4.8 1.9-7.5 2.6-2.8.7-5.9 1.8-7 2.5s-3.6 1.6-5.5 2c-3.6.6-11.3 3.5-18.6 6.8-2.2 1-4.7 1.8-5.5 1.8s-2.7.9-4.4 2c-1.6 1.1-3.9 2-5 2s-3.3.9-5 2c-1.6 1.1-3.6 2-4.4 2s-3.9 1.2-7 2.6-7.6 3.5-10.1 4.6c-5.9 2.6-13.1 5.9-15.2 7-4.4 2.1-5.4 2.6-7.3 3.5-1.1.5-2.9 1.5-4 2.1s-5.1 2.6-9 4.5c-12.3 6-29 14.8-30.5 16.2-.8.7-4.2 2.7-7.5 4.5-3.3 1.7-8 4.4-10.5 6s-7 4.3-10 6.1c-14.5 8.4-51.4 34-67.3 46.6-3.7 3-9.4 7.5-12.6 10.1-42.4 33.7-80.2 71-115.5 113.7-2.8 3.3-5.6 6.7-6.3 7.5-2.6 2.9-18.9 23.9-23.3 30-11 15.2-33.8 49.3-38.4 57.5-.9 1.6-2.8 4.8-4.1 7s-3.2 5.3-4 7c-.9 1.6-2.7 4.8-4.1 7-1.3 2.2-3.3 5.8-4.5 8-3.9 7.4-5.6 10.5-6.6 11.7-.6.7-1.6 3-2.2 5-.7 2-1.9 4.2-2.7 4.8-.7.7-1.4 2-1.4 3 0 .9-.9 2.9-2 4.3s-2 3.2-2 4-.8 2.5-1.9 3.8c-1 1.3-2.2 3.5-2.6 4.9s-1.3 3.2-2 4-1.6 2.6-2 4-2.5 6.2-4.6 10.8c-2.1 4.5-3.9 8.7-3.9 9.2s-1.1 3-2.5 5.6-2.5 5.3-2.5 6-.7 2.5-1.5 4.1c-1.5 2.9-5.2 12.1-7.4 18.3-.7 1.9-2.4 6.4-3.8 10-1.3 3.6-3 8.5-3.8 11-2.6 8.4-4.7 14.5-6.6 19.2-1 2.6-1.9 5.7-1.9 7-.1 1.3-.9 4.1-2 6.3s-1.9 5-2 6.2c0 1.2-.9 4.6-1.9 7.5-1.1 2.9-2.3 7.3-2.6 9.7-.4 2.4-1.3 5.9-2.1 7.6-.7 1.8-1.8 5.7-2.3 8.6-.5 3-1.7 8.5-2.6 12.4-4.4 19.2-5.5 24.5-6 29.8-.4 3.2-1.2 7.3-2 9-.7 1.8-1.5 6.8-1.9 11.2s-1.3 11.4-2.1 15.5c-1.2 6.1-3.4 26.3-3.6 33-.1.8-.5 3-1.1 4.9-.9 2.8-2.9 55.1-2.9 74.1s2 71.3 2.9 74.1c.6 1.9 1 4.1 1.1 4.9.2 6.7 2.4 26.9 3.6 33 .8 4.1 1.7 11.1 2.1 15.5s1.2 9.4 1.9 11.2c.8 1.7 1.6 5.8 2 9 .5 5.3 1.6 10.6 6 29.8.9 3.8 2.1 9.4 2.6 12.4.5 2.9 1.6 6.8 2.3 8.6.8 1.7 1.7 5.2 2.1 7.6.3 2.4 1.5 6.8 2.6 9.7 1 2.9 1.9 6.3 1.9 7.5.1 1.2.9 4 2 6.2s1.9 5 2 6.3c0 1.3.9 4.4 1.9 7 1.9 4.7 4 10.8 6.6 19.2.8 2.5 2.5 7.4 3.8 11 1.4 3.6 3.1 8.1 3.8 10 2.2 6.2 5.9 15.4 7.4 18.3.8 1.6 1.5 3.4 1.5 4.1s1.1 3.4 2.5 6 2.5 5.1 2.5 5.6 1.8 4.7 3.9 9.2c2.1 4.6 4.2 9.4 4.6 10.8s1.3 3.2 2 4 1.6 2.6 2 4 1.6 3.6 2.6 4.9c1.1 1.3 1.9 3 1.9 3.8s.9 2.6 2 4 2 3.4 2 4.3c0 1 .7 2.3 1.4 3 .8.6 2 2.8 2.7 4.8.6 2 1.6 4.3 2.2 5 1 1.2 2.7 4.3 6.6 11.7 1.2 2.2 3.2 5.8 4.5 8 1.4 2.2 3.2 5.3 4.1 7 .8 1.6 2.7 4.8 4 7s3.2 5.3 4.1 7c4.3 7.7 30.7 47.3 35.8 53.7 1.1 1.4 3.2 4.3 4.6 6.3 9.1 13.1 37.3 47.3 54.9 66.4 28 30.5 56.4 57 88.2 82.3 3.2 2.6 8.9 7.1 12.6 10.1 8.4 6.6 33.3 24.6 42.8 30.8 16.4 10.8 24.2 15.8 27 17.3 1.7.9 5 3 7.5 4.6s7.2 4.3 10.5 6c3.3 1.8 6.7 3.8 7.5 4.5 1.5 1.3 17.1 9.6 30.5 16.2 3.9 1.9 7.8 3.8 8.8 4.4.9.5 2.6 1.4 3.7 1.9 1.1.6 2.9 1.5 4 2 4.5 2.2 10.1 4.8 20.5 9.5 3.3 1.5 7.8 3.5 10.1 4.6 2.2 1 4.7 1.9 5.5 1.9s2.8.9 4.4 2c1.7 1.1 3.9 2 5 2s3.4.9 5 2c1.7 1.1 3.7 2 4.5 2 .9 0 3.3.9 5.4 1.9 2.1 1.1 5.2 2.3 6.9 2.7 1.8.3 4.9 1.5 6.9 2.5 2.1 1.1 4.5 1.9 5.5 1.9 1.1 0 3.6.9 5.8 2s5 2 6.2 2c1.3 0 4 .9 6 2 2.1 1.1 4.4 2 5.2 2 1.2 0 6.5 1.6 23.6 7.1 3.3 1.1 7 1.9 8.1 1.9 1.2 0 4.1.9 6.5 2s5.8 2 7.4 2c1.7 0 5.6.9 8.8 2 3.1 1.1 6.9 2 8.4 2 1.6 0 5.5.9 8.8 1.9s8.9 2.2 12.5 2.6 7.3 1.1 8.2 1.6c1 .5 6.6 1.6 12.5 2.4 6 .8 14 2.1 17.8 3 3.9.8 9.3 1.5 12 1.5 2.8 0 8.6.7 13 1.6 4.4.8 15.4 1.9 24.5 2.5 9.1.5 21.7 1.4 28 1.9 14.8 1.1 72.1 1.1 87-.1 6.3-.5 18.7-1.3 27.5-1.8 8.8-.6 18.5-1.5 21.5-2.1 3-.5 10.2-1.4 16-2 5.8-.5 13.4-1.6 17-2.4s11-2.2 16.5-3.1c15.9-2.6 24.6-4.3 30.5-6 3-.8 6.9-1.5 8.5-1.5 1.7 0 5-.9 7.4-2s5.6-2 7.2-2c2.7 0 8.5-1.5 22.4-6 3.3-1 7.8-2.2 10-2.6 2.2-.3 4.9-1.2 6-1.9 1.2-.7 4.8-1.8 8-2.5 3.3-.7 6.9-1.9 8-2.6 1.1-.8 3-1.4 4.4-1.4 1.3 0 4.2-.8 6.5-1.9 5.7-2.6 14.5-5.9 18.1-6.7 1.7-.4 4.4-1.6 6-2.6 1.7-1 3.8-1.8 4.7-1.8 1.8 0 8.2-2.6 15-6.1 2-1 4.2-1.9 4.8-1.9.5 0 3.2-1 5.8-2.1 2.6-1.2 7.2-3.3 10.2-4.6 3-1.4 7.5-3.4 10-4.5 6.6-3 40.8-20.2 45.7-22.9 2.3-1.3 8.3-4.8 13.5-7.7 5.1-2.9 10-5.7 10.8-6.2s3.1-1.9 5-3 4.4-2.6 5.5-3.3c16.8-10.6 25.1-16 30.6-19.7 16.1-10.9 22.7-15.6 27.6-19.4 2.8-2.3 7.1-5.5 9.4-7.1 8.3-6 26.1-20.4 40.6-33 16-13.9 66.6-64 75.3-74.5 2.9-3.6 7.7-9.2 10.6-12.5 6.2-7 26.1-32 31.9-40 2.2-3 5.8-7.9 8.1-10.9 3.5-4.7 8.6-12.2 26.1-38.7 2.3-3.6 4.3-7 4.3-7.6s.7-1.7 1.6-2.4 2-2.2 2.5-3.4c.5-1.1 2.3-4.3 3.9-7 1.6-2.8 3.9-6.6 5-8.5s3.2-5.3 4.5-7.5c2.3-3.8 2.9-5 4-7.7.3-.7 1.8-3.6 3.4-6.3 3.3-5.7 16.7-32.4 20.1-40 1.3-2.8 3.4-7.5 4.7-10.5 1.4-3 3.2-7.1 4-9 .9-1.9 2.4-5.2 3.4-7.2 1.1-2 1.9-4.3 1.9-5s1.1-3.6 2.5-6.3c1.3-2.8 2.5-5.7 2.5-6.5 0-.9.4-2 1-2.6.9-.9 3.7-8.3 6.7-17.9.8-2.8 2-5.5 2.5-6.2s1.6-3.6 2.3-6.5c1.4-5.6 3.6-12.3 6.7-20 1-2.6 1.8-5.6 1.8-6.8 0-1.1.7-3.4 1.5-4.9.8-1.6 1.7-4.8 2.1-7.2.3-2.4 1.4-6.7 2.4-9.4 1-2.8 2.3-7.3 2.8-10 1.3-6.2 3.9-16.4 5.7-23 .8-2.8 1.9-8.2 2.5-12 .5-3.9 1.7-9.2 2.5-11.9s1.5-6.4 1.5-8.2.9-7 2-11.6 2-10.3 2-12.8.9-8.8 1.9-14c1.1-5.2 2.7-17.8 3.6-28 1-10.2 2.1-22.3 2.5-27 1.1-11 1.1-94.9 0-106-.4-4.7-1.5-16.6-2.4-26.5-1-9.9-2.4-21.8-3.3-26.5s-1.9-12.1-2.3-16.5c-.5-4.4-1.5-10.7-2.4-14-.9-3.2-1.6-7.5-1.6-9.5 0-1.9-.9-6.7-2-10.5s-2-8.3-2-10c0-1.6-.9-6.2-1.9-10-2.6-9.2-5-18.8-6.3-25-.5-2.8-1.8-7.3-2.8-10-.9-2.8-2.2-7.3-2.7-10-.6-2.8-1.5-6.4-2.1-8-2.1-6.4-4.3-13.2-5.7-17.5-3.2-10.6-5.4-16.9-9.1-27-1.4-3.6-3.2-8.6-4-11.2s-1.9-5-2.4-5.3c-.6-.3-1-1.4-1-2.3s-1.2-4-2.5-6.7c-1.4-2.8-2.5-5.6-2.5-6.3s-.8-3-1.9-5c-1-2-2.5-5.3-3.4-7.2-.8-1.9-2.9-6.7-4.7-10.5-1.7-3.9-3.9-8.7-4.8-10.9-3.3-7.5-19.3-39-21.2-41.7-1.1-1.5-2-3.4-2-4.2 0-.9-.5-1.9-1.1-2.3-.6-.3-1.7-2.1-2.5-3.8s-2.8-5.1-4.4-7.6-3.6-5.9-4.4-7.5c-2.6-5.1-5.4-9.6-7-11.4-.9-1-1.6-2.1-1.6-2.6s-2-3.8-4.3-7.4c-17.5-26.5-22.6-34-26.1-38.7-2.3-3-5.9-7.9-8.1-10.9-5.8-8-25.7-33-31.9-40-2.9-3.3-7.7-8.9-10.6-12.5-6.6-8-57.6-59-68.5-68.6-21.7-18.9-35.3-30.1-46.8-38.4-2.6-1.9-7.6-5.7-11-8.4-3.4-2.6-9.1-6.8-12.7-9.2s-9.7-6.5-13.5-9.1c-5.8-4-13.9-9.2-31-20-1.1-.7-3.6-2.2-5.5-3.3s-4.2-2.5-5-3-5.7-3.3-10.8-6.2-11.4-6.5-14-8-7.6-4.1-11.2-5.8-7.2-3.5-8-4c-4-2.3-27.2-13.5-37-17.8-2.5-1-6.6-2.9-9.2-4.1-2.6-1.1-5.4-2.1-6.1-2.1s-2.2-.7-3.3-1.5c-1.2-.8-4.1-2.1-6.5-3-10.9-4.1-12.6-4.7-15.4-6-1.6-.7-5-2-7.5-2.8-7.6-2.5-11.3-3.9-15.6-5.8-2.3-1.1-5.2-1.9-6.5-1.9-1.4 0-3.3-.6-4.4-1.4-1.1-.7-4.7-1.9-8-2.6-3.2-.7-6.8-1.8-8-2.5-1.1-.7-4-1.6-6.5-2s-5.6-1.3-7-2-4.3-1.6-6.5-1.9c-2.2-.4-6.6-1.6-9.7-2.7-3.2-1-7.1-1.9-8.8-1.9s-4.4-.7-5.9-1.5c-1.6-.8-5.7-1.9-9.2-2.4-3.5-.6-8-1.6-9.9-2.1-3.8-1.2-12.9-2.9-28.5-5.5-5.5-.9-12.8-2.3-16.3-3.1s-10-1.7-14.5-2-11.6-1.3-15.7-2.1-14.9-1.9-24-2.4-21.7-1.3-28-1.9c-10.8-.8-74.8-1.9-75.5-1.2m79.1 87.3c9.9.5 20.6 1.4 23.9 1.9 3.3.6 12.8 1.6 21.2 2.5 8.3.8 16.2 1.9 17.5 2.4 1.2.5 5.2 1.2 8.8 1.5 3.6.4 10.3 1.6 15 2.6s11 2.3 14 2.9c13.7 2.6 34.5 7.7 41.8 10.2 3 1.1 6.3 1.9 7.4 1.9 1 0 4 .8 6.6 1.9 2.6 1 6.5 2.3 8.7 2.9 11 2.9 18.4 5.2 21 6.6 1.7.9 3.8 1.6 4.8 1.6s3.5.9 5.7 2 4.7 2 5.6 2 3.3.8 5.3 1.9c2 1 6.3 2.9 9.6 4.1 7.6 2.9 16.8 6.6 22 9 21 9.6 41.4 19.6 52 25.5 4.4 2.5 9.4 5.2 11 6 7.3 3.7 29.8 17.3 36.7 22.2 2.6 1.8 5.1 3.3 5.4 3.3.4 0 3 1.7 5.8 3.8s7.6 5.4 10.6 7.5c3 2 6.6 4.5 8 5.4 4 2.8 27.1 20.3 31.5 24 41.5 34.2 80.1 72.7 109 108.8 15.2 18.9 41.6 55.7 47.5 66.3.9 1.5 3.1 5.2 5 8.3 1.9 3 4 6.4 4.7 7.5 2.9 4.5 16 27.7 17.5 30.6 1.1 2.3 2.9 5.9 3.9 7.8 3.9 7 7.9 15.3 7.9 16.3 0 .7.9 2.3 2 3.7s2 3.2 2 4 .9 2.6 2 4 2 3.1 2 3.8c0 1.4 3.8 10.2 7.1 16.3 1 2 1.9 4.4 1.9 5.3 0 .8.9 3 2 4.8s2 3.9 2 4.7.8 3.2 1.9 5.5c1.9 4.4 3.4 8.4 5.8 15.6.8 2.5 2.1 5.7 2.8 7.1.8 1.4 1.9 4.3 2.4 6.5.5 2.1 1.7 6.1 2.6 8.9 4 12 4.8 14.3 6 19 .8 2.7 2.1 7.7 3 11s2.5 8.7 3.5 12c1.1 3.3 2 7.2 2 8.7s.9 5.1 2 8 2 6.7 2 8.3c0 1.7.9 6.2 1.9 10 1 3.9 2.2 9.9 2.6 13.5s1.3 8.7 2 11.5c.8 2.7 1.9 9.5 2.5 15 .6 5.6 1.5 12.5 2.1 15.5.5 3 1.4 12 1.9 20s1.2 16.5 1.6 19c1.3 9 1.6 20 1.6 50s-.3 41-1.6 50c-.4 2.5-1.1 11-1.6 19s-1.4 17-1.9 20c-.6 3-1.5 10-2.1 15.5s-1.5 11.6-2.1 13.5-1.7 7.8-2.4 13c-.8 5.2-2.1 12-3 15-.8 3-1.5 6.9-1.5 8.7s-.9 5.5-2 8.3-2 6.4-2 8-.9 5.2-2 8-2 6-2 7.1c0 1.8-3 12-6.7 22.9-.8 2.5-1.9 6.4-2.4 8.7-.5 2.4-1.5 5.6-2.4 7.2-.8 1.7-1.5 3.8-1.5 4.7 0 1-.8 3.6-1.9 5.8-1 2.3-2.5 6.1-3.4 8.6-2.6 7.8-3.9 11.4-5.8 15.6-1.1 2.3-1.9 4.7-1.9 5.5s-.9 2.9-2 4.7-2 3.9-2 4.8c0 .8-.9 3.2-2 5.2-3.1 5.9-7 15-7 16.4 0 .7-.9 2.4-2 3.8s-2 3.2-2 4-.9 2.6-2 4-2 3.1-2 3.8c0 1.1-6.2 13.5-14.1 28.2-1.6 2.9-14 24.5-15.2 26.4-6.8 10.9-8.4 13.5-9.7 15.8-6 10.7-34.2 50-49.1 68.4-29 35.7-66.5 73-107.4 106.7-4.4 3.7-27.5 21.2-31.5 24-1.4.9-5 3.4-8 5.4-3 2.1-7.8 5.4-10.6 7.5s-5.4 3.8-5.8 3.8c-.3 0-2.8 1.5-5.4 3.3-6.9 4.9-29.4 18.5-36.7 22.2-1.6.8-6.6 3.5-11 6-10.6 5.9-31 15.9-52 25.5-9 4.1-16.3 7-17.8 7-.9 0-1.8.4-2.2.9-.3.5-2.2 1.5-4.3 2.1-2 .6-5.5 2-7.7 3-4.6 2.1-9 3.6-16 5.6-2.7.8-6.1 2.1-7.5 2.9-1.4.7-4.3 1.6-6.5 2s-5.2 1.4-6.8 2.2c-1.5.7-4.6 1.8-7 2.3-2.3.4-6.2 1.5-8.7 2.3-13.8 4.6-37.7 10.7-54 13.8-3 .6-9.3 1.9-14 2.9s-11.4 2.1-14.8 2.5c-3.5.3-7.5 1-8.9 1.6-1.4.5-9.3 1.6-17.6 2.4-8.4.9-17.9 1.9-21.2 2.5-25.5 3.9-114.5 3.9-143.3 0-3.7-.5-11.9-1.4-18.2-2-6.3-.7-14.2-1.8-17.5-2.5-3.3-.8-8.7-1.7-12-2-6-.6-17.4-2.8-33.5-6.6-4.7-1.1-9.5-1.9-10.8-1.9-1.2 0-4.7-.9-7.7-1.9-2.9-1-7.3-2.2-9.7-2.6-2.4-.3-5.8-1.3-7.6-2.1-1.8-.9-5-1.8-7-2.1-2-.2-5.7-1.3-8.2-2.3s-6.4-2.1-8.7-2.5c-2.4-.4-4.5-1-4.8-1.5-.3-.4-2.9-1.3-5.7-2-2.9-.7-6.2-1.8-7.4-2.5-1.2-.8-3.9-1.7-6-2.1s-5.6-1.5-7.6-2.5c-2.1-1.1-4.5-1.9-5.5-1.9s-3.3-.9-5.1-2-3.9-2-4.7-2c-1.3 0-6.7-2.3-17-7.1-2.2-1.1-4.4-1.9-4.8-1.9s-3.8-1.4-7.5-3.1-10.1-4.7-14.2-6.5c-4.1-1.9-9.2-4.4-11.2-5.4-2-1.1-4.2-2-4.7-2-.6 0-3.4-1.5-6.3-3.4-2.9-1.8-7.3-4.3-9.8-5.4-2.5-1.2-7.6-3.9-11.5-6.2-3.8-2.2-8.8-4.9-11-6s-7.1-4-11-6.5c-3.8-2.4-8.6-5.4-10.5-6.5-3.4-2-7.5-4.7-22-14.3-18.9-12.6-49.1-36.1-71.5-55.6-15.2-13.3-52-50.1-65.1-65.1-15.7-17.9-36.6-44.5-45.4-57.5-.8-1.2-2.8-4.2-4.5-6.6l-4-6c-.5-.9-4.1-6.3-7.8-11.8-7.6-11.3-13-20.1-20.7-33.6-2.8-5-5.5-9.7-6-10.5-.6-.8-1.9-3.3-3-5.5s-2.4-4.7-2.9-5.5c-1.1-1.6-3.3-5.9-5.2-10-.6-1.4-1.5-3.2-2-4s-1.4-2.6-2-4-1.5-3.2-2-4-1.4-2.6-2-4c-.7-1.4-3.1-6.7-5.5-11.8-2.4-5-4.4-9.5-4.4-9.8s-.7-2.2-1.6-4.2c-5.9-13.3-6.2-14-10.1-24.7-.8-2.2-2.3-5.8-3.4-8.1-1-2.2-1.9-4.8-1.9-5.8 0-.9-.9-3.4-2-5.6s-2-4.6-2-5.5-.8-3.7-1.9-6.3c-1-2.6-3.1-8.8-4.5-13.7-1.5-5-3.2-10.4-3.8-12-.6-1.7-1.6-5.6-2.3-8.8-.8-3.2-2.1-7.6-2.9-9.8-.9-2.2-1.6-5.1-1.6-6.6s-.9-5.6-2-9.2c-2-7-4.4-18.3-6.1-29.1-.6-3.6-1.7-8.8-2.4-11.5-.8-2.8-1.9-9.2-2.4-14.3-.6-5.1-1.7-13.2-2.5-18s-2-15-2.7-22.7c-.6-7.7-1.4-16.3-1.6-19-1.7-20.5-2.4-53.8-1.4-74.8.6-12.7 1.1-24.6 1.1-26.2 0-1.7.4-5.7 1-9s1.5-12.1 2-19.5 1.4-15.8 1.9-18.5c.6-2.8 1.5-9.3 2.1-14.5s1.7-11.7 2.5-14.5c.7-2.7 1.8-7.9 2.4-11.5 1.7-10.8 4.1-22.1 6.1-29.1 1.1-3.6 2-7.7 2-9.2s.7-4.4 1.6-6.6c.8-2.2 2.1-6.6 2.9-9.8.7-3.2 1.7-7.2 2.3-8.8.6-1.7 2.3-7.1 3.8-12 1.4-5 3.5-11.1 4.5-13.7 1.1-2.6 1.9-5.4 1.9-6.3s.9-3.3 2-5.5 2-4.7 2-5.6c0-1 .9-3.6 1.9-5.8 1.1-2.3 2.6-5.9 3.4-8.1 4-10.9 4.4-11.9 10.6-25.7 1.1-2.6 2.1-5 2.1-5.3s1.7-4.2 3.9-8.8c2.1-4.5 4.3-9.3 5-10.7.6-1.4 1.5-3.2 2-4s1.4-2.6 2-4 1.5-3.2 2-4 1.4-2.6 2-4 1.5-3.2 2-4c.6-.8 1.7-2.9 2.5-4.5 4.2-8.4 5.7-11.1 6.6-12.5.5-.8 3.2-5.6 6-10.5 8.3-14.5 12.1-20.6 21.9-35.4 3.1-4.6 6.1-9 6.6-9.9 23.7-37.5 67.4-88.1 109.4-126.6 23.4-21.4 58.5-49.3 81.3-64.4 14.1-9.4 18.4-12.2 21.8-14.2 1.9-1.1 6.7-4.1 10.5-6.5 3.9-2.5 8.8-5.4 11-6.5s7.2-3.9 11-6.1c3.9-2.2 8.8-4.9 11-6s6.3-3.4 9-5c2.8-1.6 5.7-3.2 6.5-3.5s3.3-1.4 5.5-2.4 7.4-3.4 11.5-5.3 10.5-4.9 14.2-6.6 7.1-3.1 7.5-3.1 2.6-.8 4.8-1.9c10.3-4.8 15.7-7.1 17-7.1.8 0 2.9-.9 4.7-2s4.1-2 5.1-2 3.4-.8 5.5-1.9c2-1 5.5-2.1 7.6-2.5s4.8-1.3 6-2.1c1.2-.7 4.5-1.8 7.4-2.5 2.8-.7 5.4-1.6 5.7-2 .3-.5 2.4-1.1 4.8-1.5 2.3-.4 6.2-1.5 8.7-2.5s6.2-2.1 8.2-2.3c2-.3 5.2-1.2 7-2.1 1.8-.8 5.2-1.8 7.6-2.1 2.4-.4 6.8-1.6 9.7-2.6 3-1 6.7-1.9 8.2-1.9 1.6 0 6-.9 9.8-2s8.4-2 10.1-2 5.1-.7 7.4-1.5 8.3-2 13.4-2.5c5-.6 12-1.7 15.6-2.5s11.2-1.9 17-2.4c5.8-.6 14-1.5 18.4-2.1 20.5-2.8 86.6-3.9 119.2-1.9"/><path d="M852.5 812c-2.2.5-6.2 1.4-9 2.1-11.3 2.7-25.1 11.3-34.5 21.6-9.8 10.8-14.2 18.7-17.6 32.1-7.4 29.2 2.6 59.1 26.3 78.7 34.4 28.3 86.6 20 110.6-17.6 9.7-15.2 14.3-35.1 11.8-51-3-19.4-7.6-29.7-18.3-41.3-11.2-12.2-22.6-19.3-37.3-23.2-7.1-1.8-26.3-2.7-32-1.4m387 184.2c-21.6 2.3-31.2 4.8-50 13.1-16.1 7.1-29.6 16.9-44.5 32.3-10 10.3-20.1 22.9-26.3 32.9-1.8 2.8-3.6 4.5-4.8 4.5-1.8 0-1.9-1.1-1.9-35v-35l-2.6-1c-1.7-.7-24.1-.9-61.6-.8-57.2.3-59 .4-60.4 2.3-1.2 1.6-1.4 28.8-1.2 193.2.3 168.8.5 191.5 1.8 192.3.9.6 27.1 1 66.1 1 51.9 0 64.9-.3 65.7-1.3.8-.9 1.2-30.4 1.5-97.3.3-83.7.5-97.4 2-107.4 5.2-34.9 12.2-54.3 24.7-68.2 6.4-7 15.8-13.9 22.3-16.2 15.3-5.3 17-5.6 32-5.6 13 0 15.5.3 22.7 2.6 14.5 4.7 25 13.7 30.8 26.4 1.3 3 2.8 6.2 3.2 7.1 1.6 3.2 4.2 14.8 5.6 24.4 1.1 8 1.3 32.3 1.4 121.5 0 85.4.3 111.9 1.2 112.8s17.4 1.2 68 1.2c66.4 0 66.7 0 67.8-2.1.8-1.5 1-39 .8-134.7-.5-141.5-.5-141.9-5.5-165.2-4-18.8-12-37.5-21.4-50.1-13.1-17.7-34.7-32.2-60.6-40.7-21.4-7-51.6-9.8-76.8-7m-441.9 12.4c-1.4 1.4-1.6 20.3-1.6 193.3 0 160.6.2 192 1.4 193 .9.8 19.6 1 68.2.9l66.9-.3.3-192.9c.1-141.7-.1-193.2-.9-194.2-.9-1.2-12.8-1.4-67-1.4-58.4 0-65.9.2-67.3 1.6"/></svg>