<svg xmlns="http://www.w3.org/2000/svg" width="2176.000000pt" height="2272.000000pt" version="1.0" viewBox="0 0 2176.000000 2272.000000"><path d="M1024 218.1c-5.2.5-12.4 1.3-16 1.9-3.6.5-13.5 1.4-22 2-8.8.5-17.7 1.6-20.5 2.5-2.7.9-9.7 1.8-15.4 2.1-6.1.3-11.8 1.1-14 2-2 .9-7.9 2-13.3 2.4-5.3.5-11.3 1.6-13.3 2.5-2.1.8-5.7 1.5-8.1 1.5s-7.7 1.1-11.8 2.5-9.2 2.5-11.4 2.5-6.2 1-8.9 2.2c-2.6 1.2-6.9 2.2-9.4 2.3s-6.6 1.1-9.1 2.3c-2.4 1.2-6.2 2.2-8.4 2.2-2.1 0-5.2.8-6.9 1.8-1.6 1-5.2 2.2-7.9 2.5-2.7.4-6.3 1.4-8 2.3s-5.5 2-8.3 2.4c-2.9.5-6.5 1.8-7.9 2.9-1.7 1.3-4.1 2.1-6.6 2.1s-5 .8-6.5 2c-1.4 1.1-4 2-5.7 2s-4.9 1.2-7.1 2.5c-2.2 1.4-5.1 2.5-6.5 2.5s-3.8.9-5.5 2c-1.6 1.1-4.4 2-6.1 2-1.9 0-4.1 1-5.8 2.5-1.7 1.6-3.9 2.5-5.9 2.5-1.8 0-4.5.9-6.2 2-1.6 1.1-3.9 2-5.1 2-1.1 0-3.5 1.1-5.4 2.5s-4.5 2.5-5.8 2.5-3.5.9-4.9 2-3.5 2-4.7 2c-1.1 0-3.2.9-4.6 2s-3.2 2-4 2-3.3 1.1-5.5 2.5c-2.2 1.3-5 2.5-6.2 2.5s-3.4 1.1-4.9 2.5-3.6 2.5-4.7 2.5c-1 0-3.2 1.1-4.9 2.5-1.6 1.4-3.9 2.5-5.2 2.5-1.2 0-2.9.9-3.9 2-.9 1.1-2.6 2-3.8 2s-3.4 1.1-5.1 2.5c-1.6 1.4-3.6 2.5-4.3 2.5s-4.1 1.6-7.5 3.5-6.6 3.5-7 3.5c-.5 0-2.1 1.1-3.7 2.4-1.5 1.3-3.9 2.7-5.3 3.1s-3.8 1.8-5.3 3.1c-1.6 1.3-3.7 2.4-4.7 2.4-1.1 0-2.3.6-2.7 1.4-.4.7-3.5 2.7-6.8 4.4-3.3 1.6-6.9 3.9-7.9 5.1-1.1 1.2-2.6 2.1-3.5 2.1s-4.2 1.8-7.4 4c-3.1 2.2-6.1 4-6.7 4-.5 0-1.9 1.1-3.2 2.4s-4.8 3.7-7.8 5.2c-3 1.6-6.2 3.8-7.2 4.9-.9 1.1-4.1 3.4-7.2 4.9-3.1 1.6-5.6 3.2-5.6 3.6s-2.7 2.5-6.1 4.6c-3.3 2.2-8.8 6.3-12.2 9.2-3.4 2.8-7.5 5.8-9.2 6.6-1.6.8-6.1 4.2-10 7.6-3.8 3.3-9.2 7.6-12 9.4-2.7 1.9-7.8 6.1-11.1 9.3-3.4 3.2-10.7 9.4-16.3 13.7-5.5 4.3-12.5 10.4-15.4 13.5-3 3.1-17.2 17.3-31.7 31.6-25.2 25-38.3 38.9-48 51-2.5 3.1-6.7 8-9.5 10.9-5.4 5.7-5.6 6-10 12.6-1.6 2.5-4.8 6.5-7.2 9-4 4.3-9.3 11.5-9.3 12.7 0 .3-2.2 3.1-4.8 6.2-2.7 3.1-5.7 7.2-6.8 9.1-1 1.9-3.8 5.7-6.1 8.5-2.4 2.7-4.3 5.5-4.3 6.1 0 .7-2 3.6-4.4 6.6-2.5 2.9-5 6.5-5.5 7.8-.6 1.4-2.7 4.5-4.5 7-1.9 2.5-3.5 5-3.5 5.7-.1.7-1.4 2.7-2.9 4.5s-4 5.8-5.4 8.9c-1.5 3.1-3.4 6.2-4.3 6.9-.8.7-1.5 1.8-1.5 2.5 0 .8-1.1 2.6-2.3 4.2-1.3 1.5-3.4 5-4.8 7.8-1.3 2.7-3.4 6.3-4.6 7.8-1.3 1.6-2.3 3.4-2.3 4.1 0 .8-.8 2.4-1.9 3.7-1 1.3-2.2 3.5-2.6 4.7-.4 1.3-1.6 3.3-2.6 4.3s-1.9 2.7-1.9 3.7-1.1 3.3-2.5 5.2-2.5 4-2.5 4.8-.9 2.5-2 3.9-2 3.3-2 4.2c0 1-1.1 3.2-2.5 5.1s-2.5 4-2.5 4.8-.9 2.5-2 3.9-2 3.3-2 4.2c0 1-1.1 3.2-2.5 5.1s-2.5 4.2-2.5 5.3c0 1-.9 3-2 4.4s-2 3.5-2 4.5c0 1.1-.8 3.2-1.9 4.6-1 1.5-2.1 4-2.5 5.6s-1.6 4.1-2.7 5.4c-1 1.4-1.9 3.4-1.9 4.6 0 1.1-.8 3.5-1.8 5.1-1.1 1.7-2.2 4.7-2.6 6.6-.3 2-1.5 4.4-2.6 5.4s-2 3.1-2 4.8c0 1.6-.8 4.4-1.9 6.1-1 1.7-2.2 4.9-2.6 7-.3 2.2-1.5 5.1-2.6 6.4-1 1.4-1.9 3.9-1.9 5.7s-.8 4.3-1.9 5.6c-1 1.3-2.1 4.6-2.6 7.4-.4 2.7-1.5 6-2.6 7.3-1.1 1.4-1.9 4-1.9 6.2 0 2.1-.8 4.8-1.8 6.1-1.1 1.3-2.2 4.7-2.5 7.5s-1.5 6.7-2.6 8.5c-1.2 1.9-2.1 5.1-2.1 7.2s-.8 5.4-1.9 7.5c-1 2-2.1 6.1-2.5 9.1s-1.6 7.1-2.7 9.2c-1 2.1-1.9 5.8-1.9 8.1 0 2.4-1 6.3-2.1 8.8s-2.4 7.6-2.9 11.5c-.4 3.8-1.6 9-2.5 11.5s-1.7 6.8-1.6 9.6c0 2.8-.8 7.6-2 11s-2.4 10-2.8 15.4c-.4 5.2-1.2 10.4-1.8 11.5-1.4 2.7-2.5 10.2-2.8 20-.2 4.4-1.1 11.6-2 16s-2.1 16.1-2.6 26-1.3 23.4-1.8 30c-1.2 15.5-1.2 81.5 0 97 .5 6.6 1.3 20.1 1.8 30s1.7 21.6 2.6 26 1.8 11.6 2 16c.3 9.8 1.4 17.3 2.8 20 .6 1.1 1.4 6.3 1.8 11.5.4 5.3 1.6 12.2 2.8 15.5 1.1 3.3 2 8.2 1.9 11 0 2.7.7 7 1.7 9.5.9 2.5 2.1 7.6 2.5 11.5.5 3.8 1.8 9 2.9 11.5s2.1 6.4 2.1 8.8c0 2.3.9 6 1.9 8.1 1.1 2.1 2.3 6.2 2.7 9.2s1.5 7.1 2.5 9.1c1.1 2.1 1.9 5.4 1.9 7.5s.9 5.3 2.1 7.2c1.1 1.8 2.3 5.7 2.6 8.5s1.4 6.2 2.5 7.5c1 1.3 1.8 4 1.8 6.1 0 2.2.8 4.8 1.9 6.2 1.1 1.3 2.2 4.6 2.6 7.3.5 2.8 1.6 6.1 2.6 7.4 1.1 1.3 1.9 3.8 1.9 5.6s.9 4.3 1.9 5.7c1.1 1.3 2.3 4.2 2.6 6.4.4 2.1 1.6 5.3 2.6 7 1.1 1.7 1.9 4.5 1.9 6.1 0 1.7.9 3.8 2 4.8s2.3 3.4 2.6 5.4c.4 1.9 1.5 4.9 2.6 6.6 1 1.6 1.8 4 1.8 5.1 0 1.2.9 3.2 1.9 4.6 1.1 1.3 2.3 3.8 2.7 5.4s1.5 4.1 2.5 5.6c1.1 1.4 1.9 3.5 1.9 4.6 0 1 .9 3.1 2 4.5s2 3.4 2 4.4c0 1.1 1.1 3.4 2.5 5.3s2.5 4.1 2.5 5.1c0 .9.9 2.8 2 4.2s2 3.1 2 3.9 1.1 2.9 2.5 4.8 2.5 4.1 2.5 5.1c0 .9.9 2.8 2 4.2s2 3.1 2 3.9 1.1 2.9 2.5 4.8 2.5 4.2 2.5 5.2.9 2.7 1.9 3.7 2.2 3 2.6 4.3c.4 1.2 1.6 3.4 2.6 4.7 1.1 1.3 1.9 2.9 1.9 3.7 0 .7 1 2.5 2.3 4.1 1.2 1.5 3.5 5.3 4.9 8.4 1.5 3.1 3.4 6.2 4.3 6.9.8.7 1.5 1.8 1.5 2.5 0 .8 1.1 2.6 2.3 4.2 1.3 1.5 3.4 5 4.8 7.8 1.3 2.7 3.6 6.5 5.1 8.3 1.6 1.8 2.8 3.8 2.9 4.5 0 .7 1.6 3.2 3.5 5.7 1.8 2.5 3.9 5.6 4.5 7 .5 1.3 3 4.9 5.5 7.8 2.4 3 4.4 5.9 4.4 6.6 0 .6 1.9 3.4 4.2 6.1 2.4 2.8 5.2 6.6 6.2 8.5 1.1 1.9 4.1 6 6.8 9.1 2.6 3.1 4.8 5.9 4.8 6.2 0 1.2 5.3 8.4 9.3 12.7 2.4 2.5 5.6 6.5 7.2 9 4.4 6.6 4.6 6.9 10 12.6 2.8 2.9 7 7.8 9.5 10.9 15 18.7 79.8 84.1 95.5 96.4 5 3.9 12.2 10 16 13.5 3.9 3.6 9 7.9 11.5 9.5 2.5 1.7 7.7 5.8 11.5 9.1 3.9 3.4 8.5 6.8 10.2 7.7 1.8.8 5.1 3.2 7.2 5.3 2.2 2.1 5.2 4.6 6.8 5.6 7 4.3 13.3 8.8 13.3 9.5 0 .4 2 1.7 4.5 2.9 2.4 1.2 5.8 3.4 7.5 5 1.6 1.5 5.3 4 8.2 5.5 2.9 1.4 6 3.4 6.8 4.4.8.9 4.1 3 7.3 4.6 3.3 1.7 6.3 3.8 6.8 4.7.5 1 2 1.8 3.3 1.8s3.1.9 4.2 2.1c1 1.2 4.6 3.5 7.9 5.1 3.3 1.7 6.4 3.7 6.8 4.4.4.8 1.6 1.4 2.7 1.4 1 0 3.1 1.1 4.7 2.4 1.5 1.3 3.9 2.7 5.3 3.1s3.8 1.8 5.3 3.1c1.6 1.3 3.2 2.4 3.7 2.4.4 0 3.6 1.6 7 3.5s6.8 3.5 7.5 3.5 2.7 1.1 4.3 2.5c1.7 1.4 3.9 2.5 5.1 2.5s2.9.9 3.8 2c1 1.1 2.7 2 3.9 2 1.3 0 3.6 1.1 5.2 2.5 1.7 1.4 3.9 2.5 5.1 2.5 1.1 0 2.8.8 3.8 1.9 1 1 3.4 2.1 5.4 2.5 2 .3 4.4 1.5 5.4 2.6.9 1 3.1 2.2 4.9 2.6 1.7.3 4.3 1.5 5.8 2.5 1.4 1.1 3.5 1.9 4.6 1.9 1 0 3.1.9 4.5 2s3.6 2 4.9 2 3.9 1.1 5.8 2.5 4.3 2.5 5.4 2.5c1.2 0 3.5.9 5.1 2 1.7 1.1 4.4 2 6.2 2 2 0 4.2.9 5.9 2.5s3.9 2.5 5.9 2.5c1.8 0 4.4.9 5.8 2s3.8 2 5.4 2c1.5 0 4.6 1.1 6.8 2.5 2.2 1.3 5.4 2.5 7.1 2.5s4.3.9 5.7 2c1.5 1.2 4.1 2 6.4 2 2.2 0 5.4 1.1 7.8 2.5 2.2 1.4 5.5 2.5 7.5 2.5 1.9 0 4.8.9 6.5 2 1.6 1 5.4 2.2 8.4 2.6s6.9 1.5 8.6 2.5c1.6 1.1 4.5 1.9 6.4 1.9s6.3 1.1 9.8 2.5c3.6 1.5 7.2 2.3 8.5 2 1.4-.4 4.6.4 8.1 2 3.2 1.4 7.6 2.5 9.8 2.5s7.4 1.1 11.5 2.5 9.4 2.5 11.8 2.5 6 .7 8.1 1.5c2 .9 8 2 13.3 2.5 5.4.4 11.4 1.6 13.5 2.4 2.1.9 6.7 1.7 10.5 1.7 6.3.1 20.5 2.3 22.4 3.5.5.3 8 1 16.6 1.5s18.6 1.4 22.2 1.9c14.7 2.3 31.9 2.9 79 2.9 46.7-.1 60.7-.6 76-2.9 3.6-.5 13.5-1.4 22-1.9s17.1-1.4 19-2.1c1.9-.6 8.5-1.5 14.5-2 6.1-.5 13.5-1.6 16.5-2.5s9.3-2 14-2.5 11.1-1.8 14.3-2.9c3.3-1.2 7-1.8 8.6-1.5 1.7.4 5.7-.4 10.2-2 4.2-1.4 9.4-2.6 11.6-2.6 2.3 0 6.5-1.1 9.5-2.5s7.1-2.5 9.6-2.5c2.3 0 6-.9 8.2-2s5.6-2 7.6-2c2.1 0 5.6-.9 7.8-1.9 2.3-1 6.1-2.2 8.6-2.5 2.5-.4 5.9-1.5 7.5-2.6 1.7-1.1 4.7-2 7-2 2.5 0 5.5-.9 8-2.5 2.3-1.4 5.6-2.5 7.6-2.5 2.1 0 4.7-.9 6.3-2.1 1.5-1.2 4.1-2.1 6.1-2.1 1.9 0 4.5-.8 5.7-1.8 1.3-.9 4.2-2.1 6.5-2.5 2.3-.3 5.3-1.5 6.7-2.6 1.3-1 4-1.9 5.9-1.9 2.3 0 4.3-.8 6.1-2.5 1.7-1.5 3.9-2.5 5.7-2.5 1.7 0 4.2-.9 5.6-2s3.8-2 5.2-2c1.5 0 4.2-1.1 6.1-2.5s4.6-2.5 6-2.5c1.5 0 3.5-.9 4.5-2s2.9-2 4.2-2c1.4 0 3.6-.9 5-2s3.2-2 4-2c1.2 0 13.1-5.5 17.3-7.9.8-.5 4.9-2.6 9-4.6s8.2-4 9-4.5c.8-.4 5-2.5 9.2-4.5 4.3-2 8-4.1 8.4-4.6.3-.5 1.3-.9 2.3-.9s2.8-1.1 4.1-2.5 3.3-2.5 4.5-2.5 3.2-1.1 4.5-2.5 3.3-2.5 4.6-2.5c1.2 0 2.7-.7 3.4-1.5s4-2.9 7.4-4.6c3.3-1.7 7-3.9 8.2-5 1.1-1 2.7-1.9 3.6-1.9.8 0 2.3-.9 3.3-2s4.5-3.4 7.6-5c3.2-1.6 6.8-3.9 7.9-5s2.7-2 3.5-2 3.9-2 6.9-4.5c3.1-2.5 6.2-4.5 7-4.5.9 0 3.9-1.9 6.8-4.3 2.9-2.3 7.5-5.5 10.1-7.1 2.7-1.5 5.1-3.4 5.4-4.1.2-.8 3.3-3 6.7-4.9 3.5-2 8-5.3 10.2-7.4 2.1-2.2 6.5-5.4 9.7-7.2 3.1-1.7 7-4.6 8.5-6.4s5.6-5.2 9.1-7.7c3.5-2.4 10-7.8 14.5-11.9 7.2-6.8 13.2-11.8 26.9-22.8 10.4-8.4 69.1-68.7 72.3-74.4.5-.9 4.6-5.6 9-10.5 9.1-9.9 11.8-13 15.6-18.8 1.5-2.2 5.3-6.7 8.3-10 3.1-3.3 6.4-7.6 7.5-9.5 1-1.9 4.2-6.2 7-9.5 2.9-3.3 5.7-7.1 6.3-8.5s3-4.8 5.4-7.7c2.4-2.8 4.3-5.4 4.3-5.7 0-.8 6-9.5 7-10.1.5-.3 2.3-3.1 4.1-6.3 1.8-3.1 4.2-6.8 5.5-8.2s3.2-4.6 4.3-7.1 2.9-5.4 4.1-6.4c1.1-1 2-2.5 2-3.3 0-.9 1-2.6 2.1-3.8 2.5-2.6 4.1-5.3 6.4-10.6.9-2 2.3-3.9 3.1-4.2s1.4-1.4 1.4-2.5 1-3.2 2.3-4.8c1.2-1.5 2.8-3.9 3.5-5.3s2.4-4.3 3.7-6.5c2.5-4.1 2.9-4.9 4.7-9.7.5-1.5 1.6-2.9 2.4-3.2s1.4-1.4 1.4-2.4 1.1-3.3 2.5-5.2 2.5-4.1 2.5-5.1c0-.9.9-2.8 2-4.2s2-3.1 2-3.9 1.1-2.9 2.5-4.8 2.5-4.1 2.5-5.1c0-.9.9-2.8 2-4.2s2-3 2-3.7c0-.6 1.1-3.2 2.5-5.8s2.5-5.3 2.5-6c0-.8 1.1-2.7 2.5-4.4 1.4-1.6 2.5-3.9 2.5-5s.9-3.1 2-4.5 2-3.7 2-5c0-1.4.8-3.7 1.9-5.1 1-1.5 2.1-4.3 2.5-6.3.3-2 1.5-4.4 2.6-5.4 1.2-1.1 2-3.1 2-5 0-1.8.8-4.3 1.9-5.6 1-1.3 2.1-4 2.5-6 .4-2.1 1.5-4.8 2.6-6.2s2-3.8 2-5.4c0-1.5 1.1-4.6 2.5-6.8 1.3-2.2 2.5-5.4 2.5-7 0-1.7.9-4.4 2-6 1.1-1.7 2-4.3 2-5.8s1.1-5 2.5-7.7 2.5-6.2 2.5-7.7.9-4.3 2-6.1 2-4.7 2-6.5.8-4.9 1.9-6.9c1-2 2.1-5.8 2.4-8.5.3-2.6 1.5-6.6 2.6-8.8 1.2-2.1 2.1-5.6 2.1-7.6s1.1-6.7 2.5-10.3c1.4-3.7 2.5-8.2 2.5-10 0-1.9.9-5.3 2-7.7s2-6.5 2-9.1c0-2.5 1.1-7.9 2.5-12 1.4-4 2.5-9.6 2.5-12.3 0-2.8.9-7.9 2-11.3 1.1-3.5 2-9.2 2-12.5 0-3.4.5-7.8 1.1-9.7 2.3-7.6 3.9-16.8 3.9-22.7 0-7.3 1.7-20.8 3.1-24.1.5-1.3 1.2-11.9 1.5-23.5.2-11.7.9-22.8 1.4-24.7 1.3-4.6 1.3-85.4 0-90-.5-1.9-1.2-13-1.4-24.7-.3-11.6-1-22.2-1.5-23.5-1.4-3.3-3.1-16.8-3.1-24.1 0-5.9-1.6-15.1-3.9-22.7-.6-1.9-1.1-6.3-1.1-9.7 0-3.3-.9-9-2-12.5-1.1-3.4-2-8.6-2-11.4 0-3-1-7.9-2.4-11.7-1.5-3.9-2.5-8.4-2.4-11.3.1-3.1-.7-6.7-2-9.8-1.2-2.7-2.2-6.4-2.2-8.2s-1.1-6.3-2.5-10c-1.4-3.6-2.5-8.3-2.5-10.3s-.9-5.5-2.1-7.6c-1.1-2.2-2.3-6.2-2.6-8.8-.3-2.7-1.4-6.5-2.4-8.5-1.1-2-1.9-5.1-1.9-6.9s-.9-4.7-2-6.5-2-4.6-2-6.1-1.1-5-2.5-7.7-2.5-6.2-2.5-7.7-.9-4.2-2-5.8c-1.1-1.7-2-4.4-2-6 0-1.7-1.2-4.8-2.5-7-1.4-2.2-2.5-5.3-2.5-6.8 0-1.6-.9-4-2-5.4s-2.2-4.1-2.6-6.2c-.4-2-1.5-4.7-2.5-6-1.1-1.3-1.9-3.8-1.9-5.6 0-1.9-.8-3.9-2-5-1.1-1-2.3-3.4-2.6-5.4-.4-2-1.5-4.8-2.5-6.3-1.1-1.4-1.9-3.7-1.9-5.1 0-1.3-.9-3.6-2-5s-2-3.4-2-4.5-1.1-3.4-2.5-5c-1.4-1.7-2.5-3.6-2.5-4.4 0-.7-1.1-3.4-2.5-6s-2.5-5.2-2.5-5.8c0-.7-.9-2.3-2-3.7s-2-3.3-2-4.2c0-1-1.1-3.2-2.5-5.1s-2.5-4-2.5-4.8-.9-2.5-2-3.9-2-3.3-2-4.2c0-1-1.1-3.2-2.5-5.1s-2.5-4.2-2.5-5.2-.6-2.1-1.4-2.4-1.9-1.7-2.4-3.2c-1.8-4.8-2.2-5.6-4.7-9.7-1.3-2.2-3-5.1-3.7-6.5s-2.3-3.8-3.5-5.3c-1.3-1.6-2.3-3.7-2.3-4.8s-.6-2.2-1.4-2.5-2.2-2.2-3.1-4.2c-2.3-5.3-3.9-8-6.4-10.6-1.1-1.2-2.1-2.9-2.1-3.8s-.7-2.1-1.5-2.8c-.8-.6-3-4-5-7.3-2-3.4-4.6-7.6-5.8-9.3s-3.4-5.1-4.9-7.5-4.3-6.4-6.2-8.9-3.5-4.9-3.5-5.3c-.1-.4-2.3-3.5-5.1-6.8-2.7-3.3-5-6.5-5-7.2s-2.5-4.1-5.6-7.7-6.4-8.1-7.4-10c-1.1-1.9-4.4-6.2-7.5-9.5-3-3.3-6.8-7.8-8.3-10-3.8-5.8-6.5-8.9-15.6-18.8-4.4-4.9-8.5-9.6-9-10.5-3.2-5.7-61.9-66-72.3-74.4-14.5-11.6-19.6-16-26.3-22.3-4.1-3.9-10.6-9.3-14.5-12-3.8-2.7-8.2-6.3-9.7-8.1-1.5-1.7-5.4-4.7-8.5-6.4-3.2-1.8-7.6-5-9.7-7.2-2.2-2.1-6.7-5.4-10.2-7.4-3.4-1.9-6.5-4.1-6.7-4.9-.3-.7-2.7-2.6-5.4-4.1-2.6-1.6-7.2-4.8-10.1-7.1-2.9-2.4-5.9-4.3-6.8-4.3-.8 0-3.9-2-7-4.5-3-2.5-6.1-4.5-6.9-4.5s-2.4-.9-3.5-2-4.7-3.4-7.9-5c-3.1-1.6-6.6-3.9-7.6-5s-2.5-2-3.3-2c-.9 0-2.5-.9-3.6-1.9-1.2-1.1-4.9-3.3-8.2-5-3.4-1.7-6.7-3.8-7.4-4.6s-2.2-1.5-3.4-1.5c-1.3 0-3.3-1.1-4.6-2.5s-3.3-2.5-4.5-2.5-3.2-1.1-4.5-2.5-3.1-2.5-4.1-2.5-2-.4-2.3-.9c-.4-.5-4.1-2.6-8.4-4.6-4.2-2-8.4-4.1-9.2-4.5-.8-.5-4.9-2.5-9-4.5s-8.2-4.1-9-4.6c-4.2-2.4-16.1-7.9-17.3-7.9-.8 0-2.6-.9-4-2s-3.6-2-5-2c-1.3 0-3.2-.9-4.2-2s-3-2-4.5-2c-1.4 0-4.1-1.1-6-2.5s-4.6-2.5-6.1-2.5c-1.4 0-3.8-.9-5.2-2s-3.9-2-5.6-2c-1.8 0-4-1-5.7-2.5-1.8-1.7-3.8-2.5-6.1-2.5-1.9 0-4.6-.9-5.9-1.9-1.4-1.1-4.4-2.3-6.7-2.6-2.3-.4-5.2-1.6-6.5-2.5-1.2-1-3.8-1.8-5.7-1.8-2 0-4.6-.9-6.1-2.1-1.6-1.2-4.2-2.1-6.3-2.1-2 0-5.3-1.1-7.6-2.5-2.5-1.6-5.5-2.5-8-2.5-2.3 0-5.3-.9-7-2-1.6-1.1-5-2.2-7.5-2.6-2.5-.3-6.3-1.5-8.6-2.5-2.2-1-5.7-1.9-7.8-1.9-2 0-5.4-.9-7.6-2s-5.9-2-8.2-2c-2.5 0-6.6-1.1-9.6-2.5s-7.2-2.5-9.5-2.5c-2.2 0-7.4-1.2-11.6-2.6-4.5-1.6-8.5-2.4-10.2-2-1.6.3-5.3-.3-8.6-1.5-3.2-1.1-9.6-2.4-14.3-2.9s-11-1.6-14-2.5-10.4-2-16.5-2.5c-6-.5-12.6-1.4-14.5-2-1.9-.7-10.5-1.6-19-2.1s-18.4-1.4-22-1.9c-3.6-.6-11-1.4-16.5-1.9-12.1-1.1-109.2-1.1-122.5 0m104.5 11.9c14.3.5 27.8 1.2 30 1.5s6.9 1 10.5 1.6c3.6.5 12.1 1.4 19 1.9 14.5 1.2 16.6 1.4 23.9 2.9 2.9.6 7.8 1.1 10.7 1.1 3 0 7.1.6 9.1 1.4 2.1.8 7.6 1.9 12.3 2.6 4.7.6 11.4 1.8 15 2.6 3.6.9 10.1 2.2 14.5 3 4.4.7 10.5 2 13.5 2.9 3 .8 6.5 1.5 7.8 1.5 1.2 0 3.9.7 6 1.6 2 .9 6.4 2 9.7 2.4 3.3.5 7.5 1.7 9.3 2.6s5.6 2 8.5 2.4c2.9.5 7.2 1.5 9.7 2.4 10.1 3.5 17.7 5.8 21 6.5 1.9.4 4.9 1.5 6.5 2.3 1.7.8 4.8 1.9 7 2.2 2.1.4 5.6 1.6 7.7 2.7 2 1 4.7 1.9 5.8 1.9s3.8.9 6 2 4.7 2 5.7 2 3.2.9 4.9 1.9 4.6 2.2 6.5 2.6 5 1.5 6.9 2.5c3.3 1.7 17.8 7.5 26.5 10.7 2.2.8 5.4 2.3 7 3.3 1.7 1 4.1 2.1 5.5 2.5s6.1 2.4 10.5 4.5c16.6 8 23 11.1 24.5 12 .8.4 4.9 2.5 9 4.5 18.2 8.9 70 38.8 75.5 43.5 1.1 1 3.2 2.4 4.6 3.1 7.5 3.9 40.9 27.6 64.1 45.5 58.3 44.9 122.9 110.5 167.7 170.4 5.7 7.7 6.6 8.9 11.3 15.6 1.5 2.2 4.8 6.8 7.3 10.4 8.6 12.2 18 26.2 19.7 29.4.9 1.8 2.3 3.8 3.2 4.5.9.8 1.6 1.8 1.6 2.4 0 .5 2 4 4.5 7.8s4.5 7 4.5 7.3c0 .2 1.8 3.3 4 6.7 2.2 3.5 4.7 7.7 5.6 9.4.8 1.6 2.6 4.8 3.9 7 2.4 4 4.6 8 8 14.5 1 1.9 2.2 4.2 2.7 5s1.6 3.1 2.4 5c.9 1.9 2.5 4.5 3.5 5.9 1 1.3 1.9 3.2 1.9 4.1 0 1 .7 2.3 1.4 3 .8.6 2 2.8 2.7 4.8s2 4.8 3 6.1c1.1 1.3 1.9 3.3 1.9 4.3 0 1.1.8 3.2 1.9 4.6 1 1.5 2.2 3.8 2.6 5.2s1.6 3.6 2.6 4.9c1.1 1.3 1.9 3.3 1.9 4.5 0 1.1.9 3.2 2 4.6s2 3.2 2 4.1 1.1 3.7 2.5 6.3 2.5 5.6 2.5 6.6.4 2.1.9 2.5c.5.3 1.9 3.1 3.1 6.3 1.1 3.1 2.7 7.1 3.5 8.9.8 1.7 1.5 3.7 1.5 4.3 0 .7.9 2.7 1.9 4.4s2.2 4.7 2.6 6.6 1.6 4.9 2.6 6.6 1.9 4.1 1.9 5.3.9 4 1.9 6.2c1.1 2.2 2.3 5.4 2.7 7.2.3 1.8 1.5 4.9 2.5 6.9 1.1 2.1 1.9 5 1.9 6.5s.9 4.6 1.9 6.8 2.4 6.4 3.1 9.4 1.9 6.6 2.6 8c.8 1.4 1.4 3.9 1.4 5.6 0 1.6.9 4.8 1.9 7.1s2.2 6.1 2.6 8.5c.3 2.4 1.5 7.1 2.5 10.4s2.2 8 2.6 10.5c.3 2.5 1.5 7.1 2.5 10.4 1.1 3.2 1.9 7.3 1.9 9 .1 1.7.8 4.9 1.6 7.1s1.9 7.4 2.4 11.6c.6 4.2 1.9 11 3 15 1.1 4.1 2 9.4 2 11.7 0 2.4.9 8.7 1.9 14 1.1 5.4 2.2 14.4 2.6 20.1s1.1 11.3 1.5 12.5c2.9 7.2 5 51 5 101.6 0 50.4-2.2 94.4-5 101.6-.4 1.2-1.1 6.8-1.5 12.5s-1.5 14.7-2.6 20.1c-1 5.3-1.9 11.6-1.9 14 0 2.3-.9 7.6-2 11.7-1.1 4-2.4 10.8-3 15-.5 4.2-1.6 9.4-2.4 11.6s-1.5 5.4-1.6 7.1c0 1.7-.8 5.8-1.9 9-1 3.3-2.2 7.9-2.5 10.4-.4 2.5-1.6 7.2-2.6 10.5s-2.2 8-2.5 10.4c-.4 2.4-1.6 6.2-2.6 8.5s-1.9 5.4-1.9 7.1c0 1.6-.6 4.2-1.4 5.6-.7 1.4-1.9 5-2.6 8s-2.1 7.2-3.1 9.4-1.9 5.3-1.9 6.8-.8 4.4-1.9 6.5c-1 2-2.2 5.1-2.5 6.9-.4 1.8-1.6 5-2.7 7.2-1 2.2-1.9 5-1.9 6.2s-.9 3.6-1.9 5.3-2.2 4.7-2.6 6.6-1.6 4.9-2.6 6.6-1.9 3.7-1.9 4.4c0 .6-.7 2.6-1.5 4.3-.8 1.8-2.4 5.8-3.5 8.9-1.2 3.2-2.6 6-3.1 6.3-.5.4-.9 1.5-.9 2.5s-1.1 4-2.5 6.6-2.5 5.4-2.5 6.3-.9 2.7-2 4.1-2 3.5-2 4.6c0 1.2-.8 3.2-1.9 4.5-1 1.3-2.2 3.5-2.6 4.9s-1.6 3.7-2.6 5.2c-1.1 1.4-1.9 3.5-1.9 4.6 0 1-.8 3-1.9 4.3-1 1.3-2.3 4.1-3 6.1s-1.9 4.2-2.7 4.8c-.7.7-1.4 2-1.4 3 0 .9-.9 2.8-1.9 4.1-1 1.4-2.6 4-3.5 5.9-.8 1.9-2 4.2-2.5 5s-1.4 2.6-2 4-2.4 4.7-4 7.5c-1.7 2.7-3.7 6.3-4.5 8-.9 1.6-2.6 4.7-3.9 6.7-1.2 2.1-3.9 6.7-5.9 10.3-2.1 3.6-5.8 9.6-8.3 13.4-2.5 3.7-4.5 7.3-4.5 7.8 0 .6-.7 1.6-1.6 2.4-.9.7-2.3 2.7-3.2 4.5-1.7 3.2-11.1 17.2-19.7 29.4-2.5 3.6-5.8 8.2-7.3 10.4-1.5 2.1-3.4 4.8-4.2 6-2.9 4.1-16.8 22.2-24.3 31.6-41.9 52.4-99.5 109.1-150.5 148.4-23.2 17.9-56.6 41.6-64.1 45.5-1.4.7-3.5 2.1-4.6 3.1-5.5 4.7-57.3 34.6-75.5 43.5-4.1 2-8.2 4.1-9 4.5-1.7 1-14.4 7.2-20.5 10-2.2 1-6.7 3-10 4.5s-8.2 3.8-11 5.1c-5.8 2.6-14.5 6.2-23 9.4-3.3 1.2-7.6 3.1-9.6 4.1-2 1.1-4.3 1.9-5 1.9-.8 0-3.6 1.1-6.4 2.5-2.7 1.3-5.8 2.5-6.8 2.5s-3.5.9-5.7 2-4.9 2-6 2-3.8.9-5.8 1.9c-2.1 1.1-5.6 2.3-7.7 2.7-2.2.3-5.3 1.4-7 2.2-1.6.8-4.6 1.9-6.5 2.3-3.3.7-10.6 3-21 6.5-2.5.9-6.5 2-9 2.4-2.5.5-7.1 1.8-10.2 2.9-3.2 1.2-7.1 2.1-8.7 2.1-1.7 0-5.3.9-8.1 2s-6.1 2-7.3 2c-1.3 0-4.7.7-7.7 1.5-3 .9-9.1 2.2-13.5 2.9-4.4.8-10.9 2.1-14.5 3-3.6.8-10.3 2-15 2.6-4.7.7-10.2 1.8-12.3 2.6-2 .8-6.1 1.4-9.1 1.4-2.9 0-7.8.5-10.7 1.1-7.3 1.5-9.4 1.7-23.9 2.9-6.9.5-15.4 1.4-19 1.9-3.6.6-8.3 1.3-10.5 1.6s-19.5 1-38.5 1.6c-36.1 1.1-94.2 0-109-2.1-4.1-.5-13.6-1.5-21-2.1-7.4-.5-17.4-1.7-22.2-2.5-4.8-.9-12.4-1.9-17-2.4-4.6-.4-12.6-1.7-17.8-2.9-5.2-1.1-11.1-2.1-13-2.1s-5.4-.7-7.8-1.5c-2.4-.9-7.8-2-12-2.6-4.2-.5-9.3-1.6-11.2-2.3-2-.8-5.8-1.7-8.5-2.1-2.8-.4-7.7-1.5-11-2.5s-7.8-2.1-10-2.4c-2.2-.4-5.6-1.3-7.5-2-1.9-.8-6.3-2.1-9.7-3-3.5-.9-9.1-2.3-12.5-3.2-3.5-.8-7.1-2-8-2.5-1-.5-4.8-1.7-8.5-2.8-8.7-2.5-15.5-4.7-21.8-7.2-2.8-1-5.9-1.9-7-1.9-1.2 0-3-.6-4.1-1.4-2-1.4-8-3.7-19.4-7.5-3-1-6.8-2.6-8.5-3.5-1.6-.9-3.7-1.6-4.5-1.6s-3-.9-4.8-2-3.8-2-4.4-2-3.1-.9-5.5-2-6.3-2.9-8.8-4c-16.3-7.3-28-12.7-45-21.2-16.3-8-33.3-17.1-42-22.4-2.2-1.3-5.3-3-7-3.8-1.6-.8-4.1-2.3-5.5-3.3-1.4-1.1-3.2-2.3-4-2.6-.8-.4-3.5-2.1-6-3.7s-5.6-3.5-7-4.2-3.9-2.3-5.6-3.5c-1.7-1.3-3.4-2.3-3.7-2.3-.4 0-3.6-2-7.1-4.5-3.6-2.5-6.9-4.5-7.4-4.5s-1.5-.6-2.1-1.4c-.7-.8-5.1-4-9.9-7.2s-10.5-7.2-12.8-8.8c-2.2-1.7-8.7-6.5-14.3-10.6-12-8.8-27.2-20.9-42.1-33.5-5.8-5-14.6-12.4-19.5-16.5-16.6-14-64.5-62.1-78.2-78.7-1.7-2.1-7.2-8.5-12.3-14.3-5-5.8-11-13-13.3-16s-6.7-8.7-9.8-12.5c-7.8-9.9-14.8-19-19.4-25.8-2.2-3.1-5.7-8.1-7.8-11-5.4-7.4-8.9-12.5-11.2-16.3-1.1-1.8-3.5-5.3-5.2-7.9-1.8-2.5-3.3-4.8-3.3-5.1s-1-2-2.3-3.7c-1.2-1.8-2.8-4.1-3.4-5.2-.7-1.1-3.4-5.5-6-9.7-6.8-11-9-14.8-10.7-18.4-.7-1.7-1.8-3.4-2.4-3.8-.5-.3-2.6-3.8-4.7-7.8-2-4-5-9.6-6.5-12.3-6.2-11.1-24.1-47.6-29.9-61-2.2-4.9-3.2-7.2-8.5-18.8-1.4-3.1-2.6-6.4-2.6-7.3 0-.8-.7-2.5-1.5-3.7-.8-1.3-2.3-4.8-3.4-7.8-1-2.9-2.4-7-3.1-8.9s-2-5.1-3-7.1c-1-1.9-2.2-5.3-2.5-7.5-.4-2.1-1.1-4.4-1.6-5-1-1.3-5.4-13.8-7.4-20.9-.7-2.8-2-6.8-2.8-9-1.9-5.2-6.4-20.3-7.1-23.5-.2-1.4-1.1-4.5-2-7-.8-2.5-2.1-7.1-2.7-10.3-.7-3.2-1.6-6-2-6.3-.4-.2-1.1-3-1.5-6.2-.4-3.1-1.5-8.1-2.5-11.1-1.1-3-1.9-6.3-1.9-7.4s-1.1-6.8-2.4-12.6c-3.2-13.8-5.5-25.9-6.6-34.6-.5-3.9-1.7-10.2-2.6-14-.8-3.9-1.9-11.5-2.4-17s-1.6-14-2.4-18.9c-.9-4.9-1.6-12.5-1.7-17 0-4.4-.5-12.2-.9-17.1-.5-5-1.5-15.3-2.2-23-2.3-24.9-1.2-95.8 1.7-109.5.3-1.4.9-10.8 1.4-21 .6-10.2 1.5-19.9 2-21.5.6-1.7 1.5-8.4 2-15s1.7-15.2 2.5-19c.9-3.9 2.1-10.2 2.6-14 1.1-8.7 3.4-20.8 6.6-34.6 1.3-5.8 2.4-11.5 2.4-12.6s.8-4.4 1.9-7.4c1-3 2.1-8 2.5-11.1.4-3.2 1.1-6 1.5-6.2.4-.3 1.3-3.1 2-6.3 1.3-6 4.3-16.6 6.8-24.3.8-2.5 1.9-6.3 2.5-8.5s1.7-5.8 2.5-8 2.1-6.3 2.8-9c2-7.1 6.4-19.6 7.4-20.9.5-.6 1.2-2.9 1.6-5 .3-2.2 1.5-5.6 2.5-7.5 1-2 2.3-5.2 3-7.1s2.1-6 3.1-8.9c1.1-3 2.6-6.5 3.4-7.8.8-1.2 1.5-2.8 1.5-3.5s.9-3 2-5.1c1.1-2 2-4.3 2-4.9 0-.7 1.1-3.5 2.4-6.3 1.3-2.7 3.4-7.3 4.6-10 6.4-14.3 23.9-50.1 30-61 1.5-2.8 4.5-8.3 6.5-12.3 2.1-4 4.2-7.5 4.7-7.8.6-.4 1.7-2.1 2.4-3.8 1.7-3.6 3.9-7.4 10.7-18.4 2.6-4.2 5.3-8.6 6-9.7.6-1.1 2.2-3.4 3.4-5.2 1.3-1.7 2.3-3.4 2.3-3.7s1.5-2.6 3.3-5.1c1.7-2.6 4.1-6.1 5.2-7.9 2.3-3.8 5.8-8.9 11.2-16.3 2.1-2.9 5.6-7.9 7.8-11 4.6-6.8 11.6-15.9 19.4-25.8 3.1-3.9 7.6-9.5 9.9-12.6 4.7-6.2 24.1-28.9 37.9-44.2 11-12.2 49.8-50.6 61.9-61.2 21.5-19 50.3-42.5 64.9-53 5.3-3.9 11.7-8.6 14.3-10.6 2.6-1.9 8.6-6.1 13.4-9.3s9.2-6.4 9.9-7.2c.6-.8 1.7-1.4 2.4-1.4.8 0 2.6-1 4.2-2.3 3.1-2.6 9.9-6.9 26.7-16.9 6-3.6 6.9-4.1 10.1-6.3 1.7-1.2 4.1-2.6 5.5-3.3s4.3-2.3 6.5-3.7c2.2-1.3 5.8-3.3 8-4.4s7.6-4.1 12-6.6c12.7-7.1 44.7-22.7 64.5-31.3 2.5-1.1 7-3.2 10.1-4.6s6.1-2.6 6.7-2.6 2.6-.9 4.4-2 4-2 4.8-2 2.9-.7 4.5-1.6c1.7-.9 5.5-2.5 8.5-3.5 11.2-3.7 17.5-6.1 18.8-7.1.7-.6 2.9-1.4 5-1.9 4.6-1 15.1-4.4 21.2-6.9 2.5-1 6-2.1 7.8-2.4 1.9-.3 4.8-1.2 6.5-2 3-1.3 5.8-2.1 22-6.2 3.4-.9 7.8-2.2 9.7-3 1.9-.7 5.3-1.6 7.5-2 2.2-.3 6.7-1.4 10-2.4s8.2-2.1 11-2.5c2.7-.4 6.5-1.3 8.5-2.1 1.9-.7 7-1.8 11.2-2.3 4.2-.6 9.6-1.7 12-2.6 2.4-.8 5.9-1.5 7.8-1.5s7.8-1 13-2.1c5.2-1.2 13.2-2.5 17.8-2.9 4.6-.5 12.2-1.5 17-2.4 4.8-.8 14.8-2 22.2-2.5 7.4-.6 16.9-1.6 21-2.2 16.2-2.3 75.2-3.3 117.5-1.9"/><path d="M1046 287.1c-1.9.5-6.4.9-10 .9s-12 .4-18.7.9c-6.7.6-15 1.2-18.5 1.5-3.4.2-10.8 1.1-16.3 2-5.5.8-13.8 1.9-18.5 2.5-11.9 1.3-27.3 3.9-35 5.8-3.6.8-9.4 1.9-13 2.3-3.6.5-8.5 1.5-11 2.4-2.5.8-7 1.8-10 2.2-3 .3-7 1.3-8.9 2-1.8.8-6.3 1.9-9.8 2.4-3.6.6-7.7 1.7-9.2 2.4-1.5.8-5.1 1.9-8.1 2.4-3 .6-7.5 1.8-9.9 2.6-2.4.9-5.3 1.6-6.5 1.6s-3.9.9-6.1 2c-2.1 1.1-5.5 2.3-7.4 2.6-2 .4-4.7 1.2-6.1 1.9s-4.7 1.8-7.5 2.4c-2.7.7-5.9 1.8-7 2.5s-4.4 1.8-7.4 2.5c-2.9.6-6.2 1.8-7.4 2.6s-3.1 1.5-4.2 1.5-3.4.9-5.1 1.9-4.6 2.2-6.5 2.6-4.8 1.6-6.5 2.6-4 1.9-5 1.9c-1.1 0-3.2.9-4.9 2-1.6 1.1-3.6 2-4.4 2s-4.2 1.3-7.5 2.9c-3.4 1.6-8.3 3.9-11.1 5.1-7.9 3.5-13.8 6.2-16 7.3-1.1.6-3.3 1.7-5 2.4-1.6.8-3.8 1.8-4.7 2.4-1 .5-2.8 1.4-4 2.1-1.3.6-3.2 1.6-4.3 2.1-1.1.6-3.3 1.7-5 2.4-1.6.8-3.9 1.9-5 2.5s-2.9 1.6-4 2.1c-1.1.6-2.7 1.4-3.5 1.8-.8.5-5.1 2.7-9.5 5-4.4 2.2-8.7 4.7-9.5 5.4-.8.6-4 2.5-7 4.1-3 1.5-6.4 3.6-7.5 4.5s-3.2 2.3-4.6 3c-11.5 6.1-26.5 15.7-50.9 32.6-19 13.2-53.3 40.2-73.9 58.2-22.5 19.7-43.4 40.4-74.6 74.1-7.7 8.3-44.2 53.8-49.8 62-.9 1.4-4.4 6.3-7.7 11-6 8.3-16.5 23.7-18.5 26.8-.5.9-2.6 4-4.5 7-3.9 6.1-6.2 9.8-14.5 23.7-1.3 2.2-3.2 5.6-4.3 7.5-1 1.9-3.3 5.9-5 8.8-1.8 3-3.9 6.8-4.8 8.5-2 4.3-4.6 8.7-6.7 11.7-.9 1.3-1.7 3.2-1.7 4.1s-.8 2.7-1.9 4c-1 1.3-2.2 3.5-2.6 4.9s-1.6 3.6-2.6 4.9c-1.1 1.3-1.9 3.1-1.9 4.1s-.8 2.8-1.9 4.1c-1 1.3-2.2 3.5-2.6 4.9s-1.6 3.6-2.6 4.9c-1.1 1.3-1.9 3.1-1.9 3.9 0 .9-2 5.8-4.5 10.9-2.5 5-4.5 9.8-4.5 10.5s-.9 2.6-2 4.3c-1.1 1.6-2 3.7-2 4.5s-1.2 3.7-2.5 6.5c-1.4 2.7-2.5 5.7-2.5 6.5s-.9 2.9-1.9 4.6-2.2 4.4-2.5 6.1c-.4 1.7-1.6 4.8-2.7 6.9-1 2.1-1.9 4.5-1.9 5.4 0 .8-.7 2.8-1.5 4.3-.8 1.6-1.9 4.7-2.5 7s-2 6.3-3 8.9c-1.1 2.6-2 5.5-2 6.5s-.7 3.1-1.6 4.8c-.8 1.6-2.2 5.5-2.9 8.5-.8 3-2 7.5-2.9 10-2.9 8.9-5.6 18.6-6.2 22.5-.4 2.2-1.3 5.5-2.1 7.3-.7 1.7-1.8 5.8-2.3 9-.5 3.1-1.9 9.5-3 14.2-4.1 17-5.9 25.6-6.5 31.4-.3 3.2-1 6.7-1.7 7.9-.6 1.1-1.7 7.3-2.4 13.6-.7 6.4-1.8 13.8-2.4 16.6-.6 2.7-1.5 10.6-2 17.5-.6 6.9-1.5 15.2-2 18.5-1.5 8.7-2 17.6-3 50-1.2 36-1.2 31.5-.1 65.5 1.1 32 1.7 40.8 3.1 49.5.5 3.3 1.4 11.6 1.9 18.5.6 6.9 1.5 14.7 2.1 17.5.6 2.7 1.7 10.2 2.4 16.6.7 6.3 1.8 12.5 2.5 13.7.6 1.1 1.4 4.9 1.7 8.4s1.4 9.4 2.4 13.3c1 3.8 2.2 9.5 2.5 12.5.4 3 1.6 7.7 2.6 10.5 1.1 2.7 1.9 6.3 1.9 7.8s.9 5.3 1.9 8.5c1.1 3.1 2.2 7.5 2.6 9.7s1.3 5.8 2.1 7.9c.9 2.2 2 6.4 2.5 9.5.6 3 1.6 6.4 2.4 7.5.7 1.2 1.6 3.9 2 6.1s1.5 5.9 2.6 8.2c1 2.3 1.9 4.9 1.9 5.8s.9 3.7 2 6.3c1 2.6 2.4 6.6 3 8.9s1.7 5.4 2.5 7c.8 1.5 1.5 3.5 1.5 4.3 0 .9.9 3.3 1.9 5.4 1.1 2.1 2.3 5.2 2.7 6.9.3 1.7 1.5 4.4 2.5 6.1s1.9 3.8 1.9 4.6 1.1 3.7 2.5 6.5c1.3 2.7 2.5 5.7 2.5 6.5s.9 2.8 2 4.5c1.1 1.6 2 3.6 2 4.3s2 5.5 4.5 10.5c2.5 5.1 4.5 10 4.5 10.9 0 .8.8 2.6 1.9 3.9 1 1.3 2.2 3.5 2.6 4.9s1.6 3.6 2.6 4.9c1.1 1.3 1.9 3.1 1.9 4.1s.8 2.8 1.9 4.1c1 1.3 2.2 3.5 2.6 4.9s1.6 3.6 2.6 4.9c1.1 1.3 1.9 3.1 1.9 4s.8 2.8 1.7 4.1c2.1 3 4.7 7.4 6.7 11.7.9 1.7 3 5.5 4.8 8.5 1.7 2.9 4 6.9 5 8.8 1.1 1.9 3 5.3 4.3 7.5 8.3 13.9 10.6 17.6 14.5 23.7 1.9 3 4 6.1 4.5 7 2.7 4.3 21.8 31.7 27.8 40 11.5 15.6 39.3 50 48.7 60.3 33.6 36.7 61.4 63.6 91.1 88 19.4 16 43.2 34.3 56.9 43.8 8.7 6 19.1 13.1 20.9 14.2.9.5 5.4 3.5 10.1 6.6 7.7 5.1 11.7 7.5 19.9 11.8 1.4.7 3.5 2.1 4.6 3s4.5 3 7.5 4.5c3 1.6 6.2 3.4 7 4.1 1.4 1.2 21.5 11.8 28.5 15.2 1.7.8 3.8 1.8 4.7 2.4 1 .5 2.7 1.3 3.8 1.9 1.1.5 3 1.5 4.3 2.2 1.2.6 3.6 1.8 5.2 2.5 1.7.8 3.8 1.8 4.8 2.4 3 1.6 8.5 4.2 19.2 8.9 2.8 1.2 7.7 3.5 11.1 5.1 3.3 1.6 6.7 2.9 7.5 2.9s2.8.9 4.4 2c1.7 1.1 3.8 2 4.9 2 1 0 3.3.9 5 1.9s4.6 2.2 6.5 2.6 4.8 1.6 6.5 2.6 3.9 1.9 4.9 1.9 3.7.8 6 1.9c2.3 1 5.6 2.2 7.4 2.5 1.7.4 4.8 1.6 6.9 2.7 2.1 1 5 1.9 6.4 1.9s3.5.7 4.7 1.5 4.5 2 7.5 2.6c2.9.6 5.8 1.5 6.3 2 1 .7 11.6 3.8 21 6.2 2.2.5 6 1.6 8.5 2.4s6.8 1.9 9.5 2.5c2.8.6 7.9 1.9 11.5 2.9s8.5 2.1 11 2.4c2.5.4 6.5 1.3 9 2.1s7.4 1.8 11 2.3 9.4 1.6 13 2.4c6.6 1.7 22 4.3 34.5 5.9 3.9.4 12 1.5 18 2.4 6.1.8 13.7 1.7 17 2 42.7 3.3 53.8 3.8 87.5 3.7 20.1 0 43-.6 51-1.2s21-1.5 29-2c8-.6 16.8-1.5 19.5-2 2.8-.6 10.1-1.5 16.3-2.1 6.3-.5 13.9-1.6 17-2.4 3.2-.8 8.8-1.7 12.5-2.1 3.8-.4 10-1.5 13.8-2.6 3.8-1 8.4-1.9 10.3-1.9s6.2-.9 9.7-1.9c3.5-1.1 8.7-2.2 11.4-2.6 2.8-.3 7.7-1.4 11-2.5 5.7-1.7 11.9-3.4 24.5-6.5 3-.7 7.5-2 9.9-2.9s5.4-1.6 6.8-1.6c1.3 0 4-.8 6.1-1.9 2-1 6.1-2.4 9.1-3s5.9-1.5 6.5-2 3.6-1.6 6.6-2.4 8.7-2.7 12.5-4.2c3.9-1.5 9.3-3.4 12-4.2 2.8-.9 5.5-1.9 6.1-2.4s3.6-1.6 6.5-2.5c3-.9 6.3-2.2 7.4-3s2.6-1.4 3.4-1.4c.7 0 3.2-.9 5.5-2 2.3-1 7.5-3.3 11.6-5.1 4.1-1.7 11.2-4.9 15.6-7 4.5-2.1 8.8-3.9 9.7-3.9s1.9-.4 2.2-1c.3-.5 4.1-2.6 8.3-4.6s8.4-4 9.2-4.5 5.3-2.8 10-5.1 14.4-7.5 21.5-11.6c7.2-4.1 14.8-8.4 17-9.6 2.2-1.3 5.6-3.2 7.5-4.4s5.1-3.1 7-4.2c1.9-1.2 5.1-3.1 7.1-4.3s9-5.8 15.5-10.2 12.6-8.5 13.5-9c6.3-3.8 35.2-25.2 50.4-37.5 28.3-22.7 48.6-41.2 77-70.1 21.1-21.4 48.6-52.2 55.1-61.6 1.6-2.3 6.3-8.3 10.5-13.5 4.2-5.1 9.1-11.6 11-14.3 1.9-2.8 5.9-8.4 9-12.5 4.8-6.5 21.1-30.9 27.4-41 1.2-1.9 3-4.9 4.1-6.5 1-1.7 2.5-4.2 3.4-5.7 1.7-3 4.9-8.4 8.5-14.3 1.3-2.2 3.3-5.8 4.5-8 1.1-2.2 4-7.6 6.5-12 4.5-8.1 22.6-44.4 27.2-54.5 1.4-3 3.3-7.3 4.3-9.5s2.2-5.1 2.5-6.4c.4-1.4 1.6-3.8 2.6-5.5 1.1-1.7 1.9-3.9 1.9-4.8s1.1-3.8 2.5-6.4 2.5-5.5 2.5-6.4c0-1 .6-2.3 1.4-2.9.8-.7 1.7-2.8 2.1-4.9.4-2 1.5-5.4 2.5-7.5s2.2-5.2 2.6-7c.3-1.8 1.5-4.9 2.5-6.9 1.1-2.1 1.9-4.7 1.9-5.8s.9-3.8 1.9-5.8c1.1-2.1 2.3-5.6 2.7-7.7.3-2.2 1.5-5.7 2.5-7.7 1.1-2.1 1.9-4.8 1.9-6.2 0-1.3.8-4.4 1.9-6.8 1-2.4 2.2-6.4 2.6-8.8.3-2.5 1.3-6 2.1-7.8.9-1.8 1.9-5.9 2.5-9.1.5-3.2 1.6-7.4 2.3-9.3.8-1.9 1.8-5.9 2.2-8.9s1.5-7.8 2.6-10.8c1-3 1.8-6.8 1.8-8.5s.9-6.2 2-10c1-3.8 2.2-9.6 2.6-13 .3-3.3 1.3-8.7 2.1-12 .8-3.2 1.8-10 2.3-15s1.4-11.1 2-13.6 1.7-12.6 2.5-22.5 2-20 2.6-22.5c.7-2.9 1.3-24 1.6-59.5.4-52.8.1-65.6-2.7-88.5-.5-4.7-1.4-13.9-1.9-20.5-.6-6.6-1.5-14-2.1-16.5s-1.5-8.7-2-13.9c-.5-5.1-1.6-11.6-2.4-14.5-.7-2.8-1.7-8-2-11.6s-1.5-9.7-2.6-13.5c-1.1-3.9-2-8.4-2-10.1s-.8-5.5-1.8-8.5c-1.1-3-2.2-7.8-2.6-10.8s-1.4-7-2.2-8.9c-.7-1.9-1.8-6.1-2.3-9.3-.6-3.2-1.6-7.3-2.5-9.1-.8-1.8-1.8-5.3-2.1-7.8-.4-2.4-1.6-6.4-2.6-8.8-1.1-2.4-1.9-5.5-1.9-6.8 0-1.4-.8-4.1-1.9-6.2-1-2-2.2-5.5-2.5-7.7-.4-2.1-1.6-5.6-2.7-7.7-1-2-1.9-4.7-1.9-5.8s-.8-3.7-1.9-5.8c-1-2-2.2-5.1-2.5-6.9-.4-1.8-1.6-4.9-2.6-7s-2.1-5.5-2.5-7.5c-.4-2.1-1.3-4.2-2.1-4.9-.8-.6-1.4-1.9-1.4-2.9 0-.9-1.1-3.8-2.5-6.4s-2.5-5.5-2.5-6.4-.8-3.1-1.9-4.8c-1-1.7-2.2-4.1-2.6-5.5-.3-1.3-1.5-4.2-2.5-6.4s-2.9-6.5-4.3-9.5c-5.1-11.2-22.8-46.8-27.2-54.5-2.5-4.4-5.4-9.8-6.6-12-1.1-2.2-3.1-5.8-4.4-8-3.6-5.9-6.8-11.3-8.5-14.3-.9-1.5-2.4-4.1-3.4-5.7-1.1-1.7-2.9-4.6-4.1-6.5-6.3-10.1-22.6-34.5-27.4-41-3.1-4.1-7.1-9.8-9-12.5-1.9-2.8-6.8-9.2-11-14.3-4.2-5.2-8.9-11.2-10.5-13.5-6.5-9.4-34-40.2-55.1-61.6-28.3-28.8-48.8-47.5-76.5-69.7-13.6-10.9-37.9-29.4-38.7-29.4-.3 0-3.2-2-6.4-4.5-3.3-2.5-6.1-4.5-6.3-4.5-.3 0-5.9-3.7-12.6-8.3-6.7-4.5-13.9-9.2-15.9-10.4s-5.2-3.1-7.1-4.3c-1.9-1.1-5.1-3-7-4.2s-5.3-3.1-7.5-4.4c-2.2-1.2-9.8-5.5-17-9.6-7.1-4.1-16.8-9.3-21.5-11.6s-9.2-4.6-10-5.1-4.9-2.5-9-4.5-8.2-4-9-4.5c-.8-.4-3.6-1.7-6.3-2.9-2.6-1.2-6.6-3-9-4.1-2.3-1.1-7.6-3.3-11.7-5s-9.2-4-11.2-5.1-4.5-2-5.5-2-2.7-.6-3.8-1.4c-1.1-.7-4.5-2.1-7.5-3.1s-5.9-2.1-6.5-2.5c-.5-.4-3.2-1.4-6-2.3-2.7-.8-8.1-2.7-12-4.2-3.8-1.5-9.2-3.3-12-4.1-2.7-.8-6.3-2-8-2.8-1.6-.8-4.8-1.8-7-2.2-2.2-.3-5.7-1.5-7.7-2.5-2.1-1.1-4.9-1.9-6.3-1.9-1.5 0-4.7-.8-7.3-1.9-2.6-1-6.9-2.3-9.7-2.9-7.6-1.6-17.3-4.1-24-6.2-3.3-1.1-8.2-2.2-11-2.5-2.7-.4-7.9-1.5-11.4-2.6-3.5-1-7.8-1.9-9.7-1.9s-6.6-.9-10.4-1.9c-3.9-1.1-10.3-2.3-14.3-2.6-3.9-.4-9.4-1.3-12.2-2.1-2.7-.8-10.2-1.8-16.5-2.4-6.3-.5-14.4-1.6-18-2.3-3.6-.8-9.2-1.5-12.5-1.6s-15.4-.9-27-1.8c-23.5-1.8-92.9-2.7-98.5-1.2m104.5 92.3c2.8.3 7.9 1 11.5 1.6s13.5 1.7 22 2.5c8.6.8 17.5 2.1 19.9 3 2.4.8 6.4 1.5 9 1.5 2.5 0 9.3 1.1 15.1 2.5s11.9 2.5 13.7 2.5c1.7 0 4.4.5 6 1.1 1.5.7 6.4 2 10.8 2.9 11.4 2.5 21 4.9 28.5 7.1 16.1 4.6 24.9 7.2 29.5 8.9 2.8 1 6.5 2.1 8.3 2.4 1.9.3 4.8 1.3 6.5 2.1 1.8.8 5.2 2.1 7.7 2.9s7.7 2.7 11.5 4.1c3.9 1.5 8.8 3.4 11 4.2s5.8 2.3 8.1 3.4c2.2 1 4.6 1.9 5.3 1.9.6 0 2.9.8 4.9 1.9 6.3 3.1 12.6 5.9 15.2 6.7 1.4.3 3.7 1.5 5.2 2.5 1.4 1.1 3.1 1.9 3.8 1.9.6 0 2.8.9 4.8 2 2 1 10.7 5.4 19.2 9.5 8.5 4.2 16.2 8.3 17 9s2.6 1.6 4 2 3.2 1.3 4 2 4.7 2.9 8.5 5c3.9 2 9 5 11.5 6.6 2.5 1.5 6.1 3.8 8 4.9 3.6 2.1 3.9 2.3 12.8 8 3 1.9 7 4.4 8.8 5.5 3.4 2.1 20.1 13.5 24.4 16.7 2.3 1.7 10.3 7.8 25.2 19.1 22.7 17.2 40 32.7 70.9 63.6 32 32 50.6 53.3 70.4 80.5 3.9 5.3 8.8 12 11 14.9s5.2 7 6.6 9.2 5.3 8 8.5 12.8 6.6 10.1 7.5 11.7c.9 1.7 2.2 3.7 2.9 4.5s2 2.8 2.9 4.4c.9 1.5 3.6 6.3 6.1 10.5 2.5 4.3 5.4 9.4 6.6 11.4s3.2 5.5 4.4 7.7c9.3 15.8 30.9 60.3 32.5 66.7.4 1.5 1.3 3.2 2.1 3.9.8.6 1.4 1.9 1.4 2.8s1.1 3.8 2.5 6.6c1.3 2.7 2.5 5.6 2.5 6.4s.8 3.2 1.9 5.5c3.6 8 6.3 15.1 7 18.6.4 1.9 1.4 4.6 2.3 6s1.9 4.1 2.2 6.1c.4 2 1.5 5.4 2.6 7.7s2 5.1 2 6.4.9 4.2 2 6.5c1 2.4 2.4 6.8 2.9 9.9.6 3.1 1.5 6.2 2 6.8s1.6 4.7 2.5 9c.9 4.4 2 8.4 2.5 9 .6.6 1.3 3.6 1.7 6.6s1.5 7.7 2.5 10.5c1.1 2.7 1.9 6.6 1.9 8.6s.9 6.8 2.1 10.5 2.5 10.4 2.9 14.9c.4 4.4 1.3 9.3 1.9 10.9.7 1.7 1.6 8 2.2 14 .5 6.1 1.9 15.4 2.9 20.6 1.1 5.2 2 12.6 2 16.5.1 3.8.5 11.5 1 17 1.9 19.3 2.2 27.3 2.2 59.5 0 32.8-.4 44.7-1.6 53-.4 2.5-1.1 11.5-1.6 20s-1.8 20.7-2.9 27-2.1 13.3-2.1 15.5-.7 6.5-1.5 9.5c-.9 3-2 9.1-2.4 13.5-.5 4.5-1.8 11.2-3 14.9s-2.1 8.5-2.1 10.5-.8 5.8-1.9 8.6c-1 2.7-2.1 7.5-2.5 10.5s-1.1 6-1.7 6.6c-.5.6-1.6 4.6-2.5 9-.9 4.3-2 8.4-2.5 9s-1.4 3.7-2 6.8c-.5 3.1-1.9 7.5-2.9 9.9-1.1 2.3-2 5.2-2 6.5s-.9 4.1-2 6.4-2.2 5.7-2.6 7.7c-.3 2-1.3 4.7-2.2 6.1s-1.9 4.1-2.3 6c-.7 3.5-3.4 10.6-7 18.6-1.1 2.3-1.9 4.8-1.9 5.7s-1.1 3.7-2.5 6.3-2.5 5.5-2.5 6.4c0 1-.6 2.3-1.4 2.9-.8.7-1.7 2.4-2.1 3.9-.9 3.7-3.6 9.6-17.9 39.2-3.7 7.6-10.4 20.3-14.6 27.5-1.3 2.2-3.2 5.6-4.2 7.5-1.9 3.5-3.1 5.5-9.8 16.7-1.9 3.2-3.7 6.2-3.9 6.8-.2.5-1 1.8-1.8 2.7s-2.2 3-3.1 4.7c-1 1.6-4.4 7-7.6 11.8s-7.1 10.6-8.5 12.8-4.4 6.3-6.6 9.2-7.1 9.6-11 14.9c-19.8 27.2-38.4 48.5-70.4 80.5-30.9 30.9-48.2 46.4-70.9 63.6-16.5 12.5-22.9 17.4-25.2 19.1s-22.6 15.5-26.2 17.7c-.8.5-4 2.6-7 4.5-8.7 5.6-9.1 5.9-12.8 8-1.9 1.1-5.5 3.4-8 4.9-2.5 1.6-7.6 4.6-11.5 6.6-3.8 2.1-7.7 4.3-8.5 5s-2.6 1.6-4 2-3.2 1.3-4 2-8.5 4.8-17 9c-8.5 4.1-17.2 8.5-19.2 9.5-2 1.1-4.2 2-4.8 2-.7 0-2.4.8-3.8 1.9-1.5 1-3.8 2.2-5.2 2.5-2.6.8-8.9 3.6-15.2 6.7-2 1.1-4.3 1.9-4.9 1.9-.7 0-3.1.9-5.3 1.9-2.3 1.1-5.9 2.6-8.1 3.4s-7.1 2.7-11 4.2c-3.8 1.5-9.5 3.4-12.4 4.2-3 .8-6.4 2.1-7.5 2.8-1.2.7-3.7 1.6-5.6 2-1.9.3-5.7 1.5-8.5 2.5-4.6 1.6-13.2 4.3-29.5 8.9-7.5 2.2-17.1 4.6-28.5 7.1-4.4.9-9.3 2.2-10.8 2.9-1.6.6-4.3 1.1-6 1.1-1.8 0-7.9 1.1-13.7 2.5s-12.6 2.5-15.1 2.5c-2.6 0-6.6.7-9 1.5-2.4.9-11.3 2.2-19.9 3-8.5.8-19.5 2.1-24.5 2.8-12 1.9-24.9 2.2-77 2.2-45.1-.1-63.5-.7-74-2.4-3.3-.6-10.7-1.5-16.5-2.1s-13.2-1.5-16.5-2.1-10.5-1.7-16-2.4c-5.5-.8-13.6-2.4-18-3.5-4.5-1.1-9.2-2-10.7-2-1.4 0-5.5-.9-9-2-3.4-1.1-7.7-2-9.5-2s-5.5-.9-8.2-2c-2.7-1-7.3-2.2-10.3-2.6-2.9-.3-6.2-1.2-7.4-1.9-1.1-.7-5-1.9-8.5-2.6-3.5-.6-7.5-1.7-8.9-2.4s-5.1-1.8-8.2-2.5c-3.2-.6-6-1.5-6.3-2-.3-.4-2.9-1.4-5.7-2.1-2.9-.7-7.1-2-9.3-3s-4.9-1.9-6-1.9-4.2-1.2-7-2.5c-2.7-1.4-5.8-2.5-6.7-2.5-1 0-3.2-.9-5-2s-4.1-2-5-2-3.8-1.1-6.4-2.5-5.4-2.5-6.3-2.5-3.1-.9-4.9-2-3.7-2-4.3-2c-1.1 0-6.5-2.4-21.6-9.6-5-2.4-9.7-4.4-10.5-4.4-.7 0-2.4-.9-3.8-2s-3.1-2-3.9-2c-.7 0-3-1-5-2.3-5.5-3.4-7-4.2-15.6-8.7-4.4-2.3-10.2-5.4-13-7-2.7-1.6-6.1-3.5-7.5-4.2-4.9-2.5-17.5-10.2-19.5-11.8-1.1-.9-3.1-2.2-4.5-2.8-8.1-3.8-53.7-36.1-68-48.1-3-2.6-8-6.5-11-8.8-3-2.4-7.3-5.9-9.5-7.9-2.2-1.9-6.2-5.4-8.8-7.7-23.6-20.4-46.4-43.2-70.7-70.7-3.6-4-7.5-8.5-8.8-9.9-1.2-1.3-3.3-3.8-4.5-5.4s-6.6-8.4-11.9-15.1c-11.3-14.1-12.4-15.5-16.9-22-1.9-2.6-4.3-6.1-5.4-7.6-7.6-10.7-18.5-27.1-18.5-27.9 0-.5-.6-1.4-1.4-2-1.8-1.5-21.7-34.2-25.3-41.6-.8-1.7-2.7-5.3-4.3-8-5.6-10-27-53.5-27-55 0-.2-1.1-2.8-2.4-5.7-1.4-2.9-2.7-6.5-3.1-8s-1.3-3.2-2.1-3.9c-.8-.6-1.4-1.8-1.4-2.5 0-1.4-4.1-12.6-6.6-17.9-.8-1.7-2.1-5.5-3-8.5s-2.2-6.4-3-7.5-1.4-3.1-1.4-4.5-.8-4.2-1.9-6.3c-1-2-2.2-5.4-2.6-7.4-.4-2.1-1.3-5.2-2.1-6.8-.7-1.7-2-5.7-2.7-9.1-.8-3.3-1.9-6.9-2.4-8-.6-1-1.3-3.7-1.7-5.9s-1.5-6.7-2.6-10c-2.7-8.6-4.8-17.5-6.9-29.1-1-5.5-2.3-10.9-2.8-12-.6-1-1.3-5.1-1.7-8.9-.4-3.9-1.3-9.3-2.1-12-.8-2.8-1.9-9.3-2.5-14.5s-1.5-11.8-2-14.5c-.6-2.8-1.5-11.1-2-18.5s-1.2-15.1-1.5-17c-2.4-14.1-2.8-25.7-2.8-67 0-41.1.6-55.6 2.8-66.5.3-1.7 1-9.3 1.5-17s1.4-16.3 2-19c.5-2.8 1.4-9.3 2-14.5s1.7-11.8 2.5-14.5c.8-2.8 1.7-8.2 2.1-12 .4-3.9 1.1-7.9 1.7-8.9.5-1.1 1.8-6.5 2.8-12 2.1-11.6 4.2-20.5 6.9-29.1 1.1-3.3 2.2-7.8 2.6-10s1.1-4.9 1.7-5.9c.5-1.1 1.6-4.7 2.4-8 .7-3.4 2-7.5 2.7-9.1.8-1.7 1.7-4.7 2.1-6.8.4-2 1.6-5.4 2.6-7.4 1.1-2.1 1.9-4.9 1.9-6.3s.6-3.4 1.4-4.5 2.1-4.5 3-7.5 2.2-6.9 3-8.5c2.5-5.3 6.6-16.5 6.6-17.9 0-.7.6-1.9 1.4-2.5.8-.7 1.7-2.4 2.1-3.9s1.7-5.1 3.1-8c1.3-2.9 2.4-5.5 2.4-5.7 0-1.5 21.4-45 27-55 1.6-2.8 3.5-6.4 4.3-8 3.6-7.4 23.5-40.1 25.3-41.6.8-.6 1.4-1.5 1.4-2s3.7-6.4 8.3-13c4.5-6.6 8.9-13.1 9.7-14.3 3.9-6 14.4-20 23-30.6 5.2-6.4 10.4-13 11.5-14.6 1.1-1.5 3.1-4 4.5-5.4 1.4-1.5 5.4-6 9-10 20-22.7 40.7-43.9 58.7-60 3.9-3.6 10-9.1 13.5-12.2s9.5-8.2 13.3-11.2c3.9-3.1 9.9-8 13.5-10.9 8.9-7.3 31.6-24.1 42.5-31.6 5-3.3 10.8-7.3 13-8.8 6.1-4.3 14.5-9.3 15.4-9.3.5 0 1.4-.7 2.1-1.5.6-.8 4.2-3.1 7.8-5.2s8.6-5 11.1-6.5 6.4-3.6 8.6-4.7 5.8-3.1 8-4.4 7.4-4.1 11.5-6.2 8.2-4.4 9-5c.8-.7 2.6-1.6 4-2s3.7-1.6 5.2-2.6c1.4-1.1 3.1-1.9 3.8-1.9s5.3-2 10.3-4.4c15.1-7.2 20.5-9.6 21.6-9.6.6 0 2.5-.9 4.3-2s4-2 4.9-2 3.7-1.1 6.3-2.5 5.5-2.5 6.4-2.5 3.2-.9 5-2 4-2 5-2c.9 0 4-1.1 6.7-2.5 2.8-1.3 5.9-2.5 7-2.5s3.8-.9 6-1.9 6.4-2.3 9.3-3c2.8-.7 5.4-1.7 5.7-2.1.3-.5 3.1-1.4 6.3-2 3.1-.7 6.8-1.8 8.2-2.5s5.4-1.8 8.9-2.4c3.5-.7 7.4-1.9 8.5-2.6 1.2-.7 4.5-1.6 7.4-1.9 3-.4 7.6-1.6 10.3-2.6 2.7-1.1 6.4-2 8.2-2s6.1-.9 9.5-2c3.5-1.1 7.6-2 9-2 1.5 0 6.2-.9 10.7-2 4.4-1.1 12.5-2.7 18-3.5 5.5-.7 12.5-1.8 15.5-2.4 3-.5 10.7-1.5 17-2.1s14-1.5 17-2.1c3-.5 12.5-1.2 21-1.5s15.7-.8 16-1.1c.6-.6 97.2.4 104.5 1.1"/><path d="M897.5 890.7c-1.6.2-5.2 1-8 1.8-2.7.7-7.7 1.7-11 2.1-3.3.3-7.2 1.3-8.8 2.1-1.5.7-5.1 1.8-8 2.4-3 .5-7.1 1.8-9.2 2.9-2.2 1.1-4.9 2-6 2s-2.9.6-4 1.4c-1.1.7-3.6 1.8-5.6 2.5-5.5 1.8-30.1 14.5-38.1 19.7-26.9 17.5-54.7 44.6-70.7 68.8-1.9 2.8-4.5 6.7-5.8 8.7-1.2 1.9-2.3 4-2.3 4.6s-.6 1.6-1.4 2.2c-2 1.7-16.6 31.5-16.6 34 0 .7-.6 2.5-1.4 3.9-1.8 3.5-7.6 21.8-7.6 24.1 0 1-.7 3.5-1.5 5.5-.8 1.9-2 8-2.5 13.3-.6 5.4-1.6 11.4-2.2 13.3-2.1 5.7-1.6 54.7.5 63 .9 3.6 1.7 8.3 1.7 10.5s.7 6.5 1.5 9.5c.9 3 2 7.5 2.5 9.8 1.3 6 5.9 20.1 7.6 23.4.8 1.4 1.4 3.2 1.4 3.9 0 2.5 14.6 32.3 16.6 34 .8.6 1.4 1.6 1.4 2.2 0 .5 2.1 4.3 4.8 8.3 17.6 27.4 45.6 55.3 74.1 73.8 7.1 4.7 35.7 19.6 37.5 19.6.5 0 2.7.8 5 1.9 5.1 2.2 12.8 5 18.1 6.3 2.2.6 6.3 1.8 9 2.8 2.8 1 7.5 2.2 10.5 2.5 3 .4 8 1.4 11 2.3 4.7 1.5 10.9 1.7 42.5 1.7 32 0 37.7-.2 42-1.7 2.8-.9 7.5-2 10.5-2.4 3-.3 7.7-1.5 10.3-2.5 2.6-1.1 6-1.9 7.5-1.9s4.2-.9 6-2 4-2 5-2c.9 0 4-1.1 6.7-2.5 2.8-1.3 5.7-2.5 6.6-2.5s2.2-.7 2.9-1.4c.6-.8 2.8-2 4.8-2.7 2-.6 4.4-1.7 5.2-2.5.8-.7 2.6-1.7 4-2.2 2.4-.9 12.3-7.2 20.4-12.9 7.1-5 24-19.4 28.9-24.7 6.6-6.9 23-27.4 25.3-31.5 1.1-1.9 2.4-4.1 2.9-5 9.7-15.4 21.5-40.8 23.4-50.1.4-1.9 1.5-4.9 2.4-6.7s1.7-4.2 1.7-5.5.9-5.5 2-9.3c1.2-3.9 2.5-10.2 3-14 .5-3.9 1.6-11.7 2.5-17.5.9-6.9 1.5-18.5 1.5-33.6 0-20.2-.2-23.3-1.6-23.8-2.4-.9-226.7-.7-228.2.3-2 1.2-1.8 64.1.2 65.6.8.6 26.5 1 72.7.9 39.3-.1 73.1.1 75.1.4 4.1.5 5.3 2.3 3.7 5.5-.7 1.1-1.7 4.3-2.5 7.1-2.9 11.7-13.5 35.4-20.6 46.1-4.2 6.4-11.9 16.7-13.5 18-.7.5-2.5 2.6-4 4.6-4 5.1-20.1 18.6-28.3 23.6-5.7 3.6-23.3 12-26.5 12.7-1.6.4-5.2 1.5-8 2.5-16.8 6.2-52.1 8.2-71.6 4.1-5.2-1.1-11-2-12.9-2-2 0-4.5-.6-5.6-1.4s-3.8-1.7-6-2.1c-4.9-.9-12.7-4.1-26.9-11.1-14.4-7.1-15.1-7.5-28-17.1-14.2-10.5-28-23.8-34.3-33.1-1.3-2-4.4-6.4-6.6-9.7-5.2-7.4-14.6-24-14.6-25.7 0-.7-.9-2.7-1.9-4.4s-2.2-4.4-2.5-6.1c-.4-1.7-1.6-4.8-2.7-6.9-1-2.1-1.9-4.7-1.9-5.8 0-1-.9-4.9-1.9-8.5-1.1-3.6-2.5-10.9-3.1-16.1s-1.3-11.5-1.6-14c-1.5-12.2 1.1-42.1 4.7-53.9 1-3.5 1.9-7.3 1.9-8.5s.9-3.9 1.9-6c1.1-2.1 2.3-5.2 2.7-6.9.3-1.7 1.5-4.4 2.5-6.1s1.9-3.7 1.9-4.4c0-1.7 9.4-18.3 14.6-25.7 2.2-3.3 5.2-7.6 6.5-9.5 6.5-9.5 20.3-22.8 34.4-33.3 12.9-9.6 13.6-10 28-17.1 14.2-7 22-10.2 26.9-11.1 2.2-.4 4.9-1.3 6-2.1s3.6-1.4 5.6-1.4c1.9 0 7.7-.9 12.9-2 7.5-1.6 13.1-2 27.5-1.9 10 0 20.4.5 23.1 1 2.8.6 8.6 1.6 13 2.3s9.7 2.1 11.7 3c2.1.9 4.8 1.6 6 1.6 1.3 0 4.6 1.2 7.3 2.5 2.8 1.4 5.6 2.5 6.3 2.5 1.2 0 9.9 4 13.2 6.1.8.5 3 1.6 4.9 2.5 1.8.8 4.5 2.3 6 3.3 1.4 1 4.6 3.1 7.1 4.7s8.2 5.9 12.8 9.6c5.2 4.3 9.2 6.8 10.8 6.8 1.7 0 8.2-5 22-17 10.7-9.4 21.3-18.5 23.5-20.2 6-4.8 6.1-7 .3-12.2-13.2-11.8-23.9-20-37.7-28.8-3.8-2.4-28.9-15.1-39.2-19.8-2.2-1-5.6-2.2-7.5-2.6-1.9-.3-5.2-1.5-7.2-2.5-2.1-1.1-4.4-1.9-5.3-1.9s-4.4-.9-7.8-2c-5.7-1.8-15.7-3.9-28.2-6-4.9-.8-64.1-1.1-70-.3m433.5 139.2c-.6 1.3-1 17.5-1 46 0 24.1-.3 44.6-.6 45.5-.5 1.4-5.6 1.6-46.5 1.6-44.3 0-45.9.1-46.9 1.9-.6 1.2-1 12.3-1 29.1s.4 27.9 1 29.1c1 1.8 2.6 1.9 46.9 1.9 40.9 0 46 .2 46.5 1.6.3.9.6 21.5.6 45.8 0 34.2.3 44.6 1.3 46 1.1 1.5 3.6 1.7 30 1.4 24.3-.3 28.9-.5 29.7-1.8.6-.9 1-19.5 1-45.3 0-28.3.4-44.5 1-45.8 1-1.8 2.6-1.9 46-1.9 39.4 0 45-.2 46.4-1.6 1.4-1.3 1.6-5.4 1.6-29.4 0-27.7 0-27.9-2.2-29.4-2-1.4-8.1-1.6-46.5-1.6-42.7 0-44.3-.1-45.3-1.9-.6-1.3-1-17.6-1-46v-44l-2.2-1.5c-1.9-1.4-6.5-1.6-30-1.6-26.4 0-27.8.1-28.8 1.9"/></svg>