<?xml version="1.0" standalone="no"?>
<!DOCTYPE svg PUBLIC "-//W3C//DTD SVG 20010904//EN"
 "http://www.w3.org/TR/2001/REC-SVG-20010904/DTD/svg10.dtd">
<svg version="1.0" xmlns="http://www.w3.org/2000/svg"
 width="512.000000pt" height="512.000000pt" viewBox="0 0 512.000000 512.000000"
 preserveAspectRatio="xMidYMid meet">

<g transform="translate(0.000000,512.000000) scale(0.100000,-0.100000)"
fill="#000000" stroke="none">
<path d="M2430 4904 c-513 -44 -904 -189 -1288 -476 -126 -95 -358 -327 -452
-453 -252 -336 -406 -716 -461 -1135 -16 -122 -16 -427 0 -555 52 -415 208
-802 461 -1140 94 -126 326 -359 450 -451 337 -252 698 -400 1115 -460 142
-20 444 -23 580 -5 540 71 994 291 1371 666 140 139 210 223 303 363 357 535
479 1185 340 1817 -28 128 -110 366 -168 487 -349 729 -1045 1232 -1838 1327
-94 12 -347 21 -413 15z m490 -169 c493 -90 908 -311 1239 -661 323 -341 523
-763 587 -1234 18 -135 18 -425 0 -560 -53 -389 -193 -731 -430 -1050 -91
-123 -305 -336 -426 -426 -329 -244 -692 -389 -1089 -435 -137 -15 -475 -7
-596 15 -485 89 -868 288 -1205 625 -357 358 -573 806 -631 1310 -15 138 -7
475 16 601 117 649 478 1182 1035 1525 265 163 543 257 915 309 80 11 494 -2
585 -19z"/>
<path d="M1087 3462 c-26 -29 -22 -77 9 -101 l27 -21 1437 0 1437 0 27 21 c32
25 36 77 8 102 -17 16 -134 17 -1474 17 -1397 0 -1456 -1 -1471 -18z"/>
<path d="M1090 2610 c-11 -11 -20 -33 -20 -50 0 -17 9 -39 20 -50 20 -20 33
-20 1470 -20 1437 0 1450 0 1470 20 26 26 26 74 0 100 -20 20 -33 20 -1470 20
-1437 0 -1450 0 -1470 -20z"/>
<path d="M1096 1759 c-32 -25 -36 -77 -8 -102 17 -16 134 -17 1474 -17 1397 0
1456 1 1471 18 26 29 22 77 -9 101 l-27 21 -1437 0 -1437 0 -27 -21z"/>
</g>
</svg>
