<?xml version="1.0" standalone="no"?>
<!DOCTYPE svg PUBLIC "-//W3C//DTD SVG 20010904//EN"
 "http://www.w3.org/TR/2001/REC-SVG-20010904/DTD/svg10.dtd">
<svg version="1.0" xmlns="http://www.w3.org/2000/svg"
 width="2176.000000pt" height="2272.000000pt" viewBox="0 0 2176.000000 2272.000000"
 preserveAspectRatio="xMidYMid meet">

<g transform="translate(0.000000,2272.000000) scale(0.100000,-0.100000)"
fill="#000000" stroke="none">
<path d="M10325 20019 c-49 -4 -121 -12 -160 -19 -38 -6 -133 -15 -210 -19
-77 -5 -174 -15 -215 -24 -41 -8 -111 -18 -155 -21 -44 -3 -100 -12 -125 -21
-25 -9 -70 -17 -100 -17 -30 0 -88 -10 -130 -24 -41 -13 -96 -24 -122 -24 -25
0 -67 -9 -93 -20 -26 -11 -67 -20 -91 -20 -25 0 -62 -9 -84 -20 -22 -11 -57
-20 -79 -20 -22 0 -66 -11 -97 -25 -31 -14 -72 -25 -91 -25 -19 0 -47 -7 -62
-15 -16 -8 -48 -17 -72 -21 -24 -3 -60 -15 -79 -26 -19 -11 -50 -20 -70 -20
-19 0 -51 -9 -70 -20 -19 -12 -52 -22 -72 -24 -20 -1 -49 -11 -64 -23 -16 -13
-41 -21 -64 -21 -24 0 -43 -7 -55 -20 -12 -13 -31 -20 -55 -20 -24 0 -43 -7
-55 -20 -11 -12 -31 -20 -50 -20 -18 0 -45 -10 -60 -22 -16 -12 -44 -23 -63
-25 -19 -1 -43 -9 -52 -18 -10 -9 -34 -18 -53 -22 -20 -3 -44 -14 -53 -24 -9
-11 -29 -19 -43 -19 -14 0 -37 -9 -51 -20 -14 -11 -33 -20 -43 -20 -10 0 -39
-11 -65 -25 -26 -14 -52 -25 -58 -25 -6 0 -19 -9 -28 -19 -10 -11 -32 -23 -50
-27 -17 -4 -42 -15 -55 -25 -13 -11 -33 -19 -45 -19 -12 0 -29 -9 -39 -20 -9
-11 -27 -20 -40 -20 -13 0 -32 -9 -42 -20 -10 -11 -27 -20 -38 -20 -10 0 -32
-11 -49 -25 -16 -14 -39 -25 -50 -25 -12 0 -29 -6 -37 -14 -9 -8 -44 -28 -77
-45 -34 -17 -67 -38 -74 -46 -7 -8 -19 -15 -27 -15 -8 0 -28 -11 -45 -25 -16
-14 -38 -25 -48 -25 -11 0 -23 -6 -27 -14 -4 -8 -30 -24 -58 -37 -27 -12 -65
-35 -83 -51 -18 -15 -39 -28 -46 -28 -16 0 -166 -99 -166 -110 0 -4 -12 -13
-27 -19 -38 -16 -69 -35 -96 -57 -36 -31 -81 -61 -103 -68 -11 -3 -37 -22 -58
-40 -20 -19 -57 -46 -81 -61 -24 -14 -50 -33 -57 -43 -7 -9 -26 -26 -42 -37
-61 -42 -82 -55 -103 -66 -13 -7 -23 -15 -23 -19 0 -7 -136 -120 -145 -120 -9
0 -53 -37 -145 -123 -41 -38 -86 -76 -100 -85 -44 -29 -201 -178 -559 -533
-73 -72 -178 -188 -232 -254 -35 -44 -103 -122 -152 -174 -48 -52 -87 -98 -87
-103 0 -13 -50 -79 -75 -99 -11 -9 -38 -43 -60 -75 -21 -33 -57 -80 -78 -107
-43 -52 -87 -115 -87 -123 0 -4 -20 -29 -45 -56 -25 -28 -45 -57 -45 -65 0 -8
-18 -36 -40 -62 -22 -26 -40 -52 -40 -57 0 -6 -20 -37 -45 -68 -25 -32 -45
-64 -45 -71 0 -6 -8 -19 -18 -29 -11 -9 -31 -41 -46 -70 -15 -30 -36 -62 -47
-72 -10 -9 -19 -23 -19 -31 0 -8 -10 -29 -23 -46 -32 -46 -46 -69 -57 -96 -6
-13 -19 -35 -30 -49 -11 -13 -20 -33 -20 -42 0 -10 -6 -23 -14 -29 -17 -14
-18 -17 -170 -315 -64 -126 -116 -236 -116 -244 0 -9 -6 -23 -14 -31 -7 -9
-26 -45 -40 -81 -15 -36 -35 -81 -45 -100 -10 -19 -21 -48 -25 -64 -4 -16 -16
-41 -27 -54 -10 -14 -19 -36 -19 -51 0 -14 -7 -35 -16 -46 -8 -11 -19 -38 -25
-60 -6 -22 -17 -47 -24 -55 -7 -8 -17 -33 -21 -55 -4 -22 -15 -51 -25 -64 -11
-13 -19 -36 -19 -52 0 -16 -9 -43 -20 -61 -11 -18 -20 -44 -20 -58 0 -14 -8
-41 -19 -60 -10 -19 -21 -53 -25 -75 -4 -21 -16 -56 -27 -77 -10 -20 -19 -49
-19 -63 0 -14 -9 -43 -20 -65 -11 -22 -20 -54 -20 -72 0 -18 -7 -46 -16 -63
-9 -16 -20 -53 -24 -81 -4 -27 -17 -71 -29 -97 -11 -25 -21 -64 -21 -86 0 -22
-9 -63 -20 -91 -11 -28 -20 -66 -20 -84 0 -18 -9 -59 -20 -91 -11 -32 -20 -79
-20 -105 0 -26 -9 -73 -20 -105 -11 -32 -20 -79 -20 -104 0 -25 -9 -82 -20
-126 -11 -44 -23 -111 -26 -150 -6 -86 -22 -198 -35 -245 -6 -19 -12 -84 -13
-145 -6 -208 -18 -336 -33 -342 -19 -8 -19 -988 0 -1008 14 -13 16 -34 37
-355 5 -74 14 -157 20 -185 6 -27 15 -97 19 -155 5 -58 18 -139 30 -180 12
-45 18 -89 15 -110 -4 -23 2 -58 16 -100 12 -36 25 -99 29 -140 5 -42 14 -87
21 -100 7 -13 16 -54 20 -90 4 -36 14 -82 23 -101 8 -19 18 -56 22 -83 4 -28
15 -72 26 -98 10 -27 19 -62 19 -79 0 -16 9 -47 20 -69 11 -22 20 -56 20 -76
0 -20 8 -51 19 -68 10 -17 21 -53 25 -79 3 -27 15 -60 26 -74 11 -15 20 -41
20 -60 0 -20 9 -46 20 -60 12 -15 20 -41 20 -63 0 -22 8 -48 20 -63 11 -14 20
-37 20 -51 0 -14 11 -46 25 -72 14 -26 25 -54 25 -63 0 -9 6 -28 14 -43 8 -15
17 -42 21 -60 4 -18 16 -44 26 -57 11 -13 19 -33 19 -45 0 -11 9 -34 20 -51
11 -16 20 -37 20 -45 0 -8 12 -37 25 -65 14 -27 25 -57 25 -66 0 -9 9 -24 20
-34 11 -10 20 -28 20 -40 0 -12 9 -34 20 -48 11 -14 20 -34 20 -45 0 -10 9
-27 19 -36 11 -10 23 -32 27 -49 6 -29 34 -94 55 -127 5 -8 17 -31 25 -50 9
-19 22 -39 30 -43 8 -4 14 -16 14 -26 0 -10 11 -35 25 -55 14 -20 25 -43 25
-50 0 -7 9 -21 20 -31 11 -10 20 -26 20 -35 0 -10 8 -28 18 -41 10 -13 29 -46
42 -74 13 -27 34 -63 47 -78 13 -16 23 -34 23 -42 0 -7 7 -18 15 -25 8 -7 29
-40 46 -74 17 -33 39 -70 50 -82 10 -11 19 -26 19 -33 0 -6 18 -36 40 -66 22
-30 40 -57 40 -61 0 -4 10 -18 21 -30 25 -26 43 -56 60 -97 6 -15 15 -27 20
-27 4 0 33 -38 63 -84 30 -46 59 -87 65 -90 11 -7 59 -78 81 -119 8 -16 26
-39 40 -51 14 -11 48 -53 74 -91 27 -39 59 -79 70 -90 28 -27 90 -103 124
-153 15 -22 84 -100 154 -173 69 -74 144 -156 166 -184 52 -65 371 -377 491
-480 51 -44 101 -90 110 -101 25 -32 131 -123 176 -152 22 -14 65 -49 95 -77
30 -29 86 -74 124 -100 38 -26 87 -65 109 -86 22 -22 44 -39 49 -39 11 0 62
-35 110 -77 20 -17 50 -39 67 -47 16 -9 43 -28 58 -42 15 -15 43 -33 62 -41
19 -8 55 -32 81 -54 25 -21 53 -39 62 -39 8 0 23 -9 34 -21 10 -12 45 -34 76
-50 31 -16 60 -35 65 -43 4 -7 33 -25 64 -40 32 -15 62 -33 69 -41 7 -8 21
-15 32 -15 10 0 29 -11 42 -25 13 -14 32 -25 43 -25 11 0 27 -7 34 -16 7 -9
43 -30 79 -47 36 -16 69 -36 73 -44 4 -7 19 -13 33 -13 13 0 34 -11 46 -25 12
-14 31 -25 43 -25 12 0 30 -9 40 -20 10 -11 27 -20 38 -20 10 0 32 -11 49 -25
16 -14 39 -25 52 -25 12 0 29 -9 39 -20 9 -11 29 -20 45 -20 16 0 37 -9 47
-20 10 -11 27 -20 38 -20 10 0 32 -11 49 -25 16 -14 39 -25 51 -25 12 0 33 -9
47 -20 14 -11 37 -20 51 -20 14 0 34 -9 44 -20 11 -12 31 -20 50 -20 19 0 39
-8 49 -19 10 -10 34 -22 54 -26 20 -4 45 -14 55 -23 10 -8 34 -17 54 -19 20
-1 46 -12 58 -23 12 -11 34 -20 49 -20 16 0 45 -9 65 -20 20 -10 55 -24 78
-30 23 -6 45 -15 48 -20 3 -6 23 -10 44 -10 24 0 48 -8 65 -21 14 -11 43 -22
65 -24 21 -2 56 -12 77 -23 22 -11 59 -23 84 -27 25 -4 60 -16 79 -26 19 -10
44 -16 56 -13 13 3 40 -4 64 -17 23 -12 63 -24 89 -26 26 -3 65 -14 88 -24 22
-10 60 -19 85 -19 24 0 64 -9 88 -20 24 -11 61 -20 82 -20 21 0 72 -11 113
-25 41 -14 97 -25 124 -25 27 0 75 -9 107 -20 32 -11 84 -20 116 -20 32 0 84
-7 116 -17 32 -9 110 -20 173 -24 63 -5 140 -13 170 -19 103 -20 205 -31 240
-26 19 3 76 1 125 -5 50 -5 129 -9 176 -8 66 0 90 -3 102 -15 13 -14 58 -16
327 -16 270 0 314 2 327 16 12 12 36 15 102 15 47 -1 127 3 176 8 50 5 106 8
125 5 35 -5 130 5 245 26 33 6 110 15 170 19 61 4 136 16 168 25 32 9 84 16
116 16 32 0 84 9 116 20 32 11 80 20 107 20 27 0 83 11 124 25 41 14 92 25
113 25 21 0 58 9 82 20 24 11 64 20 89 20 26 0 63 9 85 20 22 11 58 20 81 20
25 0 60 10 89 26 29 15 57 23 70 20 12 -3 38 3 59 15 20 11 58 22 84 26 26 3
61 14 79 25 18 11 51 21 73 23 22 2 52 13 66 24 16 13 42 21 63 21 20 0 50 9
66 20 17 11 40 20 52 20 13 0 37 9 55 20 18 11 47 20 64 20 18 0 38 8 49 20
11 12 31 20 50 20 18 0 43 8 56 19 13 10 40 22 59 26 19 4 46 16 59 26 13 11
36 19 51 19 15 0 35 9 45 20 10 11 30 20 44 20 14 0 37 9 51 20 14 11 35 20
47 20 12 0 35 11 51 25 17 14 38 25 47 25 9 0 28 9 42 20 14 11 36 20 49 20
14 0 32 9 41 20 10 11 27 20 39 20 13 0 36 11 52 25 17 14 39 25 49 25 11 0
28 9 38 20 10 11 27 20 38 20 10 0 32 11 49 25 16 14 38 25 48 25 9 0 23 6 29
14 6 7 57 36 114 64 56 28 110 60 119 72 10 11 26 20 37 20 10 0 24 7 31 15 7
8 37 26 69 41 31 15 60 33 64 41 5 8 28 23 51 33 24 10 59 32 78 49 20 17 41
31 47 31 6 0 32 16 57 36 26 19 63 43 83 54 20 10 48 29 63 43 15 14 50 38 79
53 28 16 54 34 56 41 5 14 88 73 102 73 4 0 29 19 54 42 62 57 103 88 115 88
5 0 27 17 48 38 64 60 150 132 161 132 5 0 41 29 79 65 153 145 248 231 273
246 62 40 691 704 770 814 16 22 59 74 95 115 36 41 66 79 66 84 0 5 25 39 57
75 31 36 72 91 92 120 20 30 51 71 69 90 17 20 35 44 38 54 9 27 64 107 74
107 4 0 13 12 19 27 13 34 28 58 61 99 25 31 73 106 99 153 7 14 22 35 32 46
9 11 29 44 44 73 15 29 43 78 64 110 21 31 49 82 64 113 14 31 33 62 42 69 8
7 15 20 15 30 0 9 9 25 20 35 11 10 20 27 20 38 0 10 11 32 25 49 14 16 25 37
25 47 0 10 9 26 20 36 11 10 20 26 20 35 0 10 8 28 19 41 10 13 22 35 26 49 4
14 16 36 26 49 11 13 19 34 19 46 0 12 7 28 15 35 8 7 17 27 21 45 3 19 15 41
25 51 10 9 19 27 19 39 0 12 9 34 20 48 11 14 20 34 20 45 0 10 9 31 20 45 11
14 23 40 27 59 3 18 15 47 25 63 10 17 18 39 18 51 0 11 9 29 20 39 11 10 20
30 20 44 0 15 8 42 18 61 11 19 22 50 26 69 3 19 13 42 21 51 8 9 19 38 24 64
5 26 16 55 25 65 9 10 16 31 16 47 0 16 9 43 19 60 10 17 22 50 26 75 4 24 13
53 21 64 7 11 16 40 20 65 3 25 13 55 20 67 8 13 17 44 21 70 3 27 14 65 24
85 11 21 19 54 19 75 0 21 11 62 25 91 14 30 25 72 25 93 0 22 7 53 15 70 9
16 20 59 24 97 5 37 16 87 25 111 9 24 16 60 16 80 0 20 7 61 15 91 9 30 20
92 25 137 4 45 13 96 18 115 25 81 32 120 32 188 0 67 6 103 30 185 5 17 12
101 14 188 3 87 10 165 14 174 5 8 7 36 4 62 -3 35 0 52 12 63 14 15 16 72 16
536 0 401 -3 521 -12 524 -13 5 -23 88 -33 298 -3 69 -15 172 -25 230 -10 58
-21 144 -24 191 -3 47 -13 106 -22 130 -8 24 -19 87 -23 139 -4 52 -15 109
-23 125 -9 17 -18 64 -20 105 -3 41 -13 89 -22 105 -9 17 -16 52 -16 78 0 28
-8 64 -20 87 -11 22 -20 58 -20 80 0 23 -10 62 -21 88 -12 26 -25 72 -28 102
-4 31 -15 67 -24 80 -9 13 -17 39 -17 58 0 18 -9 52 -20 74 -11 23 -20 52 -20
65 0 13 -9 42 -20 64 -11 21 -22 56 -24 77 -2 20 -13 55 -25 77 -11 22 -21 49
-21 60 0 11 -9 35 -20 53 -11 18 -20 44 -20 59 0 14 -9 40 -19 57 -11 17 -23
49 -27 71 -4 22 -15 51 -25 64 -11 13 -19 33 -19 45 0 11 -9 35 -20 51 -11 17
-20 40 -20 52 0 12 -11 39 -25 59 -14 20 -25 46 -25 56 0 11 -9 31 -20 45 -11
14 -20 35 -20 47 0 11 -9 32 -20 46 -11 14 -20 33 -20 42 0 9 -17 50 -39 91
-21 40 -42 84 -46 97 -4 14 -16 36 -26 49 -11 13 -19 34 -19 46 0 12 -7 28
-15 35 -8 6 -40 64 -72 127 -72 143 -85 168 -101 190 -16 22 -46 77 -68 123
-9 19 -32 58 -50 86 -19 28 -34 56 -34 61 0 6 -7 16 -15 23 -8 6 -30 40 -49
74 -20 35 -42 69 -51 76 -8 7 -15 19 -15 28 0 8 -7 22 -15 31 -21 21 -65 90
-65 100 0 5 -7 14 -15 21 -19 16 -75 98 -75 109 0 5 -19 31 -43 57 -23 27 -48
60 -54 74 -6 14 -36 55 -67 91 -31 37 -56 69 -56 73 0 12 -43 69 -91 121 -25
28 -58 69 -72 92 -15 23 -52 70 -84 105 -52 57 -122 137 -156 178 -51 64 -114
130 -373 390 -161 162 -320 318 -354 345 -33 28 -113 97 -178 153 -64 57 -124
107 -132 110 -21 8 -150 114 -150 124 0 4 -21 19 -47 34 -27 15 -75 50 -107
76 -32 27 -71 55 -85 63 -15 7 -44 29 -65 49 -22 19 -64 48 -94 63 -30 15 -60
36 -66 46 -6 10 -39 32 -72 47 -34 16 -64 35 -67 42 -2 8 -30 26 -60 42 -30
15 -63 36 -73 47 -9 10 -25 19 -34 19 -9 0 -25 9 -36 21 -10 11 -43 32 -74 46
-30 14 -59 31 -63 39 -4 8 -17 14 -28 14 -11 0 -30 11 -43 25 -13 14 -32 25
-43 25 -11 0 -27 7 -34 16 -7 9 -46 32 -86 50 -40 19 -73 39 -73 44 0 6 -11
10 -24 10 -14 0 -38 11 -54 25 -17 14 -39 25 -49 25 -11 0 -28 9 -38 20 -10
11 -29 20 -42 20 -13 0 -31 9 -40 20 -10 11 -27 20 -39 20 -12 0 -32 8 -45 18
-13 11 -37 22 -52 26 -15 3 -35 15 -45 26 -9 11 -23 20 -32 20 -8 0 -36 11
-62 25 -26 14 -54 25 -63 25 -9 0 -28 9 -42 20 -14 11 -38 20 -53 20 -15 0
-35 8 -44 19 -9 10 -33 21 -53 24 -19 4 -43 13 -53 22 -9 9 -33 17 -52 18 -19
2 -47 13 -63 25 -15 12 -42 22 -60 22 -19 0 -39 8 -50 20 -12 13 -31 20 -55
20 -24 0 -43 7 -55 20 -12 13 -31 20 -55 20 -23 0 -48 8 -64 21 -15 12 -44 22
-64 23 -20 1 -53 12 -72 24 -20 13 -52 22 -75 22 -24 0 -50 8 -65 20 -14 11
-40 20 -58 20 -18 0 -59 11 -91 24 -32 14 -66 23 -77 20 -11 -3 -45 6 -77 20
-32 15 -73 26 -91 26 -19 0 -53 9 -77 20 -24 11 -65 20 -91 20 -25 0 -67 9
-93 20 -26 11 -68 20 -93 20 -26 0 -81 11 -122 24 -42 14 -100 24 -130 24 -30
0 -75 8 -100 17 -25 9 -81 18 -125 21 -44 3 -114 13 -155 21 -41 9 -136 20
-210 24 -74 5 -166 13 -205 19 -38 5 -122 14 -185 19 -130 11 -958 11 -1095 0z
m1195 -629 c85 -4 180 -13 210 -19 30 -6 122 -18 203 -26 81 -9 158 -20 170
-24 12 -5 56 -12 97 -15 41 -4 109 -15 150 -26 41 -10 100 -20 131 -24 31 -3
71 -12 90 -20 19 -7 61 -17 94 -21 33 -4 75 -13 95 -21 19 -7 60 -18 90 -23
62 -11 153 -35 220 -58 25 -8 70 -21 100 -28 52 -13 119 -33 185 -57 17 -5 50
-16 75 -24 68 -20 161 -53 195 -69 17 -7 44 -17 60 -21 17 -4 41 -13 55 -20
26 -14 83 -35 162 -60 25 -8 52 -22 58 -30 7 -7 22 -14 34 -14 11 0 35 -8 52
-19 17 -10 41 -22 55 -26 35 -11 126 -53 374 -176 248 -123 298 -150 440 -234
55 -33 108 -63 117 -67 9 -4 39 -22 65 -41 27 -19 63 -42 79 -51 16 -9 43 -25
59 -36 17 -11 42 -26 58 -35 15 -9 44 -28 66 -43 21 -15 60 -42 87 -61 94 -66
299 -215 350 -256 28 -22 64 -49 80 -60 15 -11 35 -27 43 -36 9 -9 38 -33 66
-54 202 -152 682 -611 926 -886 204 -228 479 -583 647 -833 59 -87 111 -166
117 -175 9 -15 71 -114 111 -176 10 -16 25 -41 32 -55 7 -14 23 -41 35 -62 32
-53 82 -141 91 -158 4 -8 29 -55 56 -105 56 -104 139 -270 199 -400 23 -49 51
-108 61 -130 11 -22 33 -76 51 -120 17 -44 35 -85 40 -91 5 -6 16 -31 23 -55
27 -84 46 -134 60 -159 8 -14 17 -41 21 -60 4 -19 16 -51 26 -70 11 -19 19
-41 19 -50 0 -8 9 -37 19 -65 26 -67 50 -139 65 -201 8 -28 18 -59 24 -70 5
-10 15 -46 22 -79 7 -33 19 -72 26 -87 8 -15 14 -38 14 -52 0 -14 9 -49 19
-78 11 -29 23 -71 26 -93 4 -22 15 -71 25 -110 10 -38 23 -97 29 -130 6 -33
15 -78 20 -100 21 -90 44 -216 56 -315 7 -58 15 -112 19 -120 14 -33 58 -475
66 -655 18 -439 7 -1085 -24 -1335 -9 -74 -20 -169 -25 -210 -17 -143 -42
-305 -62 -395 -10 -49 -19 -106 -19 -125 -1 -19 -9 -60 -20 -90 -11 -30 -19
-65 -20 -78 0 -26 -43 -210 -71 -302 -11 -36 -19 -72 -19 -80 0 -8 -8 -42 -19
-75 -10 -33 -29 -94 -41 -135 -13 -41 -33 -106 -46 -143 -13 -38 -24 -77 -24
-87 0 -11 -9 -34 -20 -52 -11 -18 -20 -41 -20 -51 0 -11 -7 -33 -15 -50 -8
-18 -21 -52 -29 -77 -32 -97 -58 -165 -72 -184 -8 -11 -14 -28 -14 -38 0 -10
-9 -35 -20 -55 -11 -21 -20 -44 -20 -51 0 -8 -9 -31 -19 -51 -11 -20 -29 -58
-41 -86 -12 -27 -32 -72 -45 -100 -29 -63 -212 -435 -225 -455 -11 -19 -200
-351 -220 -388 -8 -15 -24 -41 -35 -57 -11 -17 -26 -39 -32 -50 -64 -104 -88
-141 -156 -238 -170 -245 -236 -334 -404 -542 -407 -503 -872 -957 -1357
-1325 -47 -36 -100 -76 -117 -90 -45 -35 -176 -128 -294 -207 -121 -82 -123
-83 -164 -108 -18 -11 -55 -35 -83 -52 -27 -18 -79 -50 -115 -70 -36 -21 -81
-48 -101 -60 -21 -12 -50 -29 -67 -38 -16 -9 -66 -36 -110 -61 -44 -24 -102
-56 -130 -69 -27 -14 -57 -29 -65 -34 -8 -5 -26 -14 -40 -20 -14 -6 -32 -15
-40 -21 -8 -5 -26 -14 -40 -20 -14 -5 -32 -14 -40 -19 -8 -5 -37 -19 -65 -31
-52 -23 -130 -58 -200 -90 -108 -50 -155 -70 -165 -70 -6 0 -28 -9 -48 -19
-20 -11 -71 -32 -112 -47 -41 -15 -93 -35 -116 -45 -22 -11 -49 -19 -60 -19
-11 0 -29 -7 -40 -14 -12 -8 -43 -20 -70 -27 -27 -6 -53 -15 -59 -20 -10 -7
-51 -20 -197 -60 -37 -10 -76 -23 -86 -28 -11 -6 -48 -17 -83 -24 -35 -8 -77
-19 -94 -25 -34 -13 -128 -36 -225 -57 -36 -7 -78 -19 -94 -25 -15 -6 -60 -15
-99 -20 -39 -6 -90 -17 -114 -25 -24 -8 -58 -15 -76 -15 -17 0 -75 -9 -127
-20 -146 -30 -373 -62 -500 -71 -63 -4 -135 -11 -160 -14 -25 -4 -67 -9 -95
-12 -70 -8 -1188 -7 -1255 0 -30 4 -93 11 -140 17 -47 5 -110 10 -140 10 -30
0 -89 7 -130 16 -41 9 -88 18 -105 19 -130 14 -218 27 -265 40 -30 8 -68 15
-85 15 -27 -1 -79 10 -275 57 -36 8 -92 21 -125 29 -106 23 -189 45 -220 56
-16 6 -59 17 -94 24 -35 8 -76 21 -92 29 -15 8 -37 15 -49 15 -11 0 -37 7 -58
16 -20 9 -64 22 -96 30 -33 8 -65 18 -70 23 -6 5 -27 12 -46 16 -19 4 -52 16
-72 26 -21 11 -45 19 -55 19 -11 0 -36 9 -58 20 -22 11 -43 20 -47 20 -5 0
-25 7 -46 16 -39 18 -99 41 -172 69 -56 20 -134 55 -270 119 -30 14 -60 26
-66 26 -7 0 -17 6 -23 14 -7 8 -27 17 -45 20 -19 4 -39 13 -45 20 -7 8 -24 17
-38 21 -15 3 -38 15 -51 26 -14 10 -33 19 -43 19 -10 0 -21 5 -25 11 -3 6 -25
19 -48 30 -22 11 -77 39 -121 64 -44 24 -98 54 -120 65 -22 12 -56 31 -77 43
-20 12 -62 37 -95 56 -60 34 -90 54 -328 210 -243 160 -584 419 -815 618 -332
287 -728 696 -981 1013 -54 67 -92 117 -234 301 -22 29 -56 76 -75 104 -19 29
-69 101 -110 161 -89 129 -185 279 -202 314 -6 14 -19 34 -28 45 -21 25 -86
139 -217 380 -57 105 -233 466 -233 478 0 4 -20 49 -45 101 -25 53 -45 101
-45 109 0 7 -6 21 -14 32 -7 11 -18 36 -24 55 -11 36 -42 115 -74 186 -10 22
-18 46 -18 53 0 7 -7 27 -15 44 -8 18 -21 55 -29 82 -20 69 -44 141 -67 197
-10 26 -19 56 -19 68 0 11 -7 35 -16 51 -8 17 -19 52 -24 77 -4 26 -14 67 -23
92 -16 48 -42 146 -57 220 -5 25 -18 79 -29 120 -39 152 -84 381 -101 515 -5
39 -14 95 -20 125 -5 30 -17 118 -25 195 -8 77 -19 176 -25 220 -6 44 -16 238
-22 430 -12 392 0 935 26 1135 8 63 17 149 19 190 3 41 12 109 21 150 8 41 18
104 21 140 4 36 15 102 26 146 10 45 19 98 19 117 0 20 9 59 20 87 11 28 20
65 20 83 0 18 7 60 16 92 9 33 23 87 30 120 7 33 20 87 29 120 15 58 24 90 81
280 14 50 35 119 46 155 21 72 32 103 123 350 60 165 115 298 169 410 14 30
26 59 26 64 0 12 232 477 280 561 22 39 49 88 60 110 42 81 53 100 69 120 9
11 27 40 41 65 13 25 31 56 40 70 10 14 33 50 52 80 59 93 165 251 228 340 33
47 68 96 78 110 26 39 95 128 207 267 55 69 111 139 125 157 188 242 704 757
1006 1003 66 54 127 104 135 110 117 101 530 398 677 488 19 11 51 32 127 81
28 17 68 42 90 55 22 12 56 32 76 43 20 12 68 39 105 60 121 70 165 93 359
189 242 121 354 173 385 182 14 4 39 16 56 26 17 11 38 19 45 19 8 0 36 11 63
25 27 14 57 25 65 25 9 0 25 7 35 15 11 8 27 15 36 15 8 0 31 8 50 19 19 10
51 22 70 26 19 4 51 16 70 26 19 11 43 19 52 19 10 0 37 9 60 19 24 10 84 31
133 46 50 15 105 33 123 41 18 8 51 17 75 20 23 4 61 15 85 26 24 10 53 18 65
18 12 0 49 9 82 19 33 11 114 32 180 46 66 14 138 31 160 36 22 6 67 15 100
21 33 5 96 18 140 28 44 10 114 22 155 26 41 3 85 10 97 15 12 4 89 15 170 24
81 8 173 20 203 26 30 6 143 14 250 19 107 5 215 11 240 14 71 6 829 -4 1000
-14z"/>
<path d="M10450 18560 c-52 -4 -140 -13 -195 -19 -55 -6 -149 -15 -210 -21
-60 -5 -141 -17 -180 -25 -38 -8 -89 -15 -113 -15 -23 0 -82 -9 -130 -19 -125
-28 -238 -50 -307 -61 -33 -6 -80 -17 -105 -25 -25 -8 -71 -19 -102 -24 -32
-6 -71 -17 -87 -26 -17 -8 -41 -15 -55 -15 -14 0 -49 -9 -78 -19 -29 -11 -71
-22 -93 -26 -22 -3 -49 -12 -60 -19 -11 -7 -38 -16 -60 -20 -21 -4 -56 -16
-77 -27 -20 -10 -48 -19 -60 -19 -13 0 -40 -9 -61 -20 -20 -11 -44 -20 -52
-20 -8 0 -34 -9 -57 -19 -24 -10 -70 -29 -103 -41 -74 -28 -167 -66 -221 -91
-23 -10 -44 -19 -48 -19 -16 0 -442 -209 -561 -276 -44 -24 -98 -54 -120 -65
-22 -11 -83 -46 -135 -79 -52 -32 -99 -59 -103 -59 -4 -1 -32 -19 -62 -41 -30
-22 -56 -40 -58 -40 -22 0 -384 -259 -565 -405 -48 -38 -110 -88 -137 -110
-261 -210 -760 -715 -973 -985 -102 -129 -282 -367 -322 -425 -70 -102 -135
-197 -145 -214 -5 -9 -28 -45 -51 -81 -23 -36 -57 -91 -75 -123 -19 -32 -44
-74 -56 -95 -13 -20 -30 -50 -39 -67 -8 -16 -28 -52 -44 -80 -62 -111 -300
-595 -300 -612 0 -3 -8 -24 -19 -47 -50 -111 -61 -137 -61 -149 0 -6 -7 -25
-16 -42 -15 -27 -24 -52 -64 -165 -7 -19 -23 -63 -36 -98 -13 -34 -24 -70 -24
-78 0 -9 -6 -30 -14 -47 -8 -18 -26 -72 -41 -122 -14 -49 -35 -117 -45 -150
-10 -33 -21 -76 -25 -95 -4 -19 -13 -55 -21 -80 -20 -67 -43 -165 -59 -250 -7
-41 -20 -100 -29 -130 -9 -30 -16 -71 -16 -91 0 -20 -8 -72 -19 -115 -10 -44
-24 -133 -31 -198 -6 -66 -16 -130 -21 -142 -4 -13 -11 -77 -14 -141 -4 -65
-12 -174 -18 -243 -16 -181 -12 -935 6 -1025 3 -16 9 -91 12 -165 3 -74 10
-151 15 -170 5 -19 16 -91 24 -160 8 -69 22 -152 30 -185 9 -32 16 -75 16 -95
0 -19 8 -64 19 -100 10 -36 21 -92 26 -125 4 -33 13 -74 20 -92 8 -18 17 -54
21 -80 4 -26 15 -70 25 -96 11 -26 19 -59 19 -73 0 -23 15 -75 57 -204 8 -25
20 -67 27 -95 7 -27 18 -60 24 -71 6 -12 16 -39 21 -60 15 -58 60 -186 70
-198 4 -6 11 -22 14 -36 5 -26 36 -104 68 -176 11 -23 19 -45 19 -49 0 -4 12
-33 26 -64 30 -65 42 -93 79 -176 14 -33 30 -67 35 -75 6 -8 15 -26 20 -40 6
-14 15 -33 20 -42 6 -10 14 -26 20 -35 5 -10 14 -29 20 -43 5 -14 14 -32 20
-40 5 -8 15 -26 20 -40 6 -14 22 -45 36 -70 14 -25 44 -79 66 -120 23 -41 49
-90 59 -109 10 -18 24 -41 32 -50 8 -9 17 -23 21 -31 4 -8 18 -33 31 -55 13
-22 32 -53 41 -70 9 -16 34 -53 56 -82 21 -29 38 -56 38 -61 0 -5 17 -31 39
-58 21 -27 44 -60 51 -74 7 -14 32 -50 55 -80 23 -30 61 -82 86 -115 24 -33
46 -62 49 -65 3 -3 17 -21 30 -40 125 -177 498 -591 741 -820 211 -199 467
-422 539 -468 14 -9 57 -42 95 -72 39 -31 92 -72 119 -91 27 -19 92 -64 145
-101 53 -38 106 -72 118 -77 11 -6 24 -15 28 -21 4 -7 22 -18 39 -26 17 -8 65
-37 106 -64 41 -27 89 -57 105 -65 17 -9 48 -27 70 -40 22 -13 56 -33 75 -43
19 -10 58 -32 86 -49 28 -17 62 -34 75 -38 13 -4 30 -12 37 -18 25 -20 93 -55
182 -94 30 -14 62 -29 70 -34 8 -5 26 -14 40 -20 40 -16 112 -49 155 -69 22
-11 69 -31 105 -46 36 -14 83 -34 106 -45 22 -10 46 -19 54 -19 7 0 31 -8 54
-19 38 -17 58 -24 139 -52 17 -6 55 -19 82 -29 28 -10 70 -25 95 -33 25 -8 59
-19 75 -25 17 -5 64 -20 105 -32 41 -11 104 -30 140 -41 80 -24 179 -49 245
-62 28 -5 79 -18 114 -28 35 -11 78 -19 94 -19 16 0 54 -7 84 -16 56 -16 100
-23 418 -67 99 -14 187 -28 196 -32 30 -12 572 -38 789 -38 243 0 757 27 808
42 18 5 85 15 150 21 64 6 144 18 177 26 33 7 96 18 140 23 44 6 103 17 130
25 28 9 64 16 81 16 17 0 60 8 95 19 35 10 87 23 114 28 66 13 165 38 245 62
36 11 99 30 140 41 105 30 154 47 258 86 34 13 71 24 82 24 11 0 34 9 52 20
18 11 42 20 53 20 11 0 34 7 50 16 17 9 51 22 77 30 26 8 50 19 53 24 3 6 13
10 21 10 16 0 92 33 265 114 31 14 61 26 66 26 6 0 16 6 22 14 7 8 27 18 44
22 18 3 44 15 59 25 14 11 33 19 41 19 8 0 26 9 40 20 14 11 29 20 35 20 5 0
20 8 33 19 13 10 34 21 45 25 21 6 96 47 173 93 20 12 50 29 66 38 17 8 48 27
70 40 22 13 52 31 67 40 15 8 43 25 61 38 19 12 56 36 83 52 58 36 66 42 191
127 446 306 867 673 1238 1077 211 232 345 396 578 716 133 182 284 422 402
640 21 39 43 77 50 85 7 8 16 26 20 40 4 14 13 32 20 40 21 24 103 189 110
220 3 16 12 34 20 40 8 6 17 24 20 40 3 16 13 34 21 41 8 6 14 18 14 27 0 14
12 43 71 167 11 22 19 45 19 50 0 6 12 33 25 60 14 28 25 58 25 67 0 9 4 20
10 23 5 3 16 27 24 53 9 26 29 85 46 132 17 47 37 105 45 130 22 73 46 143 61
180 8 19 18 59 24 87 5 29 16 65 23 80 8 16 18 51 22 78 4 28 11 58 17 68 5
10 15 48 23 85 8 37 21 99 30 137 38 169 55 254 64 315 5 36 14 83 20 105 13
48 38 248 51 405 5 63 15 171 21 240 18 195 25 495 16 725 -10 269 -13 332
-20 375 -4 19 -9 87 -12 150 -3 63 -15 164 -25 224 -11 60 -20 126 -20 145 0
20 -7 65 -15 101 -9 36 -20 100 -25 142 -6 43 -16 95 -24 115 -8 21 -17 64
-20 97 -4 32 -11 67 -17 78 -6 10 -15 47 -20 81 -5 34 -18 89 -28 122 -10 33
-24 79 -30 103 -26 99 -35 130 -51 177 -10 28 -23 68 -28 90 -13 51 -39 127
-61 185 -21 51 -37 95 -58 160 -9 25 -24 63 -34 86 -11 22 -19 45 -19 51 0 6
-7 24 -15 40 -8 15 -26 57 -41 93 -51 126 -273 584 -306 632 -10 14 -18 33
-18 40 0 8 -9 23 -20 33 -11 10 -20 22 -20 27 0 8 -54 103 -95 169 -5 9 -20
34 -33 55 -28 49 -42 71 -67 109 -11 16 -24 37 -30 46 -12 19 -126 188 -182
269 -260 374 -680 842 -1058 1181 -150 134 -458 389 -470 389 -3 0 -31 19 -60
43 -30 23 -70 53 -90 67 -20 14 -59 42 -88 63 -29 20 -95 65 -147 98 -52 34
-106 70 -120 80 -14 11 -34 23 -45 28 -11 5 -60 34 -110 65 -49 31 -106 64
-125 74 -19 10 -69 38 -110 61 -41 23 -167 86 -280 141 -113 55 -222 109 -242
120 -20 11 -43 20 -50 20 -7 0 -26 7 -43 16 -40 20 -143 61 -177 69 -15 4 -32
13 -39 21 -6 7 -27 16 -48 20 -20 4 -50 15 -67 25 -17 11 -41 19 -53 19 -11 0
-38 9 -58 20 -21 11 -48 20 -61 20 -12 0 -40 9 -60 19 -21 11 -56 23 -77 27
-22 4 -49 13 -60 20 -11 6 -36 15 -55 18 -19 4 -66 16 -105 27 -205 61 -298
84 -395 101 -30 5 -76 16 -101 24 -25 8 -77 19 -115 23 -38 5 -105 16 -149 24
-44 9 -116 21 -160 27 -44 6 -103 14 -131 19 -28 5 -123 15 -210 21 -88 6
-172 16 -189 22 -37 12 -828 19 -965 8z m950 -3914 c58 -10 132 -21 165 -25
33 -3 66 -10 73 -14 7 -5 54 -19 105 -31 121 -31 262 -80 362 -126 44 -20 107
-50 140 -65 33 -16 71 -36 85 -45 14 -10 60 -36 103 -58 43 -23 99 -60 126
-82 26 -22 52 -40 58 -40 7 0 65 -43 130 -96 144 -118 359 -336 419 -424 24
-36 65 -91 91 -122 75 -90 93 -115 93 -131 0 -8 8 -25 19 -38 10 -13 22 -35
26 -49 4 -14 15 -36 25 -50 35 -51 100 -162 100 -172 0 -5 8 -22 19 -36 10
-15 22 -47 26 -72 4 -24 13 -54 20 -65 7 -11 18 -47 25 -80 7 -33 19 -72 26
-87 8 -15 14 -37 14 -50 0 -13 9 -34 20 -48 11 -14 20 -40 20 -57 0 -18 6 -50
14 -70 61 -161 67 -891 10 -1098 -9 -33 -20 -79 -24 -102 -3 -23 -12 -48 -18
-55 -6 -8 -15 -32 -21 -53 -5 -22 -17 -61 -25 -87 -9 -27 -23 -69 -32 -95 -8
-27 -20 -68 -26 -92 -6 -24 -19 -58 -29 -75 -10 -17 -19 -37 -19 -45 0 -13
-43 -82 -111 -183 -11 -15 -19 -36 -19 -47 0 -11 -4 -22 -9 -25 -5 -3 -18 -25
-29 -48 -12 -24 -39 -65 -61 -93 -23 -27 -68 -86 -100 -130 -96 -129 -112
-148 -157 -185 -23 -19 -62 -61 -85 -92 -23 -32 -45 -58 -49 -58 -10 0 -113
-80 -155 -120 -22 -22 -76 -63 -120 -93 -44 -29 -109 -72 -144 -96 -35 -24
-82 -51 -105 -62 -22 -10 -56 -29 -75 -43 -18 -14 -66 -37 -107 -52 -40 -14
-81 -35 -90 -45 -9 -11 -27 -19 -39 -19 -13 0 -42 -9 -66 -20 -24 -11 -53 -20
-65 -20 -11 0 -29 -9 -39 -20 -11 -12 -31 -20 -52 -20 -18 0 -41 -4 -51 -9 -9
-5 -44 -15 -77 -21 -33 -7 -82 -18 -110 -26 -85 -23 -167 -37 -235 -40 -36 -1
-103 -8 -150 -15 -106 -16 -301 -17 -400 -2 -41 6 -129 17 -195 23 -70 7 -140
20 -168 31 -27 11 -56 19 -65 17 -16 -3 -80 13 -130 33 -13 5 -32 9 -43 9 -12
0 -33 6 -47 14 -15 8 -43 17 -63 21 -21 3 -48 14 -62 25 -14 11 -33 20 -42 20
-17 0 -101 36 -170 72 -22 11 -79 40 -126 64 -47 24 -94 53 -104 64 -24 26
-82 26 -115 0 -14 -11 -31 -20 -38 -20 -7 0 -36 -16 -64 -37 -29 -20 -72 -42
-95 -49 -24 -7 -64 -29 -89 -49 -26 -19 -52 -35 -57 -35 -16 0 -147 -69 -182
-96 -16 -12 -43 -26 -60 -30 -16 -4 -46 -17 -65 -28 -108 -66 -200 -116 -211
-116 -6 0 -29 -13 -52 -29 -23 -15 -73 -43 -112 -61 -38 -18 -83 -43 -100 -55
-16 -12 -73 -44 -125 -69 -129 -64 -181 -93 -205 -111 -45 -35 -78 1 -35 40
11 10 22 27 26 39 7 22 58 131 73 156 21 34 49 118 56 167 4 31 14 58 26 69
10 9 19 23 19 30 0 8 9 28 20 46 11 18 20 40 20 48 0 8 9 26 20 40 11 14 20
32 20 41 0 9 9 27 19 41 25 31 71 152 71 185 0 14 8 37 18 51 10 15 28 50 40
77 12 28 28 66 37 85 8 19 28 58 45 85 16 28 30 59 30 70 0 11 9 35 20 53 11
18 20 48 20 66 0 18 8 44 19 57 10 13 33 58 51 99 18 41 36 79 41 85 18 19 8
47 -42 120 -46 68 -61 99 -105 216 -16 46 -53 119 -69 139 -7 8 -15 29 -19 45
-9 39 -44 131 -67 176 -12 23 -19 58 -19 90 0 30 -5 70 -10 89 -13 45 -37 205
-44 296 -3 39 -13 90 -21 114 -21 59 -21 349 -1 389 8 15 18 63 21 107 7 103
23 214 41 290 8 33 14 85 14 116 0 40 5 62 20 81 11 14 20 32 20 40 0 8 9 34
20 58 11 24 20 54 20 66 0 12 11 35 25 51 14 17 25 35 25 41 0 7 9 29 19 49
24 45 58 128 67 162 3 14 12 32 19 40 7 8 25 38 41 65 15 28 45 70 65 95 20
25 43 57 50 71 47 89 67 118 133 187 40 42 88 97 107 122 19 25 70 78 115 117
44 39 92 85 106 101 13 16 44 42 69 58 24 16 71 52 104 80 33 28 96 71 139 95
44 23 93 55 110 69 17 15 51 34 76 44 25 10 56 25 70 34 56 36 131 72 151 72
12 0 43 12 67 26 25 15 59 30 76 35 17 4 45 12 61 17 127 43 195 62 225 62 19
1 44 7 54 15 11 8 35 15 53 15 18 0 52 4 75 10 138 32 229 39 483 36 190 -2
288 -8 365 -20z"/>
<path d="M10789 14320 c-58 -4 -111 -10 -116 -13 -6 -4 -43 -11 -84 -17 -79
-12 -233 -51 -314 -80 -123 -43 -201 -73 -215 -81 -34 -20 -138 -69 -147 -69
-5 0 -36 -18 -67 -40 -32 -22 -83 -54 -114 -69 -32 -16 -82 -51 -112 -77 -30
-26 -72 -58 -93 -71 -50 -32 -314 -291 -334 -327 -8 -16 -50 -69 -92 -118 -76
-89 -131 -176 -131 -208 0 -10 -7 -23 -16 -31 -9 -7 -31 -42 -50 -78 -20 -36
-48 -88 -64 -116 -30 -52 -74 -179 -85 -250 -4 -22 -10 -44 -15 -50 -9 -11
-48 -154 -62 -230 -5 -27 -14 -70 -20 -95 -26 -112 -29 -159 -26 -395 4 -203
7 -258 21 -294 9 -24 17 -61 17 -83 0 -21 6 -54 14 -72 8 -19 20 -60 26 -93 7
-32 18 -69 25 -83 7 -14 18 -50 23 -81 15 -77 48 -175 79 -229 41 -72 75 -133
90 -162 8 -15 18 -30 23 -33 5 -3 14 -22 21 -43 10 -31 60 -113 117 -191 10
-15 9 -22 -6 -42 -11 -13 -23 -35 -27 -49 -4 -14 -13 -32 -20 -40 -15 -19 -65
-159 -65 -183 0 -10 -9 -35 -20 -55 -97 -182 -190 -395 -190 -436 0 -12 -11
-37 -25 -56 -50 -68 -23 -98 46 -52 24 17 70 41 101 55 32 14 77 39 100 55 24
16 72 42 108 58 36 15 79 38 95 50 17 12 66 39 110 60 44 20 93 46 109 58 50
34 140 75 165 76 14 0 35 -9 47 -21 61 -57 401 -243 529 -289 170 -61 229 -80
246 -80 11 0 36 -7 57 -16 20 -9 78 -22 127 -29 50 -8 119 -19 155 -26 40 -8
152 -13 290 -12 186 0 248 4 355 22 157 27 301 59 335 76 14 7 50 18 80 25 30
7 91 30 134 52 44 21 87 38 95 38 9 0 39 14 66 30 28 16 88 49 135 75 47 25
108 63 135 85 28 22 63 46 79 54 37 18 193 152 268 231 153 160 258 279 258
292 0 9 16 37 35 62 131 179 175 254 175 298 0 16 10 44 23 63 12 19 33 60 46
90 12 30 31 73 42 95 69 148 97 293 110 571 19 394 -11 777 -72 910 -10 24
-19 49 -19 56 0 7 -9 27 -20 43 -11 17 -20 36 -20 43 0 17 -49 122 -65 142 -7
8 -18 39 -24 68 -12 56 -84 177 -167 278 -24 30 -44 63 -44 73 0 21 -104 142
-241 281 -124 125 -220 208 -294 255 -33 21 -78 52 -100 69 -22 18 -78 52
-125 76 -47 24 -96 51 -109 62 -13 10 -29 18 -35 18 -6 1 -29 9 -51 20 -22 11
-44 19 -49 20 -5 0 -32 11 -60 24 -28 13 -103 40 -166 60 -290 90 -583 120
-941 96z m-525 -1079 c22 -21 45 -64 102 -188 15 -32 32 -70 40 -84 12 -24 20
-48 60 -194 8 -27 22 -66 32 -85 10 -19 27 -60 37 -91 18 -56 18 -57 -4 -100
-13 -24 -26 -46 -30 -49 -4 -3 -18 -21 -31 -40 -13 -19 -56 -68 -94 -108 -69
-72 -71 -75 -71 -126 0 -47 6 -61 66 -151 36 -55 76 -121 90 -148 13 -26 70
-98 127 -159 56 -62 102 -115 102 -119 0 -4 24 -25 52 -46 29 -21 78 -60 109
-88 31 -27 79 -61 105 -75 27 -14 70 -40 96 -58 25 -18 72 -41 102 -52 31 -10
62 -23 69 -27 48 -31 132 -41 170 -22 20 11 145 128 271 255 61 61 83 74 131
74 38 0 70 -13 131 -55 20 -13 62 -37 93 -51 31 -15 70 -37 86 -49 17 -13 63
-40 104 -61 103 -51 199 -120 216 -154 11 -21 15 -64 15 -157 0 -147 -6 -164
-92 -267 -64 -77 -75 -85 -188 -133 -73 -32 -118 -44 -195 -54 -136 -16 -404
-6 -505 20 -41 10 -95 22 -120 26 -25 4 -61 16 -80 26 -19 11 -43 19 -52 19
-16 0 -72 24 -128 55 -14 8 -61 33 -104 55 -43 23 -108 64 -143 91 -35 27 -68
49 -72 49 -4 0 -36 25 -72 56 -35 31 -82 68 -104 82 -22 14 -72 57 -112 96
-39 39 -103 98 -142 130 -39 33 -71 65 -71 71 0 7 -49 64 -110 126 -60 63
-110 121 -110 129 0 8 -38 60 -85 115 -46 55 -94 120 -106 145 -49 100 -73
146 -84 160 -7 8 -29 47 -50 85 -20 39 -41 75 -45 80 -4 6 -19 44 -32 85 -21
70 -23 91 -23 310 0 214 2 240 21 291 27 69 77 141 172 246 85 93 111 106 237
123 50 7 95 14 100 16 27 10 98 -5 119 -25z"/>
</g>
</svg>
