<svg xmlns="http://www.w3.org/2000/svg" width="2176.000000pt" height="2272.000000pt" version="1.0" viewBox="0 0 2176.000000 2272.000000"><path d="M1032.5 270.1c-4.9.4-12.1 1.2-16 1.9-3.8.6-13.3 1.5-21 1.9-7.7.5-17.4 1.5-21.5 2.4-4.1.8-11.1 1.8-15.5 2.1s-10 1.2-12.5 2.1-7 1.7-10 1.7-8.8 1-13 2.4c-4.1 1.3-9.6 2.4-12.2 2.4-2.5 0-6.7.9-9.3 2s-6.7 2-9.1 2c-2.5 0-6.2.9-8.4 2s-5.7 2-7.9 2-6.6 1.1-9.7 2.5-7.2 2.5-9.1 2.5-4.7.7-6.2 1.5c-1.6.8-4.8 1.7-7.2 2.1-2.4.3-6 1.5-7.9 2.6s-5 2-7 2c-1.9 0-5.1.9-7 2-1.9 1.2-5.2 2.2-7.2 2.4-2 .1-4.9 1.1-6.4 2.3-1.6 1.3-4.1 2.1-6.4 2.1-2.4 0-4.3.7-5.5 2s-3.1 2-5.5 2-4.3.7-5.5 2c-1.1 1.2-3.1 2-5 2-1.8 0-4.5 1-6 2.2-1.6 1.2-4.4 2.3-6.3 2.5-1.9.1-4.3.9-5.2 1.8-1 .9-3.4 1.8-5.3 2.2-2 .3-4.4 1.4-5.3 2.4-.9 1.1-2.9 1.9-4.3 1.9s-3.7.9-5.1 2-3.3 2-4.3 2-3.9 1.1-6.5 2.5-5.2 2.5-5.8 2.5-1.9.9-2.8 1.9c-1 1.1-3.2 2.3-5 2.7-1.7.4-4.2 1.5-5.5 2.5-1.3 1.1-3.3 1.9-4.5 1.9s-2.9.9-3.9 2c-.9 1.1-2.7 2-4 2s-3.2.9-4.2 2-2.7 2-3.8 2c-1 0-3.2 1.1-4.9 2.5-1.6 1.4-3.9 2.5-5 2.5-1.2 0-2.9.6-3.7 1.4-.9.8-4.4 2.8-7.7 4.5-3.4 1.7-6.7 3.8-7.4 4.6s-1.9 1.5-2.7 1.5-2.8 1.1-4.5 2.5c-1.6 1.4-3.8 2.5-4.8 2.5-1.1 0-2.3.6-2.7 1.4s-3 2.4-5.8 3.7c-2.7 1.2-6.5 3.5-8.3 5.1-1.8 1.5-3.9 2.8-4.6 2.8-1.6 0-16.6 9.9-16.6 11 0 .4-1.2 1.3-2.7 1.9-3.8 1.6-6.9 3.5-9.6 5.7-3.6 3.1-8.1 6.1-10.3 6.8-1.1.3-3.7 2.2-5.8 4-2 1.9-5.7 4.6-8.1 6.1-2.4 1.4-5 3.3-5.7 4.3-.7.9-2.6 2.6-4.2 3.7-6.1 4.2-8.2 5.5-10.3 6.6-1.3.7-2.3 1.5-2.3 1.9 0 .7-13.6 12-14.5 12s-5.3 3.7-14.5 12.3c-4.1 3.8-8.6 7.6-10 8.5-4.4 2.9-20.1 17.8-55.9 53.3-7.3 7.2-17.8 18.8-23.2 25.4-3.5 4.4-10.3 12.2-15.2 17.4-4.8 5.2-8.7 9.8-8.7 10.3 0 1.3-5 7.9-7.5 9.9-1.1.9-3.8 4.3-6 7.5-2.1 3.3-5.7 8-7.8 10.7-4.3 5.2-8.7 11.5-8.7 12.3 0 .4-2 2.9-4.5 5.6-2.5 2.8-4.5 5.7-4.5 6.5s-1.8 3.6-4 6.2-4 5.2-4 5.7c0 .6-2 3.7-4.5 6.8-2.5 3.2-4.5 6.4-4.5 7.1 0 .6-.8 1.9-1.8 2.9-1.1.9-3.1 4.1-4.6 7-1.5 3-3.6 6.2-4.7 7.2-1 .9-1.9 2.3-1.9 3.1s-1 2.9-2.3 4.6c-3.2 4.6-4.6 6.9-5.7 9.6-.6 1.3-1.9 3.5-3 4.9-1.1 1.3-2 3.3-2 4.2 0 1-.6 2.3-1.4 2.9-1.7 1.4-1.8 1.7-17 31.5C306.2 759 301 770 301 770.8c0 .9-.6 2.3-1.4 3.1-.7.9-2.6 4.5-4 8.1-1.5 3.6-3.5 8.1-4.5 10s-2.1 4.8-2.5 6.4-1.6 4.1-2.7 5.4c-1 1.4-1.9 3.6-1.9 5.1 0 1.4-.7 3.5-1.6 4.6-.8 1.1-1.9 3.8-2.5 6s-1.7 4.7-2.4 5.5-1.7 3.3-2.1 5.5-1.5 5.1-2.5 6.4c-1.1 1.3-1.9 3.6-1.9 5.2s-.9 4.3-2 6.1-2 4.4-2 5.8-.8 4.1-1.9 6c-1 1.9-2.1 5.3-2.5 7.5-.4 2.1-1.6 5.6-2.7 7.7-1 2-1.9 4.9-1.9 6.3s-.9 4.3-2 6.5-2 5.4-2 7.2-.7 4.6-1.6 6.3c-.9 1.6-2 5.3-2.4 8.1-.4 2.7-1.7 7.1-2.9 9.7-1.1 2.5-2.1 6.4-2.1 8.6s-.9 6.3-2 9.1-2 6.6-2 8.4-.9 5.9-2 9.1-2 7.9-2 10.5-.9 7.3-2 10.5-2 7.9-2 10.4-.9 8.2-2 12.6-2.3 11.1-2.6 15c-.6 8.6-2.2 19.8-3.5 24.5-.6 1.9-1.2 8.4-1.3 14.5-.6 20.8-1.8 33.6-3.3 34.2-1.9.8-1.9 98.8 0 100.8 1.4 1.3 1.6 3.4 3.7 35.5.5 7.4 1.4 15.7 2 18.5.6 2.7 1.5 9.7 1.9 15.5.5 5.8 1.8 13.9 3 18 1.2 4.5 1.8 8.9 1.5 11-.4 2.3.2 5.8 1.6 10 1.2 3.6 2.5 9.9 2.9 14 .5 4.2 1.4 8.7 2.1 10s1.6 5.4 2 9 1.4 8.2 2.3 10.1c.8 1.9 1.8 5.6 2.2 8.3.4 2.8 1.5 7.2 2.6 9.8 1 2.7 1.9 6.2 1.9 7.9 0 1.6.9 4.7 2 6.9s2 5.6 2 7.6.8 5.1 1.9 6.8c1 1.7 2.1 5.3 2.5 7.9.3 2.7 1.5 6 2.6 7.4 1.1 1.5 2 4.1 2 6 0 2 .9 4.6 2 6 1.2 1.5 2 4.1 2 6.3s.8 4.8 2 6.3c1.1 1.4 2 3.7 2 5.1s1.1 4.6 2.5 7.2 2.5 5.4 2.5 6.3.6 2.8 1.4 4.3 1.7 4.2 2.1 6 1.6 4.4 2.6 5.7c1.1 1.3 1.9 3.3 1.9 4.5 0 1.1.9 3.4 2 5.1 1.1 1.6 2 3.7 2 4.5s1.2 3.7 2.5 6.5c1.4 2.7 2.5 5.7 2.5 6.6s.9 2.4 2 3.4 2 2.8 2 4 .9 3.4 2 4.8 2 3.4 2 4.5c0 1 .9 2.7 1.9 3.6 1.1 1 2.3 3.2 2.7 4.9.6 2.9 3.4 9.4 5.5 12.7.5.8 1.7 3.1 2.5 5 .9 1.9 2.2 3.9 3 4.3s1.4 1.6 1.4 2.6 1.1 3.5 2.5 5.5 2.5 4.3 2.5 5 .9 2.1 2 3.1 2 2.6 2 3.5c0 1 .8 2.8 1.8 4.1s2.9 4.6 4.2 7.4c1.3 2.7 3.4 6.3 4.7 7.8 1.3 1.6 2.3 3.4 2.3 4.2 0 .7.7 1.8 1.5 2.5s2.9 4 4.6 7.4c1.7 3.3 3.9 7 5 8.2 1 1.1 1.9 2.6 1.9 3.3 0 .6 1.8 3.6 4 6.6s4 5.7 4 6.1 1 1.8 2.1 3c2.5 2.6 4.3 5.6 6 9.7.6 1.5 1.5 2.7 2 2.7.4 0 3.3 3.8 6.3 8.4s5.9 8.7 6.5 9c1.1.7 5.9 7.8 8.1 11.9.8 1.6 2.6 3.9 4 5.1 1.4 1.1 4.8 5.3 7.4 9.1 2.7 3.9 5.9 7.9 7 9 2.8 2.7 9 10.3 12.4 15.3 1.5 2.2 8.4 10 15.4 17.3 6.9 7.4 14.4 15.6 16.6 18.4 5.2 6.5 37.1 37.7 49.1 48 5.1 4.4 10.1 9 11 10.1 2.5 3.2 13.1 12.3 17.6 15.2 2.2 1.4 6.5 4.9 9.5 7.7 3 2.9 8.6 7.4 12.4 10s8.7 6.5 10.9 8.6c2.2 2.2 4.4 3.9 4.9 3.9 1.1 0 6.2 3.5 11 7.7 2 1.7 5 3.9 6.7 4.7 1.6.9 4.3 2.8 5.8 4.2 1.5 1.5 4.3 3.3 6.2 4.1s5.5 3.2 8.1 5.4c2.5 2.1 5.3 3.9 6.2 3.9.8 0 2.3.9 3.4 2.1 1 1.2 4.5 3.4 7.6 5s6 3.5 6.5 4.3c.4.7 3.3 2.5 6.4 4 3.2 1.5 6.2 3.3 6.9 4.1s2.1 1.5 3.2 1.5c1 0 2.9 1.1 4.2 2.5s3.2 2.5 4.3 2.5 2.7.7 3.4 1.6 4.3 3 7.9 4.7c3.6 1.6 6.9 3.6 7.3 4.4.4.7 1.9 1.3 3.3 1.3 1.3 0 3.4 1.1 4.6 2.5s3.1 2.5 4.3 2.5 3 .9 4 2 2.7 2 3.8 2c1 0 3.2 1.1 4.9 2.5 1.6 1.4 3.9 2.5 5.2 2.5 1.2 0 2.9.9 3.9 2 .9 1.1 2.9 2 4.5 2s3.7.9 4.7 2 2.7 2 3.8 2c1 0 3.2 1.1 4.9 2.5 1.6 1.4 3.9 2.5 5.1 2.5s3.3.9 4.7 2 3.7 2 5.1 2 3.4.9 4.4 2c1.1 1.2 3.1 2 5 2s3.9.8 4.9 1.9c1 1 3.4 2.2 5.4 2.6s4.5 1.4 5.5 2.3c1 .8 3.4 1.7 5.4 1.9 2 .1 4.6 1.2 5.8 2.3s3.4 2 4.9 2c1.6 0 4.5.9 6.5 2 2 1 5.5 2.4 7.8 3s4.5 1.5 4.8 2c.3.6 2.3 1 4.4 1 2.4 0 4.8.8 6.5 2.1 1.4 1.1 4.3 2.2 6.5 2.4 2.1.2 5.6 1.2 7.7 2.3 2.2 1.1 5.9 2.3 8.4 2.7s6 1.6 7.9 2.6 4.4 1.6 5.6 1.3c1.3-.3 4 .4 6.4 1.7 2.3 1.2 6.3 2.4 8.9 2.6 2.6.3 6.5 1.4 8.8 2.4 2.2 1 6 1.9 8.5 1.9 2.4 0 6.4.9 8.8 2s6.1 2 8.2 2 7.2 1.1 11.3 2.5 9.7 2.5 12.4 2.5 7.5.9 10.7 2 8.4 2 11.6 2 8.4.7 11.6 1.7c3.2.9 11 2 17.3 2.4 6.3.5 14 1.3 17 1.9 10.3 2 20.5 3.1 24 2.6 1.9-.3 7.6-.1 12.5.5 5 .5 12.9.9 17.6.8 6.6 0 9 .3 10.2 1.5 1.3 1.4 5.8 1.6 32.7 1.6 27 0 31.4-.2 32.7-1.6 1.2-1.2 3.6-1.5 10.2-1.5 4.7.1 12.7-.3 17.6-.8 5-.5 10.6-.8 12.5-.5 3.5.5 13-.5 24.5-2.6 3.3-.6 11-1.5 17-1.9 6.1-.4 13.6-1.6 16.8-2.5s8.4-1.6 11.6-1.6 8.4-.9 11.6-2 8-2 10.7-2 8.3-1.1 12.4-2.5 9.2-2.5 11.3-2.5 5.8-.9 8.2-2 6.4-2 8.9-2c2.6 0 6.3-.9 8.5-2s5.8-2 8.1-2c2.5 0 6-1 8.9-2.6 2.9-1.5 5.7-2.3 7-2 1.2.3 3.8-.3 5.9-1.5 2-1.1 5.8-2.2 8.4-2.6 2.6-.3 6.1-1.4 7.9-2.5s5.1-2.1 7.3-2.3 5.2-1.3 6.6-2.4c1.6-1.3 4.2-2.1 6.3-2.1 2 0 5-.9 6.6-2 1.7-1.1 4-2 5.2-2 1.3 0 3.7-.9 5.5-2s4.7-2 6.4-2c1.8 0 3.8-.8 4.9-2s3.1-2 5-2c1.8 0 4.3-.8 5.6-1.9 1.3-1 4-2.2 5.9-2.6s4.6-1.6 5.9-2.6c1.3-1.1 3.6-1.9 5.1-1.9s3.5-.9 4.5-2 3-2 4.4-2 3.7-.9 5.1-2 3.5-2 4.7-2 3.5-1.1 5.1-2.5c1.7-1.4 3.8-2.5 4.7-2.5s2.8-.9 4.2-2 3.6-2 4.9-2c1.4 0 3.2-.9 4.1-2 1-1.1 2.7-2 3.9-2 1.3 0 3.6-1.1 5.2-2.5 1.7-1.4 3.9-2.5 4.9-2.5 1.1 0 2.8-.9 3.8-2s2.7-2 3.8-2c1 0 3.2-1.1 4.9-2.5 1.6-1.4 3.8-2.5 4.8-2.5.9 0 2.3-.6 2.9-1.4.6-.7 5.7-3.6 11.4-6.4 5.6-2.8 11-6 11.9-7.2 1-1.1 2.6-2 3.7-2 1 0 2.4-.7 3.1-1.5s3.7-2.6 6.9-4.1c3.1-1.5 6-3.3 6.4-4.1.5-.8 2.8-2.3 5.1-3.3 2.4-1 5.9-3.2 7.8-4.9 2-1.7 4.1-3.1 4.7-3.1s3.2-1.6 5.7-3.6c2.6-1.9 6.3-4.3 8.3-5.4 2-1 4.8-2.9 6.3-4.3s5-3.8 7.9-5.3c2.8-1.6 5.4-3.4 5.6-4.1.5-1.4 8.8-7.3 10.2-7.3.4 0 2.9-1.9 5.4-4.2 6.2-5.7 10.3-8.8 11.5-8.8.5 0 2.7-1.7 4.8-3.8 6.4-6 15-13.2 16.1-13.2.5 0 4.1-2.9 7.9-6.5 15.3-14.5 24.8-23.1 27.3-24.6 6.2-4 69.1-70.4 77-81.4 1.6-2.2 5.9-7.4 9.5-11.5s6.6-7.9 6.6-8.4 2.5-3.9 5.7-7.5c3.1-3.6 7.2-9.1 9.2-12 2-3 5.1-7.1 6.9-9 1.7-2 3.5-4.4 3.8-5.4.9-2.7 6.4-10.7 7.4-10.7.4 0 1.3-1.2 1.9-2.7 1.3-3.4 2.8-5.8 6.1-9.9 2.5-3.1 7.3-10.6 9.9-15.3.7-1.4 2.2-3.5 3.2-4.6.9-1.1 2.9-4.4 4.4-7.3s4.3-7.8 6.4-11c2.1-3.1 4.9-8.2 6.4-11.3 1.4-3.1 3.3-6.2 4.2-6.9.8-.7 1.5-2 1.5-3 0-.9.9-2.5 2-3.5s2-2.7 2-3.8c0-1 1.1-3.2 2.5-4.9 1.4-1.6 2.5-3.7 2.5-4.7s.9-2.6 2-3.6 2-2.6 2-3.5c0-1 .8-2.8 1.9-4.1 1-1.3 2.2-3.5 2.6-4.9s1.6-3.6 2.6-4.9c1.1-1.3 1.9-3.4 1.9-4.6s.7-2.8 1.5-3.5 1.7-2.7 2.1-4.5c.3-1.9 1.5-4.1 2.5-5.1 1-.9 1.9-2.7 1.9-3.9s.9-3.4 2-4.8 2-3.4 2-4.5c0-1 .9-3.1 2-4.5s2.3-4 2.7-5.9c.3-1.8 1.5-4.7 2.5-6.3 1-1.7 1.8-3.9 1.8-5.1 0-1.1.9-2.9 2-3.9s2-3 2-4.4c0-1.5.8-4.2 1.8-6.1 1.1-1.9 2.2-5 2.6-6.9.3-1.9 1.3-4.2 2.1-5.1s1.9-3.8 2.4-6.4 1.6-5.5 2.5-6.5 1.6-3.1 1.6-4.7.9-4.3 1.9-6 2.2-5 2.6-7.5c.4-2.4 1.3-5.3 2.1-6.4.7-1.1 1.6-4 2-6.5.3-2.5 1.3-5.5 2-6.7.8-1.3 1.7-4.4 2.1-7 .3-2.7 1.4-6.5 2.4-8.5 1.1-2.1 1.9-5.4 1.9-7.5s1.1-6.2 2.5-9.1c1.4-3 2.5-7.2 2.5-9.3 0-2.2.7-5.3 1.5-7 .9-1.6 2-5.9 2.4-9.7.5-3.7 1.6-8.7 2.5-11.1s1.6-6 1.6-8 .7-6.1 1.5-9.1c.9-3 2-9.2 2.5-13.7.4-4.5 1.3-9.6 1.8-11.5 2.5-8.1 3.2-12 3.2-18.8 0-6.7.6-10.3 3-18.5.5-1.7 1.2-10.1 1.4-18.8.3-8.7 1-16.5 1.4-17.4.5-.8.7-3.6.4-6.2-.3-3.5 0-5.2 1.2-6.3 1.4-1.5 1.6-7.2 1.6-53.6 0-40.1-.3-52.1-1.2-52.4-1.3-.5-2.3-8.8-3.3-29.8-.3-6.9-1.5-17.2-2.5-23s-2.1-14.4-2.4-19.1-1.3-10.6-2.2-13c-.8-2.4-1.9-8.7-2.3-13.9s-1.5-10.9-2.3-12.5c-.9-1.7-1.8-6.4-2-10.5-.3-4.1-1.3-8.9-2.2-10.5-.9-1.7-1.6-5.2-1.6-7.8 0-2.8-.8-6.4-2-8.7-1.1-2.2-2-5.8-2-8 0-2.3-1-6.2-2.1-8.8-1.2-2.6-2.5-7.2-2.8-10.2-.4-3.1-1.5-6.7-2.4-8s-1.7-3.9-1.7-5.8c0-1.8-.9-5.2-2-7.4-1.1-2.3-2-5.2-2-6.5s-.9-4.2-2-6.4c-1.1-2.1-2.2-5.6-2.4-7.7-.2-2-1.3-5.5-2.5-7.7-1.1-2.2-2.1-4.9-2.1-6s-.9-3.5-2-5.3-2-4.4-2-5.9c0-1.4-.9-4-1.9-5.7-1.1-1.7-2.3-4.9-2.7-7.1s-1.5-5.1-2.5-6.4c-1.1-1.3-1.9-3.3-1.9-4.5 0-1.1-.9-3.5-2-5.1-1.1-1.7-2-4-2-5.2s-1.1-3.9-2.5-5.9-2.5-4.6-2.5-5.6c0-1.1-.9-3.1-2-4.5s-2-3.5-2-4.7c0-1.1-.9-3.2-2-4.6s-2-3.3-2-4.2-1.7-5-3.9-9.1c-2.1-4-4.2-8.4-4.6-9.7-.4-1.4-1.6-3.6-2.6-4.9-1.1-1.3-1.9-3.4-1.9-4.6s-.7-2.8-1.5-3.5c-.8-.6-4-6.4-7.2-12.7-7.2-14.3-8.5-16.8-10.1-19s-4.6-7.7-6.8-12.3c-.9-1.9-3.2-5.8-5-8.6-1.9-2.8-3.4-5.6-3.4-6.1 0-.6-.7-1.6-1.5-2.3-.8-.6-3-4-4.9-7.4-2-3.5-4.2-6.9-5.1-7.6-.8-.7-1.5-1.9-1.5-2.8 0-.8-.7-2.2-1.5-3.1-2.1-2.1-6.5-9-6.5-10 0-.5-.7-1.4-1.5-2.1-1.9-1.6-7.5-9.8-7.5-10.9 0-.5-1.9-3.1-4.3-5.7-2.3-2.7-4.8-6-5.4-7.4s-3.6-5.5-6.7-9.1c-3.1-3.7-5.6-6.9-5.6-7.3 0-1.2-4.3-6.9-9.1-12.1-2.5-2.8-5.8-6.9-7.2-9.2-1.5-2.3-5.2-7-8.4-10.5-5.2-5.7-12.2-13.7-15.6-17.8-5.1-6.4-11.4-13-37.3-39-16.1-16.2-32-31.8-35.4-34.5-3.3-2.8-11.3-9.7-17.8-15.3-6.4-5.7-12.4-10.7-13.2-11-2.1-.8-15-11.4-15-12.4 0-.4-2.1-1.9-4.7-3.4-2.7-1.5-7.5-5-10.7-7.6-3.2-2.7-7.1-5.5-8.5-6.3-1.5-.7-4.4-2.9-6.5-4.9-2.2-1.9-6.4-4.8-9.4-6.3s-6-3.6-6.6-4.6-3.9-3.2-7.2-4.7c-3.4-1.6-6.4-3.5-6.7-4.2-.2-.8-3-2.6-6-4.2-3-1.5-6.3-3.6-7.3-4.7-.9-1-2.5-1.9-3.4-1.9s-2.5-.9-3.6-2.1c-1-1.1-4.3-3.2-7.4-4.6-3-1.4-5.9-3.1-6.3-3.9s-1.7-1.4-2.8-1.4-3-1.1-4.3-2.5-3.2-2.5-4.3-2.5-2.7-.7-3.4-1.6-4.6-3.2-8.6-5c-4-1.9-7.3-3.9-7.3-4.4 0-.6-1.1-1-2.4-1-1.4 0-3.8-1.1-5.4-2.5-1.7-1.4-3.9-2.5-4.9-2.5-1.1 0-2.8-.9-3.8-2s-2.9-2-4.2-2-3.1-.9-4-2c-1-1.1-2.7-2-3.9-2s-3.2-.8-4.5-1.8c-1.3-1.1-3.7-2.2-5.2-2.6-1.5-.3-3.5-1.5-4.5-2.6-.9-1.1-2.3-2-3.2-2-.8 0-3.6-1.1-6.2-2.5s-5.4-2.5-6.3-2.5-2.8-.9-4.2-2-3.8-2-5.3-2-3.5-.8-4.4-1.9c-.9-1-3.3-2.1-5.3-2.4-1.9-.4-4.3-1.3-5.3-2.2-.9-.9-3.3-1.7-5.2-1.8-1.9-.2-4.7-1.3-6.3-2.5-1.5-1.2-4.2-2.2-6-2.2-1.9 0-3.9-.8-5-2-1.2-1.3-3.1-2-5.5-2s-4.3-.7-5.5-2-3.1-2-5.5-2c-2.3 0-4.8-.8-6.4-2.1-1.5-1.2-4.4-2.2-6.4-2.3s-5.3-1.2-7.2-2.4c-2-1.3-5.2-2.2-7.5-2.2-2.4 0-5-.8-6.5-2-1.4-1.1-4-2-5.8-2s-5.9-1.1-9.1-2.4c-3.2-1.4-6.6-2.3-7.7-2s-4.5-.6-7.7-2c-3.2-1.5-7.3-2.6-9.1-2.6-1.9 0-5.3-.9-7.7-2s-6.5-2-9.1-2c-2.5 0-6.7-.9-9.3-2s-6.8-2-9.3-2c-2.6 0-8.1-1.1-12.2-2.4-4.2-1.4-10-2.4-13-2.4s-7.5-.8-10-1.7-8.1-1.8-12.5-2.1-11.4-1.3-15.5-2.1c-4.1-.9-13.6-2-21-2.4-7.4-.5-16.6-1.3-20.5-1.9-3.8-.5-12.2-1.4-18.5-1.9-13-1.1-95.8-1.1-109.5 0M1152 333c8.5.4 18 1.3 21 1.9s12.2 1.8 20.3 2.6c8.1.9 15.8 2 17 2.4 1.2.5 5.6 1.2 9.7 1.5 4.1.4 10.9 1.5 15 2.6 4.1 1 10 2 13.1 2.4 3.1.3 7.1 1.2 9 2 1.9.7 6.1 1.7 9.4 2.1s7.5 1.3 9.5 2.1c1.9.7 6 1.8 9 2.3 6.2 1.1 15.3 3.5 22 5.8 2.5.8 7 2.1 10 2.8 5.2 1.3 11.9 3.3 18.5 5.7 1.7.5 5 1.6 7.5 2.4 6.8 2 16.1 5.3 19.5 6.9 1.7.7 4.4 1.7 6 2.1 1.7.4 4.1 1.3 5.5 2 2.6 1.4 8.3 3.5 16.2 6 2.5.8 5.2 2.2 5.8 3 .7.7 2.2 1.4 3.4 1.4 1.1 0 3.5.8 5.2 1.9 1.7 1 4.1 2.2 5.5 2.6 3.5 1.1 12.6 5.3 37.4 17.6s29.8 15 44 23.4c5.5 3.3 10.8 6.3 11.7 6.7s3.9 2.2 6.5 4.1c2.7 1.9 6.3 4.2 7.9 5.1s4.3 2.5 5.9 3.6c1.7 1.1 4.2 2.6 5.8 3.5 1.5.9 4.4 2.8 6.6 4.3 2.1 1.5 6 4.2 8.7 6.1 9.4 6.6 29.9 21.5 35 25.6 2.8 2.2 6.4 4.9 8 6 1.5 1.1 3.5 2.7 4.3 3.6.9.9 3.8 3.3 6.6 5.4 20.2 15.2 68.2 61.1 92.6 88.6 20.4 22.8 47.9 58.3 64.7 83.3 5.9 8.7 11.1 16.6 11.7 17.5.9 1.5 7.1 11.4 11.1 17.6 1 1.6 2.5 4.1 3.2 5.5s2.3 4.1 3.5 6.2c3.2 5.3 8.2 14.1 9.1 15.8.4.8 2.9 5.5 5.6 10.5 5.6 10.4 13.9 27 19.9 40 2.3 4.9 5.1 10.8 6.1 13 1.1 2.2 3.3 7.6 5.1 12 1.7 4.4 3.5 8.5 4 9.1s1.6 3.1 2.3 5.5c2.7 8.4 4.6 13.4 6 15.9.8 1.4 1.7 4.1 2.1 6s1.6 5.1 2.6 7c1.1 1.9 1.9 4.1 1.9 5 0 .8.9 3.7 1.9 6.5 2.6 6.7 5 13.9 6.5 20.1.8 2.8 1.8 5.9 2.4 7 .5 1 1.5 4.6 2.2 7.9s1.9 7.2 2.6 8.7c.8 1.5 1.4 3.8 1.4 5.2s.9 4.9 1.9 7.8c1.1 2.9 2.3 7.1 2.6 9.3.4 2.2 1.5 7.1 2.5 11 1 3.8 2.3 9.7 2.9 13s1.5 7.8 2 10c2.1 9 4.4 21.6 5.6 31.5.7 5.8 1.5 11.2 1.9 12 1.4 3.3 5.8 47.5 6.6 65.5 1.8 43.9.7 108.5-2.4 133.5-.9 7.4-2 16.9-2.5 21-1.7 14.3-4.2 30.5-6.2 39.5-1 4.9-1.9 10.6-1.9 12.5-.1 1.9-.9 6-2 9s-1.9 6.5-2 7.8c0 2.6-4.3 21-7.1 30.2-1.1 3.6-1.9 7.2-1.9 8s-.8 4.2-1.9 7.5c-1 3.3-2.9 9.4-4.1 13.5-1.3 4.1-3.3 10.6-4.6 14.3-1.3 3.8-2.4 7.7-2.4 8.7 0 1.1-.9 3.4-2 5.2s-2 4.1-2 5.1c0 1.1-.7 3.3-1.5 5-.8 1.8-2.1 5.2-2.9 7.7-3.2 9.7-5.8 16.5-7.2 18.4-.8 1.1-1.4 2.8-1.4 3.8s-.9 3.5-2 5.5c-1.1 2.1-2 4.4-2 5.1 0 .8-.9 3.1-1.9 5.1-1.1 2-2.9 5.8-4.1 8.6-1.2 2.7-3.2 7.2-4.5 10-2.9 6.3-21.2 43.5-22.5 45.5-1.1 1.9-20 35.1-22 38.8-.8 1.5-2.4 4.1-3.5 5.7-1.1 1.7-2.6 3.9-3.2 5-6.4 10.4-8.8 14.1-15.6 23.8-17 24.5-23.6 33.4-40.4 54.2-40.7 50.3-87.2 95.7-135.7 132.5-4.7 3.6-10 7.6-11.7 9-4.5 3.5-17.6 12.8-29.4 20.7-12.1 8.2-12.3 8.3-16.4 10.8-1.8 1.1-5.5 3.5-8.3 5.2-2.7 1.8-7.9 5-11.5 7-3.6 2.1-8.1 4.8-10.1 6-2.1 1.2-5 2.9-6.7 3.8-1.6.9-6.6 3.6-11 6.1-4.4 2.4-10.2 5.6-13 6.9-2.7 1.4-5.7 2.9-6.5 3.4s-2.6 1.4-4 2-3.2 1.5-4 2.1c-.8.5-2.6 1.4-4 2-1.4.5-3.2 1.4-4 1.9s-3.7 1.9-6.5 3.1c-5.2 2.3-13 5.8-20 9-10.8 5-15.5 7-16.5 7-.6 0-2.8.9-4.8 1.9-2 1.1-7.1 3.2-11.2 4.7s-9.3 3.5-11.6 4.5c-2.2 1.1-4.9 1.9-6 1.9s-2.9.7-4 1.4c-1.2.8-4.3 2-7 2.7-2.7.6-5.3 1.5-5.9 2-1 .7-5.1 2-19.7 6-3.7 1-7.6 2.3-8.6 2.8-1.1.6-4.8 1.7-8.3 2.4-3.5.8-7.7 1.9-9.4 2.5-3.4 1.3-12.8 3.6-22.5 5.7-3.6.7-7.8 1.9-9.4 2.5-1.5.6-6 1.5-9.9 2-3.9.6-9 1.7-11.4 2.5s-5.8 1.5-7.6 1.5c-1.7 0-7.5.9-12.7 2-14.6 3-37.3 6.2-50 7.1-6.3.4-13.5 1.1-16 1.4-2.5.4-6.7.9-9.5 1.2-7 .8-118.8.7-125.5 0-3-.4-9.3-1.1-14-1.7-4.7-.5-11-1-14-1s-8.9-.7-13-1.6-8.8-1.8-10.5-1.9c-13-1.4-21.8-2.7-26.5-4-3-.8-6.8-1.5-8.5-1.5-2.7.1-7.9-1-27.5-5.7-3.6-.8-9.2-2.1-12.5-2.9-10.6-2.3-18.9-4.5-22-5.6-1.6-.6-5.9-1.7-9.4-2.4-3.5-.8-7.6-2.1-9.2-2.9-1.5-.8-3.7-1.5-4.9-1.5-1.1 0-3.7-.7-5.8-1.6-2-.9-6.4-2.2-9.6-3-3.3-.8-6.5-1.8-7-2.3-.6-.5-2.7-1.2-4.6-1.6s-5.2-1.6-7.2-2.6c-2.1-1.1-4.5-1.9-5.5-1.9-1.1 0-3.6-.9-5.8-2s-4.3-2-4.7-2c-.5 0-2.5-.7-4.6-1.6-3.9-1.8-9.9-4.1-17.2-6.9-5.6-2-13.4-5.5-27-11.9-3-1.4-6-2.6-6.6-2.6-.7 0-1.7-.6-2.3-1.4-.7-.8-2.7-1.7-4.5-2-1.9-.4-3.9-1.3-4.5-2-.7-.8-2.4-1.7-3.8-2.1-1.5-.3-3.8-1.5-5.1-2.6-1.4-1-3.3-1.9-4.3-1.9s-2.1-.5-2.5-1.1c-.3-.6-2.5-1.9-4.8-3-2.2-1.1-7.7-3.9-12.1-6.4-4.4-2.4-9.8-5.4-12-6.5-2.2-1.2-5.6-3.1-7.7-4.3-2-1.2-6.2-3.7-9.5-5.6-6-3.4-9-5.4-32.8-21-24.3-16-58.4-41.9-81.5-61.8-33.2-28.7-72.8-69.6-98.1-101.3-5.4-6.7-9.2-11.7-23.4-30.1-2.2-2.9-5.6-7.6-7.5-10.4-1.9-2.9-6.9-10.1-11-16.1-8.9-12.9-18.5-27.9-20.2-31.4-.6-1.4-1.9-3.4-2.8-4.5-2.1-2.5-8.6-13.9-21.7-38-5.7-10.5-23.3-46.6-23.3-47.8 0-.4-2-4.9-4.5-10.1-2.5-5.3-4.5-10.1-4.5-10.9 0-.7-.6-2.1-1.4-3.2-.7-1.1-1.8-3.6-2.4-5.5-1.1-3.6-4.2-11.5-7.4-18.6-1-2.2-1.8-4.6-1.8-5.3s-.7-2.7-1.5-4.4c-.8-1.8-2.1-5.5-2.9-8.2-2-6.9-4.4-14.1-6.7-19.7-1-2.6-1.9-5.6-1.9-6.8 0-1.1-.7-3.5-1.6-5.1-.8-1.7-1.9-5.2-2.4-7.7-.4-2.6-1.4-6.7-2.3-9.2-1.6-4.8-4.2-14.6-5.7-22-.5-2.5-1.8-7.9-2.9-12-3.9-15.2-8.4-38.1-10.1-51.5-.5-3.9-1.4-9.5-2-12.5-.5-3-1.7-11.8-2.5-19.5s-1.9-17.6-2.5-22-1.6-23.8-2.2-43c-1.2-39.2 0-93.5 2.6-113.5.8-6.3 1.7-14.9 1.9-19 .3-4.1 1.2-10.9 2.1-15 .8-4.1 1.8-10.4 2.1-14 .4-3.6 1.5-10.2 2.6-14.6 1-4.5 1.9-9.8 1.9-11.7 0-2 .9-5.9 2-8.7s2-6.5 2-8.3.7-6 1.6-9.2c.9-3.3 2.3-8.7 3-12s2-8.7 2.9-12c1.5-5.8 2.4-9 8.1-28 1.4-5 3.5-11.9 4.6-15.5 2.1-7.2 3.2-10.3 12.3-35 6-16.5 11.5-29.8 16.9-41 1.4-3 2.6-5.9 2.6-6.4 0-1.2 23.2-47.7 28-56.1 2.2-3.9 4.9-8.8 6-11 4.2-8.1 5.3-10 6.9-12 .9-1.1 2.7-4 4.1-6.5 1.3-2.5 3.1-5.6 4-7 1-1.4 3.3-5 5.2-8 5.9-9.3 16.5-25.1 22.8-34 3.3-4.7 6.8-9.6 7.8-11q3.9-5.85 20.7-26.7c5.5-6.9 11.1-13.9 12.5-15.7 18.8-24.2 70.4-75.7 100.6-100.3 6.6-5.4 12.7-10.4 13.5-11 11.7-10.1 53-39.8 67.7-48.8 1.9-1.1 5.1-3.2 12.7-8.1 2.8-1.7 6.8-4.2 9-5.5 2.2-1.2 5.6-3.2 7.6-4.3 2-1.2 6.8-3.9 10.5-6 12.1-7 16.5-9.3 35.9-18.9 24.2-12.1 35.4-17.3 38.5-18.2 1.4-.4 3.9-1.6 5.6-2.6 1.7-1.1 3.8-1.9 4.5-1.9.8 0 3.6-1.1 6.3-2.5s5.7-2.5 6.5-2.5c.9 0 2.5-.7 3.5-1.5 1.1-.8 2.7-1.5 3.6-1.5.8 0 3.1-.8 5-1.9 1.9-1 5.1-2.2 7-2.6s5.1-1.6 7-2.6c1.9-1.1 4.3-1.9 5.2-1.9 1 0 3.7-.9 6-1.9 2.4-1 8.4-3.1 13.3-4.6 5-1.5 10.5-3.3 12.3-4.1s5.1-1.7 7.5-2c2.3-.4 6.1-1.5 8.5-2.6 2.4-1 5.3-1.8 6.5-1.8s4.9-.9 8.2-1.9c3.3-1.1 11.4-3.2 18-4.6s13.8-3.1 16-3.6c2.2-.6 6.7-1.5 10-2.1 3.3-.5 9.6-1.8 14-2.8s11.4-2.2 15.5-2.6c4.1-.3 8.5-1 9.7-1.5 1.2-.4 8.9-1.5 17-2.4 8.1-.8 17.3-2 20.3-2.6s14.3-1.4 25-1.9 21.5-1.1 24-1.4c7.1-.6 82.9.4 100 1.4"/><path d="M1045 416c-5.2.4-14 1.3-19.5 1.9s-14.9 1.5-21 2.1c-6 .5-14.1 1.7-18 2.5-3.8.8-8.9 1.5-11.3 1.5-2.3 0-8.2.9-13 1.9-12.5 2.8-23.8 5-30.7 6.1-3.3.6-8 1.7-10.5 2.5s-7.1 1.9-10.2 2.4c-3.2.6-7.1 1.7-8.7 2.6-1.7.8-4.1 1.5-5.5 1.5s-4.9.9-7.8 1.9c-2.9 1.1-7.1 2.2-9.3 2.6-2.2.3-4.9 1.2-6 1.9s-3.8 1.6-6 2c-2.1.4-5.6 1.6-7.7 2.7-2 1-4.8 1.9-6 1.9-1.3 0-4 .9-6.1 2-2 1.1-4.4 2-5.2 2s-3.4.9-5.7 1.9c-2.4 1-7 2.9-10.3 4.1-7.4 2.8-16.7 6.6-22.1 9.1-2.3 1-4.4 1.9-4.8 1.9-1.6 0-44.2 20.9-56.1 27.6-4.4 2.4-9.8 5.4-12 6.5s-8.3 4.6-13.5 7.9c-5.2 3.2-9.9 5.9-10.3 5.9-.4.1-3.2 1.9-6.2 4.1s-5.6 4-5.8 4c-2.2 0-38.4 25.9-56.5 40.5-4.8 3.8-11 8.8-13.7 11-26.1 21-76 71.5-97.3 98.5-10.2 12.9-28.2 36.7-32.2 42.5-7 10.2-13.5 19.7-14.5 21.4-.5.9-2.8 4.5-5.1 8.1s-5.7 9.1-7.5 12.3c-1.9 3.2-4.4 7.4-5.6 9.5-1.3 2-3 5-3.9 6.7-.8 1.6-2.8 5.2-4.4 8-6.2 11.1-30 59.5-30 61.2 0 .3-.8 2.4-1.9 4.7-5 11.1-6.1 13.7-6.1 14.9 0 .6-.7 2.5-1.6 4.2-1.5 2.7-2.4 5.2-6.4 16.5-.7 1.9-2.3 6.3-3.6 9.8-1.3 3.4-2.4 7-2.4 7.8 0 .9-.6 3-1.4 4.7-.8 1.8-2.6 7.2-4.1 12.2-1.4 4.9-3.5 11.7-4.5 15s-2.1 7.6-2.5 9.5-1.3 5.5-2.1 8c-2 6.7-4.3 16.5-5.9 25-.7 4.1-2 10-2.9 13s-1.6 7.1-1.6 9.1-.8 7.2-1.9 11.5c-1 4.4-2.4 13.3-3.1 19.8-.6 6.6-1.6 13-2.1 14.2-.4 1.3-1.1 7.7-1.4 14.1-.4 6.5-1.2 17.4-1.8 24.3-1.6 18.1-1.2 93.5.6 102.5.3 1.6.9 9.1 1.2 16.5s1 15.1 1.5 17 1.6 9.1 2.4 16 2.2 15.2 3 18.5c.9 3.2 1.6 7.5 1.6 9.5 0 1.9.8 6.4 1.9 10 1 3.6 2.1 9.2 2.6 12.5.4 3.3 1.3 7.4 2 9.2.8 1.8 1.7 5.4 2.1 8s1.5 7 2.5 9.6c1.1 2.6 1.9 5.9 1.9 7.3 0 2.3 1.5 7.5 5.7 20.4.8 2.5 2 6.7 2.7 9.5.7 2.7 1.8 6 2.4 7.1.6 1.2 1.6 3.9 2.1 6 1.5 5.8 6 18.6 7 19.8.4.6 1.1 2.2 1.4 3.6.5 2.6 3.6 10.4 6.8 17.6 1.1 2.3 1.9 4.5 1.9 4.9s1.2 3.3 2.6 6.4c3 6.5 4.2 9.3 7.9 17.6 1.4 3.3 3 6.7 3.5 7.5.6.8 1.5 2.6 2 4 .6 1.4 1.5 3.3 2 4.2.6 1 1.4 2.6 2 3.5.5 1 1.4 2.9 2 4.3.5 1.4 1.4 3.2 2 4 .5.8 1.5 2.6 2 4 .6 1.4 2.2 4.5 3.6 7s4.4 7.9 6.6 12c2.3 4.1 4.9 9 5.9 10.9 1 1.8 2.4 4.1 3.2 5s1.7 2.3 2.1 3.1 1.8 3.3 3.1 5.5 3.2 5.3 4.1 7c.9 1.6 3.4 5.3 5.6 8.2 2.1 2.9 3.8 5.6 3.8 6.1s1.7 3.1 3.9 5.8c2.1 2.7 4.4 6 5.1 7.4s3.2 5 5.5 8 6.1 8.2 8.6 11.5c2.4 3.3 4.6 6.2 4.9 6.5s1.7 2.1 3 4c12.5 17.7 49.8 59.1 74.1 82 21.1 19.9 46.7 42.2 53.9 46.8 1.4.9 5.7 4.2 9.5 7.2 3.9 3.1 9.2 7.2 11.9 9.1s9.2 6.4 14.5 10.1c5.3 3.8 10.6 7.2 11.8 7.7 1.1.6 2.4 1.5 2.8 2.1.4.7 2.2 1.8 3.9 2.6s6.5 3.7 10.6 6.4 8.9 5.7 10.5 6.5c1.7.9 4.8 2.7 7 4s5.6 3.3 7.5 4.3 5.8 3.2 8.6 4.9 6.2 3.4 7.5 3.8 3 1.2 3.7 1.8c2.5 2 9.3 5.5 18.2 9.4 3 1.4 6.2 2.9 7 3.4s2.6 1.4 4 2c4 1.6 11.2 4.9 15.5 6.9 2.2 1.1 6.9 3.1 10.5 4.6 3.6 1.4 8.3 3.4 10.6 4.5 2.2 1 4.6 1.9 5.4 1.9.7 0 3.1.8 5.4 1.9 3.8 1.7 5.8 2.4 13.9 5.2 1.7.6 5.5 1.9 8.2 2.9 2.8 1 7 2.5 9.5 3.3s5.9 1.9 7.5 2.5c1.7.5 6.4 2 10.5 3.2 4.1 1.1 10.4 3 14 4.1 8 2.4 17.9 4.9 24.5 6.2 2.8.5 7.9 1.8 11.4 2.8 3.5 1.1 7.8 1.9 9.4 1.9s5.4.7 8.4 1.6c5.6 1.6 10 2.3 41.8 6.7 9.9 1.4 18.7 2.8 19.6 3.2 3 1.2 57.2 3.8 78.9 3.8 24.3 0 75.7-2.7 80.8-4.2 1.8-.5 8.5-1.5 15-2.1 6.4-.6 14.4-1.8 17.7-2.6 3.3-.7 9.6-1.8 14-2.3 4.4-.6 10.3-1.7 13-2.5 2.8-.9 6.4-1.6 8.1-1.6s6-.8 9.5-1.9c3.5-1 8.7-2.3 11.4-2.8 6.6-1.3 16.5-3.8 24.5-6.2 3.6-1.1 9.9-3 14-4.1 10.5-3 15.4-4.7 25.8-8.6 3.4-1.3 7.1-2.4 8.2-2.4s3.4-.9 5.2-2 4.2-2 5.3-2 3.4-.7 5-1.6c1.7-.9 5.1-2.2 7.7-3s5-1.9 5.3-2.4c.3-.6 1.3-1 2.1-1 1.6 0 9.2-3.3 26.5-11.4 3.1-1.4 6.1-2.6 6.6-2.6.6 0 1.6-.6 2.2-1.4.7-.8 2.7-1.8 4.4-2.2 1.8-.3 4.4-1.5 5.9-2.5 1.4-1.1 3.3-1.9 4.1-1.9s2.6-.9 4-2 2.9-2 3.5-2c.5 0 2-.8 3.3-1.9 1.3-1 3.4-2.1 4.5-2.5 2.1-.6 9.6-4.7 17.3-9.3 2-1.2 5-2.9 6.6-3.8 1.7-.8 4.8-2.7 7-4s5.2-3.1 6.7-4c1.5-.8 4.3-2.5 6.1-3.8 1.9-1.2 5.6-3.6 8.3-5.2 5.8-3.6 6.6-4.2 19.1-12.7 44.6-30.6 86.7-67.3 123.8-107.7 21.1-23.2 34.5-39.6 57.8-71.6 13.3-18.2 28.4-42.2 40.2-64 2.1-3.9 4.3-7.7 5-8.5s1.6-2.6 2-4 1.3-3.2 2-4c2.1-2.4 10.3-18.9 11-22 .3-1.6 1.2-3.4 2-4s1.7-2.4 2-4 1.3-3.4 2.1-4.1c.8-.6 1.4-1.8 1.4-2.7 0-1.4 1.2-4.3 7.1-16.7 1.1-2.2 1.9-4.5 1.9-5 0-.6 1.2-3.3 2.5-6 1.4-2.8 2.5-5.8 2.5-6.7s.4-2 1-2.3c.5-.3 1.6-2.7 2.4-5.3.9-2.6 2.9-8.5 4.6-13.2s3.7-10.5 4.5-13c2.2-7.3 4.6-14.3 6.1-18 .8-1.9 1.8-5.9 2.4-8.7.5-2.9 1.6-6.5 2.3-8 .8-1.6 1.8-5.1 2.2-7.8.4-2.8 1.1-5.8 1.7-6.8.5-1 1.5-4.8 2.3-8.5s2.1-9.9 3-13.7c3.8-16.9 5.5-25.4 6.4-31.5.5-3.6 1.4-8.3 2-10.5 1.3-4.8 3.8-24.8 5.1-40.5.5-6.3 1.5-17.1 2.1-24 1.8-19.5 2.5-49.5 1.6-72.5-1-26.9-1.3-33.2-2-37.5-.4-1.9-.9-8.7-1.2-15s-1.5-16.4-2.5-22.4c-1.1-6-2-12.6-2-14.5 0-2-.7-6.5-1.5-10.1-.9-3.6-2-10-2.5-14.2-.6-4.3-1.6-9.5-2.4-11.5-.8-2.1-1.7-6.4-2-9.7-.4-3.2-1.1-6.7-1.7-7.8-.6-1-1.5-4.7-2-8.1s-1.8-8.9-2.8-12.2-2.4-7.9-3-10.3c-2.6-9.9-3.5-13-5.1-17.7-1-2.8-2.3-6.8-2.8-9-1.3-5.1-3.9-12.7-6.1-18.5-2.1-5.1-3.7-9.5-5.8-16-.9-2.5-2.4-6.3-3.4-8.6-1.1-2.2-1.9-4.5-1.9-5.1s-.7-2.4-1.5-4c-.8-1.5-2.6-5.7-4.1-9.3-5.1-12.6-27.3-58.4-30.6-63.2-1-1.4-1.8-3.3-1.8-4 0-.8-.9-2.3-2-3.3s-2-2.2-2-2.7c0-.8-5.4-10.3-9.5-16.9-.5-.9-2-3.4-3.3-5.5-2.8-4.9-4.2-7.1-6.7-10.9-1.1-1.6-2.4-3.7-3-4.6-1.2-1.9-12.6-18.8-18.2-26.9-26-37.4-68-84.2-105.8-118.1-15-13.4-45.8-38.9-47-38.9-.3 0-3.1-1.9-6-4.3-3-2.3-7-5.3-9-6.7s-5.9-4.2-8.8-6.3c-2.9-2-9.5-6.5-14.7-9.8-5.2-3.4-10.6-7-12-8-1.4-1.1-3.4-2.3-4.5-2.8s-6-3.4-11-6.5c-4.9-3.1-10.6-6.4-12.5-7.4s-6.9-3.8-11-6.1-16.7-8.6-28-14.1-22.2-10.9-24.2-12-4.3-2-5-2-2.6-.7-4.3-1.6c-4-2-14.3-6.1-17.7-6.9-1.5-.4-3.2-1.3-3.9-2.1-.6-.7-2.7-1.6-4.8-2-2-.4-5-1.5-6.7-2.5-1.7-1.1-4.1-1.9-5.3-1.9-1.1 0-3.8-.9-5.8-2-2.1-1.1-4.8-2-6.1-2-1.2 0-4-.9-6-1.9-2.1-1.1-5.6-2.3-7.7-2.7-2.2-.4-4.9-1.3-6-2-1.1-.6-3.6-1.5-5.5-1.8-1.9-.4-6.6-1.6-10.5-2.7-20.5-6.1-29.8-8.4-39.5-10.1-3-.5-7.6-1.6-10.1-2.4s-7.7-1.9-11.5-2.3c-3.8-.5-10.5-1.6-14.9-2.4-4.4-.9-11.6-2.1-16-2.7s-10.3-1.4-13.1-1.9-12.3-1.5-21-2.1c-8.8-.6-17.2-1.6-18.9-2.2-3.7-1.2-82.8-1.9-96.5-.8m95 391.4c5.8 1 13.2 2.1 16.5 2.5 3.3.3 6.6 1 7.3 1.4.7.5 5.4 1.9 10.5 3.1 12.1 3.1 26.2 8 36.2 12.6 4.4 2 10.7 5 14 6.5 3.3 1.6 7.1 3.6 8.5 4.5 1.4 1 6 3.6 10.3 5.8 4.3 2.3 9.9 6 12.6 8.2 2.6 2.2 5.2 4 5.8 4 .7 0 6.5 4.3 13 9.6 14.4 11.8 35.9 33.6 41.9 42.4 2.4 3.6 6.5 9.1 9.1 12.2 7.5 9 9.3 11.5 9.3 13.1 0 .8.8 2.5 1.9 3.8 1 1.3 2.2 3.5 2.6 4.9s1.5 3.6 2.5 5c3.5 5.1 10 16.2 10 17.2 0 .5.8 2.2 1.9 3.6 1 1.5 2.2 4.7 2.6 7.2.4 2.4 1.3 5.4 2 6.5s1.8 4.7 2.5 8 1.9 7.2 2.6 8.7c.8 1.5 1.4 3.7 1.4 5s.9 3.4 2 4.8 2 4 2 5.7c0 1.8.6 5 1.4 7 6.1 16.1 6.7 89.1 1 109.8-.9 3.3-2 7.9-2.4 10.2-.3 2.3-1.2 4.8-1.8 5.5-.6.8-1.5 3.2-2.1 5.3-.5 2.2-1.7 6.1-2.5 8.7-.9 2.7-2.3 6.9-3.2 9.5-.8 2.7-2 6.8-2.6 9.2s-1.9 5.8-2.9 7.5-1.9 3.7-1.9 4.5c0 1.3-4.3 8.2-11.1 18.3-1.1 1.5-1.9 3.6-1.9 4.7s-.4 2.2-.9 2.5-1.8 2.5-2.9 4.8c-1.2 2.4-3.9 6.5-6.1 9.3-2.3 2.7-6.8 8.6-10 13-9.6 12.9-11.2 14.8-15.7 18.5-2.3 1.9-6.2 6.1-8.5 9.2-2.3 3.2-4.5 5.8-4.9 5.8-1 0-11.3 8-15.5 12-2.2 2.2-7.6 6.3-12 9.3-4.4 2.9-10.9 7.2-14.4 9.6s-8.2 5.1-10.5 6.2c-2.2 1-5.6 2.9-7.5 4.3-1.8 1.4-6.6 3.7-10.7 5.2-4 1.4-8.1 3.5-9 4.5-.9 1.1-2.7 1.9-3.9 1.9-1.3 0-4.2.9-6.6 2s-5.3 2-6.5 2c-1.1 0-2.9.9-3.9 2-1.1 1.2-3.1 2-5.2 2-1.8 0-4.1.4-5.1.9-.9.5-4.4 1.5-7.7 2.1-3.3.7-8.2 1.8-11 2.6-8.5 2.3-16.7 3.7-23.5 4-3.6.1-10.3.8-15 1.5-10.6 1.6-30.1 1.7-40 .2-4.1-.6-12.9-1.7-19.5-2.3-7-.7-14-2-16.8-3.1-2.7-1.1-5.6-1.9-6.5-1.7-1.6.3-8-1.3-13-3.3-1.3-.5-3.2-.9-4.3-.9-1.2 0-3.3-.6-4.7-1.4-1.5-.8-4.3-1.7-6.3-2.1-2.1-.3-4.8-1.4-6.2-2.5s-3.3-2-4.2-2c-1.7 0-10.1-3.6-17-7.2-2.2-1.1-7.9-4-12.6-6.4s-9.4-5.3-10.4-6.4c-2.4-2.6-8.2-2.6-11.5 0-1.4 1.1-3.1 2-3.8 2s-3.6 1.6-6.4 3.7c-2.9 2-7.2 4.2-9.5 4.9-2.4.7-6.4 2.9-8.9 4.9-2.6 1.9-5.2 3.5-5.7 3.5-1.6 0-14.7 6.9-18.2 9.6-1.6 1.2-4.3 2.6-6 3-1.6.4-4.6 1.7-6.5 2.8-10.8 6.6-20 11.6-21.1 11.6-.6 0-2.9 1.3-5.2 2.9-2.3 1.5-7.3 4.3-11.2 6.1-3.8 1.8-8.3 4.3-10 5.5-1.6 1.2-7.3 4.4-12.5 6.9-12.9 6.4-18.1 9.3-20.5 11.1-4.5 3.5-7.8-.1-3.5-4 1.1-1 2.2-2.7 2.6-3.9.7-2.2 5.8-13.1 7.3-15.6 2.1-3.4 4.9-11.8 5.6-16.7.4-3.1 1.4-5.8 2.6-6.9 1-.9 1.9-2.3 1.9-3 0-.8.9-2.8 2-4.6s2-4 2-4.8.9-2.6 2-4 2-3.2 2-4.1.9-2.7 1.9-4.1c2.5-3.1 7.1-15.2 7.1-18.5 0-1.4.8-3.7 1.8-5.1 1-1.5 2.8-5 4-7.7 1.2-2.8 2.8-6.6 3.7-8.5.8-1.9 2.8-5.8 4.5-8.5 1.6-2.8 3-5.9 3-7s.9-3.5 2-5.3 2-4.8 2-6.6.8-4.4 1.9-5.7c1-1.3 3.3-5.8 5.1-9.9s3.6-7.9 4.1-8.5c1.8-1.9.8-4.7-4.2-12-4.6-6.8-6.1-9.9-10.5-21.6-1.6-4.6-5.3-11.9-6.9-13.9-.7-.8-1.5-2.9-1.9-4.5-.9-3.9-4.4-13.1-6.7-17.6-1.2-2.3-1.9-5.8-1.9-9 0-3-.5-7-1-8.9-1.3-4.5-3.7-20.5-4.4-29.6-.3-3.9-1.3-9-2.1-11.4-2.1-5.9-2.1-34.9-.1-38.9.8-1.5 1.8-6.3 2.1-10.7.7-10.3 2.3-21.4 4.1-29 .8-3.3 1.4-8.5 1.4-11.6 0-4 .5-6.2 2-8.1 1.1-1.4 2-3.2 2-4s.9-3.4 2-5.8 2-5.4 2-6.6 1.1-3.5 2.5-5.1c1.4-1.7 2.5-3.5 2.5-4.1 0-.7.9-2.9 1.9-4.9 2.4-4.5 5.8-12.8 6.7-16.2.3-1.4 1.2-3.2 1.9-4s2.5-3.8 4.1-6.5c1.5-2.8 4.5-7 6.5-9.5s4.3-5.7 5-7.1c4.7-8.9 6.7-11.8 13.3-18.7 4-4.2 8.8-9.7 10.7-12.2s7-7.8 11.5-11.7c4.4-3.9 9.2-8.5 10.6-10.1 1.3-1.6 4.4-4.2 6.9-5.8 2.4-1.6 7.1-5.2 10.4-8s9.6-7.1 13.9-9.5c4.4-2.3 9.3-5.5 11-6.9 1.7-1.5 5.1-3.4 7.6-4.4s5.6-2.5 7-3.4c5.6-3.6 13.1-7.2 15.1-7.2 1.2 0 4.3-1.2 6.7-2.6 2.5-1.5 5.9-3 7.6-3.5 1.7-.4 4.5-1.2 6.1-1.7 12.7-4.3 19.5-6.2 22.5-6.2 1.9-.1 4.4-.7 5.4-1.5 1.1-.8 3.5-1.5 5.3-1.5s5.2-.4 7.5-1c13.8-3.2 22.9-3.9 48.3-3.6 19 .2 28.8.8 36.5 2"/><path d="M1078.9 840c-5.8.4-11.1 1-11.6 1.3-.6.4-4.3 1.1-8.4 1.7-7.9 1.2-23.3 5.1-31.4 8-12.3 4.3-20.1 7.3-21.5 8.1-3.4 2-13.8 6.9-14.7 6.9-.5 0-3.6 1.8-6.7 4-3.2 2.2-8.3 5.4-11.4 6.9-3.2 1.6-8.2 5.1-11.2 7.7s-7.2 5.8-9.3 7.1c-5 3.2-31.4 29.1-33.4 32.7-.8 1.6-5 6.9-9.2 11.8-7.6 8.9-13.1 17.6-13.1 20.8 0 1-.7 2.3-1.6 3.1-.9.7-3.1 4.2-5 7.8-2 3.6-4.8 8.8-6.4 11.6-3 5.2-7.4 17.9-8.5 25-.4 2.2-1 4.4-1.5 5-.9 1.1-4.8 15.4-6.2 23-.5 2.7-1.4 7-2 9.5-2.6 11.2-2.9 15.9-2.6 39.5.4 20.3.7 25.8 2.1 29.4.9 2.4 1.7 6.1 1.7 8.3 0 2.1.6 5.4 1.4 7.2.8 1.9 2 6 2.6 9.3.7 3.2 1.8 6.9 2.5 8.3s1.8 5 2.3 8.1c1.5 7.7 4.8 17.5 7.9 22.9 4.1 7.2 7.5 13.3 9 16.2.8 1.5 1.8 3 2.3 3.3s1.4 2.2 2.1 4.3c1 3.1 6 11.3 11.7 19.1 1 1.5.9 2.2-.6 4.2-1.1 1.3-2.3 3.5-2.7 4.9s-1.3 3.2-2 4c-1.5 1.9-6.5 15.9-6.5 18.3 0 1-.9 3.5-2 5.5-9.7 18.2-19 39.5-19 43.6 0 1.2-1.1 3.7-2.5 5.6-5 6.8-2.3 9.8 4.6 5.2 2.4-1.7 7-4.1 10.1-5.5 3.2-1.4 7.7-3.9 10-5.5 2.4-1.6 7.2-4.2 10.8-5.8 3.6-1.5 7.9-3.8 9.5-5 1.7-1.2 6.6-3.9 11-6 4.4-2 9.3-4.6 10.9-5.8 5-3.4 14-7.5 16.5-7.6 1.4 0 3.5.9 4.7 2.1 6.1 5.7 40.1 24.3 52.9 28.9 17 6.1 22.9 8 24.6 8 1.1 0 3.6.7 5.7 1.6 2 .9 7.8 2.2 12.7 2.9 5 .8 11.9 1.9 15.5 2.6 4 .8 15.2 1.3 29 1.2 18.6 0 24.8-.4 35.5-2.2 15.7-2.7 30.1-5.9 33.5-7.6 1.4-.7 5-1.8 8-2.5s9.1-3 13.4-5.2c4.4-2.1 8.7-3.8 9.5-3.8.9 0 3.9-1.4 6.6-3 2.8-1.6 8.8-4.9 13.5-7.5 4.7-2.5 10.8-6.3 13.5-8.5 2.8-2.2 6.3-4.6 7.9-5.4 3.7-1.8 19.3-15.2 26.8-23.1 15.3-16 25.8-27.9 25.8-29.2 0-.9 1.6-3.7 3.5-6.2 13.1-17.9 17.5-25.4 17.5-29.8 0-1.6 1-4.4 2.3-6.3 1.2-1.9 3.3-6 4.6-9 1.2-3 3.1-7.3 4.2-9.5 6.9-14.8 9.7-29.3 11-57.1 1.9-39.4-1.1-77.7-7.2-91-1-2.4-1.9-4.9-1.9-5.6s-.9-2.7-2-4.3c-1.1-1.7-2-3.6-2-4.3 0-1.7-4.9-12.2-6.5-14.2-.7-.8-1.8-3.9-2.4-6.8-1.2-5.6-8.4-17.7-16.7-27.8-2.4-3-4.4-6.3-4.4-7.3 0-2.1-10.4-14.2-24.1-28.1-12.4-12.5-22-20.8-29.4-25.5-3.3-2.1-7.8-5.2-10-6.9-2.2-1.8-7.8-5.2-12.5-7.6s-9.6-5.1-10.9-6.2c-1.3-1-2.9-1.8-3.5-1.8-.6-.1-2.9-.9-5.1-2s-4.4-1.9-4.9-2c-.5 0-3.2-1.1-6-2.4s-10.3-4-16.6-6c-29-9-58.3-12-94.1-9.6m-52.5 107.9c2.2 2.1 4.5 6.4 10.2 18.8 1.5 3.2 3.2 7 4 8.4 1.2 2.4 2 4.8 6 19.4.8 2.7 2.2 6.6 3.2 8.5s2.7 6 3.7 9.1c1.8 5.6 1.8 5.7-.4 10-1.3 2.4-2.6 4.6-3 4.9s-1.8 2.1-3.1 4-5.6 6.8-9.4 10.8c-6.9 7.2-7.1 7.5-7.1 12.6 0 4.7.6 6.1 6.6 15.1 3.6 5.5 7.6 12.1 9 14.8 1.3 2.6 7 9.8 12.7 15.9 5.6 6.2 10.2 11.5 10.2 11.9s2.4 2.5 5.2 4.6c2.9 2.1 7.8 6 10.9 8.8 3.1 2.7 7.9 6.1 10.5 7.5 2.7 1.4 7 4 9.6 5.8 2.5 1.8 7.2 4.1 10.2 5.2 3.1 1 6.2 2.3 6.9 2.7 4.8 3.1 13.2 4.1 17 2.2 2-1.1 14.5-12.8 27.1-25.5 6.1-6.1 8.3-7.4 13.1-7.4 3.8 0 7 1.3 13.1 5.5 2 1.3 6.2 3.7 9.3 5.1 3.1 1.5 7 3.7 8.6 4.9 1.7 1.3 6.3 4 10.4 6.1 10.3 5.1 19.9 12 21.6 15.4 1.1 2.1 1.5 6.4 1.5 15.7 0 14.7-.6 16.4-9.2 26.7-6.4 7.7-7.5 8.5-18.8 13.3-7.3 3.2-11.8 4.4-19.5 5.4-13.6 1.6-40.4.6-50.5-2-4.1-1-9.5-2.2-12-2.6s-6.1-1.6-8-2.6c-1.9-1.1-4.3-1.9-5.2-1.9-1.6 0-7.2-2.4-12.8-5.5-1.4-.8-6.1-3.3-10.4-5.5-4.3-2.3-10.8-6.4-14.3-9.1s-6.8-4.9-7.2-4.9-3.6-2.5-7.2-5.6c-3.5-3.1-8.2-6.8-10.4-8.2s-7.2-5.7-11.2-9.6c-3.9-3.9-10.3-9.8-14.2-13-3.9-3.3-7.1-6.5-7.1-7.1 0-.7-4.9-6.4-11-12.6-6-6.3-11-12.1-11-12.9s-3.8-6-8.5-11.5c-4.6-5.5-9.4-12-10.6-14.5-4.9-10-7.3-14.6-8.4-16-.7-.8-2.9-4.7-5-8.5-2-3.9-4.1-7.5-4.5-8-.4-.6-1.9-4.4-3.2-8.5-2.1-7-2.3-9.1-2.3-31 0-21.4.2-24 2.1-29.1 2.7-6.9 7.7-14.1 17.2-24.6 8.5-9.3 11.1-10.6 23.7-12.3 5-.7 9.5-1.4 10-1.6 2.7-1 9.8.5 11.9 2.5"/></svg>